<?xml version="1.0" encoding="utf-8"?>
<!-- Generator: Adobe Illustrator 27.5.0, SVG Export Plug-In . SVG Version: 6.00 Build 0)  -->
<svg version="1.1" xmlns="http://www.w3.org/2000/svg" xmlns:xlink="http://www.w3.org/1999/xlink" x="0px" y="0px"
	 viewBox="0 0 500 500" style="enable-background:new 0 0 500 500;" xml:space="preserve">
<g id="BACKGROUND">
	<rect style="fill:#FFFFFF;" width="500" height="500"/>
</g>
<g id="DESIGNED_BY_FREEPIK">
	<g>
		<g>
			<path style="fill:#211E23;" d="M180.307,480.67v-0.161c-0.217,0.249-0.432,0.453-0.645,0.608
				c-0.211,0.157-0.44,0.274-0.688,0.355c-0.247,0.084-0.517,0.122-0.81,0.122c-0.389,0-0.749-0.082-1.078-0.245
				c-0.331-0.165-0.616-0.399-0.858-0.704c-0.241-0.304-0.424-0.662-0.549-1.074c-0.125-0.411-0.188-0.857-0.188-1.335
				c0-1.015,0.248-1.804,0.742-2.37c0.494-0.565,1.146-0.849,1.953-0.849c0.467,0,0.861,0.08,1.182,0.241
				c0.32,0.16,0.633,0.408,0.938,0.737v-2.39c0-0.335,0.066-0.585,0.199-0.755c0.132-0.17,0.321-0.256,0.566-0.256
				c0.246,0,0.434,0.078,0.568,0.234c0.131,0.157,0.199,0.388,0.199,0.692v7.147c0,0.309-0.071,0.54-0.215,0.695
				c-0.143,0.152-0.326,0.229-0.553,0.229c-0.221,0-0.404-0.079-0.549-0.239C180.379,481.194,180.307,480.966,180.307,480.67z
				 M177.12,478.289c0,0.439,0.068,0.813,0.204,1.123c0.137,0.308,0.323,0.54,0.561,0.696c0.238,0.156,0.497,0.235,0.778,0.235
				c0.284,0,0.544-0.074,0.78-0.223c0.235-0.148,0.424-0.376,0.563-0.684c0.142-0.306,0.212-0.69,0.212-1.148
				c0-0.432-0.07-0.803-0.212-1.113c-0.14-0.311-0.329-0.548-0.569-0.713c-0.24-0.163-0.501-0.245-0.787-0.245
				c-0.297,0-0.561,0.084-0.795,0.252c-0.234,0.168-0.414,0.409-0.543,0.724C177.184,477.509,177.12,477.873,177.12,478.289z"/>
			<path style="fill:#211E23;" d="M187.453,478.699h-3.169c0.004,0.368,0.077,0.692,0.222,0.973
				c0.145,0.281,0.338,0.494,0.576,0.635c0.24,0.143,0.504,0.214,0.793,0.214c0.193,0,0.371-0.022,0.531-0.066
				c0.16-0.047,0.315-0.118,0.466-0.216c0.149-0.096,0.29-0.2,0.415-0.311c0.127-0.111,0.291-0.263,0.493-0.451
				c0.083-0.071,0.201-0.107,0.356-0.107c0.166,0,0.301,0.046,0.402,0.138c0.104,0.091,0.156,0.218,0.156,0.386
				c0,0.145-0.059,0.315-0.173,0.513c-0.116,0.196-0.288,0.384-0.52,0.564c-0.23,0.181-0.521,0.329-0.873,0.448
				c-0.348,0.12-0.752,0.178-1.207,0.178c-1.041,0-1.85-0.297-2.428-0.89c-0.577-0.593-0.866-1.398-0.866-2.416
				c0-0.479,0.071-0.924,0.214-1.332c0.143-0.41,0.35-0.762,0.622-1.054c0.273-0.293,0.61-0.518,1.009-0.674
				c0.4-0.156,0.844-0.234,1.332-0.234c0.632,0,1.175,0.133,1.627,0.399c0.455,0.268,0.794,0.613,1.02,1.035
				c0.226,0.424,0.339,0.855,0.339,1.294c0,0.409-0.118,0.673-0.35,0.794C188.207,478.638,187.877,478.699,187.453,478.699z
				 M184.284,477.779h2.939c-0.039-0.554-0.19-0.97-0.448-1.244c-0.26-0.276-0.601-0.412-1.024-0.412
				c-0.404,0-0.736,0.139-0.994,0.417C184.496,476.819,184.339,477.232,184.284,477.779z"/>
			<path style="fill:#211E23;" d="M194.838,479.477c0,0.446-0.107,0.829-0.326,1.148c-0.219,0.318-0.539,0.56-0.965,0.725
				c-0.426,0.163-0.943,0.245-1.553,0.245c-0.581,0-1.08-0.088-1.496-0.268c-0.416-0.177-0.723-0.399-0.92-0.666
				c-0.197-0.268-0.297-0.536-0.297-0.806c0-0.179,0.063-0.329,0.191-0.456c0.125-0.126,0.286-0.189,0.48-0.189
				c0.17,0,0.299,0.041,0.391,0.125c0.092,0.082,0.178,0.199,0.262,0.349c0.166,0.29,0.365,0.504,0.597,0.648
				c0.231,0.142,0.547,0.214,0.947,0.214c0.324,0,0.591-0.074,0.798-0.218c0.208-0.145,0.311-0.31,0.311-0.496
				c0-0.285-0.107-0.491-0.323-0.622c-0.217-0.13-0.572-0.257-1.066-0.375c-0.557-0.138-1.012-0.284-1.361-0.438
				c-0.351-0.151-0.631-0.352-0.84-0.602c-0.211-0.249-0.316-0.556-0.316-0.921c0-0.322,0.098-0.631,0.291-0.92
				c0.194-0.287,0.48-0.519,0.859-0.691c0.378-0.172,0.834-0.259,1.367-0.259c0.42,0,0.798,0.043,1.131,0.132
				c0.335,0.085,0.613,0.204,0.838,0.35c0.223,0.146,0.395,0.309,0.51,0.486c0.117,0.178,0.174,0.353,0.174,0.522
				c0,0.186-0.061,0.339-0.185,0.458c-0.125,0.117-0.302,0.179-0.532,0.179c-0.166,0-0.309-0.048-0.424-0.145
				c-0.117-0.094-0.25-0.236-0.402-0.426c-0.121-0.159-0.266-0.286-0.432-0.382c-0.167-0.095-0.392-0.142-0.678-0.142
				c-0.293,0-0.535,0.061-0.729,0.188c-0.194,0.124-0.29,0.279-0.29,0.465c0,0.172,0.07,0.31,0.212,0.419
				c0.144,0.109,0.335,0.2,0.577,0.27c0.24,0.071,0.572,0.158,0.998,0.261c0.502,0.123,0.912,0.27,1.23,0.439
				c0.318,0.17,0.56,0.37,0.725,0.603C194.756,478.916,194.838,479.18,194.838,479.477z"/>
			<path style="fill:#211E23;" d="M196.494,474.253c-0.227,0-0.419-0.07-0.58-0.208c-0.16-0.138-0.239-0.335-0.239-0.589
				c0-0.229,0.081-0.416,0.245-0.566c0.164-0.148,0.357-0.223,0.574-0.223c0.209,0,0.395,0.066,0.558,0.202
				c0.162,0.135,0.243,0.33,0.243,0.587c0,0.251-0.08,0.444-0.238,0.585C196.898,474.182,196.711,474.253,196.494,474.253z
				 M197.295,475.926v4.685c0,0.324-0.078,0.569-0.23,0.735c-0.156,0.166-0.352,0.249-0.589,0.249c-0.237,0-0.431-0.084-0.579-0.255
				c-0.148-0.17-0.222-0.413-0.222-0.729v-4.637c0-0.319,0.073-0.561,0.222-0.724c0.148-0.162,0.342-0.244,0.579-0.244
				c0.237,0,0.433,0.082,0.589,0.244C197.217,475.412,197.295,475.639,197.295,475.926z"/>
			<path style="fill:#211E23;" d="M204.395,476.193v4.707c0,0.538-0.058,1.002-0.174,1.391c-0.113,0.387-0.298,0.707-0.552,0.961
				c-0.253,0.253-0.585,0.441-0.993,0.563c-0.409,0.123-0.92,0.185-1.529,0.185c-0.557,0-1.057-0.078-1.496-0.234
				c-0.438-0.158-0.776-0.359-1.015-0.605c-0.237-0.248-0.356-0.502-0.356-0.764c0-0.197,0.068-0.359,0.201-0.482
				c0.135-0.127,0.299-0.189,0.488-0.189c0.236,0,0.445,0.105,0.623,0.316c0.087,0.106,0.176,0.214,0.27,0.323
				c0.094,0.109,0.197,0.202,0.309,0.279c0.113,0.077,0.248,0.134,0.407,0.173c0.157,0.036,0.341,0.055,0.546,0.055
				c0.42,0,0.745-0.058,0.977-0.175c0.232-0.116,0.395-0.28,0.486-0.49c0.093-0.208,0.148-0.433,0.164-0.674
				c0.016-0.238,0.027-0.623,0.035-1.154c-0.25,0.349-0.537,0.614-0.864,0.796c-0.326,0.182-0.716,0.273-1.165,0.273
				c-0.543,0-1.016-0.139-1.423-0.417c-0.405-0.276-0.718-0.663-0.935-1.163c-0.217-0.498-0.326-1.074-0.326-1.727
				c0-0.486,0.065-0.927,0.199-1.317c0.133-0.394,0.32-0.723,0.566-0.992c0.244-0.269,0.527-0.472,0.848-0.608
				c0.32-0.136,0.673-0.205,1.057-0.205c0.459,0,0.857,0.09,1.195,0.264c0.336,0.177,0.648,0.453,0.938,0.829v-0.22
				c0-0.28,0.068-0.498,0.207-0.653c0.139-0.153,0.317-0.231,0.534-0.231c0.313,0,0.52,0.103,0.622,0.307
				C204.343,475.516,204.395,475.81,204.395,476.193z M199.697,478.248c0,0.656,0.145,1.153,0.432,1.489
				c0.287,0.337,0.658,0.505,1.113,0.505c0.269,0,0.522-0.072,0.762-0.217c0.24-0.145,0.435-0.363,0.586-0.653
				c0.148-0.29,0.225-0.644,0.225-1.06c0-0.66-0.145-1.176-0.436-1.543c-0.292-0.367-0.674-0.552-1.148-0.552
				c-0.465,0-0.836,0.176-1.113,0.528C199.838,477.098,199.697,477.598,199.697,478.248z"/>
			<path style="fill:#211E23;" d="M206.97,475.903v0.195c0.284-0.377,0.596-0.651,0.935-0.828c0.338-0.176,0.727-0.265,1.166-0.265
				c0.428,0,0.81,0.095,1.146,0.279c0.336,0.187,0.588,0.449,0.754,0.789c0.106,0.198,0.176,0.412,0.207,0.642
				c0.031,0.23,0.049,0.523,0.049,0.879v3.016c0,0.324-0.074,0.569-0.224,0.735c-0.147,0.166-0.341,0.249-0.579,0.249
				c-0.241,0-0.437-0.084-0.586-0.255c-0.152-0.17-0.227-0.413-0.227-0.729v-2.702c0-0.533-0.074-0.942-0.223-1.226
				c-0.148-0.282-0.443-0.425-0.889-0.425c-0.287,0-0.551,0.087-0.788,0.26c-0.237,0.172-0.413,0.408-0.522,0.709
				c-0.08,0.241-0.119,0.692-0.119,1.354v2.03c0,0.327-0.076,0.574-0.229,0.739c-0.151,0.163-0.35,0.245-0.59,0.245
				c-0.234,0-0.426-0.084-0.576-0.255c-0.15-0.17-0.227-0.413-0.227-0.729v-4.685c0-0.309,0.068-0.539,0.202-0.691
				c0.134-0.152,0.318-0.229,0.552-0.229c0.143,0,0.273,0.034,0.387,0.102c0.113,0.067,0.207,0.168,0.275,0.302
				C206.936,475.544,206.97,475.709,206.97,475.903z"/>
			<path style="fill:#211E23;" d="M216.828,478.699h-3.169c0.003,0.368,0.079,0.692,0.222,0.973
				c0.146,0.281,0.338,0.494,0.576,0.635c0.24,0.143,0.504,0.214,0.793,0.214c0.193,0,0.371-0.022,0.531-0.066
				c0.16-0.047,0.315-0.118,0.465-0.216c0.151-0.096,0.289-0.2,0.417-0.311c0.126-0.111,0.29-0.263,0.492-0.451
				c0.083-0.071,0.202-0.107,0.356-0.107c0.166,0,0.301,0.046,0.404,0.138c0.103,0.091,0.153,0.218,0.153,0.386
				c0,0.145-0.058,0.315-0.172,0.513c-0.114,0.196-0.288,0.384-0.52,0.564c-0.232,0.181-0.521,0.329-0.871,0.448
				c-0.35,0.12-0.753,0.178-1.209,0.178c-1.041,0-1.85-0.297-2.428-0.89c-0.577-0.593-0.866-1.398-0.866-2.416
				c0-0.479,0.071-0.924,0.214-1.332c0.143-0.41,0.35-0.762,0.623-1.054c0.272-0.293,0.609-0.518,1.009-0.674
				c0.399-0.156,0.843-0.234,1.331-0.234c0.631,0,1.175,0.133,1.628,0.399c0.454,0.268,0.794,0.613,1.019,1.035
				c0.225,0.424,0.338,0.855,0.338,1.294c0,0.409-0.117,0.673-0.35,0.794C217.582,478.638,217.253,478.699,216.828,478.699z
				 M213.659,477.779h2.939c-0.039-0.554-0.19-0.97-0.448-1.244c-0.26-0.276-0.601-0.412-1.024-0.412
				c-0.403,0-0.736,0.139-0.994,0.417C213.871,476.819,213.715,477.232,213.659,477.779z"/>
			<path style="fill:#211E23;" d="M223.435,480.67v-0.161c-0.218,0.249-0.433,0.453-0.644,0.608
				c-0.213,0.157-0.441,0.274-0.688,0.355c-0.248,0.084-0.518,0.122-0.811,0.122c-0.389,0-0.748-0.082-1.078-0.245
				c-0.33-0.165-0.617-0.399-0.857-0.704c-0.242-0.304-0.425-0.662-0.549-1.074c-0.125-0.411-0.188-0.857-0.188-1.335
				c0-1.015,0.247-1.804,0.741-2.37c0.495-0.565,1.146-0.849,1.953-0.849c0.468,0,0.862,0.08,1.182,0.241
				c0.321,0.16,0.634,0.408,0.938,0.737v-2.39c0-0.335,0.067-0.585,0.198-0.755c0.134-0.17,0.322-0.256,0.568-0.256
				c0.246,0,0.434,0.078,0.566,0.234c0.133,0.157,0.199,0.388,0.199,0.692v7.147c0,0.309-0.07,0.54-0.213,0.695
				c-0.145,0.152-0.326,0.229-0.553,0.229c-0.223,0-0.405-0.079-0.549-0.239C223.506,481.194,223.435,480.966,223.435,480.67z
				 M220.248,478.289c0,0.439,0.068,0.813,0.205,1.123c0.135,0.308,0.322,0.54,0.561,0.696c0.236,0.156,0.496,0.235,0.777,0.235
				c0.285,0,0.545-0.074,0.78-0.223c0.235-0.148,0.424-0.376,0.564-0.684c0.14-0.306,0.21-0.69,0.21-1.148
				c0-0.432-0.07-0.803-0.21-1.113c-0.141-0.311-0.331-0.548-0.569-0.713c-0.241-0.163-0.502-0.245-0.789-0.245
				c-0.295,0-0.561,0.084-0.794,0.252c-0.233,0.168-0.415,0.409-0.544,0.724C220.311,477.509,220.248,477.873,220.248,478.289z"/>
			<path style="fill:#211E23;" d="M230.059,473.522v2.474c0.305-0.314,0.615-0.559,0.932-0.726c0.316-0.168,0.709-0.253,1.176-0.253
				c0.539,0,1.01,0.129,1.416,0.383c0.405,0.256,0.719,0.625,0.943,1.11c0.225,0.484,0.336,1.061,0.336,1.726
				c0,0.49-0.063,0.94-0.187,1.35c-0.126,0.41-0.306,0.765-0.544,1.065c-0.237,0.3-0.525,0.533-0.863,0.698
				c-0.338,0.163-0.712,0.245-1.119,0.245c-0.25,0-0.484-0.029-0.703-0.088c-0.221-0.06-0.407-0.138-0.563-0.235
				c-0.153-0.096-0.285-0.196-0.395-0.299c-0.107-0.103-0.252-0.258-0.43-0.464v0.161c0,0.304-0.074,0.535-0.221,0.691
				c-0.145,0.156-0.332,0.233-0.557,0.233c-0.23,0-0.414-0.077-0.549-0.233c-0.137-0.156-0.205-0.388-0.205-0.691v-7.076
				c0-0.329,0.066-0.578,0.197-0.744c0.133-0.169,0.319-0.254,0.557-0.254c0.25,0,0.441,0.08,0.575,0.241
				C229.99,472.998,230.059,473.225,230.059,473.522z M230.137,478.337c0,0.645,0.146,1.141,0.441,1.486
				c0.294,0.347,0.682,0.521,1.16,0.521c0.407,0,0.759-0.178,1.055-0.532c0.294-0.354,0.441-0.862,0.441-1.522
				c0-0.427-0.061-0.795-0.184-1.104c-0.123-0.31-0.297-0.547-0.521-0.715c-0.227-0.168-0.49-0.252-0.791-0.252
				c-0.309,0-0.584,0.084-0.824,0.252c-0.242,0.168-0.432,0.411-0.57,0.729C230.205,477.518,230.137,477.897,230.137,478.337z"/>
			<path style="fill:#211E23;" d="M236.963,481.798l0.148-0.362l-1.995-5.022c-0.121-0.288-0.184-0.499-0.184-0.63
				c0-0.138,0.036-0.266,0.107-0.384c0.072-0.12,0.169-0.216,0.293-0.287c0.125-0.071,0.254-0.106,0.389-0.106
				c0.233,0,0.41,0.074,0.529,0.224c0.119,0.148,0.223,0.36,0.314,0.637l1.371,3.989l1.3-3.71c0.102-0.3,0.196-0.535,0.28-0.707
				c0.082-0.169,0.17-0.284,0.263-0.343c0.093-0.059,0.226-0.09,0.396-0.09c0.123,0,0.24,0.033,0.354,0.099
				c0.111,0.064,0.199,0.153,0.261,0.264c0.061,0.111,0.093,0.228,0.093,0.351c-0.018,0.074-0.041,0.182-0.078,0.32
				c-0.035,0.139-0.08,0.28-0.131,0.422l-2.113,5.531c-0.182,0.488-0.359,0.869-0.534,1.146c-0.175,0.277-0.403,0.491-0.69,0.639
				c-0.289,0.148-0.674,0.224-1.161,0.224c-0.476,0-0.831-0.051-1.068-0.154c-0.237-0.104-0.356-0.291-0.356-0.565
				c0-0.185,0.057-0.329,0.17-0.429c0.112-0.102,0.279-0.153,0.5-0.153c0.088,0,0.174,0.013,0.256,0.037
				c0.104,0.022,0.192,0.035,0.267,0.035c0.187,0,0.333-0.027,0.439-0.083c0.108-0.055,0.203-0.151,0.288-0.288
				C236.754,482.265,236.852,482.063,236.963,481.798z"/>
		</g>
		<g>
			<path style="fill:#211E23;" d="M260.439,475.147h0.387v-0.486c0-0.509,0.063-0.91,0.191-1.211
				c0.127-0.299,0.346-0.516,0.654-0.653c0.307-0.135,0.727-0.204,1.26-0.204c0.949,0,1.42,0.23,1.42,0.697
				c0,0.148-0.049,0.277-0.148,0.384c-0.098,0.106-0.215,0.16-0.35,0.16c-0.063,0-0.174-0.012-0.33-0.037
				c-0.146-0.021-0.281-0.036-0.389-0.036c-0.293,0-0.479,0.089-0.565,0.261c-0.08,0.172-0.123,0.417-0.123,0.74v0.386h0.395
				c0.619,0,0.926,0.185,0.926,0.56c0,0.262-0.078,0.431-0.246,0.503c-0.162,0.07-0.389,0.106-0.68,0.106h-0.395v4.295
				c0,0.319-0.076,0.561-0.23,0.729c-0.152,0.171-0.348,0.254-0.59,0.254c-0.231,0-0.42-0.083-0.574-0.254
				c-0.152-0.168-0.227-0.41-0.227-0.729v-4.295h-0.447c-0.242,0-0.426-0.052-0.559-0.164c-0.129-0.105-0.195-0.248-0.195-0.423
				C259.625,475.339,259.896,475.147,260.439,475.147"/>
			<path style="fill:#211E23;" d="M265.746,479.256v1.355c0,0.327-0.084,0.574-0.234,0.737c-0.154,0.165-0.35,0.246-0.588,0.246
				c-0.236,0-0.428-0.082-0.576-0.25c-0.148-0.165-0.227-0.41-0.227-0.733v-4.515c0-0.729,0.262-1.093,0.787-1.093
				c0.271,0,0.465,0.085,0.584,0.256c0.119,0.171,0.186,0.42,0.197,0.755c0.193-0.335,0.393-0.584,0.594-0.755
				c0.209-0.171,0.477-0.256,0.818-0.256c0.344,0,0.67,0.085,0.992,0.256c0.32,0.171,0.48,0.398,0.48,0.678
				c0,0.195-0.068,0.362-0.203,0.488c-0.137,0.13-0.285,0.194-0.441,0.194c-0.063,0-0.207-0.038-0.432-0.112
				c-0.23-0.071-0.432-0.108-0.602-0.108c-0.238,0-0.436,0.064-0.584,0.187c-0.15,0.128-0.27,0.311-0.352,0.555
				c-0.082,0.246-0.137,0.54-0.172,0.878C265.758,478.354,265.746,478.77,265.746,479.256"/>
			<path style="fill:#211E23;" d="M273.195,478.697h-3.172c0.006,0.367,0.078,0.694,0.223,0.974c0.146,0.28,0.338,0.492,0.576,0.636
				c0.242,0.143,0.504,0.213,0.795,0.213c0.193,0,0.369-0.021,0.531-0.07c0.158-0.043,0.314-0.115,0.465-0.213
				c0.152-0.095,0.287-0.199,0.414-0.313c0.127-0.108,0.293-0.26,0.496-0.448c0.084-0.071,0.201-0.109,0.354-0.109
				c0.168,0,0.301,0.047,0.406,0.14c0.103,0.091,0.152,0.218,0.152,0.385c0,0.147-0.057,0.317-0.168,0.512
				c-0.115,0.199-0.289,0.386-0.521,0.566c-0.234,0.179-0.525,0.329-0.875,0.447c-0.348,0.117-0.752,0.178-1.207,0.178
				c-1.043,0-1.852-0.296-2.43-0.889c-0.576-0.595-0.869-1.401-0.869-2.417c0-0.479,0.074-0.925,0.219-1.334
				c0.141-0.412,0.348-0.761,0.623-1.056c0.273-0.293,0.607-0.518,1.01-0.674c0.396-0.155,0.84-0.233,1.328-0.233
				c0.633,0,1.176,0.134,1.631,0.403c0.449,0.265,0.795,0.61,1.016,1.034c0.227,0.425,0.34,0.854,0.34,1.296
				c0,0.406-0.117,0.67-0.35,0.792C273.947,478.637,273.619,478.697,273.195,478.697 M270.023,477.775h2.939
				c-0.039-0.554-0.188-0.968-0.445-1.241c-0.262-0.276-0.6-0.413-1.025-0.413c-0.404,0-0.736,0.138-0.996,0.419
				C270.238,476.818,270.078,477.229,270.023,477.775"/>
			<path style="fill:#211E23;" d="M279.938,478.697h-3.17c0.004,0.367,0.078,0.694,0.221,0.974c0.145,0.28,0.336,0.492,0.576,0.636
				c0.238,0.143,0.504,0.213,0.795,0.213c0.191,0,0.369-0.021,0.527-0.07c0.162-0.043,0.316-0.115,0.469-0.213
				c0.15-0.095,0.287-0.199,0.414-0.313c0.125-0.108,0.291-0.26,0.494-0.448c0.084-0.071,0.203-0.109,0.355-0.109
				c0.166,0,0.301,0.047,0.404,0.14c0.104,0.091,0.152,0.218,0.152,0.385c0,0.147-0.055,0.317-0.172,0.512
				c-0.111,0.199-0.285,0.386-0.52,0.566c-0.23,0.179-0.523,0.329-0.871,0.447c-0.348,0.117-0.756,0.178-1.209,0.178
				c-1.043,0-1.85-0.296-2.43-0.889c-0.576-0.595-0.867-1.401-0.867-2.417c0-0.479,0.072-0.925,0.217-1.334
				c0.141-0.412,0.35-0.761,0.623-1.056c0.271-0.293,0.607-0.518,1.008-0.674c0.398-0.155,0.846-0.233,1.33-0.233
				c0.633,0,1.176,0.134,1.633,0.403c0.451,0.265,0.791,0.61,1.014,1.034c0.225,0.425,0.34,0.854,0.34,1.296
				c0,0.406-0.117,0.67-0.35,0.792C280.688,478.637,280.359,478.697,279.938,478.697 M276.768,477.775h2.938
				c-0.041-0.554-0.189-0.968-0.447-1.241c-0.262-0.276-0.602-0.413-1.025-0.413c-0.404,0-0.736,0.138-0.996,0.419
				C276.978,476.818,276.82,477.229,276.768,477.775"/>
			<path style="fill:#211E23;" d="M283.486,475.915v0.194c0.305-0.376,0.621-0.652,0.955-0.828c0.322-0.178,0.697-0.268,1.111-0.268
				c0.498,0,0.961,0.131,1.381,0.387c0.42,0.259,0.75,0.635,0.992,1.129c0.244,0.497,0.367,1.081,0.367,1.759
				c0,0.497-0.07,0.957-0.209,1.376c-0.141,0.417-0.336,0.767-0.582,1.05c-0.246,0.28-0.535,0.5-0.867,0.653
				c-0.34,0.15-0.695,0.227-1.082,0.227c-0.461,0-0.852-0.093-1.164-0.28c-0.315-0.181-0.615-0.457-0.902-0.815v2.433
				c0,0.709-0.26,1.068-0.777,1.068c-0.307,0-0.506-0.092-0.606-0.274c-0.096-0.186-0.146-0.452-0.146-0.808v-6.995
				c0-0.31,0.066-0.537,0.199-0.692c0.135-0.149,0.32-0.228,0.553-0.228c0.23,0,0.416,0.078,0.56,0.233
				C283.416,475.395,283.486,475.619,283.486,475.915 M286.664,478.27c0-0.428-0.065-0.796-0.197-1.102
				c-0.129-0.309-0.311-0.543-0.539-0.705c-0.23-0.164-0.49-0.248-0.771-0.248c-0.445,0-0.822,0.178-1.129,0.528
				c-0.309,0.354-0.463,0.871-0.463,1.558c0,0.642,0.152,1.146,0.459,1.504c0.305,0.358,0.68,0.537,1.133,0.537
				c0.268,0,0.52-0.079,0.75-0.233c0.23-0.157,0.414-0.392,0.551-0.704C286.594,479.09,286.664,478.712,286.664,478.27"/>
			<path style="fill:#211E23;" d="M289.926,474.248c-0.227,0-0.42-0.071-0.578-0.209c-0.162-0.14-0.242-0.332-0.242-0.585
				c0-0.23,0.082-0.419,0.248-0.568c0.164-0.147,0.354-0.223,0.572-0.223c0.213,0,0.397,0.066,0.557,0.199
				c0.162,0.137,0.244,0.335,0.244,0.592c0,0.249-0.078,0.444-0.234,0.585C290.332,474.177,290.145,474.248,289.926,474.248
				 M290.727,475.923v4.688c0,0.322-0.076,0.567-0.23,0.733c-0.156,0.168-0.35,0.25-0.588,0.25c-0.238,0-0.428-0.083-0.58-0.254
				c-0.147-0.172-0.223-0.415-0.223-0.729v-4.642c0-0.318,0.076-0.56,0.223-0.722c0.152-0.165,0.342-0.244,0.58-0.244
				c0.238,0,0.432,0.079,0.588,0.244C290.65,475.409,290.727,475.637,290.727,475.923"/>
			<path style="fill:#211E23;" d="M295.951,480.853l-1.428-2.352l-0.879,0.829v1.293c0,0.311-0.084,0.549-0.248,0.717
				c-0.162,0.171-0.353,0.254-0.566,0.254c-0.248,0-0.447-0.082-0.588-0.25c-0.143-0.165-0.215-0.41-0.215-0.733v-6.915
				c0-0.357,0.072-0.632,0.207-0.821c0.141-0.19,0.34-0.282,0.596-0.282c0.248,0,0.445,0.086,0.594,0.258
				c0.146,0.169,0.221,0.42,0.221,0.751v3.933l1.822-1.913c0.227-0.235,0.395-0.401,0.518-0.487c0.117-0.087,0.262-0.13,0.43-0.13
				c0.203,0,0.371,0.065,0.51,0.193c0.133,0.128,0.201,0.29,0.201,0.482c0,0.237-0.221,0.557-0.658,0.952l-0.861,0.788l1.662,2.615
				c0.119,0.194,0.211,0.339,0.264,0.44c0.053,0.1,0.082,0.2,0.082,0.289c0,0.258-0.072,0.46-0.213,0.609
				c-0.141,0.149-0.328,0.221-0.555,0.221c-0.197,0-0.352-0.05-0.457-0.16C296.281,481.326,296.135,481.133,295.951,480.853"/>
			<path style="fill:#211E23;" d="M299.475,481.594c-0.246,0-0.455-0.078-0.633-0.238c-0.18-0.155-0.27-0.378-0.27-0.665
				c0-0.241,0.088-0.449,0.256-0.621c0.174-0.175,0.381-0.263,0.631-0.263s0.459,0.088,0.641,0.258
				c0.174,0.172,0.262,0.383,0.262,0.626c0,0.283-0.088,0.506-0.262,0.663C299.918,481.516,299.711,481.594,299.475,481.594"/>
			<path style="fill:#211E23;" d="M307.535,479.589c0,0.2-0.061,0.417-0.18,0.646c-0.121,0.232-0.307,0.448-0.557,0.657
				c-0.244,0.207-0.555,0.376-0.932,0.5c-0.377,0.128-0.803,0.192-1.271,0.192c-1.002,0-1.785-0.293-2.348-0.875
				c-0.559-0.585-0.84-1.368-0.84-2.35c0-0.668,0.127-1.254,0.385-1.766c0.256-0.509,0.629-0.904,1.115-1.185
				c0.486-0.278,1.072-0.418,1.746-0.418c0.422,0,0.805,0.061,1.158,0.184c0.35,0.122,0.645,0.282,0.891,0.476
				c0.242,0.196,0.428,0.401,0.555,0.62c0.129,0.22,0.193,0.425,0.193,0.616c0,0.192-0.072,0.357-0.215,0.492
				c-0.147,0.134-0.322,0.202-0.523,0.202c-0.137,0-0.25-0.035-0.34-0.104c-0.09-0.069-0.189-0.181-0.299-0.338
				c-0.197-0.3-0.402-0.526-0.621-0.676c-0.215-0.15-0.488-0.226-0.822-0.226c-0.477,0-0.863,0.186-1.158,0.56
				c-0.293,0.372-0.439,0.888-0.439,1.534c0,0.305,0.039,0.587,0.113,0.843c0.074,0.254,0.184,0.473,0.326,0.651
				c0.145,0.18,0.314,0.316,0.516,0.409c0.203,0.097,0.428,0.142,0.666,0.142c0.326,0,0.603-0.076,0.834-0.226
				c0.236-0.15,0.439-0.379,0.617-0.688c0.098-0.183,0.205-0.324,0.318-0.427c0.113-0.104,0.256-0.156,0.422-0.156
				c0.199,0,0.363,0.076,0.49,0.227C307.469,479.258,307.535,479.419,307.535,479.589"/>
			<path style="fill:#211E23;" d="M314.529,478.301c0,0.48-0.074,0.928-0.223,1.336c-0.152,0.408-0.369,0.759-0.654,1.049
				c-0.285,0.293-0.627,0.518-1.021,0.675c-0.398,0.155-0.844,0.234-1.336,0.234c-0.49,0-0.932-0.079-1.326-0.239
				c-0.389-0.155-0.73-0.383-1.016-0.676c-0.287-0.298-0.506-0.645-0.658-1.047c-0.143-0.403-0.219-0.848-0.219-1.332
				c0-0.492,0.078-0.941,0.225-1.35c0.15-0.409,0.367-0.758,0.648-1.046c0.283-0.288,0.621-0.511,1.02-0.669
				c0.402-0.155,0.844-0.233,1.326-0.233c0.49,0,0.936,0.078,1.336,0.239c0.398,0.157,0.74,0.384,1.027,0.674
				c0.287,0.297,0.502,0.644,0.65,1.045C314.455,477.368,314.529,477.81,314.529,478.301 M312.902,478.301
				c0-0.662-0.146-1.176-0.435-1.543c-0.289-0.373-0.682-0.556-1.172-0.556c-0.318,0-0.598,0.083-0.838,0.246
				c-0.242,0.164-0.426,0.405-0.559,0.728c-0.129,0.321-0.195,0.696-0.195,1.125c0,0.424,0.063,0.792,0.193,1.107
				c0.129,0.319,0.313,0.561,0.553,0.729c0.242,0.166,0.522,0.253,0.846,0.253c0.49,0,0.883-0.185,1.172-0.559
				C312.756,479.464,312.902,478.951,312.902,478.301"/>
			<path style="fill:#211E23;" d="M320.713,478.418v2.155c0,0.342-0.076,0.595-0.23,0.767c-0.156,0.171-0.357,0.255-0.611,0.255
				c-0.246,0-0.445-0.084-0.596-0.255c-0.154-0.172-0.232-0.425-0.232-0.767v-2.582c0-0.409-0.012-0.727-0.039-0.953
				c-0.029-0.221-0.105-0.408-0.227-0.552c-0.123-0.146-0.318-0.22-0.582-0.22c-0.531,0-0.879,0.182-1.047,0.551
				c-0.168,0.36-0.254,0.884-0.254,1.567v2.188c0,0.336-0.078,0.591-0.227,0.765c-0.156,0.171-0.355,0.257-0.604,0.257
				c-0.248,0-0.447-0.086-0.604-0.257c-0.156-0.174-0.234-0.429-0.234-0.765v-4.637c0-0.306,0.068-0.537,0.209-0.694
				c0.143-0.161,0.328-0.239,0.555-0.239c0.225,0,0.408,0.077,0.559,0.222c0.146,0.149,0.221,0.354,0.221,0.616v0.152
				c0.283-0.334,0.584-0.582,0.902-0.737c0.324-0.162,0.678-0.242,1.072-0.242c0.406,0,0.756,0.082,1.049,0.245
				c0.293,0.162,0.533,0.409,0.725,0.734c0.273-0.33,0.566-0.576,0.881-0.737c0.313-0.161,0.658-0.242,1.039-0.242
				c0.44,0,0.824,0.09,1.147,0.264c0.318,0.173,0.557,0.425,0.715,0.746c0.139,0.296,0.209,0.756,0.209,1.386v3.164
				c0,0.342-0.076,0.595-0.23,0.767c-0.154,0.171-0.359,0.255-0.611,0.255c-0.248,0-0.447-0.086-0.603-0.257
				c-0.156-0.174-0.236-0.429-0.236-0.765v-2.726c0-0.35-0.014-0.628-0.043-0.836c-0.029-0.211-0.109-0.389-0.238-0.53
				c-0.133-0.142-0.332-0.215-0.596-0.215c-0.215,0-0.418,0.067-0.609,0.193c-0.191,0.123-0.342,0.298-0.449,0.507
				C320.773,477.241,320.713,477.725,320.713,478.418"/>
		</g>
		<g>
			<path style="fill:#211E23;" d="M245.271,477.907c0-0.002,0-0.007,0-0.011C245.271,477.9,245.271,477.905,245.271,477.907z"/>
			<path style="fill:#211E23;" d="M245.354,478.426c0.002,0,0.002,0,0.002,0c-0.031-0.147-0.055-0.294-0.074-0.44
				C245.301,478.133,245.324,478.28,245.354,478.426z"/>
			<path style="fill:#211E23;" d="M245.891,479.93c-0.004-0.006-0.008-0.013-0.012-0.02
				C245.883,479.917,245.887,479.924,245.891,479.93z"/>
			<path style="fill:#211E23;" d="M245.838,479.83c-0.014-0.028-0.025-0.056-0.039-0.084
				C245.813,479.775,245.824,479.802,245.838,479.83z"/>
			<path style="fill:#211E23;" d="M245.504,479.005c0.08,0.251,0.176,0.493,0.285,0.724c-0.111-0.235-0.205-0.478-0.283-0.724
				C245.506,479.005,245.506,479.005,245.504,479.005z"/>
			<path style="fill:#211E23;" d="M251.545,471.697c0.314,0,0.545,0.024,0.811,0.07l0.074-0.479c0,0-0.732-0.224-1.693-0.146
				l-0.076-0.259c0.299-0.064,0.523-0.329,0.523-0.646c0-0.365-0.297-0.658-0.66-0.658c-0.365,0-0.66,0.293-0.66,0.658
				c0,0.317,0.225,0.583,0.521,0.646l0.086,0.289c-1.023,0.141-1.836,0.538-1.836,0.538l0.145,0.44
				c0.617-0.205,1.152-0.33,1.639-0.383C250.895,471.72,251.254,471.697,251.545,471.697z"/>
			<path style="fill:#211E23;" d="M245.877,474.109l0.004-0.006c0.025-0.03,0.049-0.06,0.07-0.089l-0.195-0.141l-0.305-0.224
				c-0.018,0.024-0.496,0.466-0.875,1.281c-0.016-0.026-0.035-0.051-0.057-0.075c-0.113-0.124-0.271-0.188-0.473-0.185
				c-0.004,0-0.006,0-0.01,0c-0.125,0-0.211-0.041-0.268-0.091c0.057-0.071,0.09-0.159,0.09-0.259c0-0.23-0.188-0.417-0.418-0.417
				s-0.418,0.186-0.418,0.417c0,0.231,0.188,0.419,0.418,0.419c0.035,0,0.07-0.007,0.105-0.014c0.102,0.114,0.264,0.214,0.504,0.208
				c0.123-0.001,0.213,0.031,0.273,0.098c0.068,0.076,0.092,0.185,0.1,0.268c-0.002,0.001-0.002,0.002-0.002,0.002
				c-0.273,0.744-0.195,1.67-0.195,1.67l0.66,0.026c0.014-0.337,0.063-0.927,0.234-1.393
				C245.449,474.699,245.861,474.133,245.877,474.109z"/>
			<path style="fill:#211E23;" d="M257.295,472.249c-0.23,0-0.418,0.186-0.418,0.419c0,0.035,0.004,0.07,0.016,0.104
				c-0.115,0.102-0.217,0.266-0.211,0.506c0.002,0.124-0.029,0.212-0.098,0.273c-0.053,0.046-0.119,0.072-0.184,0.088
				c-0.492-0.69-1.098-1.11-1.098-1.11l-0.475,0.509c0.359,0.325,0.725,0.734,1.08,1.244c0.246,0.352,0.498,0.807,0.711,1.26
				l0.639-0.305c0,0-0.291-0.723-0.703-1.37c0.07-0.024,0.143-0.064,0.207-0.12c0.125-0.113,0.188-0.272,0.182-0.475
				c0-0.129,0.043-0.216,0.094-0.275c0.072,0.055,0.16,0.09,0.258,0.09c0.23,0,0.418-0.186,0.418-0.418
				C257.713,472.435,257.525,472.249,257.295,472.249z"/>
			<path style="fill:#211E23;" d="M255.635,478.001c-0.883,0.429-2.33,0.996-4.238,1.263c-0.75,0.103-1.475,0.142-2.145,0.142
				c-0.869,0-1.637-0.065-2.227-0.14c-0.672-0.084-1.197-0.188-1.52-0.261c0.078,0.245,0.172,0.488,0.283,0.724
				c0.002,0.006,0.006,0.014,0.01,0.018c0.014,0.028,0.025,0.056,0.039,0.084c0.014,0.027,0.027,0.053,0.041,0.079
				c0.004,0.008,0.008,0.015,0.012,0.02c0.188,0.356,0.416,0.684,0.676,0.969c0.898,0.984,1.816,1.141,1.824,1.141l0.016,0.002
				l0.012,0.005c0.01,0.003,0.822,0.266,2.057,0.266c1.217,0,2.41-0.245,3.547-0.73c0.842-0.431,1.641-1.085,2.033-1.669
				c0.307-0.45,0.527-0.932,0.658-1.433c0.068-0.267,0.123-0.692,0.09-1.141C256.557,477.505,256.164,477.742,255.635,478.001z"/>
			<path style="fill:#211E23;" d="M246.16,474.317c-0.025,0.037-0.408,0.579-0.709,1.408c-0.227,0.622-0.217,1.527-0.217,1.537
				v0.002c0,0.213,0.014,0.423,0.037,0.632c0,0.004,0,0.009,0,0.011c0.002,0.027,0.008,0.053,0.01,0.079
				c0.02,0.146,0.043,0.293,0.074,0.44c0.438,0.111,3.049,0.721,5.967,0.314c1.83-0.255,3.221-0.797,4.063-1.205
				c0.701-0.339,1.15-0.647,1.324-0.774c-0.174-0.642-0.65-1.65-1.088-2.279c-1.254-1.79-2.605-2.25-3.299-2.364
				c-0.264-0.043-0.477-0.067-0.777-0.067c-0.279,0-0.625,0.022-1.088,0.071c-0.465,0.048-0.984,0.17-1.584,0.372
				c-0.842,0.282-1.604,0.725-2.205,1.279l-0.02,0.021C246.561,473.874,246.375,474.047,246.16,474.317z M253.828,473.9
				c0.602,0,1.092,0.488,1.092,1.09c0,0.602-0.49,1.09-1.092,1.09c-0.6,0-1.088-0.488-1.088-1.09
				C252.74,474.389,253.229,473.9,253.828,473.9z M248.678,473.857c0.973,0,1.762,0.788,1.762,1.762
				c0,0.971-0.789,1.758-1.762,1.758c-0.973,0-1.76-0.787-1.76-1.758C246.918,474.646,247.705,473.857,248.678,473.857z"/>
		</g>
	</g>
</g>
<g id="OBJECTS">
	<g>
		<g>
			<path style="fill:#211E23;" d="M98.466,223.809c15.478-0.983,31.782-7.067,42.451-18.525
				c12.382-13.298,20.146-38.172,5.493-52.566c-12.044-11.831-35.296-4.286-31.763,14.43c1.202,6.373,6.003,10.857,12.646,10.583
				c5.932-0.246,9.733-5.215,9.342-10.9c-0.12-1.732-2.83-1.744-2.71,0c0.422,6.126-4.721,9.322-10.348,7.77
				c-7.563-2.085-7.429-12.27-4.617-17.909c3.346-6.708,11.431-8.448,18.093-6.526c8.579,2.474,13.547,10.925,14.457,19.303
				c1.816,16.718-9.089,33.875-22.87,42.378c-8.761,5.405-19.883,8.6-30.175,9.254C96.731,221.21,96.72,223.92,98.466,223.809
				L98.466,223.809z"/>
		</g>
		<g>
			<path style="fill:#211E23;" d="M109.971,243.224h-1.716v-33.345c0-3.675-2.865-6.674-6.482-6.906
				c-0.82-3.315-2.282-6.945-4.862-10.135c-7.008-8.669-13.51-15.171-14.232-22.756h-4.91h-1.489h-4.909
				c-0.722,7.586-7.224,14.087-14.232,22.756c-2.579,3.19-4.042,6.821-4.862,10.136c-3.614,0.233-6.477,3.232-6.477,6.905v33.345
				h-1.716c-1.546,0-2.799,1.252-2.799,2.8c0,1.546,1.253,2.799,2.799,2.799h1.716h5.554h3.973h4.331h16.622h1.489h16.627h4.331
				h3.969h5.559h1.716c1.546,0,2.799-1.253,2.799-2.799C112.77,244.477,111.517,243.224,109.971,243.224z"/>
			<g>
				<g>
					<g>
						<g>
							<polygon style="fill:#211E23;" points="100.519,146.352 102.691,131.676 87.199,136.881 							"/>
							<polygon style="fill:#4D4A4F;" points="98.477,144.104 99.885,134.593 91.267,138.179 							"/>
						</g>
						<g>
							<g>
								<polygon style="fill:#211E23;" points="53.536,146.352 51.364,131.676 66.856,136.881 								"/>
								<polygon style="fill:#4D4A4F;" points="55.578,144.104 54.17,134.593 62.788,138.179 								"/>
							</g>
						</g>
					</g>
					<g>
						<path style="fill:#211E23;" d="M105.073,154.973c0,12.071-12.558,21.86-28.045,21.86c-15.493,0-28.05-9.789-28.05-21.86
							c0-12.074,12.558-21.861,28.05-21.861C92.515,133.112,105.073,142.898,105.073,154.973z"/>
						<g>
							<path style="fill:#4D4A4F;" d="M77.073,161.146L77.073,161.146c0,0-0.038,0-0.045,0c-0.016,0-0.042,0-0.042,0l0,0
								c-0.454,0.005-2.76,0.094-2.348,1.043c0.433,1.009,1.335,2.003,2.348,2.066c0,0,0.026,0.01,0.042,0.01
								c0.01,0,0.045-0.01,0.045-0.01c1.008-0.063,1.91-1.058,2.345-2.066C79.826,161.24,77.519,161.151,77.073,161.146z"/>
							<g>
								<g>
									<g>
										<path style="fill:#ECC049;" d="M86.347,156.476c0,0,2.603-8.21,11.699-3.691
											C98.046,152.784,95.635,161.887,86.347,156.476z"/>
										<path style="fill:#211E23;" d="M91.234,151.626c0,0,0.514,0.292,0.967,0.82c0.486,0.517,0.901,1.272,1.128,2.078
											c0.221,0.807,0.254,1.667,0.1,2.362c-0.119,0.685-0.413,1.2-0.413,1.2c0,0-0.516-0.291-0.968-0.819
											c-0.489-0.518-0.9-1.272-1.125-2.079c-0.219-0.81-0.25-1.669-0.098-2.363C90.943,152.141,91.235,151.626,91.234,151.626z"
											/>
									</g>
								</g>
								<g>
									<g>
										<path style="fill:#ECC049;" d="M67.707,156.476c0,0-2.602-8.21-11.699-3.691C56.008,152.784,58.42,161.887,67.707,156.476
											z"/>
										<path style="fill:#211E23;" d="M62.82,151.626c0,0-0.514,0.292-0.966,0.82c-0.487,0.517-0.901,1.272-1.128,2.078
											c-0.221,0.807-0.254,1.667-0.1,2.362c0.118,0.685,0.412,1.2,0.412,1.2s0.516-0.291,0.969-0.819
											c0.488-0.518,0.9-1.272,1.124-2.079c0.22-0.81,0.25-1.669,0.099-2.363C63.111,152.141,62.819,151.626,62.82,151.626z"/>
									</g>
								</g>
							</g>
						</g>
					</g>
				</g>
				<g>
					<g>
						<g>
							<path style="fill:#211E23;" d="M93.711,161.8c6.097-1.626,12.194-3.252,18.292-4.878c0.844-0.225,0.485-1.531-0.36-1.306
								c-6.097,1.626-12.195,3.252-18.291,4.878C92.508,160.719,92.866,162.025,93.711,161.8L93.711,161.8z"/>
						</g>
						<g>
							<path style="fill:#211E23;" d="M93.563,162.316c6.31-0.011,12.62-0.022,18.931-0.032c0.874-0.003,0.874-1.357,0-1.355
								c-6.311,0.011-12.621,0.021-18.931,0.032C92.689,160.963,92.689,162.317,93.563,162.316L93.563,162.316z"/>
						</g>
						<g>
							<path style="fill:#211E23;" d="M91.826,163.36c6.142,1.447,12.284,2.894,18.426,4.341c0.85,0.2,1.21-1.106,0.36-1.306
								c-6.142-1.447-12.284-2.894-18.426-4.341C91.336,161.853,90.976,163.16,91.826,163.36L91.826,163.36z"/>
						</g>
					</g>
					<g>
						<g>
							<path style="fill:#211E23;" d="M60.34,161.8c-6.097-1.626-12.194-3.252-18.292-4.878c-0.843-0.225-0.485-1.531,0.36-1.306
								c6.098,1.626,12.195,3.252,18.292,4.878C61.543,160.719,61.185,162.025,60.34,161.8L60.34,161.8z"/>
						</g>
						<g>
							<path style="fill:#211E23;" d="M60.488,162.316c-6.311-0.011-12.621-0.022-18.931-0.032c-0.873-0.003-0.873-1.357,0-1.355
								c6.311,0.011,12.62,0.021,18.931,0.032C61.362,160.963,61.362,162.317,60.488,162.316L60.488,162.316z"/>
						</g>
						<g>
							<path style="fill:#211E23;" d="M62.225,163.36c-6.142,1.447-12.284,2.894-18.426,4.341c-0.849,0.2-1.21-1.106-0.359-1.306
								c6.142-1.447,12.284-2.894,18.426-4.341C62.715,161.853,63.075,163.16,62.225,163.36L62.225,163.36z"/>
						</g>
					</g>
				</g>
			</g>
		</g>
	</g>
	<g>
		<g>
			<g>
				<g>
					<g>
						<g>
							<polygon style="fill:#211E23;" points="403.453,146.594 405.648,131.769 389.997,137.027 							"/>
							<polygon style="fill:#4D4A4F;" points="401.391,144.323 402.813,134.716 394.107,138.338 							"/>
						</g>
						<g>
							<g>
								<polygon style="fill:#211E23;" points="355.992,146.594 353.799,131.769 369.447,137.027 								"/>
								<polygon style="fill:#4D4A4F;" points="358.055,144.323 356.634,134.716 365.339,138.338 								"/>
							</g>
						</g>
					</g>
					<g>
						<path style="fill:#211E23;" d="M408.053,155.302c0,12.193-12.685,22.083-28.329,22.083c-15.649,0-28.335-9.89-28.335-22.083
							c0-12.197,12.685-22.083,28.335-22.083C395.368,133.219,408.053,143.105,408.053,155.302z"/>
						<g>
							<path style="fill:#4D4A4F;" d="M379.769,161.539L379.769,161.539c0,0-0.039,0-0.045,0c-0.017,0-0.042,0-0.042,0l0,0
								c-0.459,0.005-2.789,0.095-2.372,1.053c0.438,1.02,1.35,2.024,2.372,2.087c0,0,0.025,0.01,0.042,0.01
								c0.011,0,0.045-0.01,0.045-0.01c1.018-0.063,1.93-1.068,2.369-2.087C382.55,161.634,380.219,161.544,379.769,161.539z"/>
							<g>
								<g>
									<g>
										<path style="fill:#ECC049;" d="M389.138,156.82c0,0,2.629-8.293,11.818-3.729
											C400.956,153.092,398.52,162.287,389.138,156.82z"/>
										<path style="fill:#211E23;" d="M394.075,151.923c-0.001,0,0.519,0.294,0.976,0.828c0.491,0.521,0.911,1.284,1.14,2.098
											c0.223,0.816,0.257,1.686,0.101,2.386c-0.119,0.692-0.417,1.213-0.416,1.213s-0.522-0.294-0.98-0.827
											c-0.493-0.523-0.908-1.286-1.136-2.101c-0.221-0.817-0.253-1.685-0.099-2.387
											C393.78,152.442,394.075,151.923,394.075,151.923z"/>
									</g>
								</g>
								<g>
									<g>
										<path style="fill:#ECC049;" d="M370.309,156.82c0,0-2.629-8.293-11.818-3.729
											C358.49,153.092,360.927,162.287,370.309,156.82z"/>
										<path style="fill:#211E23;" d="M365.371,151.923c0,0-0.52,0.294-0.976,0.828c-0.493,0.521-0.911,1.284-1.14,2.098
											c-0.225,0.816-0.257,1.686-0.102,2.386c0.12,0.692,0.417,1.213,0.416,1.213c0,0,0.522-0.294,0.98-0.827
											c0.492-0.523,0.909-1.286,1.136-2.101c0.222-0.817,0.253-1.685,0.101-2.387
											C365.665,152.442,365.371,151.923,365.371,151.923z"/>
									</g>
								</g>
							</g>
						</g>
					</g>
				</g>
				<g>
					<g>
						<g>
							<path style="fill:#211E23;" d="M396.576,162.198c6.159-1.642,12.318-3.285,18.478-4.927c0.852-0.228,0.488-1.547-0.364-1.319
								c-6.158,1.643-12.318,3.285-18.478,4.927C395.36,161.107,395.723,162.427,396.576,162.198L396.576,162.198z"/>
						</g>
						<g>
							<path style="fill:#211E23;" d="M396.427,162.721c6.374-0.011,12.749-0.023,19.123-0.033c0.883-0.003,0.883-1.37,0-1.369
								c-6.374,0.011-12.749,0.021-19.123,0.033C395.543,161.354,395.543,162.722,396.427,162.721L396.427,162.721z"/>
						</g>
						<g>
							<path style="fill:#211E23;" d="M394.672,163.775c6.204,1.462,12.408,2.923,18.613,4.385c0.858,0.202,1.222-1.117,0.363-1.319
								c-6.204-1.461-12.409-2.924-18.613-4.386C394.178,162.252,393.813,163.572,394.672,163.775L394.672,163.775z"/>
						</g>
					</g>
					<g>
						<g>
							<path style="fill:#211E23;" d="M362.866,162.198c-6.159-1.642-12.318-3.285-18.478-4.927
								c-0.852-0.228-0.49-1.547,0.363-1.319c6.16,1.643,12.319,3.285,18.478,4.927C364.082,161.107,363.72,162.427,362.866,162.198
								L362.866,162.198z"/>
						</g>
						<g>
							<path style="fill:#211E23;" d="M363.017,162.721c-6.376-0.011-12.75-0.023-19.124-0.033c-0.884-0.003-0.884-1.37,0-1.369
								c6.374,0.011,12.748,0.021,19.124,0.033C363.897,161.354,363.897,162.722,363.017,162.721L363.017,162.721z"/>
						</g>
						<g>
							<path style="fill:#211E23;" d="M364.77,163.775c-6.204,1.462-12.408,2.923-18.614,4.385
								c-0.857,0.202-1.223-1.117-0.362-1.319c6.203-1.461,12.408-2.924,18.613-4.386
								C365.265,162.252,365.629,163.572,364.77,163.775L364.77,163.775z"/>
						</g>
					</g>
				</g>
			</g>
			<path style="fill:#211E23;" d="M390.684,185.759c-7.908-4.618-4.742-11.545-4.742-11.545l-7.635-4.602
				c0,0-8.528,6.318-13.059,18.068c-4.53,11.752,1.521,26.938,3.105,32.326c1.036,3.53,0.499,13.808-4.918,16.544h-6.047
				c-1.674,0-3.029,1.015-3.029,2.263c0,1.247,1.355,2.26,3.029,2.26h5.677h36.23h30.216
				C431.572,202.497,398.589,190.375,390.684,185.759z"/>
		</g>
		<g>
			<path style="fill:#211E23;" d="M416.768,220.138c5.187-2.289,11.412-3.105,16.932-1.833c8.327,1.92,12.98,10.56,11.096,18.572
				c-1.808,7.692-8.963,12.608-16.104,14.771c-11.483,3.479-23.066-0.588-34.401-2.545c-11.265-1.944-31.34-5.018-37.417,8.147
				c-6.395,13.853,8.747,24.508,21.388,23c6.506-0.775,11.829-5.701,11.809-12.447c-0.022-7.102-6.853-10.809-13.102-8.776
				c-1.345,0.438-0.77,2.565,0.585,2.126c5.242-1.706,9.808,1.059,10.313,6.65c0.491,5.42-4.313,9.086-9.056,10.141
				c-8.156,1.814-18.641-2.977-20.899-11.32c-1.886-6.967,2.994-13.262,9.259-15.431c8.69-3.009,19.163-1.237,27.938,0.278
				c10.534,1.818,20.364,4.902,31.14,3.02c6.621-1.156,13.383-4.62,17.364-10.17c7.868-10.97,2.526-26.048-11.165-28.518
				c-5.493-0.991-11.715,0.192-16.79,2.432C414.357,218.808,415.479,220.706,416.768,220.138L416.768,220.138z"/>
		</g>
	</g>
	<g>
		<g>
			<path style="fill:#211E23;" d="M222.907,191.099c0,0,2.039-36.089,31.268-36.089c29.231,0,39.331,43.577,35.578,90.038h-9.811
				c0,0-2.598-5.194,2.597-5.194c0,0-0.497-15.298-5.98-22.336c0,0-0.851,19.409-4.985,27.53h-8.657c0,0-3.153-5.483,3.423-5.483
				c0,0,6.19-38.753-21.558-30.343L222.907,191.099z"/>
			<path style="fill:#211E23;" d="M213.944,215.734c4.534,9.337,2.224,23.809,2.224,23.809c-6.576,0-3.422,5.483-3.422,5.483h8.658
				c4.134-8.122,4.984-27.531,4.984-27.531c5.483,7.039,5.981,22.336,5.981,22.336c-5.194,0-2.597,5.194-2.597,5.194h9.812
				c0.846-10.479,0.985-20.324,0.361-29.292H213.944z"/>
			<g>
				<g>
					<g>
						<g>
							<g>
								<polygon style="fill:#211E23;" points="242.451,201.37 244.467,187.745 230.085,192.578 								"/>
								<polygon style="fill:#4D4A4F;" points="240.554,199.282 241.862,190.454 233.861,193.782 								"/>
							</g>
							<g>
								<g>
									<polygon style="fill:#211E23;" points="198.834,201.37 196.818,187.745 211.199,192.578 									"/>
									<polygon style="fill:#4D4A4F;" points="200.729,199.282 199.423,190.454 207.423,193.782 									"/>
								</g>
							</g>
						</g>
						<g>
							<path style="fill:#211E23;" d="M246.677,209.372c0,11.206-11.658,20.294-26.035,20.294c-14.382,0-26.039-9.088-26.039-20.294
								c0-11.208,11.657-20.294,26.039-20.294C235.02,189.078,246.677,198.164,246.677,209.372z"/>
							<g>
								<path style="fill:#4D4A4F;" d="M220.684,215.104L220.684,215.104c0,0-0.036,0-0.042,0c-0.015,0-0.039,0-0.039,0l0,0
									c-0.421,0.004-2.563,0.087-2.18,0.968c0.401,0.937,1.24,1.86,2.18,1.918c0,0,0.023,0.009,0.039,0.009
									c0.01,0,0.042-0.009,0.042-0.009c0.936-0.058,1.774-0.981,2.178-1.918C223.24,215.191,221.098,215.108,220.684,215.104z"/>
								<g>
									<g>
										<g>
											<path style="fill:#ECC049;" d="M229.294,210.768c0,0,2.416-7.622,10.861-3.427
												C240.155,207.341,237.916,215.792,229.294,210.768z"/>
											<path style="fill:#211E23;" d="M233.831,206.267c-0.001,0,0.477,0.27,0.897,0.761c0.452,0.48,0.837,1.18,1.047,1.928
												c0.205,0.75,0.236,1.549,0.093,2.193c-0.11,0.636-0.384,1.114-0.383,1.114c0.001,0-0.479-0.27-0.9-0.76
												c-0.453-0.481-0.835-1.182-1.044-1.93c-0.202-0.751-0.232-1.549-0.091-2.193
												C233.561,206.743,233.831,206.267,233.831,206.267z"/>
										</g>
									</g>
									<g>
										<g>
											<path style="fill:#ECC049;" d="M211.99,210.768c0,0-2.415-7.622-10.861-3.427
												C201.129,207.341,203.368,215.792,211.99,210.768z"/>
											<path style="fill:#211E23;" d="M207.453,206.267c0,0-0.477,0.27-0.897,0.761c-0.452,0.48-0.837,1.18-1.046,1.928
												c-0.207,0.75-0.236,1.549-0.093,2.193c0.11,0.636,0.383,1.114,0.382,1.114c0,0,0.48-0.27,0.9-0.76
												c0.452-0.481,0.835-1.182,1.043-1.93c0.204-0.751,0.232-1.549,0.092-2.193
												C207.723,206.743,207.453,206.267,207.453,206.267z"/>
										</g>
									</g>
								</g>
							</g>
						</g>
					</g>
					<g>
						<g>
							<g>
								<path style="fill:#211E23;" d="M236.13,215.71c5.66-1.509,11.32-3.019,16.981-4.528c0.783-0.208,0.449-1.421-0.335-1.211
									c-5.659,1.509-11.319,3.019-16.98,4.527C235.013,214.706,235.345,215.92,236.13,215.71L236.13,215.71z"/>
							</g>
							<g>
								<path style="fill:#211E23;" d="M235.993,216.189c5.857-0.01,11.716-0.02,17.574-0.029c0.812-0.003,0.812-1.26,0-1.258
									c-5.857,0.01-11.716,0.02-17.574,0.03C235.181,214.933,235.181,216.19,235.993,216.189L235.993,216.189z"/>
							</g>
							<g>
								<path style="fill:#211E23;" d="M234.38,217.158c5.701,1.344,11.403,2.687,17.104,4.03c0.79,0.186,1.125-1.026,0.335-1.211
									c-5.702-1.344-11.404-2.687-17.105-4.031C233.926,215.759,233.591,216.973,234.38,217.158L234.38,217.158z"/>
							</g>
						</g>
						<g>
							<g>
								<path style="fill:#211E23;" d="M205.151,215.71c-5.66-1.509-11.321-3.019-16.982-4.528
									c-0.783-0.208-0.451-1.421,0.334-1.211c5.661,1.509,11.321,3.019,16.982,4.527
									C206.269,214.706,205.936,215.92,205.151,215.71L205.151,215.71z"/>
							</g>
							<g>
								<path style="fill:#211E23;" d="M205.289,216.189c-5.859-0.01-11.716-0.02-17.575-0.029c-0.811-0.003-0.811-1.26,0-1.258
									c5.859,0.01,11.716,0.02,17.575,0.03C206.099,214.933,206.099,216.19,205.289,216.189L205.289,216.189z"/>
							</g>
							<g>
								<path style="fill:#211E23;" d="M206.901,217.158c-5.702,1.344-11.403,2.687-17.107,4.03
									c-0.788,0.186-1.123-1.026-0.333-1.211c5.701-1.344,11.404-2.687,17.105-4.031
									C207.354,215.759,207.69,216.973,206.901,217.158L206.901,217.158z"/>
							</g>
						</g>
					</g>
				</g>
			</g>
		</g>
		<g>
			<path style="fill:#211E23;" d="M271.595,167.032c11.535-8.554,18.61-22.921,19.153-37.117
				c0.578-15.107-7.526-34.456-25.188-34.274c-14.549,0.151-21.191,20.242-10.652,29.563c4.697,4.154,11.972,3.391,16.232-0.906
				c4.447-4.486,2.577-11.649-2.725-14.378c-3.897-2.005-7.624,0.027-9.153,3.793c-0.525,1.294,1.569,1.851,2.087,0.576
				c1.659-4.087,5.756-3.339,8.392-0.758c2.909,2.848,1.872,7.217-0.687,9.797c-5.835,5.886-14.46,0.806-16.718-5.737
				c-1.892-5.482,0.374-11.762,4.223-15.785c5.354-5.598,13.51-4.558,19.607-0.905c11.68,6.997,13.803,23.752,11.71,35.944
				c-1.838,10.694-8.59,21.806-17.373,28.317C269.395,165.984,270.472,167.864,271.595,167.032L271.595,167.032z"/>
		</g>
	</g>
	<g>
		<g>
			<g>
				<g>
					<g>
						<g>
							<polygon style="fill:#211E23;" points="248.352,331.139 250.464,316.883 235.414,321.939 							"/>
							<polygon style="fill:#4D4A4F;" points="246.37,328.954 247.737,319.717 239.367,323.2 							"/>
						</g>
						<g>
							<g>
								<polygon style="fill:#211E23;" points="202.719,331.139 200.607,316.883 215.654,321.939 								"/>
								<polygon style="fill:#4D4A4F;" points="204.702,328.954 203.334,319.717 211.704,323.2 								"/>
							</g>
						</g>
					</g>
					<g>
						<path style="fill:#211E23;" d="M252.776,339.511c0,11.725-12.197,21.234-27.242,21.234c-15.046,0-27.243-9.51-27.243-21.234
							c0-11.727,12.197-21.232,27.243-21.232C240.579,318.278,252.776,327.784,252.776,339.511z"/>
						<g>
							<path style="fill:#4D4A4F;" d="M225.58,345.509L225.58,345.509c0,0-0.037,0-0.045,0c-0.015,0-0.041,0-0.041,0l0,0
								c-0.44,0.004-2.679,0.09-2.28,1.013c0.421,0.979,1.297,1.945,2.28,2.007c0,0,0.025,0.009,0.041,0.009
								c0.012,0,0.045-0.009,0.045-0.009c0.978-0.061,1.855-1.027,2.279-2.007C228.253,345.599,226.011,345.513,225.58,345.509z"/>
							<g>
								<g>
									<g>
										<path style="fill:#ECC049;" d="M234.588,340.971c0,0,2.527-7.974,11.364-3.585
											C245.952,337.386,243.609,346.228,234.588,340.971z"/>
										<path style="fill:#211E23;" d="M239.335,336.262c-0.002,0,0.498,0.283,0.937,0.797c0.476,0.501,0.877,1.234,1.098,2.017
											c0.213,0.785,0.245,1.621,0.097,2.295c-0.114,0.665-0.401,1.166-0.401,1.166c0.002,0-0.5-0.282-0.941-0.795
											c-0.475-0.504-0.874-1.237-1.093-2.02c-0.211-0.787-0.244-1.621-0.093-2.295
											C239.052,336.761,239.335,336.262,239.335,336.262z"/>
									</g>
								</g>
								<g>
									<g>
										<path style="fill:#ECC049;" d="M216.482,340.971c0,0-2.527-7.974-11.363-3.585
											C205.119,337.386,207.461,346.228,216.482,340.971z"/>
										<path style="fill:#211E23;" d="M211.736,336.262c0,0-0.501,0.283-0.939,0.797c-0.472,0.501-0.876,1.234-1.095,2.017
											c-0.216,0.785-0.246,1.621-0.097,2.295c0.115,0.665,0.401,1.166,0.399,1.166c0,0,0.503-0.282,0.943-0.795
											c0.472-0.504,0.874-1.237,1.092-2.02c0.211-0.787,0.241-1.621,0.094-2.295
											C212.019,336.761,211.736,336.262,211.736,336.262z"/>
									</g>
								</g>
							</g>
						</g>
					</g>
				</g>
				<g>
					<g>
						<g>
							<path style="fill:#211E23;" d="M241.738,346.142c5.925-1.579,11.846-3.158,17.77-4.737c0.817-0.219,0.47-1.486-0.352-1.267
								c-5.921,1.578-11.844,3.158-17.767,4.736C240.571,345.092,240.919,346.361,241.738,346.142L241.738,346.142z"/>
						</g>
						<g>
							<path style="fill:#211E23;" d="M241.596,346.644c6.129-0.011,12.259-0.021,18.389-0.03c0.848-0.003,0.848-1.317,0-1.316
								c-6.13,0.011-12.26,0.021-18.389,0.032C240.748,345.33,240.748,346.645,241.596,346.644L241.596,346.644z"/>
						</g>
						<g>
							<path style="fill:#211E23;" d="M239.909,347.658c5.965,1.405,11.93,2.811,17.895,4.215c0.827,0.195,1.178-1.073,0.351-1.267
								c-5.965-1.405-11.932-2.812-17.896-4.218C239.435,346.194,239.084,347.463,239.909,347.658L239.909,347.658z"/>
						</g>
					</g>
					<g>
						<g>
							<path style="fill:#211E23;" d="M209.328,346.142c-5.924-1.579-11.847-3.158-17.768-4.737
								c-0.819-0.219-0.473-1.486,0.347-1.267c5.924,1.578,11.846,3.158,17.769,4.736
								C210.495,345.092,210.149,346.361,209.328,346.142L209.328,346.142z"/>
						</g>
						<g>
							<path style="fill:#211E23;" d="M209.471,346.644c-6.13-0.011-12.258-0.021-18.389-0.03c-0.847-0.003-0.847-1.317,0-1.316
								c6.131,0.011,12.259,0.021,18.389,0.032C210.318,345.33,210.318,346.645,209.471,346.644L209.471,346.644z"/>
						</g>
						<g>
							<path style="fill:#211E23;" d="M211.157,347.658c-5.964,1.405-11.929,2.811-17.896,4.215
								c-0.824,0.195-1.177-1.073-0.349-1.267c5.964-1.405,11.932-2.812,17.898-4.218
								C211.633,346.194,211.984,347.463,211.157,347.658L211.157,347.658z"/>
						</g>
					</g>
				</g>
			</g>
		</g>
		<path style="fill:#211E23;" d="M261.603,402.52c-2.713-5.767-9.071,0-9.071,0s-2.551-8.14-8.782-13.567
			c-6.23-5.428-9.961-23.744-9.961-34.6h-7.646h-1.214h-7.645c0,10.856-3.732,29.173-9.961,34.6
			c-6.231,5.428-8.783,13.567-8.783,13.567s-6.358-5.767-9.072,0c-2.715,5.768,10.598,21.032,10.598,21.032h24.864h1.214h24.864
			C251.006,423.552,264.319,408.287,261.603,402.52z"/>
		<g>
			<path style="fill:#211E23;" d="M237.138,401.514c11.061-2.195,22.845-3.965,34.121-3.002c5.686,0.485,12.589,3.511,11.958,10.398
				c-0.645,7.055-10.326,11.248-15.831,13.502c-19.823,8.119-41.781,5.426-61.976,11.85c-7.872,2.504-14.439,7.827-9.796,16.348
				c0.69,1.265,2.797,0.43,2.098-0.855c-7.155-13.128,16.44-15.589,24.302-16.744c12.305-1.807,24.621-2.275,36.723-5.398
				c7.978-2.059,16.6-5.163,22.634-11.011c3.447-3.34,5.218-7.872,3.282-12.465c-2.181-5.174-7.061-7.119-12.243-7.778
				c-11.596-1.475-24.148,0.648-35.538,2.908C235.449,399.548,235.705,401.798,237.138,401.514L237.138,401.514z"/>
		</g>
	</g>
	<g>
		<g>
			<g>
				<g>
					<g>
						<g>
							<g>
								<polygon style="fill:#211E23;" points="77.412,352.036 79.385,338.717 65.324,343.44 								"/>
								<polygon style="fill:#4D4A4F;" points="75.56,349.996 76.837,341.365 69.017,344.618 								"/>
							</g>
							<g>
								<g>
									<polygon style="fill:#211E23;" points="34.775,352.036 32.803,338.717 46.863,343.44 									"/>
									<polygon style="fill:#4D4A4F;" points="36.629,349.996 35.35,341.365 43.171,344.618 									"/>
								</g>
							</g>
						</g>
						<g>
							<path style="fill:#211E23;" d="M81.545,359.858c0,10.954-11.396,19.84-25.452,19.84c-14.058,0-25.452-8.886-25.452-19.84
								c0-10.957,11.395-19.837,25.452-19.837C70.149,340.022,81.545,348.901,81.545,359.858z"/>
							<g>
								<path style="fill:#4D4A4F;" d="M56.136,365.462L56.136,365.462c0,0-0.036,0-0.043,0c-0.015,0-0.038,0-0.038,0l0,0
									c-0.411,0.004-2.503,0.084-2.13,0.947c0.395,0.914,1.214,1.818,2.13,1.874c0,0,0.023,0.01,0.038,0.01
									c0.011,0,0.043-0.01,0.043-0.01c0.913-0.056,1.733-0.96,2.127-1.874C58.634,365.546,56.538,365.466,56.136,365.462z"/>
								<g>
									<g>
										<g>
											<path style="fill:#ECC049;" d="M64.551,361.223c0,0,2.361-7.449,10.618-3.35
												C75.169,357.873,72.98,366.135,64.551,361.223z"/>
											<path style="fill:#211E23;" d="M68.987,356.823c-0.002,0,0.466,0.264,0.876,0.743c0.442,0.469,0.817,1.154,1.025,1.887
												c0.2,0.732,0.229,1.514,0.09,2.143c-0.107,0.622-0.374,1.09-0.374,1.09c0.001,0-0.469-0.265-0.88-0.742
												c-0.443-0.473-0.818-1.157-1.02-1.887c-0.199-0.735-0.228-1.515-0.089-2.145
												C68.722,357.29,68.987,356.823,68.987,356.823z"/>
										</g>
									</g>
									<g>
										<g>
											<path style="fill:#ECC049;" d="M47.637,361.223c0,0-2.361-7.449-10.618-3.35
												C37.019,357.873,39.207,366.135,47.637,361.223z"/>
											<path style="fill:#211E23;" d="M43.201,356.823c0,0-0.468,0.264-0.879,0.743c-0.441,0.469-0.818,1.154-1.023,1.887
												c-0.201,0.732-0.23,1.514-0.091,2.143c0.107,0.622,0.376,1.09,0.374,1.09c0,0,0.469-0.265,0.881-0.742
												c0.44-0.473,0.817-1.157,1.019-1.887c0.197-0.735,0.226-1.515,0.089-2.145C43.465,357.29,43.201,356.823,43.201,356.823z
												"/>
										</g>
									</g>
								</g>
							</g>
						</g>
					</g>
					<g>
						<g>
							<g>
								<path style="fill:#211E23;" d="M71.233,366.054c5.535-1.474,11.066-2.95,16.6-4.426c0.766-0.204,0.44-1.389-0.326-1.185
									c-5.534,1.476-11.065,2.95-16.6,4.426C70.141,365.073,70.466,366.259,71.233,366.054L71.233,366.054z"/>
							</g>
							<g>
								<path style="fill:#211E23;" d="M71.1,366.523c5.726-0.009,11.453-0.02,17.178-0.028c0.795-0.002,0.795-1.231,0-1.229
									c-5.725,0.01-11.452,0.019-17.178,0.028C70.306,365.295,70.306,366.524,71.1,366.523L71.1,366.523z"/>
							</g>
							<g>
								<path style="fill:#211E23;" d="M69.524,367.47c5.572,1.315,11.145,2.627,16.72,3.94c0.772,0.182,1.099-1.003,0.327-1.184
									c-5.575-1.313-11.146-2.627-16.722-3.94C69.08,366.103,68.752,367.29,69.524,367.47L69.524,367.47z"/>
							</g>
						</g>
						<g>
							<g>
								<path style="fill:#211E23;" d="M40.95,366.054c-5.534-1.474-11.067-2.95-16.601-4.426c-0.765-0.204-0.441-1.389,0.326-1.185
									c5.533,1.476,11.068,2.95,16.602,4.426C42.042,365.073,41.718,366.259,40.95,366.054L40.95,366.054z"/>
							</g>
							<g>
								<path style="fill:#211E23;" d="M41.085,366.523c-5.728-0.009-11.454-0.02-17.18-0.028c-0.794-0.002-0.794-1.231,0-1.229
									c5.726,0.01,11.453,0.019,17.18,0.028C41.876,365.295,41.876,366.524,41.085,366.523L41.085,366.523z"/>
							</g>
							<g>
								<path style="fill:#211E23;" d="M42.66,367.47c-5.573,1.315-11.145,2.627-16.721,3.94c-0.77,0.182-1.099-1.003-0.324-1.184
									c5.571-1.313,11.146-2.627,16.72-3.94C43.104,366.103,43.432,367.29,42.66,367.47L42.66,367.47z"/>
							</g>
						</g>
					</g>
				</g>
			</g>
			<path style="fill:#211E23;" d="M129.221,342.849c-15.221-10.005-27.73-0.25-33.223,9.188
				c-4.905,8.426-11.491,25.035-19.161,27.662c-7.668,2.627-11.513-3.875-11.513-3.875l-11.444,0.496
				c10.68,19.497,9.655,45.446,9.655,45.446c-7.44,0-5.543,5.765-5.543,5.765h12.513c2.486-57.703,47.225-46.214,54.72-33.724
				c7.494,12.49,6.495,28.729,6.495,28.729c-7.458-1.385-5.995,4.995-5.995,4.995h12.24
				C146.956,403.549,150.203,356.642,129.221,342.849z"/>
			<path style="fill:#211E23;" d="M125.659,425.56c0.234-1.743,1.421-3.886,6.06-3.024c0,0,0.451-7.39-1.552-16.031
				c-0.055,6.949-3.194,12.781-3.194,12.781c-6.495,0-4.997,6.274-4.997,6.274H125.659L125.659,425.56z"/>
		</g>
		<g>
			<path style="fill:#211E23;" d="M123.48,357.022c6.459-10.474,9.995-23.819,7.468-35.982
				c-2.934-14.114-15.48-30.547-31.519-27.658c-13.183,2.373-18.959,20.889-5.22,27.183c4.677,2.142,9.782,1.091,12.651-3.336
				c2.561-3.953,1.086-8.693-2.774-11.046c-1.178-0.718-2.427,1.031-1.243,1.754c4.16,2.535,3.871,7.33,0.287,10.264
				c-4.817,3.94-11.351-0.817-13.713-5.224c-2.81-5.241-0.229-11.275,4.069-14.707c5.536-4.421,13.286-3.762,19.126-0.511
				c11.658,6.49,17.767,21.418,16.955,34.238c-0.516,8.151-3.548,16.818-7.843,23.782
				C121.002,356.952,122.751,358.202,123.48,357.022L123.48,357.022z"/>
		</g>
	</g>
	<g>
		<g>
			<g>
				<g>
					<g>
						<g>
							<g>
								<polygon style="fill:#211E23;" points="354.334,378.612 350.746,365.814 339.977,375.736 								"/>
								<polygon style="fill:#4D4A4F;" points="351.844,377.521 349.517,369.225 343.78,375.309 								"/>
							</g>
							<g>
								<g>
									<polygon style="fill:#211E23;" points="315.901,395.786 308.759,384.577 323.334,383.172 									"/>
									<polygon style="fill:#4D4A4F;" points="316.75,393.202 312.123,385.935 320.48,385.72 									"/>
								</g>
							</g>
						</g>
						<g>
							<path style="fill:#211E23;" d="M361.211,383.998c4.41,9.874-2.282,22.475-14.951,28.136
								c-12.671,5.663-26.522,2.245-30.936-7.63c-4.413-9.876,2.283-22.473,14.953-28.135
								C342.947,370.708,356.797,374.124,361.211,383.998z"/>
							<g>
								<path style="fill:#4D4A4F;" d="M340.563,399.283L340.563,399.283c0,0-0.031,0.017-0.038,0.019
									c-0.014,0.008-0.034,0.015-0.034,0.015l0,0c-0.369,0.17-2.224,1.086-1.539,1.712c0.725,0.666,1.825,1.151,2.676,0.831
									c0,0,0.025-0.001,0.036-0.007c0.01-0.003,0.035-0.023,0.035-0.023c0.801-0.419,1.178-1.564,1.163-2.548
									C342.85,398.354,340.928,399.126,340.563,399.283z"/>
								<g>
									<g>
										<g>
											<path style="fill:#ECC049;" d="M346.442,392.073c0,0-0.873-7.667,8.223-7.295
												C354.665,384.778,356.018,393.104,346.442,392.073z"/>
											<path style="fill:#211E23;" d="M348.667,386.322c0,0,0.527,0.049,1.09,0.315c0.591,0.245,1.202,0.711,1.682,1.287
												c0.478,0.581,0.82,1.272,0.947,1.896c0.154,0.603,0.1,1.133,0.1,1.133c0.001-0.001-0.527-0.049-1.091-0.315
												c-0.59-0.245-1.202-0.713-1.679-1.29c-0.476-0.583-0.817-1.272-0.944-1.896
												C348.617,386.848,348.667,386.322,348.667,386.322z"/>
										</g>
									</g>
									<g>
										<g>
											<path style="fill:#ECC049;" d="M331.193,398.888c0,0-5.129-5.765-10.92,1.257
												C320.273,400.145,325.576,406.708,331.193,398.888z"/>
											<path style="fill:#211E23;" d="M325.425,396.709c0,0-0.315,0.426-0.491,1.022c-0.209,0.601-0.274,1.369-0.163,2.112
												c0.112,0.742,0.401,1.459,0.78,1.969c0.348,0.516,0.778,0.83,0.776,0.832c0,0,0.315-0.428,0.494-1.025
												c0.209-0.602,0.271-1.37,0.16-2.111c-0.116-0.741-0.406-1.456-0.783-1.966
												C325.852,397.022,325.425,396.709,325.425,396.709z"/>
										</g>
									</g>
								</g>
							</g>
						</g>
					</g>
					<g>
						<g>
							<g>
								<path style="fill:#211E23;" d="M354.41,393.736c4.395-3.559,8.788-7.118,13.184-10.676c0.605-0.49-0.166-1.428-0.773-0.935
									c-4.393,3.559-8.786,7.117-13.181,10.675C353.033,393.291,353.803,394.23,354.41,393.736L354.41,393.736z"/>
							</g>
							<g>
								<path style="fill:#211E23;" d="M354.48,394.215c5.157-2.315,10.314-4.633,15.472-6.947c0.715-0.323,0.221-1.429-0.494-1.107
									c-5.158,2.314-10.317,4.63-15.473,6.947C353.27,393.427,353.765,394.534,354.48,394.215L354.48,394.215z"/>
							</g>
							<g>
								<path style="fill:#211E23;" d="M353.441,395.702c5.551-1.061,11.104-2.122,16.656-3.184
									c0.771-0.148,0.588-1.347-0.181-1.198c-5.553,1.062-11.107,2.122-16.66,3.184
									C352.49,394.649,352.671,395.849,353.441,395.702L353.441,395.702z"/>
							</g>
						</g>
						<g>
							<g>
								<path style="fill:#211E23;" d="M327.112,405.936c-5.579,0.898-11.164,1.796-16.744,2.696
									c-0.772,0.125-0.958-1.074-0.184-1.199c5.582-0.9,11.166-1.797,16.746-2.696
									C327.703,404.612,327.89,405.811,327.112,405.936L327.112,405.936z"/>
							</g>
							<g>
								<path style="fill:#211E23;" d="M327.425,406.305c-5.166,2.298-10.331,4.595-15.497,6.895
									c-0.716,0.316-1.211-0.79-0.496-1.107c5.167-2.301,10.33-4.598,15.496-6.895
									C327.643,404.88,328.138,405.986,327.425,406.305L327.425,406.305z"/>
							</g>
							<g>
								<path style="fill:#211E23;" d="M329.227,406.523c-4.496,3.428-8.991,6.858-13.488,10.286
									c-0.62,0.473-1.395-0.462-0.77-0.937c4.493-3.428,8.99-6.858,13.485-10.286C329.076,405.112,329.85,406.05,329.227,406.523
									L329.227,406.523z"/>
							</g>
						</g>
					</g>
				</g>
			</g>
		</g>
		<path style="fill:#211E23;" d="M436.635,426.779h13.592c0,0,13.592-58.075,2.162-82.17c-11.43-24.095-51.898-27.803-68.578,3.397
			c-16.681,31.2-23.194,54.716-46.645,64.872c-13.006,5.632-22.552,7.413-22.242,13.9h9.267c0,0,4.799-2.755,9.576-4.324
			c6.941-2.281,32.918-10.954,44.093-22.764c11.664-12.33,28.81-33.459,47.963-25.118c19.152,8.34,18.844,35.216,18.534,46.336
			C444.356,420.909,436.944,418.438,436.635,426.779z"/>
		<g>
			<path style="fill:#211E23;" d="M432.557,353.506c-9.843-14.55-15.684-33.375-12.809-50.871
				c3.338-20.309,20.247-44.496,43.296-41.338c18.943,2.596,28.292,28.658,9.075,38.457c-6.545,3.336-13.887,2.143-18.244-3.999
				c-3.89-5.485-2.072-12.334,3.291-15.921c1.639-1.096,3.525,1.326,1.878,2.428c-5.781,3.864-5.08,10.688,0.207,14.652
				c7.108,5.334,16.142-1.842,19.247-8.269c3.691-7.647-0.352-16.094-6.685-20.732c-8.161-5.975-19.175-4.569-27.31,0.418
				c-16.24,9.955-24.059,31.611-22.132,49.85c1.229,11.593,6.069,23.774,12.614,33.447
				C436.087,353.259,433.666,355.145,432.557,353.506L432.557,353.506z"/>
		</g>
	</g>
	<g>
		<text transform="matrix(1 0 0 1 116.0815 59.228)" style="font-family:'MountainsofChristmas-Regular'; font-size:29.6661px;">Halloween Cat Collection</text>
		<g>
			<path style="fill:#ECC049;" d="M418.557,73.375c-38.789,0-77.577,0-116.366,0c-60.855,0-121.709,0-182.563,0
				c-12.681,0-25.362,0-38.042,0c0.423,0,0.484,1.047,0.484-0.556c0-2.441,0-4.881,0-7.322c0-7.816,0-15.633,0-23.449
				c0-6.173,0-12.346,0-18.519c0-1.805,0.15-0.904-0.527-0.904c0.384,0,0.768,0,1.151,0c44.184,0,88.369,0,132.553,0
				c58.756,0,117.512,0,176.268,0c8.967,0,17.934,0,26.901,0c0.064,0-0.484-1.1-0.484-0.011c0,1.472,0,2.944,0,4.416
				c0,5.992,0,11.984,0,17.976c0,9.664,0,19.33,0,28.994c0,0.806,1.25,0.806,1.25,0c0-17.333,0-34.667,0-52
				c0-0.341-0.284-0.625-0.625-0.625c-38.789,0-77.577,0-116.366,0c-60.855,0-121.709,0-182.563,0c-12.728,0-25.456,0-38.184,0
				c-0.341,0-0.625,0.284-0.625,0.625c0,17.333,0,34.667,0,52c0,0.341,0.284,0.625,0.625,0.625c38.788,0,77.577,0,116.366,0
				c60.854,0,121.709,0,182.563,0c12.728,0,25.456,0,38.184,0C419.362,74.625,419.362,73.375,418.557,73.375z"/>
		</g>
	</g>
</g>
</svg>
