<?xml version="1.0" encoding="utf-8"?>
<!-- Generator: Adobe Illustrator 27.5.0, SVG Export Plug-In . SVG Version: 6.00 Build 0)  -->
<svg version="1.1" xmlns="http://www.w3.org/2000/svg" xmlns:xlink="http://www.w3.org/1999/xlink" x="0px" y="0px"
	 viewBox="0 0 500 500" style="enable-background:new 0 0 500 500;" xml:space="preserve">
<g id="BACKGROUND">
	<rect style="fill:#FFFFFF;" width="500" height="500"/>
</g>
<g id="OBJECTS">
	<path d="M439.107,291.827c-7.658-8.431-15.159-13.11-22.338-13.968c8.654-4.887,11.136-14.081,12.141-17.808
		c0.149-0.553,0.278-1.031,0.371-1.279c0.024-0.065,0.046-0.114,0.063-0.149c0.195,0.027,0.544,0.137,0.79,0.214
		c1.413,0.44,3.777,1.178,6.218-1.42c2.386-2.539,3.932-7.676,3.675-12.213c-0.17-3.007-1.107-5.316-2.711-6.676
		c-0.986-0.836-1.931-1.184-2.741-1.287v-35.23c0-4.12-1.033-6.323-3.071-6.546c-1.575-0.176-3.205,1.18-4.334,3.026
		c-0.98-2.395-2.514-5.153-4.497-5.649c-0.707-0.174-1.426-0.055-2.082,0.351c-1.061,0.656-1.885,2.064-2.483,3.479
		c-0.944-2.235-2.407-4.653-4.408-5.02c-2.369-0.433-4.068,1.979-5.101,4.157c-1.182-2.431-2.903-5.129-4.828-5.441
		c-0.11-0.028-0.224-0.044-0.347-0.04c-0.114-0.004-0.23,0.011-0.339,0.039c-1.928,0.306-3.652,3.008-4.836,5.443
		c-1.032-2.179-2.731-4.59-5.1-4.157c-2.001,0.367-3.465,2.785-4.408,5.02c-0.599-1.415-1.423-2.822-2.484-3.478
		c-0.657-0.407-1.378-0.527-2.081-0.352c-1.984,0.496-3.517,3.254-4.497,5.649c-1.129-1.845-2.758-3.202-4.335-3.026
		c-2.038,0.224-3.071,2.426-3.071,6.546v35.238c-0.8,0.111-1.727,0.458-2.695,1.279c-1.604,1.36-2.541,3.669-2.711,6.676
		c-0.257,4.538,1.289,9.674,3.675,12.212c2.441,2.599,4.805,1.861,6.218,1.421c0.246-0.077,0.595-0.187,0.79-0.214
		c0.018,0.035,0.039,0.084,0.064,0.149c0.093,0.248,0.222,0.727,0.371,1.279c1.005,3.726,3.487,12.916,12.135,17.803
		c-7.19,0.846-14.704,5.526-22.375,13.972c-6.248,6.878-10.181,13.645-10.346,13.931c-0.345,0.598-0.14,1.362,0.458,1.708
		c0.197,0.113,0.412,0.167,0.624,0.167c0.432,0,0.852-0.224,1.084-0.625c0.116-0.201,8.834-15.107,20.438-22.601
		c-2.988,13.642,7.113,19.759,10.396,21.353l-0.501,2.402c-0.141,0.676,0.293,1.338,0.969,1.479
		c0.086,0.018,0.172,0.026,0.256,0.026c0.58,0,1.1-0.405,1.223-0.995l0.706-3.387c0.001-0.007-0.001-0.013,0-0.019
		c0.002-0.012,0.008-0.023,0.01-0.035l0.92-5.643c0.081-0.492-0.14-0.985-0.561-1.255c-6.448-4.12-6.794-9.69-6.018-13.527
		c2.141,6.811,8.513,11.767,16.023,11.767c7.509,0,13.881-4.955,16.023-11.767c0.776,3.838,0.431,9.407-6.017,13.527
		c-0.421,0.27-0.641,0.762-0.561,1.255l0.919,5.643c0.002,0.012,0.007,0.023,0.01,0.035c0.001,0.007-0.001,0.013,0,0.02l0.707,3.387
		c0.123,0.589,0.643,0.994,1.223,0.994c0.084,0,0.17-0.009,0.257-0.026c0.676-0.141,1.108-0.804,0.968-1.479l-0.501-2.402
		c3.283-1.595,13.382-7.71,10.398-21.348c11.598,7.495,20.322,22.395,20.438,22.596c0.345,0.599,1.111,0.804,1.707,0.457
		c0.598-0.345,0.803-1.109,0.458-1.707C449.287,305.473,445.354,298.705,439.107,291.827z M380.397,259.4
		c-0.172-0.639-0.309-1.142-0.44-1.499c-0.522-1.401-1.439-1.767-2.309-1.767c-0.622,0-1.221,0.186-1.634,0.315
		c-1.274,0.397-2.281,0.713-3.65-0.746c-1.898-2.019-3.215-6.569-3.001-10.36c0.129-2.274,0.779-4.018,1.832-4.911
		c0.669-0.567,1.295-0.791,1.928-0.705c0.99,0.469,1.655,0.932,2.099,1.324c0.413,0.452,0.733,0.907,0.919,1.218
		c0.007,0.017,0.01,0.036,0.018,0.053c1.667,3.644,2.593,5.087,4.009,4.611c0.907-0.308,1.934-0.655-0.052-9.548
		c1.903-2.91,2.586-7.144,2.819-10.265c0.06-0.785,0.421-1.497,1.02-2.007c0.601-0.511,1.364-0.749,2.151-0.687
		c4.949,0.429,11.967,0.939,17.349,0.939c5.323,0,12.34-0.51,17.288-0.938c0.788-0.071,1.55,0.175,2.15,0.686
		c0.6,0.51,0.962,1.223,1.022,2.007c0.233,3.122,0.916,7.357,2.819,10.265c-1.985,8.893-0.959,9.241-0.052,9.548
		c0.175,0.059,0.342,0.089,0.504,0.089c1.134,0,2.019-1.468,3.441-4.562c0.014-0.021,0.034-0.035,0.047-0.057
		c0.173-0.316,0.6-0.95,1.166-1.526c0.436-0.353,1.041-0.748,1.881-1.147c0.647-0.109,1.293,0.12,1.979,0.702
		c1.053,0.893,1.703,2.637,1.832,4.911c0.214,3.79-1.104,8.341-3.001,10.36c-1.368,1.458-2.376,1.143-3.65,0.746
		c-0.99-0.31-3.048-0.954-3.942,1.451c-0.132,0.357-0.269,0.86-0.44,1.499c-1.412,5.233-5.163,19.131-23.05,19.131
		C385.56,278.531,381.809,264.633,380.397,259.4z M413.095,279.515c-0.294,5.085-4.512,9.135-9.671,9.135
		c-5.163,0-9.385-4.059-9.671-9.153c2.729,0.96,5.929,1.534,9.694,1.534C407.191,281.031,410.377,280.466,413.095,279.515z
		 M382.145,284.752c0.068-0.336,0.264-0.613,0.528-0.79c0.267-0.18,0.602-0.257,0.943-0.189c0.678,0.137,1.115,0.795,0.979,1.473
		c-1.201,5.968,1.07,11.423,6.075,14.593c0.384,0.243,0.569,0.662,0.56,1.086c-0.003,0.112-0.02,0.218-0.053,0.327
		c-0.032,0.106-0.057,0.214-0.12,0.311c-0.237,0.376-0.642,0.581-1.057,0.581c-0.228,0-0.46-0.063-0.668-0.194
		c-3.805-2.41-6.266-5.934-7.166-10.009C381.667,289.681,381.641,287.256,382.145,284.752z M403.425,294.074
		c-7.631,0-13.866-6.016-14.255-13.552c0.705-0.133,1.416-0.215,2.13-0.265c0.654,6.114,5.841,10.892,12.126,10.892
		c6.285,0,11.473-4.778,12.127-10.892c0.713,0.049,1.423,0.132,2.129,0.265C417.291,288.058,411.055,294.074,403.425,294.074z
		 M424.585,292.383c-0.978,3.888-3.401,7.243-7.069,9.566c-0.208,0.132-0.439,0.194-0.668,0.194c-0.414,0-0.819-0.205-1.057-0.581
		c-0.061-0.097-0.086-0.203-0.118-0.307c-0.034-0.112-0.053-0.221-0.055-0.336c-0.008-0.422,0.177-0.839,0.559-1.081
		c5.005-3.17,7.276-8.625,6.076-14.594c-0.136-0.677,0.303-1.336,0.979-1.472c0.341-0.07,0.676,0.007,0.942,0.186
		c0.265,0.178,0.462,0.456,0.53,0.793C425.242,287.42,425.184,290.001,424.585,292.383z M394.941,232.977
		c-0.113,0.549-1.485,0.724-3.086,0.799c-1.601,0.059-2.983-0.001-3.142-0.538c-0.161-0.52,1.182-1.385,3.058-1.46
		C393.647,231.696,395.058,232.446,394.941,232.977z M411.909,232.977c-0.117-0.531,1.294-1.281,3.169-1.199
		c1.876,0.075,3.219,0.941,3.058,1.46c-0.158,0.537-1.541,0.597-3.142,0.538C413.394,233.701,412.022,233.526,411.909,232.977z
		 M401.657,255.823c-0.331-0.388-0.358-0.765-0.181-0.969c0.39-0.394,1.214-0.26,1.978-0.269c0.763,0.043,1.592-0.055,1.964,0.356
		c0.168,0.212,0.124,0.587-0.223,0.961c-0.337,0.369-0.999,0.701-1.785,0.683C402.624,256.567,401.977,256.206,401.657,255.823z
		 M406.943,263.643c-0.715,0.588-2.022,1.151-3.507,1.081c-1.483-0.052-2.672-0.64-3.397-1.16c-0.729-0.542-1.04-1.041-0.902-1.271
		c0.296-0.516,2.22,0.335,4.374,0.432c2.136,0.133,3.878-0.896,4.249-0.432C407.921,262.5,407.674,263.05,406.943,263.643z
		 M394.941,242.602c0,1.446-1.173,2.619-2.619,2.619c-1.446,0-2.619-1.173-2.619-2.619c0-1.446,1.173-2.619,2.619-2.619
		C393.768,239.983,394.941,241.156,394.941,242.602z M411.909,242.602c0-1.446,1.173-2.619,2.619-2.619
		c1.446,0,2.619,1.173,2.619,2.619c0,1.446-1.173,2.619-2.619,2.619C413.082,245.221,411.909,244.049,411.909,242.602z"/>
	<path d="M336.721,291.827c-7.664-8.438-15.172-13.118-22.356-13.97c8.651-4.887,11.132-14.079,12.138-17.805
		c0.149-0.554,0.278-1.032,0.371-1.28c0.024-0.065,0.046-0.114,0.063-0.149c0.195,0.027,0.544,0.137,0.79,0.214
		c1.413,0.44,3.777,1.178,6.218-1.42c2.386-2.539,3.931-7.675,3.675-12.213c-0.17-3.007-1.107-5.316-2.71-6.676
		c-0.764-0.649-1.504-0.999-2.176-1.174c0.642-7.798,1.003-17.169-0.072-23.789c-1.858-11.434-21.046-20.76-25.355-20.76
		c-2.812,0-8.725,4.154-11.253,6.031c-1.986-2.147-7.042-6.856-11.162-4.247c-1.351,0.855-13.266,8.672-15.558,19.602
		c-1.087,5.186-0.765,14.959-0.196,23.226c-0.616,0.192-1.282,0.529-1.969,1.112c-1.603,1.36-2.54,3.668-2.711,6.674
		c-0.256,4.538,1.289,9.675,3.675,12.214c2.44,2.599,4.805,1.861,6.218,1.421c0.246-0.077,0.595-0.187,0.79-0.214
		c0.017,0.035,0.039,0.084,0.063,0.149c0.093,0.248,0.222,0.727,0.371,1.279c1.006,3.726,3.487,12.919,12.138,17.805
		c-7.185,0.852-14.692,5.532-22.356,13.97c-6.248,6.878-10.181,13.645-10.346,13.931c-0.345,0.598-0.14,1.362,0.458,1.708
		c0.197,0.113,0.412,0.167,0.624,0.167c0.432,0,0.852-0.224,1.084-0.625c0.137-0.238,12.353-21.111,27.136-25.845
		c0.072,3.495,0.928,11.398,6.797,16.739c0.238,0.216,0.539,0.325,0.842,0.325c0.271,0,0.542-0.087,0.768-0.264l3.239-2.522
		c1.589,0.729,3.322,1.133,5.08,1.133c1.757,0,3.49-0.404,5.079-1.133l3.238,2.522c0.227,0.177,0.498,0.264,0.768,0.264
		c0.302,0,0.604-0.109,0.842-0.325c5.868-5.341,6.725-13.242,6.798-16.738c14.773,4.737,26.998,25.606,27.136,25.843
		c0.345,0.599,1.11,0.804,1.707,0.457c0.598-0.345,0.803-1.109,0.458-1.707C346.9,305.473,342.968,298.705,336.721,291.827z
		 M301.039,288.65c-5.161,0-9.381-4.055-9.671-9.144c2.724,0.955,5.917,1.525,9.671,1.525c3.754,0,6.947-0.569,9.67-1.525
		C310.419,284.596,306.199,288.65,301.039,288.65z M277.988,259.4c-0.172-0.639-0.309-1.142-0.44-1.499
		c-0.522-1.401-1.439-1.767-2.309-1.767c-0.622,0-1.221,0.186-1.634,0.315c-1.274,0.397-2.282,0.712-3.65-0.746
		c-1.897-2.019-3.215-6.571-3.001-10.362c0.129-2.273,0.779-4.016,1.832-4.909c0.184-0.156,0.365-0.284,0.544-0.39
		c0.483,6.24,1.041,11.12,1.096,11.588c0.072,0.63,0.607,1.106,1.241,1.106h9.026c0.841,0,1.592-0.329,2.174-0.952
		c2.169-2.324,1.716-8.904,1.191-16.522c-0.465-6.741-1.042-15.13,0.949-17.351c1.124-1.254,1.997-1.132,2.288-1.091
		c2.436,0.343,5.077,4.74,5.811,6.254c0.221,0.455,0.657,0.738,1.201,0.703c0.505-0.031,0.942-0.363,1.107-0.842
		c1.768-5.166,4.638-7.207,6.556-6.911c1.749,0.267,2.891,2.485,2.977,5.788c0.057,2.09-0.154,4.759-0.377,7.585
		c-0.613,7.767-1.308,16.571,2.653,20.856c1.523,1.649,3.605,2.485,6.186,2.485h16.478c0.619,0,1.146-0.454,1.236-1.066
		c0.066-0.445,0.781-5.312,1.382-11.742c0.258,0.121,0.518,0.277,0.785,0.504c1.053,0.894,1.703,2.637,1.831,4.911
		c0.214,3.79-1.103,8.341-3.001,10.36c-1.368,1.458-2.376,1.143-3.65,0.746c-0.99-0.31-3.048-0.954-3.942,1.451
		c-0.132,0.357-0.268,0.861-0.44,1.5c-1.412,5.232-5.163,19.13-23.05,19.13C283.151,278.531,279.4,264.633,277.988,259.4z
		 M292.044,295.321c-4.78-4.998-5.228-12.265-5.23-14.806c0.695-0.13,1.395-0.209,2.098-0.258c0.542,5.069,4.204,9.206,9.021,10.477
		L292.044,295.321z M298.243,293.663l2.796-2.178l2.796,2.178C302.028,294.206,300.048,294.206,298.243,293.663z M310.033,295.321
		l-5.888-4.587c4.816-1.271,8.478-5.408,9.02-10.477c0.703,0.049,1.403,0.128,2.099,0.258
		C315.262,283.058,314.812,290.324,310.033,295.321z M292.555,232.977c-0.113,0.549-1.485,0.724-3.086,0.799
		c-1.601,0.059-2.983-0.001-3.142-0.538c-0.161-0.52,1.182-1.385,3.058-1.46C291.261,231.696,292.672,232.446,292.555,232.977z
		 M292.555,242.602c0,1.446-1.173,2.619-2.619,2.619c-1.446,0-2.619-1.173-2.619-2.619c0-1.446,1.173-2.619,2.619-2.619
		C291.382,239.983,292.555,241.156,292.555,242.602z M299.271,255.823c-0.331-0.388-0.357-0.765-0.181-0.969
		c0.39-0.394,1.214-0.26,1.978-0.269c0.763,0.043,1.592-0.055,1.964,0.356c0.168,0.212,0.124,0.587-0.223,0.961
		c-0.337,0.369-0.999,0.701-1.785,0.683C300.238,256.567,299.591,256.206,299.271,255.823z M301.049,264.723
		c-1.483-0.052-2.672-0.64-3.397-1.16c-0.729-0.542-1.04-1.041-0.902-1.271c0.297-0.516,2.22,0.335,4.374,0.432
		c2.136,0.133,3.878-0.896,4.249-0.432c0.161,0.207-0.085,0.757-0.817,1.35C303.842,264.23,302.534,264.794,301.049,264.723z"/>
	<path d="M234.488,291.827c-7.664-8.438-15.172-13.118-22.356-13.97c8.651-4.887,11.133-14.079,12.138-17.804
		c0.149-0.554,0.279-1.032,0.371-1.28c0.024-0.065,0.046-0.114,0.064-0.149c0.194,0.027,0.544,0.137,0.79,0.214
		c1.411,0.439,3.775,1.179,6.218-1.421c2.386-2.539,3.931-7.676,3.674-12.214c-0.17-3.007-1.107-5.315-2.71-6.675
		c-1.114-0.945-2.173-1.262-3.046-1.311c0.029-0.086,0.055-0.16,0.084-0.248c1.456-4.406,3.165-10.652,3.596-14.969
		c0.298-2.972,0.415-6.423-0.972-9.49c-1.208-2.672-3.961-5.138-7.164-5.262c-1.09-5.999-4.036-9.564-9.947-12.146
		c-4.037-1.763-10.146-3.326-21.65,0.273c-7.157,2.239-14.25,2.614-19.459,1.024c-0.397-0.119-0.83-0.037-1.153,0.226
		c-0.323,0.263-0.494,0.668-0.457,1.083c0.107,1.186,0.562,2.326,1.268,3.281c-0.822,0.298-1.748,0.733-2.777,1.303
		c-1.947,1.08-3.339,2.569-4.555,4.018c-2.491,2.971-2.447,7.471-2.413,11.086l0.006,0.674c0.041,6.127,1.438,13.102,3.705,19.162
		c-0.824,0.093-1.794,0.438-2.807,1.297c-1.603,1.36-2.54,3.668-2.71,6.675c-0.256,4.538,1.289,9.675,3.674,12.214
		c2.442,2.599,4.806,1.861,6.218,1.421c0.246-0.077,0.595-0.187,0.79-0.214c0.018,0.035,0.04,0.084,0.064,0.149
		c0.092,0.248,0.222,0.727,0.371,1.28c1.005,3.726,3.487,12.918,12.138,17.804c-7.185,0.852-14.692,5.532-22.356,13.97
		c-6.247,6.878-10.18,13.645-10.345,13.931c-0.345,0.598-0.14,1.362,0.457,1.708c0.197,0.113,0.412,0.167,0.624,0.167
		c0.432,0,0.852-0.224,1.083-0.625c0.084-0.146,4.734-8.086,11.732-15.287c3.473,3.147,5.883,7.546,6.62,12.171
		c0.098,0.615,0.629,1.054,1.233,1.054c0.066,0,0.131-0.005,0.198-0.016c0.682-0.108,1.146-0.749,1.038-1.431
		c-0.818-5.136-3.479-10.021-7.316-13.538c4.018-3.827,8.682-7.213,13.634-8.798c0.706,8.614,7.93,15.412,16.723,15.412
		c8.793,0,16.016-6.797,16.723-15.411c4.949,1.586,9.612,4.973,13.631,8.8c-3.834,3.517-6.494,8.4-7.312,13.535
		c-0.109,0.682,0.356,1.322,1.038,1.431c0.067,0.011,0.133,0.016,0.198,0.016c0.604,0,1.135-0.439,1.233-1.054
		c0.736-4.623,3.145-9.021,6.616-12.168c6.998,7.2,11.65,15.138,11.735,15.284c0.345,0.599,1.111,0.804,1.708,0.457
		c0.598-0.345,0.803-1.109,0.457-1.707C244.668,305.473,240.735,298.705,234.488,291.827z M175.757,259.401
		c-0.172-0.639-0.309-1.143-0.441-1.5c-0.521-1.401-1.438-1.767-2.309-1.767c-0.622,0-1.221,0.186-1.633,0.315
		c-1.275,0.397-2.283,0.713-3.651-0.746c-1.897-2.019-3.215-6.57-3.001-10.361c0.128-2.273,0.779-4.017,1.831-4.91
		c0.698-0.591,1.35-0.822,2.008-0.701c0.077,0.014,0.152,0.048,0.228,0.071c0.795,1.824,1.666,3.538,2.606,5.071
		c1.251,2.036,2.655,1.826,3.201,1.64c2.379-0.81,2.69-12.473,2.687-12.588c-0.018-0.724,0.295-1.413,0.857-1.89
		c2.113-1.791,3.392-4.35,4.234-6.94c2.019,1.8,5.547,2.024,9.105,1.997c3.987-0.04,11.03-1.46,18.258-5.277
		c0.956,1.935,2.419,2.674,3.306,2.953c0.618,0.195,1.268,0.266,1.884,0.227c-0.099,3.388,1.216,6.769,3.646,9.174
		c0.32,0.317,0.665,0.625,1.011,0.935c1.036,0.926,2.015,1.801,2.186,2.861c0.03,0.189,0.065,0.848,0.1,1.485
		c0.248,4.665,0.479,7.306,2.341,7.343c0.036,0.001,0.072,0.002,0.109,0.002c0.754,0,1.957-0.308,4.395-6.958
		c0.111-0.039,0.22-0.083,0.333-0.104c0.655-0.121,1.311,0.11,2.008,0.701c1.052,0.893,1.703,2.637,1.832,4.91
		c0.214,3.791-1.104,8.342-3,10.361c-1.37,1.458-2.375,1.143-3.651,0.746c-0.99-0.309-3.049-0.951-3.942,1.451
		c-0.132,0.357-0.269,0.861-0.441,1.5c-1.412,5.232-5.163,19.13-23.05,19.13S177.169,264.633,175.757,259.401z M208.477,279.507
		c-0.29,5.089-4.51,9.144-9.671,9.144c-5.161,0-9.381-4.055-9.671-9.144c2.723,0.955,5.917,1.525,9.671,1.525
		C202.561,281.031,205.754,280.462,208.477,279.507z M198.807,294.074c-7.631,0-13.866-6.016-14.256-13.552
		c0.705-0.133,1.416-0.215,2.129-0.264c0.654,6.114,5.841,10.892,12.126,10.892c6.285,0,11.472-4.778,12.126-10.892
		c0.713,0.049,1.424,0.132,2.129,0.265C212.672,288.058,206.437,294.074,198.807,294.074z M190.322,232.977
		c-0.113,0.549-1.485,0.724-3.086,0.799c-1.601,0.059-2.983-0.001-3.141-0.538c-0.161-0.52,1.182-1.385,3.058-1.46
		C189.029,231.696,190.44,232.446,190.322,232.977z M207.291,232.977c-0.117-0.531,1.294-1.281,3.169-1.199
		c1.876,0.075,3.219,0.941,3.058,1.46c-0.158,0.537-1.541,0.597-3.142,0.538C208.776,233.701,207.403,233.526,207.291,232.977z
		 M190.322,242.602c0,1.446-1.173,2.619-2.619,2.619s-2.619-1.173-2.619-2.619c0-1.446,1.173-2.619,2.619-2.619
		S190.322,241.156,190.322,242.602z M207.291,242.602c0-1.446,1.173-2.619,2.619-2.619c1.446,0,2.619,1.173,2.619,2.619
		c0,1.446-1.173,2.619-2.619,2.619C208.463,245.221,207.291,244.049,207.291,242.602z M196.885,255.823
		c-0.331-0.388-0.358-0.765-0.181-0.969c0.39-0.394,1.214-0.26,1.978-0.269c0.763,0.043,1.592-0.055,1.964,0.356
		c0.168,0.212,0.124,0.587-0.223,0.961c-0.337,0.369-0.999,0.701-1.785,0.683C197.851,256.567,197.205,256.206,196.885,255.823z
		 M202.17,263.643c-0.714,0.588-2.022,1.151-3.507,1.081c-1.483-0.052-2.672-0.64-3.397-1.16c-0.729-0.542-1.039-1.041-0.902-1.271
		c0.297-0.516,2.22,0.335,4.374,0.432c2.136,0.133,3.878-0.896,4.249-0.432C203.148,262.5,202.902,263.05,202.17,263.643z"/>
	<path d="M132.256,291.827c-2.381-2.621-4.746-4.868-7.092-6.763c1.594-1.315,2.605-2.826,2.985-4.519
		c0.949-4.239-2.478-8.753-9.206-12.231c1.752-3.3,2.603-6.437,3.095-8.262c0.149-0.553,0.279-1.031,0.371-1.279
		c0.024-0.065,0.046-0.114,0.064-0.149c0.194,0.027,0.544,0.137,0.79,0.214c1.413,0.44,3.777,1.178,6.218-1.42
		c2.386-2.539,3.931-7.676,3.674-12.214c-0.17-3.007-1.107-5.315-2.71-6.675c-1.607-1.364-3.109-1.435-4.085-1.253
		c-0.699,0.129-1.332,0.416-1.892,0.778c0.587-6.332,0.638-18.792-6.422-27.375c-4.8-5.835-12.023-8.793-21.47-8.793
		c-9.447,0-16.671,2.959-21.471,8.793c-7.061,8.583-7.01,21.043-6.422,27.375c-0.56-0.362-1.193-0.648-1.892-0.778
		c-0.979-0.182-2.48-0.11-4.086,1.253c-1.603,1.36-2.54,3.668-2.71,6.675c-0.257,4.538,1.288,9.675,3.674,12.213
		c2.441,2.599,4.805,1.861,6.218,1.421c0.245-0.077,0.595-0.187,0.789-0.214c0.018,0.035,0.04,0.084,0.064,0.149
		c0.092,0.248,0.222,0.727,0.371,1.279c0.493,1.825,1.343,4.963,3.095,8.263c-6.728,3.478-10.155,7.992-9.206,12.231
		c0.379,1.693,1.39,3.204,2.984,4.519c-2.346,1.896-4.711,4.142-7.092,6.764c-6.247,6.878-10.18,13.645-10.345,13.931
		c-0.345,0.598-0.14,1.362,0.458,1.708c0.197,0.113,0.412,0.167,0.624,0.167c0.432,0,0.852-0.224,1.083-0.625
		c0.106-0.183,7.372-12.602,17.455-20.47c4.313,2.428,11.122,3.958,19.997,4.443v8.281c0,0.69,0.56,1.25,1.25,1.25
		c0.69,0,1.25-0.56,1.25-1.25v-8.175c1.267,0.04,2.567,0.063,3.909,0.063c1.342,0,2.642-0.022,3.909-0.063v15.295
		c0,0.69,0.56,1.25,1.25,1.25c0.69,0,1.25-0.56,1.25-1.25v-15.401c8.872-0.485,15.68-2.015,19.993-4.441
		c10.082,7.868,17.353,20.285,17.459,20.467c0.345,0.599,1.111,0.804,1.708,0.457c0.598-0.345,0.803-1.109,0.457-1.707
		C142.436,305.473,138.503,298.705,132.256,291.827z M73.524,259.4c-0.172-0.639-0.309-1.142-0.441-1.499
		c-0.521-1.401-1.438-1.767-2.309-1.767c-0.622,0-1.22,0.186-1.633,0.315c-1.276,0.397-2.282,0.712-3.651-0.746
		c-1.897-2.019-3.215-6.57-3.001-10.361c0.129-2.273,0.779-4.017,1.832-4.91c0.697-0.592,1.354-0.819,2.008-0.702
		c1.404,0.257,2.657,2.018,3.019,2.672c0.296,0.54,0.942,0.785,1.521,0.575c0.58-0.209,0.92-0.811,0.802-1.415
		c-0.036-0.185-3.498-18.538,5.369-29.305c4.302-5.225,10.874-7.874,19.534-7.874c8.66,0,15.231,2.649,19.533,7.874
		c8.867,10.768,5.405,29.121,5.369,29.306c-0.118,0.604,0.221,1.202,0.799,1.413c0.576,0.207,1.224-0.032,1.522-0.57
		c0.364-0.657,1.617-2.418,3.021-2.675c0.654-0.117,1.311,0.11,2.008,0.702c1.053,0.893,1.703,2.637,1.832,4.91
		c0.214,3.791-1.104,8.342-3.001,10.361c-1.369,1.458-2.376,1.142-3.651,0.746c-0.99-0.309-3.049-0.951-3.942,1.451
		c-0.132,0.357-0.269,0.86-0.441,1.499c-1.412,5.233-5.163,19.131-23.05,19.131C78.687,278.531,74.936,264.633,73.524,259.4z
		 M67.44,279.998c-0.681-3.038,2.385-6.635,8.041-9.526c1.977,3.02,4.801,5.967,8.894,7.978v0.503c0,3.806,1.754,7.208,4.494,9.447
		C74.398,287.406,68.246,283.597,67.44,279.998z M96.574,288.65c-5.16,0-9.381-4.055-9.671-9.144
		c2.724,0.955,5.917,1.525,9.671,1.525c3.754,0,6.947-0.57,9.671-1.525C105.955,284.596,101.735,288.65,96.574,288.65z
		 M104.279,288.399c2.74-2.239,4.494-5.641,4.494-9.447v-0.502c4.094-2.01,6.918-4.958,8.895-7.978
		c5.656,2.891,8.722,6.488,8.041,9.526C124.903,283.597,118.751,287.406,104.279,288.399z M85.471,245.221
		c-1.447,0-2.619-1.173-2.619-2.619c0-1.446,1.173-2.619,2.619-2.619c1.446,0,2.619,1.173,2.619,2.619
		C88.09,244.049,86.918,245.221,85.471,245.221z M105.059,242.602c0-1.446,1.173-2.619,2.619-2.619c1.446,0,2.619,1.173,2.619,2.619
		c0,1.446-1.173,2.619-2.619,2.619C106.231,245.221,105.059,244.049,105.059,242.602z M94.395,243.853h4.359
		c0.612,4.383,4.375,7.77,8.924,7.77c4.974,0,9.021-4.046,9.021-9.02c0-4.329-3.066-7.952-7.14-8.82
		c0.932-0.036,1.619-0.177,1.727-0.544c0.161-0.52-1.182-1.385-3.058-1.46c-1.875-0.082-3.287,0.668-3.169,1.199
		c0.074,0.359,0.694,0.557,1.559,0.673c-4.063,0.479-7.3,3.666-7.863,7.702h-4.359c-0.564-4.037-3.8-7.224-7.864-7.702
		c0.865-0.116,1.485-0.313,1.559-0.673c0.117-0.531-1.294-1.281-3.169-1.199c-1.876,0.075-3.219,0.941-3.058,1.46
		c0.108,0.367,0.795,0.509,1.727,0.544c-4.074,0.868-7.14,4.491-7.14,8.82c0,4.974,4.046,9.02,9.021,9.02
		C90.02,251.623,93.783,248.236,94.395,243.853z M107.678,236.082c3.595,0,6.521,2.925,6.521,6.52s-2.925,6.52-6.521,6.52
		c-3.595,0-6.521-2.925-6.521-6.52S104.082,236.082,107.678,236.082z M78.951,242.603c0-3.595,2.925-6.52,6.521-6.52
		c3.596,0,6.521,2.925,6.521,6.52s-2.925,6.52-6.521,6.52C81.876,249.123,78.951,246.198,78.951,242.603z M96.252,256.584
		c-0.786-0.017-1.433-0.377-1.754-0.761c-0.331-0.388-0.357-0.765-0.181-0.969c0.39-0.394,1.214-0.26,1.978-0.269
		c0.763,0.043,1.592-0.055,1.964,0.356c0.168,0.212,0.124,0.587-0.223,0.961C97.7,256.27,97.038,256.602,96.252,256.584z
		 M100.601,262.293c0.161,0.207-0.085,0.757-0.817,1.35c-0.714,0.588-2.022,1.151-3.507,1.081c-1.483-0.052-2.672-0.64-3.397-1.16
		c-0.729-0.542-1.039-1.041-0.902-1.271c0.296-0.516,2.22,0.335,4.374,0.432C98.488,262.858,100.23,261.828,100.601,262.293z"/>
	<path d="M439.107,428.929c-7.665-8.438-15.172-13.118-22.357-13.97c8.651-4.887,11.133-14.079,12.138-17.805
		c0.149-0.553,0.278-1.031,0.371-1.279c0.024-0.066,0.046-0.114,0.064-0.149c0.195,0.027,0.544,0.137,0.79,0.214
		c1.412,0.44,3.776,1.181,6.218-1.421c2.386-2.54,3.932-7.678,3.674-12.216c-0.17-3.006-1.107-5.313-2.71-6.673
		c-1.296-1.099-2.52-1.354-3.458-1.317c0.442-1.075,0.759-2.197,0.938-3.36l1.333,0.951c0.385,0.273,0.89,0.309,1.306,0.09
		c0.418-0.218,0.677-0.652,0.671-1.124c-0.021-1.556,0.057-3.043,0.132-4.482c0.169-3.262,0.329-6.342-0.601-9.872
		c-1.245-4.726-3.696-8.421-7.474-11.252c0.026-0.047,0.051-0.092,0.074-0.135c0.15-0.279,0.181-0.328,0.347-0.415
		c0.438-0.228,0.7-0.691,0.671-1.184c-0.03-0.492-0.346-0.921-0.808-1.095c-1.238-0.466-2.854-1.712-4.416-2.916
		c-1.708-1.317-3.475-2.679-5.063-3.277c-3.705-1.395-7.859-2.74-11.7-1.969c0.121-0.691,0.159-1.397,0.111-2.104
		c-0.033-0.483-0.343-0.905-0.795-1.08c-0.451-0.178-0.966-0.074-1.315,0.262c-1.244,1.188-3.238,1.79-6.096,1.839
		c-0.58,0.011-1.168,0.004-1.752-0.003c-1.961-0.02-3.987-0.044-5.979,0.527c-2.188,0.627-4.688,2.096-5.605,4.363
		c-1.934-0.64-4.521-0.762-6.132,0.402c-1.52,1.099-3.712,2.703-5.186,3.953c-0.519,0.44-2.334,1.831-3.972,1.243
		c-0.532-0.191-1.13-0.001-1.452,0.467c-0.321,0.468-0.289,1.093,0.08,1.523c0.682,0.796,1.652,1.511,2.733,2.055
		c-1.636,1.17-2.994,2.947-3.873,5.144c-0.765,1.917-0.404,4.123-0.056,6.257c0.229,1.404,0.446,2.729,0.315,3.806
		c-0.335,2.77-0.862,5.638-2.433,7.859c-0.249,0.352-0.299,0.807-0.133,1.204c0.167,0.397,0.525,0.682,0.951,0.751
		c0.844,0.139,1.716,0.032,2.503-0.282c0.257,0.604,0.612,1.245,1.009,1.905c-0.782,0.122-1.68,0.471-2.617,1.265
		c-1.603,1.359-2.54,3.668-2.71,6.674c-0.257,4.538,1.288,9.676,3.674,12.216c2.442,2.597,4.805,1.859,6.219,1.42
		c0.245-0.077,0.595-0.186,0.79-0.214c0.018,0.035,0.039,0.084,0.063,0.149c0.093,0.248,0.222,0.726,0.371,1.28
		c1.006,3.726,3.487,12.918,12.138,17.805c-7.184,0.852-14.692,5.532-22.355,13.97c-6.248,6.878-10.181,13.646-10.346,13.931
		c-0.345,0.598-0.14,1.362,0.458,1.708c0.197,0.113,0.412,0.167,0.624,0.167c0.432,0,0.852-0.224,1.084-0.625
		c0.137-0.238,12.354-21.112,27.137-25.845c0.157,1.911,0.632,3.731,1.377,5.408c-1.673,2.253-7.563,10.455-11.467,19.308
		c-0.278,0.631,0.008,1.369,0.64,1.647c0.163,0.072,0.335,0.106,0.503,0.106c0.48,0,0.939-0.278,1.145-0.746
		c3.341-7.575,8.316-14.84,10.506-17.886c3.006,4.556,8.165,7.574,14.02,7.574s11.014-3.017,14.02-7.574
		c2.191,3.046,7.166,10.311,10.507,17.886c0.206,0.468,0.664,0.746,1.145,0.746c0.168,0,0.34-0.034,0.503-0.106
		c0.632-0.278,0.918-1.017,0.64-1.647c-3.904-8.854-9.795-17.055-11.468-19.308c0.745-1.677,1.22-3.496,1.377-5.407
		c14.775,4.735,27.002,25.607,27.139,25.844c0.345,0.598,1.111,0.805,1.707,0.457c0.598-0.345,0.803-1.109,0.458-1.707
		C449.287,442.574,445.354,435.807,439.107,428.929z M380.375,396.503c-0.172-0.639-0.309-1.144-0.44-1.5
		c-0.521-1.401-1.438-1.767-2.309-1.767c-0.623,0-1.221,0.187-1.634,0.315c-1.274,0.397-2.282,0.711-3.651-0.745
		c-1.896-2.02-3.215-6.571-3-10.362c0.129-2.272,0.779-4.017,1.831-4.909c0.697-0.592,1.356-0.821,2.008-0.701
		c0.276,0.05,0.543,0.17,0.802,0.317c0.979,1.447,2.44,3.609,2.447,4.174c-0.234,0.65,0.103,1.365,0.752,1.6
		c0.14,0.051,0.283,0.074,0.424,0.074c0.512,0,0.992-0.316,1.176-0.826c0.001-0.001,0.001-0.003,0.002-0.005
		c1.087-3.02,1.602-6.196,1.535-9.376l0.923,1.251c0.4,0.543,1.161,0.671,1.72,0.284c0.556-0.387,0.702-1.145,0.332-1.711
		c-0.31-0.474-0.397-1.038-0.259-1.679c0.253-1.174,1.25-2.488,2.482-3.271c0.776-0.493,1.629-0.895,2.53-1.322
		c1.595-0.753,3.243-1.531,4.566-2.885c0.746-0.763,1.322-1.675,1.716-2.661c2.307,3.25,5.907,5.388,9.95,5.635
		c0.53,0.022,1.068-0.305,1.254-0.83c0.186-0.526,0.002-1.111-0.451-1.436c-0.348-0.248-0.659-0.544-0.929-0.875
		c2.5,1.101,5.562,1.208,8.204,1.301l0.121,0.004c3.66,0.129,7.777,1.328,8.358,4.306c0.108,0.559,0.583,0.975,1.151,1.009
		c0.56,0.017,1.09-0.321,1.265-0.864l0.047-0.146c1.997,3.604,2.619,8.006,1.608,11.993c-0.125,0.493,0.061,1.013,0.473,1.314
		c0.409,0.302,0.962,0.323,1.396,0.057c1.047-0.645,1.989-1.36,2.845-2.124c0.419-0.023,0.816-0.247,1.03-0.635
		c0.364-0.656,1.616-2.417,3.021-2.674c0.65-0.121,1.31,0.109,2.008,0.701c1.053,0.893,1.703,2.636,1.832,4.908
		c0.215,3.791-1.103,8.343-3.001,10.363c-1.367,1.456-2.375,1.142-3.65,0.745c-0.99-0.309-3.048-0.954-3.942,1.451
		c-0.132,0.356-0.268,0.86-0.44,1.499c-1.412,5.232-5.163,19.131-23.051,19.131C385.538,415.633,381.787,401.734,380.375,396.503z
		 M413.096,416.608c-0.29,5.089-4.51,9.144-9.671,9.144c-5.16,0-9.38-4.055-9.67-9.144c2.723,0.955,5.916,1.525,9.67,1.525
		C407.179,418.133,410.372,417.563,413.096,416.608z M403.425,431.176c-7.631,0-13.866-6.016-14.255-13.552
		c0.705-0.133,1.416-0.215,2.13-0.265c0.654,6.115,5.841,10.893,12.126,10.893c6.285,0,11.473-4.778,12.127-10.893
		c0.713,0.049,1.423,0.132,2.129,0.265C417.291,425.16,411.055,431.176,403.425,431.176z M394.941,370.079
		c-0.113,0.549-1.485,0.724-3.086,0.799c-1.601,0.059-2.983-0.001-3.142-0.538c-0.161-0.52,1.182-1.385,3.058-1.46
		C393.647,368.797,395.058,369.547,394.941,370.079z M411.909,370.079c-0.117-0.531,1.294-1.281,3.169-1.2
		c1.876,0.075,3.219,0.941,3.058,1.46c-0.158,0.537-1.541,0.597-3.142,0.538C413.394,370.803,412.022,370.627,411.909,370.079z
		 M394.941,379.704c0,1.447-1.173,2.619-2.619,2.619c-1.446,0-2.619-1.172-2.619-2.619c0-1.446,1.173-2.619,2.619-2.619
		C393.768,377.085,394.941,378.257,394.941,379.704z M411.909,379.704c0-1.446,1.173-2.619,2.619-2.619
		c1.446,0,2.619,1.172,2.619,2.619c0,1.447-1.173,2.619-2.619,2.619C413.082,382.323,411.909,381.15,411.909,379.704z
		 M401.657,392.924c-0.331-0.388-0.358-0.765-0.181-0.97c0.39-0.394,1.214-0.26,1.978-0.269c0.763,0.043,1.592-0.055,1.964,0.356
		c0.168,0.212,0.124,0.587-0.223,0.961c-0.337,0.369-0.999,0.701-1.785,0.683C402.624,393.668,401.977,393.308,401.657,392.924z
		 M403.435,401.825c-1.483-0.052-2.672-0.64-3.397-1.16c-0.729-0.541-1.04-1.041-0.902-1.271c0.296-0.516,2.22,0.335,4.374,0.432
		c2.136,0.133,3.878-0.896,4.249-0.432c0.161,0.207-0.085,0.757-0.817,1.35C406.228,401.332,404.921,401.895,403.435,401.825z"/>
	<path d="M336.721,428.929c-7.664-8.438-15.172-13.118-22.356-13.97c8.651-4.887,11.132-14.079,12.138-17.805
		c0.149-0.554,0.278-1.032,0.371-1.28c0.024-0.066,0.046-0.114,0.063-0.149c0.195,0.027,0.544,0.137,0.79,0.214
		c1.413,0.439,3.777,1.177,6.218-1.42c2.386-2.54,3.932-7.677,3.675-12.215c-0.17-3.007-1.107-5.315-2.71-6.675
		c-0.717-0.608-1.411-0.95-2.05-1.136c1.703-0.868,3.494-2.212,2.533-5.574c-0.156-0.545,0.065-1.228,0.321-2.019
		c0.218-0.674,0.465-1.438,0.503-2.256c0.093-2.028-1.223-4.008-3.129-4.709c-1.611-0.589-3.48-0.205-4.772,0.891
		c-0.895-4.527-2.625-9.181-5.807-13.048c-4.799-5.835-12.022-8.793-21.47-8.793c-9.447,0-16.671,2.958-21.471,8.793
		c-3.182,3.868-4.911,8.522-5.807,13.049c-1.293-1.096-3.163-1.483-4.771-0.891c-1.906,0.701-3.223,2.681-3.13,4.709
		c0.038,0.818,0.285,1.582,0.503,2.256c0.256,0.791,0.478,1.474,0.321,2.019c-0.961,3.363,0.831,4.706,2.535,5.574
		c-0.639,0.186-1.333,0.527-2.05,1.136c-1.603,1.359-2.54,3.667-2.71,6.673c-0.258,4.538,1.288,9.676,3.674,12.216
		c2.44,2.6,4.805,1.86,6.218,1.421c0.246-0.077,0.595-0.186,0.79-0.214c0.017,0.035,0.039,0.084,0.063,0.149
		c0.093,0.248,0.222,0.726,0.371,1.279c1.006,3.726,3.487,12.918,12.138,17.805c-7.185,0.852-14.692,5.532-22.356,13.97
		c-6.248,6.878-10.181,13.646-10.346,13.931c-0.345,0.598-0.14,1.362,0.458,1.708c0.197,0.113,0.412,0.167,0.624,0.167
		c0.432,0,0.852-0.224,1.084-0.625c0.137-0.238,12.354-21.113,27.138-25.846c0.706,8.615,7.929,15.412,16.723,15.412
		c8.793,0,16.016-6.797,16.723-15.41c14.774,4.736,27.001,25.607,27.138,25.844c0.345,0.598,1.11,0.805,1.707,0.457
		c0.598-0.345,0.803-1.109,0.458-1.707C346.9,442.574,342.968,435.807,336.721,428.929z M277.988,396.502
		c-0.172-0.639-0.309-1.143-0.44-1.499c-0.522-1.401-1.439-1.767-2.309-1.767c-0.622,0-1.221,0.187-1.634,0.315
		c-1.274,0.397-2.282,0.711-3.65-0.745c-1.897-2.021-3.216-6.572-3.001-10.363c0.129-2.272,0.779-4.016,1.832-4.908
		c0.697-0.592,1.358-0.821,2.008-0.701c1.183,0.216,2.251,1.494,2.777,2.284c0.379,1.501,0.834,2.954,1.989,3.461
		c0.539,0.236,0.998,0.327,1.385,0.327c0.577,0,0.994-0.202,1.277-0.424c1.252-0.98,0.91-2.956,0.637-4.545
		c-0.055-0.315-0.106-0.588-0.116-0.77c0,0,0,0,0-0.001c-0.045-0.792,0.433-1.674,0.939-2.607c0.73-1.347,1.557-2.872,1.046-4.64
		c-0.45-1.553-1.695-2.406-2.794-3.158c-0.647-0.443-1.258-0.862-1.632-1.364c-0.217-0.29-0.379-0.662-0.534-1.056
		c0.604-5.105,2.174-10.656,5.737-14.982c4.302-5.225,10.874-7.874,19.534-7.874c8.659,0,15.231,2.649,19.533,7.874
		c3.563,4.327,5.133,9.878,5.737,14.984c-0.154,0.393-0.316,0.764-0.533,1.054c-0.374,0.501-0.985,0.92-1.632,1.363
		c-1.1,0.753-2.345,1.606-2.794,3.159c-0.512,1.767,0.316,3.294,1.046,4.64c0.507,0.934,0.984,1.815,0.939,2.607
		c-0.011,0.182-0.062,0.453-0.116,0.769c-0.275,1.589-0.616,3.567,0.636,4.547c0.283,0.222,0.7,0.424,1.277,0.424
		c0.387,0,0.846-0.091,1.384-0.327c1.155-0.507,1.611-1.96,1.99-3.462c0.528-0.792,1.595-2.068,2.777-2.283
		c0.65-0.121,1.311,0.109,2.008,0.701c1.053,0.893,1.703,2.637,1.831,4.909c0.215,3.792-1.103,8.343-3.001,10.362
		c-1.368,1.456-2.376,1.142-3.65,0.745c-0.99-0.309-3.048-0.954-3.942,1.451c-0.132,0.356-0.268,0.861-0.44,1.5
		c-1.412,5.231-5.163,19.13-23.05,19.13C283.151,415.633,279.4,401.734,277.988,396.502z M310.709,416.608
		c-0.29,5.089-4.51,9.144-9.67,9.144c-5.161,0-9.381-4.055-9.671-9.144c2.724,0.955,5.917,1.525,9.671,1.525
		C304.793,418.133,307.986,417.564,310.709,416.608z M301.039,431.176c-7.631,0-13.866-6.016-14.255-13.552
		c0.705-0.133,1.415-0.215,2.128-0.264c0.654,6.115,5.842,10.893,12.127,10.893c6.285,0,11.472-4.778,12.126-10.893
		c0.713,0.049,1.424,0.132,2.13,0.265C314.905,425.16,308.669,431.176,301.039,431.176z M286.327,370.339
		c-0.161-0.52,1.182-1.385,3.058-1.46c1.875-0.082,3.287,0.668,3.169,1.2c-0.113,0.549-1.485,0.724-3.086,0.799
		C287.868,370.937,286.486,370.876,286.327,370.339z M309.523,370.079c-0.117-0.531,1.294-1.281,3.169-1.2
		c1.876,0.075,3.219,0.941,3.058,1.46c-0.158,0.537-1.54,0.597-3.142,0.538C311.008,370.803,309.636,370.627,309.523,370.079z
		 M289.936,382.323c-1.446,0-2.619-1.172-2.619-2.619c0-1.446,1.173-2.619,2.619-2.619c1.446,0,2.619,1.172,2.619,2.619
		C292.555,381.15,291.382,382.323,289.936,382.323z M309.523,379.704c0-1.446,1.173-2.619,2.619-2.619s2.619,1.172,2.619,2.619
		c0,1.447-1.173,2.619-2.619,2.619S309.523,381.15,309.523,379.704z M289.559,400.365c-0.039,0.004-0.079,0.006-0.118,0.006
		c-0.439,0-0.851-0.231-1.076-0.615c-0.247-0.417-0.23-0.94,0.044-1.341c0.978-1.428,4.413-6.065,7.351-5.82
		c0.752,0.063,1.791,0.449,2.47,1.927c0,0.001,0,0.001,0,0.001c0.392,0.852,0.361,1.747-0.085,2.522
		C296.729,399.501,291.216,400.208,289.559,400.365z M303.932,397.044c-0.446-0.774-0.477-1.67-0.085-2.522c0,0,0,0,0-0.001
		c0.679-1.478,1.718-1.863,2.47-1.927c2.945-0.268,6.374,4.392,7.352,5.82c0.273,0.4,0.291,0.924,0.044,1.341
		c-0.226,0.384-0.637,0.615-1.076,0.615c-0.039,0-0.079-0.002-0.118-0.006C310.861,400.208,305.348,399.501,303.932,397.044z
		 M275.852,436.838v6.647c0,0.69-0.56,1.25-1.25,1.25s-1.25-0.56-1.25-1.25v-6.647c0-0.69,0.56-1.25,1.25-1.25
		S275.852,436.147,275.852,436.838z M328.725,436.838v6.647c0,0.69-0.56,1.25-1.25,1.25s-1.25-0.56-1.25-1.25v-6.647
		c0-0.69,0.56-1.25,1.25-1.25S328.725,436.147,328.725,436.838z M299.271,392.924c-0.331-0.388-0.357-0.765-0.181-0.97
		c0.39-0.394,1.214-0.26,1.978-0.269c0.763,0.043,1.592-0.055,1.964,0.356c0.168,0.212,0.124,0.587-0.223,0.961
		c-0.337,0.369-0.999,0.701-1.785,0.683C300.238,393.668,299.591,393.308,299.271,392.924z M301.049,401.825
		c-1.483-0.052-2.672-0.64-3.397-1.16c-0.729-0.541-1.04-1.041-0.902-1.271c0.297-0.516,2.22,0.335,4.374,0.432
		c2.136,0.133,3.878-0.896,4.249-0.432c0.161,0.207-0.085,0.757-0.817,1.35C303.842,401.332,302.534,401.895,301.049,401.825z"/>
	<path d="M234.488,428.929c-5.4-5.946-10.723-10.025-15.91-12.218c1.099-0.896,2.077-1.895,2.924-3.005
		c5.238-6.871,3.852-15.537,3.326-17.956c0.198,0.044,0.465,0.126,0.666,0.189c1.411,0.439,3.775,1.179,6.218-1.421
		c2.386-2.539,3.931-7.677,3.674-12.216c-0.17-3.006-1.107-5.313-2.71-6.673c-1.607-1.363-3.108-1.435-4.086-1.252
		c-0.449,0.083-0.867,0.235-1.259,0.426c1.11-4.542,2.518-11.6,2.044-16.657c-0.489-5.215-4.145-8.308-6.967-9.943
		c-1.258-3.743-4.145-6.932-8.081-8.731h0.001c-10.639-4.865-21.873-4.921-30.054-0.145c-2.079,1.214-3.952,2.721-5.763,4.179
		c-1.548,1.245-3.148,2.533-4.825,3.586c-4.033,2.529-8.208,3.137-11.173,1.624c-0.349-0.178-0.758-0.183-1.109-0.014
		c-0.352,0.169-0.604,0.493-0.683,0.875c-0.547,2.654-0.092,5.444,1.218,7.788l-1.127,0.185c-0.368,0.061-0.689,0.282-0.877,0.604
		c-0.188,0.322-0.222,0.711-0.094,1.061c1.525,4.151,4.885,7.642,9.197,9.747c0.382,2.14,0.832,4.161,1.242,5.84
		c-0.392-0.191-0.811-0.343-1.259-0.426c-0.978-0.184-2.478-0.111-4.086,1.252c-1.603,1.359-2.54,3.667-2.71,6.673
		c-0.257,4.539,1.289,9.677,3.674,12.216c2.442,2.6,4.806,1.86,6.218,1.421c0.201-0.063,0.468-0.146,0.666-0.189
		c-0.526,2.419-1.912,11.085,3.326,17.956c0.847,1.11,1.825,2.11,2.924,3.005c-5.187,2.193-10.509,6.273-15.91,12.218
		c-6.247,6.878-10.18,13.646-10.345,13.931c-0.345,0.598-0.14,1.362,0.457,1.708c0.197,0.113,0.412,0.167,0.624,0.167
		c0.432,0,0.852-0.224,1.083-0.625c0.084-0.146,4.734-8.086,11.732-15.287c3.473,3.147,5.883,7.545,6.62,12.17
		c0.098,0.615,0.629,1.054,1.233,1.054c0.066,0,0.131-0.005,0.198-0.016c0.682-0.108,1.146-0.749,1.038-1.431
		c-0.818-5.135-3.479-10.02-7.316-13.537c3.871-3.687,8.338-6.976,13.088-8.629c0.194,0.113,0.389,0.227,0.589,0.335
		c0.941,8.375,8.058,14.908,16.68,14.908c8.622,0,15.739-6.533,16.68-14.908c0.2-0.108,0.394-0.221,0.588-0.334
		c4.747,1.654,9.215,4.944,13.086,8.632c-3.834,3.517-6.494,8.4-7.312,13.534c-0.109,0.682,0.356,1.322,1.038,1.431
		c0.067,0.011,0.133,0.016,0.198,0.016c0.604,0,1.135-0.438,1.233-1.054c0.736-4.623,3.145-9.02,6.616-12.167
		c6.998,7.2,11.65,15.138,11.735,15.284c0.345,0.599,1.111,0.804,1.708,0.457c0.598-0.345,0.803-1.109,0.457-1.707
		C244.668,442.574,240.735,435.807,234.488,428.929z M175.93,370.972c1.032,0.128,2.086,0.198,3.163,0.198
		c3.822,0,7.904-0.802,12.051-2.385c3.222-1.229,6.275-2.822,9.225-4.544l-1.33,1.659c-0.308,0.385-0.362,0.914-0.137,1.353
		c0.224,0.438,0.686,0.692,1.177,0.678c5.243-0.271,10.735-0.783,15.441-3.423c2.069,3.622,4.907,5.69,6.252,6.521
		c-0.453,5.497-1.543,16.557-5.913,19.519c-3.727,2.526-13.14,3.893-17.054,4.368c-3.914-0.474-13.322-1.84-17.051-4.367
		c-4.371-2.963-5.461-14.022-5.914-19.52C175.868,371.013,175.902,370.99,175.93,370.972z M198.81,397.66
		c4.686,0.229,9.011,1.041,9.691,1.864c-0.072,0.192-0.349,0.675-1.415,1.445c-4.875,3.522-11.684,3.522-16.559-0.001
		c-1.066-0.77-1.343-1.252-1.416-1.444C189.792,398.701,194.121,397.89,198.81,397.66z M198.807,422.252
		c2.864,0,5.501-0.211,7.92-0.619c-1.758,2.487-4.649,4.119-7.92,4.119c-3.271,0-6.162-1.632-7.92-4.119
		C193.306,422.041,195.942,422.252,198.807,422.252z M229.051,376.834c0.655-0.122,1.311,0.11,2.008,0.701
		c1.052,0.893,1.703,2.636,1.832,4.908c0.214,3.792-1.104,8.344-3,10.363c-1.37,1.456-2.375,1.142-3.651,0.745
		c-0.347-0.108-0.825-0.255-1.337-0.3c0.266-3.206,0.773-9.181,1.249-13.944C226.618,378.553,227.767,377.069,229.051,376.834z
		 M171.374,393.552c-1.275,0.397-2.282,0.712-3.651-0.745c-1.897-2.02-3.215-6.571-3.001-10.363
		c0.129-2.272,0.779-4.016,1.831-4.908c0.698-0.592,1.35-0.824,2.008-0.701c1.285,0.235,2.434,1.72,2.899,2.473
		c0.476,4.765,0.984,10.744,1.25,13.95C172.199,393.301,171.72,393.444,171.374,393.552z M198.807,431.176
		c-6.798,0-12.493-4.775-13.932-11.144c0.874,0.337,1.794,0.633,2.755,0.893c1.885,4.308,6.182,7.328,11.178,7.328
		c4.995,0,9.293-3.02,11.177-7.328c0.96-0.26,1.881-0.556,2.755-0.893C211.299,426.401,205.605,431.176,198.807,431.176z
		 M184.095,373.339c-0.161-0.52,1.182-1.385,3.058-1.46c1.875-0.082,3.287,0.668,3.169,1.2c-0.113,0.549-1.485,0.724-3.086,0.799
		C185.636,373.937,184.253,373.876,184.095,373.339z M207.291,373.079c-0.117-0.531,1.294-1.281,3.169-1.2
		c1.876,0.075,3.219,0.941,3.058,1.46c-0.158,0.537-1.541,0.597-3.142,0.538C208.776,373.803,207.403,373.627,207.291,373.079z
		 M190.322,379.704c0,1.447-1.173,2.619-2.619,2.619s-2.619-1.172-2.619-2.619c0-1.446,1.173-2.619,2.619-2.619
		S190.322,378.257,190.322,379.704z M207.291,379.704c0-1.446,1.173-2.619,2.619-2.619c1.446,0,2.619,1.172,2.619,2.619
		c0,1.447-1.173,2.619-2.619,2.619C208.463,382.323,207.291,381.15,207.291,379.704z M196.885,392.924
		c-0.331-0.388-0.358-0.765-0.181-0.97c0.39-0.394,1.214-0.26,1.978-0.269c0.763,0.043,1.592-0.055,1.964,0.356
		c0.168,0.212,0.124,0.587-0.223,0.961c-0.337,0.369-0.999,0.701-1.785,0.683C197.851,393.668,197.205,393.308,196.885,392.924z
		 M194.363,399.394c0.297-0.516,2.22,0.335,4.374,0.432c2.136,0.133,3.878-0.896,4.249-0.432c0.161,0.207-0.085,0.757-0.817,1.35
		c-0.714,0.588-2.022,1.151-3.507,1.081c-1.483-0.052-2.672-0.64-3.397-1.16C194.537,400.124,194.226,399.624,194.363,399.394z"/>
	<path d="M132.256,428.929c-7.664-8.438-15.171-13.118-22.356-13.97c8.651-4.887,11.132-14.079,12.138-17.805
		c0.149-0.553,0.279-1.031,0.371-1.279c0.024-0.066,0.046-0.114,0.064-0.149c0.194,0.027,0.544,0.137,0.79,0.214
		c1.413,0.439,3.777,1.179,6.218-1.421c2.386-2.539,3.932-7.677,3.674-12.215c-0.17-3.007-1.107-5.314-2.71-6.674
		c-1.499-1.271-2.902-1.416-3.877-1.281c0.506-3.968-0.08-8.597-0.351-10.371c0.024-0.022,0.042-0.047,0.066-0.07
		c0.499-0.268,0.965-0.58,1.357-0.985c1.961-2.027,2.12-5.303,0.444-9.223c-4.604-10.773-14.888-18.275-27.508-20.065
		c-12.559-1.78-24.481,2.561-31.892,11.616l-0.172,0.212c-0.395,0.491-0.766,0.99-1.103,1.484c-2.238,3.285-1.519,5.712-0.891,6.866
		c0.071,0.131,0.168,0.247,0.249,0.371c-1.509,2.577-2.875,6.987,0.166,9.792c-0.271,1.774-0.858,6.403-0.352,10.371
		c-0.977-0.134-2.378,0.01-3.877,1.281c-1.603,1.359-2.54,3.667-2.71,6.674c-0.257,4.538,1.288,9.676,3.674,12.215
		c2.441,2.6,4.805,1.86,6.218,1.421c0.245-0.077,0.595-0.186,0.789-0.214c0.018,0.035,0.04,0.084,0.064,0.149
		c0.092,0.248,0.222,0.726,0.371,1.279c1.006,3.726,3.487,12.918,12.138,17.805c-7.185,0.852-14.692,5.532-22.356,13.97
		c-6.247,6.878-10.18,13.646-10.345,13.931c-0.345,0.598-0.14,1.362,0.458,1.708c0.197,0.113,0.412,0.167,0.624,0.167
		c0.432,0,0.852-0.224,1.083-0.625c0.128-0.222,10.743-18.356,24.147-24.662c-1.252,11.229,6.948,18.145,7.32,18.452
		c0.231,0.191,0.513,0.286,0.795,0.286c0.29,0,0.58-0.101,0.813-0.301l10.785-9.237l10.785,9.237c0.234,0.2,0.523,0.301,0.813,0.301
		c0.282,0,0.564-0.095,0.795-0.286c0.373-0.308,8.571-7.223,7.321-18.45c13.398,6.309,24.019,24.439,24.147,24.66
		c0.345,0.599,1.111,0.804,1.708,0.457c0.598-0.345,0.803-1.109,0.457-1.707C142.436,442.574,138.503,435.807,132.256,428.929z
		 M73.524,396.502c-0.172-0.639-0.309-1.143-0.441-1.499c-0.521-1.401-1.438-1.767-2.309-1.767c-0.622,0-1.22,0.187-1.633,0.315
		c-1.276,0.397-2.282,0.711-3.651-0.745c-1.897-2.02-3.215-6.571-3-10.362c0.128-2.273,0.779-4.017,1.831-4.909
		c0.697-0.592,1.354-0.824,2.008-0.701c0.379,0.069,0.745,0.252,1.087,0.489l2.085,2.401c0.029,0.034,0.064,0.06,0.097,0.09
		c0.02,0.019,0.039,0.039,0.06,0.056c0.098,0.08,0.205,0.143,0.321,0.19c0.022,0.009,0.044,0.014,0.066,0.022
		c0.12,0.041,0.244,0.067,0.372,0.07c0.006,0,0.011,0.002,0.016,0.002c0.004,0,0.008,0.001,0.012,0.001
		c0.057,0,0.115-0.004,0.173-0.012c0.068-0.009,0.132-0.033,0.196-0.053c0.019-0.006,0.038-0.003,0.057-0.01
		c0.007-0.003,0.012-0.008,0.019-0.011c0.123-0.047,0.235-0.114,0.336-0.196c0.026-0.021,0.049-0.047,0.074-0.07
		c0.072-0.069,0.136-0.146,0.19-0.231c0.019-0.03,0.039-0.057,0.056-0.089c0.009-0.018,0.023-0.032,0.031-0.05
		c3.604-7.706,4.443-12.512,4.623-14.694c2.58,0.03,8.797,0.03,15.337-0.598c7.808-0.75,13.592-2.134,17.32-4.124
		c0.064,0.03,0.129,0.06,0.193,0.09c3.267,2.588,6.413,3.825,7.916,4.311c0.188,2.212,1.015,8.074,4.628,15.059
		c0.005,0.009,0.012,0.016,0.017,0.026c0.009,0.017,0.022,0.03,0.032,0.046c0.061,0.1,0.134,0.187,0.218,0.265
		c0.021,0.019,0.041,0.038,0.063,0.056c0.107,0.086,0.223,0.158,0.352,0.206c0,0,0,0,0.001,0c0.001,0,0.002,0,0.003,0.001
		c0.088,0.032,0.18,0.056,0.276,0.068c0.05,0.006,0.099,0.009,0.148,0.009c0.142,0,0.279-0.031,0.411-0.077
		c0.014-0.005,0.028-0.008,0.042-0.014c0.123-0.048,0.236-0.114,0.339-0.199c0.015-0.012,0.028-0.026,0.042-0.039
		c0.037-0.033,0.076-0.063,0.109-0.101l2.085-2.401c0.342-0.237,0.708-0.42,1.087-0.489c0.654-0.122,1.311,0.11,2.008,0.701
		c1.053,0.893,1.703,2.636,1.832,4.909c0.215,3.791-1.103,8.343-3.001,10.362c-1.369,1.458-2.376,1.142-3.651,0.745
		c-0.99-0.31-3.049-0.951-3.942,1.451c-0.132,0.356-0.269,0.86-0.441,1.499c-1.412,5.232-5.163,19.131-23.05,19.131
		C78.687,415.633,74.936,401.734,73.524,396.502z M85.016,435.256c-1.982-2.015-7.044-8.172-5.449-16.904
		c1.6-0.536,3.231-0.879,4.881-0.993c0.548,5.125,4.286,9.298,9.183,10.518L85.016,435.256z M96.574,425.752
		c-5.16,0-9.381-4.055-9.671-9.144c2.724,0.955,5.917,1.525,9.671,1.525c3.754,0,6.947-0.57,9.671-1.525
		C105.955,421.697,101.735,425.752,96.574,425.752z M108.14,435.262l-8.621-7.384c4.896-1.22,8.634-5.393,9.183-10.518
		c1.65,0.114,3.281,0.458,4.882,0.994C115.199,427.168,110.14,433.259,108.14,435.262z M81.863,370.339
		c-0.161-0.52,1.182-1.385,3.058-1.46c1.875-0.082,3.287,0.668,3.169,1.2c-0.113,0.549-1.485,0.724-3.086,0.799
		C83.404,370.937,82.021,370.876,81.863,370.339z M105.058,370.079c-0.117-0.531,1.294-1.281,3.169-1.2
		c1.876,0.075,3.219,0.941,3.058,1.46c-0.158,0.537-1.541,0.597-3.142,0.538C106.544,370.803,105.171,370.627,105.058,370.079z
		 M82.852,379.704c0-1.446,1.173-2.619,2.619-2.619c1.446,0,2.619,1.172,2.619,2.619c0,1.447-1.173,2.619-2.619,2.619
		C84.025,382.323,82.852,381.15,82.852,379.704z M107.677,377.085c1.446,0,2.619,1.172,2.619,2.619c0,1.447-1.173,2.619-2.619,2.619
		c-1.446,0-2.619-1.172-2.619-2.619C105.059,378.257,106.231,377.085,107.677,377.085z M100.64,399.619
		c1.129,0.371,2.213,0.524,3.212,0.524c3.384,0,5.803-1.65,5.843-1.679c0.214-0.15,0.276-0.44,0.143-0.665
		c-0.134-0.225-0.418-0.311-0.653-0.191c-1.072,0.54-2.503-0.448-4.312-1.698c-1.794-1.239-3.98-2.739-6.619-3.215
		c0.134-0.261,0.128-0.501,0.007-0.654c-0.372-0.411-1.201-0.313-1.964-0.356c-0.765,0.009-1.588-0.125-1.978,0.269
		c-0.158,0.182-0.14,0.503,0.097,0.845c-2.424,0.561-4.455,1.949-6.138,3.112c-1.808,1.249-3.238,2.234-4.312,1.697
		c-0.235-0.119-0.519-0.033-0.653,0.191c-0.134,0.225-0.072,0.515,0.142,0.665c0.051,0.035,3.839,2.616,8.58,1.304
		c0.123,0.249,0.394,0.56,0.846,0.896c0.725,0.52,1.914,1.107,3.397,1.16c1.485,0.071,2.793-0.493,3.507-1.081
		C100.327,400.304,100.6,399.889,100.64,399.619z M93.268,399.343c1.078-0.447,2.189-1.105,3.307-2.054
		c1.11,0.942,2.213,1.59,3.284,2.036c-0.78,0.146-2.045,0.592-3.507,0.501C95.175,399.773,94.079,399.5,93.268,399.343z"/>
	<path d="M439.107,154.726c-7.664-8.438-15.172-13.118-22.356-13.97c8.65-4.887,11.132-14.079,12.138-17.805
		c0.149-0.554,0.278-1.032,0.371-1.28c0.024-0.065,0.046-0.114,0.064-0.149c0.194,0.028,0.544,0.137,0.789,0.213
		c1.413,0.441,3.777,1.178,6.218-1.42c2.386-2.541,3.932-7.678,3.674-12.216c-0.17-3.006-1.107-5.313-2.71-6.673
		c-1.607-1.364-3.112-1.435-4.086-1.252c-0.508,0.094-0.981,0.273-1.417,0.502c1.296-6.733,2.567-19.754-4.256-28.968
		c-4.889-6.601-13-9.948-24.111-9.948c-11.104,0-19.214,3.346-24.102,9.944c-6.826,9.215-5.558,22.239-4.264,28.972
		c-0.436-0.229-0.909-0.408-1.419-0.503c-0.973-0.182-2.479-0.112-4.086,1.252c-1.603,1.36-2.54,3.668-2.71,6.674
		c-0.257,4.539,1.288,9.676,3.674,12.215c2.442,2.598,4.805,1.861,6.219,1.42c0.245-0.077,0.595-0.186,0.789-0.213
		c0.019,0.035,0.04,0.084,0.064,0.149c0.093,0.248,0.222,0.726,0.371,1.28c1.006,3.726,3.487,12.918,12.137,17.805
		c-7.184,0.853-14.691,5.532-22.356,13.97c-6.247,6.878-10.18,13.646-10.345,13.931c-0.345,0.598-0.14,1.362,0.458,1.708
		c0.197,0.114,0.412,0.167,0.624,0.167c0.432,0,0.852-0.224,1.084-0.625c0.139-0.242,12.746-21.79,27.846-26.065
		c-0.023,2.99,0.633,10.542,7.207,16.612c0.238,0.221,0.543,0.332,0.848,0.332c0.287,0,0.574-0.098,0.808-0.296l5.901-4.995v13.743
		c0,0.691,0.56,1.25,1.25,1.25c0.69,0,1.25-0.559,1.25-1.25v-13.743l5.901,4.995c0.233,0.198,0.521,0.296,0.808,0.296
		c0.305,0,0.609-0.111,0.848-0.332c6.573-6.07,7.231-13.62,7.208-16.611c15.091,4.278,27.708,25.823,27.847,26.064
		c0.345,0.598,1.111,0.801,1.707,0.458c0.598-0.345,0.803-1.11,0.458-1.708C449.287,168.372,445.354,161.604,439.107,154.726z
		 M403.425,151.549c-5.16,0-9.38-4.055-9.67-9.144c2.723,0.955,5.916,1.525,9.67,1.525c3.754,0,6.948-0.57,9.671-1.525
		C412.806,147.494,408.586,151.549,403.425,151.549z M380.375,122.3c-0.172-0.639-0.309-1.143-0.44-1.499
		c-0.521-1.401-1.438-1.767-2.31-1.767c-0.622,0-1.22,0.187-1.633,0.315c-1.272,0.398-2.281,0.713-3.651-0.745
		c-1.896-2.019-3.215-6.571-3-10.362c0.129-2.272,0.779-4.016,1.831-4.909c0.697-0.592,1.354-0.82,2.009-0.702
		c1.404,0.257,2.656,2.018,3.019,2.671c0.012,0.021,0.031,0.034,0.044,0.054c0.047,0.075,0.103,0.139,0.163,0.202
		c0.037,0.039,0.071,0.081,0.112,0.114c0.071,0.057,0.151,0.098,0.233,0.138c0.043,0.021,0.081,0.049,0.126,0.065
		c0.097,0.035,0.201,0.048,0.307,0.058c0.036,0.003,0.069,0.017,0.106,0.017c0.002,0,0.004,0.001,0.006,0.001
		c0.017,0,0.034-0.001,0.052-0.001c0.086-0.004,0.165-0.032,0.247-0.052c0.042-0.01,0.086-0.007,0.127-0.022
		c0.005-0.002,0.009-0.006,0.014-0.008c0.135-0.051,0.26-0.122,0.368-0.214c0.022-0.018,0.035-0.045,0.056-0.065
		c0.08-0.078,0.155-0.16,0.212-0.258c0.029-0.049,0.041-0.106,0.063-0.159c0.029-0.069,0.066-0.132,0.083-0.207
		c2.092-9.677,12.941-18.756,19.46-23.45c-2.15,3.592-1.922,4.166-1.743,4.618c0.136,0.343,0.49,0.672,0.84,0.789
		c0.495,0.165,1.271,0.425,7.836-3.392c-0.267,0.986-0.082,1.41,0.006,1.611c0.217,0.498,0.651,0.837,1.194,0.93
		c0.398,0.067,1.597,0.271,8.768-4.033c2.434,2.325,10.893,11.098,13.454,22.928c0.018,0.083,0.059,0.154,0.091,0.229
		c0.019,0.044,0.029,0.091,0.053,0.132c0.071,0.122,0.159,0.231,0.265,0.322c0,0,0,0,0,0c0.111,0.095,0.239,0.169,0.378,0.22
		c0.003,0.001,0.005,0.004,0.008,0.005c0.023,0.008,0.047,0.005,0.07,0.012c0.099,0.03,0.198,0.06,0.305,0.064
		c0.015,0.001,0.028-0.005,0.042-0.005c0.04,0,0.075-0.011,0.113-0.014c0.114-0.009,0.225-0.025,0.327-0.061
		c0.009-0.003,0.017-0.009,0.027-0.013c0.126-0.048,0.24-0.115,0.34-0.199c0.016-0.013,0.028-0.03,0.043-0.044
		c0.084-0.078,0.157-0.164,0.217-0.265c0.01-0.017,0.027-0.027,0.036-0.045c0.364-0.657,1.616-2.417,3.021-2.674
		c0.65-0.119,1.31,0.109,2.008,0.702c1.053,0.892,1.703,2.636,1.832,4.908c0.215,3.791-1.103,8.344-3.001,10.363
		c-1.367,1.456-2.375,1.145-3.65,0.745c-0.99-0.308-3.05-0.953-3.942,1.452c-0.132,0.356-0.268,0.861-0.44,1.499
		c-1.412,5.232-5.163,19.13-23.051,19.13C385.538,141.43,381.787,127.532,380.375,122.3z M395.525,157.848
		c-5.521-5.692-5.668-12.671-5.598-14.541c0.456-0.067,0.912-0.119,1.371-0.151c0.547,5.118,4.276,9.287,9.162,10.514
		L395.525,157.848z M411.324,157.848l-4.936-4.178c4.887-1.227,8.616-5.395,9.163-10.514c0.459,0.032,0.915,0.084,1.371,0.151
		C416.992,145.176,416.846,152.155,411.324,157.848z M394.941,105.501c0,1.447-1.173,2.619-2.619,2.619
		c-1.446,0-2.619-1.173-2.619-2.619c0-1.446,1.173-2.619,2.619-2.619C393.768,102.882,394.941,104.055,394.941,105.501z
		 M411.909,105.501c0-1.446,1.173-2.619,2.619-2.619c1.446,0,2.619,1.173,2.619,2.619c0,1.447-1.173,2.619-2.619,2.619
		C413.082,108.12,411.909,106.948,411.909,105.501z M401.452,104.53c0-1.104,0.898-2.003,2.003-2.003s2.004,0.899,2.004,2.003v0.332
		c0,5.332,4.338,9.67,9.671,9.67c5.332,0,9.67-4.338,9.67-9.67c0-2.143-1.118-4.127-2.919-5.178
		c-6.476-3.782-11.413-1.723-13.78-0.158c-0.667,0.442-1.219,1.014-1.648,1.668c-0.798-0.717-1.842-1.167-2.997-1.167
		c-1.155,0-2.199,0.45-2.997,1.167c-0.429-0.654-0.981-1.226-1.649-1.668c-2.364-1.564-7.3-3.624-13.779,0.158
		c-1.801,1.051-2.919,3.035-2.919,5.178c0,5.332,4.338,9.67,9.67,9.67c5.333,0,9.671-4.338,9.671-9.67V104.53z M409.48,101.61
		c1.268-0.838,2.991-1.577,5.129-1.577c1.737,0,3.749,0.488,6.012,1.81c1.035,0.605,1.679,1.761,1.679,3.019
		c0,3.954-3.217,7.17-7.17,7.17c-3.954,0-7.171-3.217-7.171-7.17v-0.332C407.959,103.333,408.528,102.241,409.48,101.61z
		 M398.952,104.862c0,3.954-3.217,7.17-7.171,7.17c-3.953,0-7.17-3.217-7.17-7.17c0-1.258,0.643-2.415,1.679-3.019
		c2.263-1.321,4.274-1.81,6.012-1.81c2.138,0,3.861,0.739,5.128,1.578c0.953,0.631,1.522,1.722,1.522,2.919V104.862z
		 M406.276,164.894c-0.03-0.08-0.06-0.16-0.07-0.24c-0.02-0.08-0.029-0.16-0.029-0.24c0-0.33,0.14-0.65,0.37-0.88
		c0.47-0.47,1.3-0.47,1.77,0c0.23,0.23,0.36,0.55,0.36,0.88c0,0.08,0,0.16-0.021,0.24c-0.02,0.08-0.04,0.16-0.069,0.24
		c-0.03,0.07-0.07,0.14-0.12,0.21c-0.04,0.07-0.101,0.14-0.15,0.19c-0.24,0.24-0.56,0.37-0.89,0.37c-0.32,0-0.65-0.13-0.88-0.37
		c-0.06-0.05-0.11-0.12-0.16-0.19C406.347,165.034,406.307,164.964,406.276,164.894z M405.419,117.716
		c0.168,0.212,0.124,0.588-0.223,0.961c-0.337,0.369-0.999,0.701-1.785,0.683c-0.786-0.017-1.433-0.377-1.753-0.761
		c-0.331-0.388-0.358-0.765-0.181-0.97c0.39-0.394,1.214-0.259,1.978-0.269C404.218,117.404,405.046,117.305,405.419,117.716z
		 M403.435,127.5c-1.483-0.052-2.672-0.64-3.397-1.16c-0.729-0.541-1.04-1.041-0.902-1.271c0.296-0.516,2.22,0.334,4.374,0.432
		c2.136,0.133,3.878-0.896,4.249-0.432c0.161,0.207-0.085,0.757-0.817,1.35C406.228,127.007,404.921,127.57,403.435,127.5z"/>
	<path d="M336.721,154.726c-2.39-2.631-4.764-4.885-7.119-6.785c1.609-1.32,2.63-2.838,3.012-4.54
		c0.948-4.235-2.472-8.746-9.188-12.222c1.74-3.287,2.586-6.409,3.077-8.228c0.149-0.554,0.278-1.032,0.371-1.28
		c0.024-0.065,0.046-0.114,0.064-0.149c0.194,0.028,0.544,0.137,0.789,0.213c1.413,0.441,3.777,1.178,6.218-1.42
		c2.386-2.539,3.932-7.676,3.675-12.214c-0.17-3.007-1.107-5.315-2.71-6.675c-0.79-0.671-1.556-1.026-2.246-1.195
		c0.391-0.91,0.656-1.676,0.772-2.036c0.038-0.116,0.052-0.235,0.054-0.354c0-0.011,0.006-0.02,0.006-0.03V80.443
		c0-10.597-8.621-19.218-19.219-19.218h-10.864h-4.749H287.8c-10.597,0-19.218,8.621-19.218,19.218v16.118h-8.846
		c-0.691,0-1.25,0.56-1.25,1.25s0.559,1.25,1.25,1.25h9.209c0.125,0.339,0.283,0.736,0.469,1.17
		c-0.69,0.169-1.455,0.524-2.246,1.195c-1.603,1.359-2.54,3.667-2.71,6.673c-0.258,4.538,1.288,9.676,3.674,12.216
		c2.44,2.598,4.805,1.861,6.218,1.42c0.245-0.077,0.595-0.186,0.789-0.213c0.018,0.035,0.04,0.084,0.064,0.149
		c0.093,0.248,0.222,0.726,0.371,1.28c0.491,1.819,1.337,4.94,3.077,8.228c-6.716,3.476-10.136,7.987-9.187,12.222
		c0.381,1.702,1.402,3.22,3.011,4.54c-2.355,1.9-4.729,4.154-7.12,6.785c-6.247,6.878-10.18,13.646-10.345,13.931
		c-0.345,0.598-0.14,1.362,0.458,1.708c0.197,0.114,0.412,0.167,0.624,0.167c0.432,0,0.852-0.224,1.084-0.625
		c0.105-0.183,7.387-12.629,17.487-20.495c4.315,2.418,11.112,3.942,19.965,4.426v8.281c0,0.69,0.56,1.25,1.25,1.25
		s1.25-0.56,1.25-1.25v-8.174c0.957,0.03,1.935,0.049,2.935,0.056c0.322,0.026,0.645,0.049,0.974,0.049
		c0.329,0,0.652-0.024,0.974-0.049c0.999-0.008,1.978-0.026,2.934-0.056v15.294c0,0.691,0.56,1.25,1.25,1.25s1.25-0.559,1.25-1.25
		v-15.401c8.851-0.484,15.647-2.008,19.962-4.424c10.098,7.867,17.385,20.31,17.491,20.493c0.345,0.598,1.11,0.801,1.707,0.458
		c0.598-0.345,0.803-1.11,0.458-1.708C346.9,168.372,342.968,161.604,336.721,154.726z M314.277,63.725
		c9.219,0,16.719,7.5,16.719,16.718v16.118h-8.258H317V74.812c0-4.577-2.281-8.624-5.76-11.087H314.277z M303.413,63.725
		c6.113,0,11.087,4.974,11.087,11.087v21.749h-26.923V74.812c0-6.113,4.974-11.087,11.087-11.087H303.413z M271.082,80.443
		c0-9.218,7.5-16.718,16.718-16.718h3.037c-3.478,2.463-5.76,6.51-5.76,11.087v21.749h-5.737h-8.258V80.443z M277.988,122.3
		c-0.172-0.639-0.309-1.143-0.44-1.499c-0.521-1.401-1.439-1.767-2.309-1.767c-0.623,0-1.221,0.187-1.634,0.315
		c-1.274,0.4-2.282,0.711-3.65-0.745c-1.897-2.02-3.216-6.572-3.001-10.363c0.129-2.272,0.779-4.015,1.832-4.908
		c0.639-0.543,1.247-0.765,1.844-0.71c1.055,1.739,2.489,3.301,4.24,3.325c0.011,0,0.021,0.003,0.031,0.003
		c0.003,0,0.005,0.001,0.008,0.001c3.087,0,4.766-4.643,5.398-6.892h6.02h29.423h6.021c0.633,2.249,2.31,6.892,5.397,6.892
		c1.769,0,3.216-1.577,4.279-3.329c0.602-0.056,1.206,0.167,1.845,0.71c1.053,0.893,1.703,2.637,1.831,4.91
		c0.215,3.791-1.103,8.342-3.001,10.361c-1.368,1.456-2.376,1.145-3.65,0.745c-0.99-0.308-3.049-0.953-3.942,1.452
		c-0.132,0.356-0.268,0.861-0.44,1.499c-1.412,5.233-5.163,19.13-23.05,19.13C283.151,141.43,279.4,127.532,277.988,122.3z
		 M271.904,142.854c-0.681-3.035,2.377-6.627,8.02-9.517c1.978,3.031,4.807,5.993,8.916,8.011v0.502c0,3.779,1.728,7.161,4.434,9.4
		C278.845,150.251,272.709,146.448,271.904,142.854z M301.039,151.549c-5.161,0-9.381-4.055-9.671-9.144
		c2.724,0.955,5.917,1.525,9.671,1.525c3.754,0,6.947-0.569,9.67-1.525C310.419,147.495,306.199,151.549,301.039,151.549z
		 M308.804,151.251c2.706-2.239,4.433-5.622,4.433-9.4v-0.502c4.109-2.018,6.938-4.98,8.916-8.011c5.642,2.89,8.7,6.482,8.019,9.516
		C329.368,146.448,323.232,150.251,308.804,151.251z M287.317,105.501c0-1.446,1.173-2.619,2.619-2.619
		c1.446,0,2.619,1.173,2.619,2.619c0,1.447-1.173,2.619-2.619,2.619C288.489,108.12,287.317,106.948,287.317,105.501z
		 M309.523,105.501c0-1.446,1.173-2.619,2.619-2.619s2.619,1.173,2.619,2.619c0,1.447-1.173,2.619-2.619,2.619
		S309.523,106.948,309.523,105.501z M299.271,118.599c-0.331-0.388-0.357-0.765-0.181-0.97c0.39-0.394,1.214-0.259,1.978-0.269
		c0.763,0.043,1.592-0.055,1.964,0.356c0.168,0.212,0.124,0.588-0.223,0.961c-0.337,0.369-0.999,0.701-1.785,0.683
		C300.238,119.343,299.591,118.983,299.271,118.599z M296.75,125.07c0.297-0.516,2.22,0.334,4.374,0.432
		c2.136,0.133,3.878-0.896,4.249-0.432c0.161,0.207-0.085,0.757-0.817,1.35c-0.714,0.588-2.022,1.151-3.507,1.081
		c-1.483-0.052-2.672-0.64-3.397-1.16C296.923,125.799,296.612,125.299,296.75,125.07z"/>
	<path d="M244.936,168.964c-0.021-0.08-0.041-0.16-0.079-0.236c-0.012-0.023-0.011-0.049-0.024-0.071
		c-0.164-0.285-4.098-7.053-10.345-13.931c-7.664-8.438-15.171-13.117-22.355-13.97c8.65-4.887,11.132-14.079,12.137-17.805
		c0.149-0.554,0.279-1.032,0.371-1.28c0.024-0.065,0.046-0.114,0.064-0.149c0.194,0.028,0.544,0.137,0.79,0.213
		c1.413,0.441,3.776,1.179,6.218-1.42c2.386-2.54,3.931-7.677,3.674-12.216c-0.17-3.006-1.107-5.314-2.71-6.673
		c-0.749-0.635-1.472-0.982-2.132-1.161c2.52-1.531,4.213-4.294,4.213-7.452c0-3.033-1.558-5.707-3.914-7.27
		c1.065-1.535,1.694-3.395,1.694-5.4c0-4.835-3.633-8.83-8.311-9.418c0.039-0.371,0.06-0.747,0.06-1.128
		c0-5.938-4.831-10.768-10.768-10.768c-2.035,0-3.932,0.578-5.557,1.562c-1.899-3.07-5.287-5.126-9.154-5.126
		c-3.868,0-7.255,2.056-9.154,5.126c-1.625-0.985-3.523-1.562-5.557-1.562c-5.938,0-10.768,4.83-10.768,10.768
		c0,0.381,0.021,0.757,0.06,1.128c-4.678,0.588-8.311,4.583-8.311,9.418c0,2.006,0.628,3.865,1.693,5.4
		c-2.356,1.563-3.914,4.237-3.914,7.27c0,3.158,1.693,5.921,4.213,7.452c-0.66,0.179-1.383,0.526-2.132,1.161
		c-1.603,1.359-2.54,3.667-2.71,6.673c-0.257,4.538,1.289,9.676,3.674,12.216c2.442,2.598,4.804,1.861,6.218,1.42
		c0.246-0.077,0.595-0.186,0.79-0.213c0.018,0.035,0.04,0.084,0.064,0.149c0.092,0.248,0.222,0.726,0.371,1.28
		c1.005,3.726,3.487,12.918,12.137,17.805c-7.184,0.852-14.692,5.532-22.355,13.97c-6.247,6.878-10.18,13.646-10.345,13.931
		c-0.013,0.023-0.013,0.048-0.024,0.071c-0.038,0.077-0.058,0.156-0.08,0.237c-0.022,0.082-0.044,0.16-0.049,0.243
		c-0.002,0.026-0.015,0.048-0.015,0.074c0,0.054,0.024,0.1,0.031,0.152c0.011,0.086,0.022,0.169,0.051,0.251
		c0.026,0.075,0.064,0.144,0.104,0.213c0.04,0.069,0.079,0.134,0.132,0.195c0.055,0.064,0.123,0.117,0.193,0.17
		c0.042,0.032,0.069,0.075,0.116,0.102c0.03,0.017,0.062,0.024,0.092,0.038c0.034,0.016,0.069,0.03,0.104,0.043
		c0.14,0.052,0.284,0.087,0.428,0.087c0,0,0.001,0,0.001,0c0,0,0,0,0,0h89.888c0.027,0,0.05-0.014,0.077-0.016
		c0.081-0.005,0.158-0.027,0.238-0.048c0.081-0.021,0.162-0.042,0.239-0.08c0.023-0.011,0.048-0.011,0.071-0.024
		c0.046-0.027,0.074-0.07,0.116-0.102c0.069-0.053,0.137-0.106,0.193-0.17c0.053-0.061,0.092-0.126,0.131-0.195
		c0.04-0.069,0.078-0.138,0.104-0.213c0.028-0.082,0.04-0.164,0.051-0.25c0.007-0.052,0.031-0.098,0.031-0.152
		c0-0.026-0.013-0.048-0.015-0.074C244.981,169.125,244.958,169.046,244.936,168.964z M230.493,154.171h-19.474
		c1.224-1.3,2.24-2.793,3.003-4.43h11.564C227.314,151.119,228.958,152.621,230.493,154.171z M222.125,147.241h-7.172
		c0.29-1.024,0.486-2.086,0.576-3.179C217.799,144.79,220.011,145.885,222.125,147.241z M175.757,122.3
		c-0.172-0.639-0.309-1.143-0.441-1.499c-0.521-1.401-1.438-1.767-2.309-1.767c-0.622,0-1.221,0.187-1.633,0.315
		c-1.276,0.398-2.282,0.713-3.651-0.745c-1.897-2.02-3.215-6.571-3.001-10.363c0.129-2.272,0.779-4.016,1.831-4.908
		c0.664-0.563,1.288-0.786,1.913-0.706c-0.005,0.086-0.026,0.168-0.026,0.256c0,2.444,1.988,4.432,4.432,4.432
		c2.444,0,4.433-1.988,4.433-4.432c0-1.048-0.38-1.998-0.99-2.758c2.393-1.557,3.983-4.25,3.983-7.312
		c0-1.579-0.428-3.057-1.165-4.336c2.883-1.582,4.853-4.618,4.934-8.113c0.009,0,0.018,0.001,0.028,0.001
		c3.867,0,7.255-2.056,9.154-5.126c1.625,0.985,3.523,1.562,5.557,1.562s3.932-0.578,5.557-1.562
		c1.899,3.07,5.287,5.126,9.154,5.126c0.009,0,0.018-0.001,0.028-0.001c0.081,3.495,2.051,6.531,4.934,8.113
		c-0.737,1.279-1.165,2.757-1.165,4.336c0,3.062,1.589,5.755,3.983,7.312c-0.61,0.759-0.99,1.71-0.99,2.758
		c0,2.444,1.988,4.432,4.433,4.432c2.444,0,4.432-1.988,4.432-4.432c0-0.088-0.021-0.17-0.026-0.256
		c0.624-0.08,1.25,0.143,1.913,0.706c1.052,0.892,1.703,2.636,1.832,4.908c0.214,3.792-1.104,8.343-3,10.363
		c-1.369,1.459-2.377,1.144-3.651,0.745c-0.989-0.309-3.049-0.952-3.942,1.452c-0.132,0.356-0.269,0.861-0.441,1.499
		c-1.412,5.232-5.163,19.13-23.05,19.13S177.169,127.532,175.757,122.3z M208.477,142.406c-0.29,5.089-4.51,9.144-9.671,9.144
		c-5.16,0-9.381-4.055-9.671-9.144c2.723,0.955,5.916,1.525,9.671,1.525C202.561,143.93,205.754,143.361,208.477,142.406z
		 M186.68,143.156c0.654,6.114,5.841,10.893,12.126,10.893c6.285,0,11.472-4.779,12.126-10.893c0.713,0.049,1.424,0.132,2.129,0.265
		c-0.389,7.536-6.624,13.552-14.255,13.552c-7.631,0-13.867-6.016-14.256-13.552C185.256,143.288,185.967,143.206,186.68,143.156z
		 M182.083,144.061c0.09,1.093,0.286,2.155,0.576,3.18h-7.178C177.598,145.884,179.811,144.788,182.083,144.061z M172.021,149.741
		h11.57c0.763,1.637,1.779,3.13,3.003,4.43h-19.479C168.649,152.621,170.293,151.119,172.021,149.741z M164.759,156.669
		c0.003,0,0.006,0.002,0.01,0.002h24.77c2.658,1.767,5.844,2.802,9.268,2.802c3.424,0,6.61-1.035,9.268-2.802h24.776
		c1.354,1.506,2.599,3.006,3.714,4.43h-75.52C162.16,159.677,163.404,158.175,164.759,156.669z M156.108,168.032
		c0.718-1.115,1.749-2.656,3.045-4.431h79.304c1.297,1.775,2.329,3.316,3.047,4.431H156.108z M190.322,95.876
		c-0.113,0.549-1.485,0.724-3.086,0.799c-1.601,0.059-2.983-0.001-3.141-0.538c-0.161-0.52,1.182-1.385,3.058-1.46
		C189.029,94.595,190.44,95.345,190.322,95.876z M207.291,95.876c-0.117-0.531,1.294-1.281,3.169-1.2
		c1.876,0.075,3.219,0.94,3.058,1.46c-0.158,0.537-1.541,0.597-3.142,0.538C208.776,96.6,207.403,96.424,207.291,95.876z
		 M190.322,105.501c0,1.447-1.173,2.619-2.619,2.619s-2.619-1.173-2.619-2.619c0-1.446,1.173-2.619,2.619-2.619
		S190.322,104.055,190.322,105.501z M207.291,105.501c0-1.446,1.173-2.619,2.619-2.619c1.446,0,2.619,1.173,2.619,2.619
		c0,1.447-1.173,2.619-2.619,2.619C208.463,108.12,207.291,106.948,207.291,105.501z M196.885,118.599
		c-0.331-0.388-0.358-0.765-0.181-0.97c0.39-0.394,1.214-0.259,1.978-0.269c0.763,0.043,1.592-0.055,1.964,0.356
		c0.168,0.212,0.124,0.588-0.223,0.961c-0.337,0.369-0.999,0.701-1.785,0.683C197.851,119.343,197.205,118.983,196.885,118.599z
		 M202.17,126.419c-0.714,0.588-2.022,1.151-3.507,1.081c-1.483-0.052-2.672-0.64-3.397-1.16c-0.729-0.541-1.039-1.041-0.902-1.271
		c0.297-0.516,2.22,0.334,4.374,0.432c2.136,0.133,3.878-0.896,4.249-0.432C203.148,125.276,202.902,125.827,202.17,126.419z"/>
	<path d="M132.256,154.726c-7.664-8.438-15.171-13.118-22.355-13.97c8.65-4.887,11.132-14.079,12.137-17.805
		c0.149-0.554,0.279-1.032,0.371-1.28c0.024-0.065,0.046-0.114,0.064-0.149c0.194,0.028,0.544,0.137,0.79,0.213
		c1.412,0.44,3.776,1.178,6.218-1.42c2.386-2.54,3.932-7.677,3.674-12.215c-0.17-3.006-1.107-5.314-2.71-6.674
		c-1.607-1.364-3.109-1.434-4.086-1.252c-0.015,0.003-0.029,0.008-0.045,0.011c1.696-4.668,2.427-9.479,2.082-14.105
		c-0.63-8.451-5.077-16.335-11.604-20.574c-6.059-3.936-14.081-5.248-23.849-3.896c-4.701,0.65-8.348,1.69-11.478,3.273
		c-3.464,1.752-6.394,4.695-8.269,8.301c-2.707-0.63-5.305,1.118-6.597,3.056c-1.518,2.279-1.868,5.152-2.003,7.401
		c-0.323,5.371,0.564,10.944,2.633,16.641c-0.144-0.042-0.29-0.08-0.44-0.108c-0.979-0.18-2.479-0.111-4.086,1.252
		c-1.603,1.359-2.54,3.668-2.71,6.674c-0.257,4.538,1.288,9.675,3.674,12.215c2.441,2.598,4.806,1.861,6.218,1.42
		c0.246-0.077,0.595-0.186,0.79-0.213c0.018,0.035,0.04,0.084,0.064,0.149c0.092,0.248,0.222,0.726,0.371,1.28
		c1.006,3.726,3.487,12.917,12.138,17.805c-7.184,0.852-14.692,5.532-22.355,13.97c-6.247,6.878-10.18,13.646-10.345,13.931
		c-0.345,0.598-0.14,1.362,0.458,1.708c0.597,0.343,1.362,0.141,1.708-0.458c0.151-0.262,14.944-25.52,31.662-26.747v26.122
		c0,0.69,0.56,1.25,1.25,1.25s1.25-0.56,1.25-1.25v-10.283l4.591-2.274l1.824,3.458l-1.285,8.921
		c-0.052,0.359,0.055,0.723,0.293,0.997c0.237,0.274,0.582,0.432,0.945,0.432h6.665c0.363,0,0.708-0.157,0.945-0.432
		c0.237-0.274,0.344-0.638,0.293-0.997l-1.285-8.921l1.823-3.458l4.591,2.274v10.283c0,0.69,0.56,1.25,1.25,1.25
		c0.69,0,1.25-0.56,1.25-1.25V143.16c16.718,1.227,31.511,26.485,31.662,26.747c0.231,0.401,0.652,0.625,1.084,0.625
		c0.212,0,0.427-0.054,0.624-0.167c0.598-0.345,0.803-1.11,0.457-1.708C142.436,168.372,138.503,161.604,132.256,154.726z
		 M73.524,122.3c-0.172-0.639-0.309-1.143-0.441-1.499c-0.521-1.401-1.438-1.767-2.309-1.767c-0.622,0-1.22,0.187-1.633,0.315
		c-1.274,0.398-2.282,0.713-3.651-0.745c-1.897-2.02-3.215-6.571-3-10.362c0.128-2.272,0.779-4.016,1.831-4.909
		c0.697-0.592,1.354-0.821,2.008-0.702c1.404,0.257,2.657,2.018,3.019,2.671c0,0.001,0.001,0.001,0.001,0.002
		c0.387,0.808,0.791,1.618,1.225,2.43c0.047,0.087,0.139,0.141,0.238,0.132c0.098-0.007,0.184-0.071,0.217-0.164
		c1.833-5.024,2.791-9.53,2.85-13.395c4.351-2.743,7.542-7.926,8.063-13.055c10.001,7.52,23.229,10.989,35.542,9.315
		c-0.591,6.005,0.436,12.063,2.977,17.539v0.001c0.197,0.425,0.355,0.553,0.556,0.715c0.093,0.076,0.203,0.164,0.345,0.311
		c0.047,0.049,0.113,0.077,0.18,0.077c0.007,0,0.014-0.001,0.021-0.001c0.075-0.006,0.144-0.046,0.186-0.109
		c1.084-1.603,2.036-3.257,2.867-4.942c0.575-0.675,1.359-1.372,2.204-1.527c0.651-0.119,1.311,0.11,2.008,0.702
		c1.053,0.893,1.703,2.636,1.832,4.909c0.215,3.791-1.103,8.343-3.001,10.362c-1.369,1.458-2.375,1.145-3.651,0.745
		c-0.989-0.309-3.049-0.952-3.942,1.452c-0.132,0.356-0.269,0.861-0.441,1.499c-1.412,5.232-5.163,19.13-23.05,19.13
		C78.687,141.43,74.936,127.532,73.524,122.3z M96.574,151.549c-5.16,0-9.38-4.055-9.671-9.144c2.723,0.955,5.917,1.525,9.671,1.525
		c3.754,0,6.947-0.569,9.671-1.525C105.955,147.495,101.735,151.549,96.574,151.549z M86.875,149.219
		c1.446,1.898,3.429,3.358,5.727,4.153l-5.727,2.837V149.219z M100.547,153.372c2.298-0.795,4.281-2.255,5.727-4.153v6.99
		L100.547,153.372z M88.09,95.876c-0.113,0.549-1.485,0.724-3.086,0.799c-1.601,0.059-2.983-0.001-3.142-0.538
		c-0.161-0.52,1.182-1.385,3.058-1.46C86.796,94.595,88.208,95.345,88.09,95.876z M105.058,95.876
		c-0.117-0.531,1.294-1.281,3.169-1.2c1.876,0.075,3.219,0.94,3.058,1.46c-0.158,0.537-1.541,0.597-3.142,0.538
		C106.544,96.6,105.171,96.424,105.058,95.876z M88.09,105.501c0,1.447-1.173,2.619-2.619,2.619c-1.447,0-2.619-1.173-2.619-2.619
		c0-1.446,1.173-2.619,2.619-2.619C86.918,102.882,88.09,104.055,88.09,105.501z M110.296,105.501c0,1.447-1.173,2.619-2.619,2.619
		c-1.446,0-2.619-1.173-2.619-2.619c0-1.446,1.173-2.619,2.619-2.619C109.124,102.882,110.296,104.055,110.296,105.501z
		 M79.773,148.245l-5.641,6.866l6.71,6.278c0.419,0.392,0.518,1.02,0.237,1.522l-3.895,6.98c-0.229,0.41-0.654,0.641-1.092,0.641
		c-0.207,0-0.416-0.051-0.608-0.159c-0.603-0.336-0.818-1.098-0.482-1.701l3.419-6.126l-6.852-6.411
		c-0.481-0.45-0.53-1.197-0.112-1.706l6.385-7.771c0.438-0.534,1.226-0.611,1.759-0.172
		C80.134,146.924,80.211,147.712,79.773,148.245z M112.307,161.389l6.71-6.278l-5.64-6.866c-0.438-0.533-0.361-1.321,0.172-1.759
		c0.533-0.438,1.321-0.362,1.759,0.172l6.384,7.771c0.419,0.509,0.37,1.256-0.112,1.706l-6.852,6.411l3.419,6.126
		c0.336,0.603,0.121,1.364-0.482,1.701c-0.193,0.108-0.402,0.159-0.608,0.159c-0.438,0.001-0.864-0.231-1.092-0.641l-3.896-6.98
		C111.789,162.409,111.887,161.781,112.307,161.389z M94.498,118.599c-0.331-0.388-0.357-0.765-0.181-0.97
		c0.39-0.394,1.214-0.259,1.978-0.269c0.763,0.043,1.592-0.055,1.964,0.356c0.168,0.212,0.124,0.588-0.223,0.961
		c-0.337,0.369-0.999,0.701-1.785,0.683C95.465,119.343,94.819,118.983,94.498,118.599z M99.784,126.419
		c-0.714,0.588-2.022,1.151-3.507,1.081c-1.483-0.052-2.672-0.64-3.397-1.16c-0.729-0.541-1.039-1.041-0.902-1.271
		c0.296-0.516,2.22,0.334,4.374,0.432c2.136,0.133,3.878-0.896,4.249-0.432C100.762,125.276,100.516,125.827,99.784,126.419z"/>
</g>
<g id="DESIGNED_BY_FREEPIK">
	<g>
		<g id="XMLID_29_">
			<g id="XMLID_48_">
				<path id="XMLID_56_" style="fill:#252A30;" d="M260.104,465.465c-0.432,0.443-0.803,0.931-1.108,1.453l-0.465-0.241
					c-0.067-0.298-0.349-0.503-0.659-0.466c-0.331,0.039-0.568,0.339-0.529,0.67c0.039,0.331,0.339,0.568,0.67,0.529
					c0.066-0.008,0.127-0.026,0.184-0.052l0.451,0.234c-0.251,0.554-0.433,1.139-0.539,1.744l0.746,0.132
					c0.23-1.306,0.85-2.507,1.792-3.473L260.104,465.465z"/>
				<path id="XMLID_55_" style="fill:#252A30;" d="M265.592,463.163c-0.171,0-0.341,0.006-0.51,0.017l-0.074-0.626
					c0.188-0.149,0.296-0.389,0.266-0.645c-0.046-0.393-0.402-0.674-0.795-0.628c-0.393,0.046-0.674,0.402-0.628,0.795
					c0.03,0.254,0.189,0.461,0.404,0.564l0.074,0.624c-0.714,0.116-1.403,0.332-2.06,0.646l0.327,0.684
					c0.934-0.447,1.942-0.673,2.995-0.673c0.496,0,0.993,0.053,1.475,0.158l0.161-0.741
					C266.692,463.222,266.142,463.163,265.592,463.163z"/>
				<path id="XMLID_54_" style="fill:#252A30;" d="M272.194,465.711c0.331-0.04,0.566-0.341,0.526-0.672
					c-0.04-0.331-0.341-0.566-0.672-0.526c-0.309,0.038-0.535,0.304-0.53,0.609l-0.416,0.363c-0.418-0.43-0.889-0.813-1.408-1.139
					l-0.404,0.641c1.134,0.715,2.021,1.726,2.563,2.925l0.69-0.313c-0.251-0.554-0.568-1.072-0.942-1.545l0.402-0.351
					C272.065,465.716,272.129,465.719,272.194,465.711z"/>
				<path id="XMLID_53_" style="fill:#252A30;" d="M265.044,473.372c-0.386,0.023-0.775,0.035-1.157,0.035
					c-0.88,0-1.733-0.061-2.478-0.179c-0.391-0.062-0.846-0.155-1.27-0.292c1.046,1.861,3.069,3.125,5.388,3.125
					c2.855,0,5.262-1.916,5.95-4.504c-0.682,0.449-1.505,0.825-2.459,1.123C267.839,473.047,266.463,473.286,265.044,473.372z"/>
				<path id="XMLID_49_" style="fill:#252A30;" d="M265.592,464.68c-3.352,0-6.08,2.666-6.08,5.943c0,0.426,0.046,0.849,0.137,1.261
					c0.673,0.483,2.706,0.89,5.348,0.731c2.879-0.173,5.297-0.957,6.672-2.159c-0.006-0.195-0.021-0.39-0.045-0.582
					C271.244,466.913,268.65,464.68,265.592,464.68z M263.432,471.194c-1.02,0-1.85-0.83-1.85-1.85c0-1.02,0.83-1.85,1.85-1.85
					c1.02,0,1.85,0.83,1.85,1.85C265.282,470.365,264.452,471.194,263.432,471.194z M268.17,470.286c-0.75,0-1.36-0.61-1.36-1.36
					s0.61-1.361,1.36-1.361c0.75,0,1.361,0.61,1.361,1.361S268.92,470.286,268.17,470.286z"/>
			</g>
			<path id="XMLID_46_" style="fill:#252A30;" d="M281.595,466.547c-0.295-0.116-0.805-0.309-1.382-0.237
				c-0.551,0.069-0.844,0.341-0.844,1.007v0.866h2.228v1.717h-2.228v5.455h-1.932v-5.455h-1.34v-1.717h1.34v-0.888
				c0-1.68,0.896-2.783,2.568-2.783c0.643,0,1.157,0.122,1.59,0.308L281.595,466.547z"/>
			<path id="XMLID_44_" style="fill:#252A30;" d="M286.298,469.879c-0.177-0.03-0.358-0.046-0.526-0.046
				c-0.896,0-1.51,0.548-1.51,1.614v3.908h-1.932v-7.172h1.873v0.785c0.451-0.673,1.14-0.977,2.021-0.977
				c0.414,0,0.848,0.128,1.094,0.337L286.298,469.879z"/>
			<path id="XMLID_41_" style="fill:#252A30;" d="M293.965,471.757c0,0.222-0.015,0.489-0.037,0.651h-5.085
				c0.207,1.036,0.933,1.488,1.843,1.488c0.622,0,1.295-0.252,1.813-0.688l1.133,1.243c-0.814,0.748-1.85,1.088-3.057,1.088
				c-2.198,0-3.723-1.495-3.723-3.753c0-2.258,1.48-3.797,3.627-3.797C292.544,467.99,293.958,469.522,293.965,471.757z
				 M288.851,471.091h3.175c-0.177-0.918-0.733-1.436-1.562-1.436C289.554,469.655,289.021,470.203,288.851,471.091z"/>
			<path id="XMLID_38_" style="fill:#252A30;" d="M301.618,471.757c0,0.222-0.015,0.489-0.037,0.651h-5.085
				c0.207,1.036,0.932,1.488,1.843,1.488c0.622,0,1.295-0.252,1.814-0.688l1.132,1.243c-0.814,0.748-1.85,1.088-3.057,1.088
				c-2.198,0-3.723-1.495-3.723-3.753c0-2.258,1.48-3.797,3.627-3.797C300.197,467.99,301.611,469.522,301.618,471.757z
				 M296.504,471.091h3.175c-0.178-0.918-0.733-1.436-1.562-1.436C297.207,469.655,296.674,470.203,296.504,471.091z"/>
			<path id="XMLID_35_" style="fill:#252A30;" d="M309.964,471.764c0,2.154-1.495,3.775-3.471,3.775
				c-0.962,0-1.643-0.378-2.109-0.933v3.708h-1.924v-10.133h1.887v0.792c0.466-0.585,1.155-0.984,2.139-0.984
				C308.469,467.99,309.964,469.61,309.964,471.764z M304.287,471.764c0,1.132,0.747,1.976,1.843,1.976
				c1.14,0,1.85-0.881,1.85-1.976c0-1.095-0.711-1.976-1.85-1.976C305.035,469.788,304.287,470.632,304.287,471.764z"/>
			<path id="XMLID_32_" style="fill:#252A30;" d="M313.067,465.836c0,0.696-0.54,1.229-1.236,1.229
				c-0.696,0-1.229-0.533-1.229-1.229c0-0.696,0.533-1.243,1.229-1.243C312.527,464.592,313.067,465.14,313.067,465.836z
				 M312.809,475.354h-1.932v-7.172h1.932V475.354z"/>
			<path id="XMLID_30_" style="fill:#252A30;" d="M316.032,470.736l2.702-2.554h2.369l-3.479,3.375l3.501,3.797h-2.376l-2.716-2.901
				v2.901H314.1v-10.658h1.932V470.736z"/>
		</g>
		<g>
			<path style="fill:#252A30;" d="M184.412,475.289v-1.055c-0.527,0.718-1.391,1.23-2.388,1.23c-1.846,0-3.149-1.406-3.149-3.706
				c0-2.256,1.289-3.721,3.149-3.721c0.952,0,1.816,0.469,2.388,1.245v-3.765h1.099v9.77H184.412z M184.412,473.37v-3.208
				c-0.395-0.615-1.245-1.143-2.124-1.143c-1.421,0-2.27,1.172-2.27,2.739c0,1.567,0.849,2.724,2.27,2.724
				C183.167,474.483,184.017,473.986,184.412,473.37z"/>
			<path style="fill:#252A30;" d="M186.932,471.744c0-2.051,1.465-3.706,3.486-3.706c2.139,0,3.398,1.67,3.398,3.794v0.279h-5.727
				c0.088,1.333,1.025,2.446,2.549,2.446c0.806,0,1.626-0.322,2.182-0.894l0.527,0.718c-0.703,0.703-1.655,1.084-2.812,1.084
				C188.44,475.465,186.932,473.956,186.932,471.744z M190.403,468.947c-1.509,0-2.256,1.274-2.314,2.358h4.643
				C192.718,470.25,192.014,468.947,190.403,468.947z"/>
			<path style="fill:#252A30;" d="M194.607,474.351l0.571-0.791c0.469,0.542,1.362,1.011,2.329,1.011c1.084,0,1.67-0.513,1.67-1.216
				c0-1.714-4.38-0.659-4.38-3.281c0-1.098,0.952-2.036,2.636-2.036c1.201,0,2.051,0.454,2.622,1.026l-0.513,0.762
				c-0.424-0.513-1.201-0.894-2.109-0.894c-0.967,0-1.567,0.483-1.567,1.113c0,1.552,4.38,0.527,4.38,3.281
				c0,1.187-0.952,2.138-2.783,2.138C196.306,475.465,195.324,475.113,194.607,474.351z"/>
			<path style="fill:#252A30;" d="M201.477,466.471c0-0.41,0.337-0.747,0.732-0.747c0.41,0,0.747,0.337,0.747,0.747
				c0,0.41-0.337,0.732-0.747,0.732C201.814,467.203,201.477,466.881,201.477,466.471z M201.667,475.289v-7.075h1.099v7.075H201.667
				z"/>
			<path style="fill:#252A30;" d="M204.582,477.105l0.556-0.82c0.586,0.703,1.289,0.967,2.3,0.967c1.172,0,2.27-0.571,2.27-2.124
				v-1.011c-0.513,0.718-1.377,1.26-2.373,1.26c-1.845,0-3.149-1.377-3.149-3.662c0-2.27,1.289-3.677,3.149-3.677
				c0.952,0,1.802,0.469,2.373,1.245v-1.069h1.099v6.87c0,2.344-1.641,3.076-3.369,3.076
				C206.237,478.16,205.417,477.926,204.582,477.105z M209.709,473.253v-3.091c-0.381-0.615-1.23-1.143-2.109-1.143
				c-1.421,0-2.27,1.128-2.27,2.695c0,1.553,0.849,2.695,2.27,2.695C208.478,474.41,209.328,473.868,209.709,473.253z"/>
			<path style="fill:#252A30;" d="M217.413,475.289v-4.629c0-1.245-0.63-1.641-1.582-1.641c-0.864,0-1.685,0.527-2.095,1.099v5.17
				h-1.099v-7.075h1.099v1.025c0.498-0.586,1.464-1.201,2.519-1.201c1.48,0,2.256,0.747,2.256,2.285v4.966H217.413z"/>
			<path style="fill:#252A30;" d="M219.932,471.744c0-2.051,1.465-3.706,3.486-3.706c2.139,0,3.398,1.67,3.398,3.794v0.279h-5.727
				c0.088,1.333,1.025,2.446,2.549,2.446c0.806,0,1.626-0.322,2.183-0.894l0.527,0.718c-0.703,0.703-1.655,1.084-2.812,1.084
				C221.441,475.465,219.932,473.956,219.932,471.744z M223.404,468.947c-1.509,0-2.256,1.274-2.314,2.358h4.643
				C225.718,470.25,225.015,468.947,223.404,468.947z"/>
			<path style="fill:#252A30;" d="M233.35,475.289v-1.055c-0.527,0.718-1.392,1.23-2.388,1.23c-1.845,0-3.149-1.406-3.149-3.706
				c0-2.256,1.289-3.721,3.149-3.721c0.952,0,1.817,0.469,2.388,1.245v-3.765h1.098v9.77H233.35z M233.35,473.37v-3.208
				c-0.396-0.615-1.245-1.143-2.124-1.143c-1.421,0-2.27,1.172-2.27,2.739c0,1.567,0.849,2.724,2.27,2.724
				C232.105,474.483,232.954,473.986,233.35,473.37z"/>
			<path style="fill:#252A30;" d="M239.692,475.289v-9.77h1.098v3.765c0.572-0.776,1.421-1.245,2.388-1.245
				c1.845,0,3.149,1.465,3.149,3.721c0,2.299-1.304,3.706-3.149,3.706c-0.996,0-1.86-0.513-2.388-1.23v1.055H239.692z
				 M242.9,474.483c1.436,0,2.286-1.157,2.286-2.724c0-1.568-0.85-2.739-2.286-2.739c-0.864,0-1.728,0.527-2.109,1.143v3.208
				C241.171,473.986,242.036,474.483,242.9,474.483z"/>
			<path style="fill:#252A30;" d="M247.528,477.061c0.161,0.073,0.425,0.117,0.601,0.117c0.483,0,0.805-0.161,1.055-0.747
				l0.469-1.069l-2.959-7.148h1.187l2.358,5.8l2.344-5.8h1.201l-3.545,8.51c-0.425,1.025-1.143,1.421-2.08,1.435
				c-0.234,0-0.6-0.044-0.805-0.103L247.528,477.061z"/>
		</g>
	</g>
</g>
</svg>
