<?xml version="1.0" encoding="utf-8"?>
<!-- Generator: Adobe Illustrator 27.5.0, SVG Export Plug-In . SVG Version: 6.00 Build 0)  -->
<svg version="1.1" xmlns="http://www.w3.org/2000/svg" xmlns:xlink="http://www.w3.org/1999/xlink" x="0px" y="0px"
	 viewBox="0 0 500 500" style="enable-background:new 0 0 500 500;" xml:space="preserve">
<g id="BACKGROUND">
</g>
<g id="OBJECTS">
	<g>
		<path style="fill:#C7B299;" d="M205.294,388.746c-3.145,3.908-4.266,9.019-5.295,13.929c-1.116,5.327-2.232,10.655-3.348,15.982
			c-1.901,9.074-3.811,18.247-3.566,27.515c9.154,1.795,18.598,0.769,27.869-0.262c-0.509,0.057-0.34-16.464-0.257-17.945
			c0.339-6.058,0.996-12.092,1.637-18.124c0.641-6.035,1.271-12.076,1.554-18.14c0.14-2.996,0.196-5.998,0.126-8.997
			c-0.029-1.241,0.353-2.58-1.049-2.787c-0.958-0.141-2.546,0.615-3.477,0.877C214.242,382.269,208.813,384.375,205.294,388.746z"/>
		<path style="fill:#C7B299;" d="M273.964,446.591c10.8,2.524,22.298,2.918,32.869-0.439c0.808-18.846-4.89-37.294-10.527-55.296
			c-0.39-1.246-0.791-2.515-1.544-3.581c-0.747-1.059-1.802-1.86-2.889-2.566c-3.926-2.549-9.758-5.224-14.513-5.445
			c-4.618-0.215-3.279,7.744-3.265,10.468c0.064,12.132,0.069,24.264,0.015,36.396C274.08,432.95,274.032,439.771,273.964,446.591z"
			/>
		<g>
			<path style="fill:#333333;" d="M305.125,419.018c-1.53-7.72-3.49-15.42-6.1-22.86c-1.14-3.24-2.16-6.8-4.34-9.52
				c-1.64-2.03-3.88-3.44-6.25-4.5c-0.22-0.1-0.43-0.2-0.65-0.29c-7.17-3.03-14.9-5.05-22.3-7.47c-1.64-0.54-4.82-0.93-5.97-2.21
				c-0.82-0.92-0.62-3.61-0.65-5.16c1.92-1.07,3.79-2.25,5.58-3.54c5.35,5.98,14.97,7.27,21.64,2.77c3.1,2.14,7.22,2.56,10.56,0.56
				c3.52-2.09,5.2-6.29,5.2-10.26c0-5.55-3.02-10.46-5.75-15.08c-3.2-5.44-5.1-10.66-5.36-17.01c-0.23-5.74,0.38-11.5-0.14-17.23
				c-0.41-4.64-1.63-9.13-3.63-13.34c-3.97-8.34-10.97-15.22-19.62-18.57c-8.82-3.41-20.27-3.33-28.52,1.79
				c-7.33-1.54-15.24,1.52-20.66,6.46c-6.35,5.81-8.26,14.02-9.07,22.27c-0.46,4.69-0.65,9.43-1.57,14.06
				c-0.88,4.37-2.56,8.31-4.92,12.07c-4.24,6.74-10.3,13.41-10.5,21.82c-0.1,4.28,2.01,8.13,6.09,9.72
				c3.43,1.34,7.03,0.57,9.99-1.36c1.47,3.37,5.46,5.13,9.08,5.16c4.71,0.05,9.07-2.22,12.1-5.71c1.59,1.28,3.28,2.44,4.92,3.48
				c1.97,1.24,4.14,2.49,6.39,3.47c0,1.41-0.07,2.97-0.65,3.63c-1.15,1.28-4.33,1.67-5.97,2.21c-7.4,2.42-15.13,4.44-22.3,7.47
				c-0.22,0.09-0.43,0.19-0.65,0.29c-2.37,1.06-4.61,2.47-6.25,4.5c-2.18,2.72-3.2,6.28-4.34,9.52c-2.61,7.44-4.57,15.14-6.1,22.86
				c-1.7,8.6-2.75,17.33-3.23,26.07c-0.12,2.2,3.31,2.2,3.42,0c0.85-15.81,3.79-31.32,8.49-46.43c1.1-3.53,1.93-7.92,4.46-10.74
				c2.28-2.53,5.68-3.73,8.82-4.79c0.98-0.33,1.96-0.66,2.93-0.99c1.18-0.4,2.36-0.79,3.54-1.18c-0.04,0.39-0.08,0.79-0.1,1.18
				c-0.39,4.47-0.42,9-0.77,13.46c-0.43,5.65-0.96,11.3-1.47,16.94c-0.99,11.12-1.82,22.27-1.47,33.44c0.06,1.81,2.86,1.82,2.82,0
				c-0.3-11.17,0.57-22.32,1.58-33.44c0.49-5.5,1.02-10.99,1.42-16.49c0.02-0.2,0.03-0.4,0.05-0.6c3.29,0.95,7.21,0.97,10.48,1.23
				c4.36,0.35,8.72,0.58,13.09,0.66c8.09,0.15,16.23-0.06,24.29-0.89c0.05,5.1,0.1,10.21,0.13,15.31
				c0.06,11.45-0.02,22.9-0.05,34.34c0,1.6,2.43,1.59,2.48,0c0.33-11.44,0.39-22.89,0.36-34.34c-0.01-5.65-0.05-11.29-0.14-16.94
				c-0.07-4.14,0.12-8.47-0.21-12.68c-0.04-0.56-0.1-1.13-0.16-1.69c1.69,0.56,3.38,1.12,5.06,1.69c0.98,0.33,1.96,0.66,2.93,0.99
				c3.14,1.06,6.54,2.26,8.82,4.79c2.53,2.82,3.36,7.21,4.46,10.74c4.7,15.11,7.64,30.62,8.49,46.43c0.12,2.2,3.54,2.2,3.42,0
				C307.875,436.348,306.825,427.618,305.125,419.018z M217.975,364.918c-3.39,0.16-7.4-1.36-7.96-5.09
				c-0.15-0.98-1.4-1.04-2.01-0.53c-3.14,2.64-7.92,3.46-11.18,0.51c-3.26-2.95-2.44-7.96-1.11-11.66
				c2.39-6.62,7.44-11.86,10.72-18.02c3.44-6.49,4.11-13.68,4.7-20.87c0.62-7.52,1.36-15.62,6.32-21.7
				c4.84-5.94,11.79-8.6,19.19-8.93c-0.05,0.04-0.1,0.08-0.15,0.12c-0.67,0.54,0.18,1.49,0.88,1.14c8.14-4.11,16.65-6.05,25.67-3.72
				c8.43,2.18,15.53,7.83,20.03,15.23c4.93,8.11,5.5,16.82,5.32,26.09c-0.09,4.56-0.16,9.18,0.78,13.68
				c0.97,4.72,3.33,8.77,5.75,12.88c2.75,4.64,5.75,10.12,4.18,15.69c-1.52,5.35-7.63,8.13-12.22,4.33
				c-0.35-0.29-0.93-0.47-1.35-0.17c-5.91,4.22-14.28,3.43-19.24-1.8c1.26-0.97,2.48-1.97,3.67-3.02c1.49-1.32,3.07-2.69,4.16-4.38
				c1.15-1.8,1.49-3.87,1.71-5.95c0.02-0.26,0.05-0.53,0.08-0.79c6.82,0.16,13-6.12,11.24-13.17c-0.72-2.88-2.88-5.25-5.94-5.47
				c-1.11-0.08-2.5,0.13-3.71,0.63c0.3-4.03,0.58-8.06,0.85-12.09c0.5-0.2,1-0.45,1.48-0.77c1.49-0.97,0.09-3.38-1.4-2.39
				c-3.12,2.05-7.11,0.64-7.88-3.11c-0.23-1.15-2.19-1.21-2.38,0c-0.33,2.07-0.62,8.45-4.35,6.7c-2.26-1.06-3.61-5.34-4.6-7.42
				c-0.69-1.44-2.73-0.38-2.45,1.03c0.38,1.89,1.47,7.91-2.56,6.74c-2.25-0.66-4.19-3.67-5.48-5.47c-1.29-1.79-2.4-3.7-3.4-5.66
				c-0.87-1.74-1.46-3.79-2.4-5.53c0.04-0.09,0.07-0.18,0.11-0.28c0.56-1.62-1.97-2.28-2.56-0.7c-1.73,4.61-4.84,8.48-8.45,11.78
				c-1.77,1.61-3.63,3.17-5.69,4.4c-2.57,1.53-4.97,1.93-7.89,2.24c-1.24,0.13-1.54,1.77-0.3,2.2c1.13,0.39,2.29,0.5,3.45,0.39
				c0.07,2.08,0.2,4.16,0.24,6.16v0.23c-1.11-0.82-2.52-1.39-3.5-1.56c-3.94-0.68-6.65,2.56-7.41,6.13
				c-1.5,6.95,4.27,14.18,11.33,14.31c0.07,3.31,0.36,6.64,2.33,9.42c0.86,1.2,1.89,2.33,3.01,3.37
				C225.195,362.888,221.705,364.728,217.975,364.918z M276.225,344.888c0.37-3.76,0.69-7.52,1-11.29c1.3-1.54,3.92-1.97,5.56-0.62
				c1.37,1.13,1.74,3.13,1.55,4.8C283.855,342.048,280.285,344.778,276.225,344.888z M222.215,343.828c-4.18-0.84-7.95-3.17-8.23-8
				c-0.14-2.46,0.72-5.68,3.56-5.98c1.89-0.19,3.06,0.79,4.37,1.73C222.005,335.658,222.105,339.738,222.215,343.828z
				 M237.635,363.278c-3.44-1.98-6.92-4.42-9.55-7.43c-3.08-3.52-2.52-8.31-2.63-12.68c-0.13-5.15-0.27-10.3-0.44-15.46
				c-0.07-2.12-0.04-4.34-0.09-6.55c3.16-1.27,6.12-3.67,8.33-5.61c3.2-2.82,5.98-6.06,7.99-9.78c0.74,2.03,1.87,4.02,2.81,5.63
				c1.78,3.08,4.05,6.46,6.86,8.69c2.23,1.77,5.33,2.43,7.51,0.18c0.7-0.71,1.15-1.54,1.41-2.42c1.29,1.97,2.95,3.51,5.35,3.36
				c3.07-0.19,4.23-2.7,4.81-5.34c1.33,1.52,3.17,2.42,5.15,2.53c-0.48,7.42-0.98,14.84-1.55,22.25c-0.16,2.13-0.32,4.26-0.5,6.39
				c-0.21,2.54-0.35,5.07-2.1,7.08c-2.67,3.07-6.35,5.55-9.76,7.71c-3.5,2.22-7.69,5.05-11.91,5.4
				C245.295,367.558,241.025,365.218,237.635,363.278z M272.735,393.958c-7.93,0.5-15.86,0.85-23.81,0.7
				c-4.21-0.09-8.43-0.27-12.63-0.56c-3.58-0.24-7.57-1.07-11.22-0.88c0.3-3.67,0.6-7.41,0.47-11.08c-0.02-0.68-0.06-1.36-0.11-2.04
				c4.7-1.56,9.41-3.11,14.1-4.69c1.17-0.4,2.45-0.72,3.08-1.88c0.6-1.1,0.58-2.64,0.58-4.02c1.11,0.37,2.22,0.66,3.34,0.83
				c3.47,0.55,6.73-0.51,9.79-2c0.08,1.59-0.17,3.76,0.6,5.19c0.63,1.16,1.91,1.48,3.08,1.88c4.22,1.42,8.46,2.82,12.69,4.22
				c-0.08,0.83-0.13,1.67-0.16,2.51C272.395,386.068,272.675,390.068,272.735,393.958z"/>
			<path style="fill:#333333;" d="M299.105,359.738c-1.52,5.35-7.63,8.13-12.22,4.33c-0.35-0.29-0.93-0.47-1.35-0.17
				c-5.91,4.22-14.28,3.43-19.24-1.8c1.26-0.97,2.48-1.97,3.67-3.02c1.49-1.32,3.07-2.69,4.16-4.38c1.15-1.8,1.49-3.87,1.71-5.95
				c0.02-0.26,0.05-0.53,0.08-0.79c6.82,0.16,13-6.12,11.24-13.17c-0.72-2.88-2.88-5.25-5.94-5.47c-1.11-0.08-2.5,0.13-3.71,0.63
				c0.3-4.03,0.58-8.06,0.85-12.09c0.5-0.2,1-0.45,1.48-0.77c1.49-0.97,0.09-3.38-1.4-2.39c-3.12,2.05-7.11,0.64-7.88-3.11
				c-0.23-1.15-2.19-1.21-2.38,0c-0.33,2.07-0.62,8.45-4.35,6.7c-2.26-1.06-3.61-5.34-4.6-7.42c-0.69-1.44-2.73-0.38-2.45,1.03
				c0.38,1.89,1.47,7.91-2.56,6.74c-2.25-0.66-4.19-3.67-5.48-5.47c-1.29-1.79-2.4-3.7-3.4-5.66c-0.87-1.74-1.46-3.79-2.4-5.53
				c0.04-0.09,0.07-0.18,0.11-0.28c0.56-1.62-1.97-2.28-2.56-0.7c-1.73,4.61-4.84,8.48-8.45,11.78c-1.77,1.61-3.63,3.17-5.69,4.4
				c-2.57,1.53-4.97,1.93-7.89,2.24c-1.24,0.13-1.54,1.77-0.3,2.2c1.13,0.39,2.29,0.5,3.45,0.39c0.07,2.08,0.2,4.16,0.24,6.16v0.23
				c-1.11-0.82-2.52-1.39-3.5-1.56c-3.94-0.68-6.65,2.56-7.41,6.13c-1.5,6.95,4.27,14.18,11.33,14.31c0.07,3.31,0.36,6.64,2.33,9.42
				c0.86,1.2,1.89,2.33,3.01,3.37c-2.41,2.82-5.9,4.66-9.63,4.85c-3.39,0.16-7.4-1.36-7.96-5.09c-0.15-0.98-1.4-1.04-2.01-0.53
				c-3.14,2.64-7.92,3.46-11.18,0.51c-3.26-2.95-2.44-7.96-1.11-11.66c2.39-6.62,7.44-11.86,10.72-18.02
				c3.44-6.49,4.11-13.68,4.7-20.87c0.62-7.52,1.36-15.62,6.32-21.7c4.84-5.94,11.79-8.6,19.19-8.93c-0.05,0.04-0.1,0.08-0.15,0.12
				c-0.67,0.54,0.18,1.49,0.88,1.14c8.14-4.11,16.65-6.05,25.67-3.72c8.43,2.18,15.53,7.83,20.03,15.23
				c4.93,8.11,5.5,16.82,5.32,26.09c-0.09,4.56-0.16,9.18,0.78,13.68c0.97,4.72,3.33,8.77,5.75,12.88
				C297.675,348.688,300.675,354.168,299.105,359.738z"/>
			<path style="fill:#333333;" d="M235.479,331.872c-0.496-0.161-1.104-0.056-1.583,0.23c-0.126-0.283-0.169-0.608-0.099-0.968
				c0.043-0.224,0.015-0.489-0.172-0.649c-0.126-0.108-0.219-0.161-0.385-0.184c-0.029-0.004-0.058-0.008-0.087-0.012
				c-0.215-0.029-0.481,0.145-0.576,0.33c-0.449,0.876-0.428,1.87-0.046,2.668c-0.213-0.096-0.416-0.221-0.603-0.392
				c-0.279-0.257-0.507-0.538-0.67-0.883c-0.16-0.339-0.224-0.65-0.489-0.927c-0.161-0.168-0.481-0.181-0.639,0
				c-0.756,0.866-0.109,2.451,0.587,3.178c0.457,0.477,1.021,0.813,1.631,0.991c-0.265,1.207-0.301,2.453-0.045,3.709
				c0.416,2.039,2.676,3.272,4.323,1.563c0.105-0.109,0.198-0.225,0.283-0.344c0.938-1.053,0.971-2.992,0.887-4.275
				C237.683,334.176,237.303,332.465,235.479,331.872z"/>
			<path style="fill:#333333;" d="M268.515,331.086c-0.265,0.277-0.329,0.588-0.489,0.927c-0.163,0.344-0.391,0.626-0.67,0.883
				c-0.186,0.171-0.389,0.297-0.603,0.392c0.382-0.798,0.403-1.792-0.046-2.668c-0.095-0.185-0.361-0.359-0.576-0.33
				c-0.029,0.004-0.058,0.008-0.087,0.012c-0.166,0.022-0.259,0.076-0.385,0.184c-0.187,0.16-0.215,0.425-0.172,0.649
				c0.07,0.36,0.026,0.685-0.1,0.968c-0.479-0.286-1.088-0.391-1.583-0.23c-1.825,0.592-2.205,2.304-2.318,4.036
				c-0.084,1.283-0.051,3.221,0.887,4.275c0.085,0.119,0.178,0.235,0.283,0.344c1.647,1.71,3.907,0.476,4.323-1.563
				c0.256-1.256,0.22-2.502-0.045-3.709c0.61-0.178,1.174-0.514,1.631-0.991c0.696-0.727,1.343-2.312,0.587-3.178
				C268.996,330.905,268.676,330.919,268.515,331.086z"/>
			<path style="fill:#333333;" d="M251.056,340.927c0.214-2.502,0.609-5.182,0.151-7.671c-0.228-1.238-2.082-1.117-2.385,0
				c-0.663,2.437-0.572,5.164-0.799,7.671C247.847,342.867,250.89,342.863,251.056,340.927z"/>
			<path style="fill:#333333;" d="M255.175,350.261c0.764-1.107-0.896-2.287-1.816-1.401c-1.324,1.274-3.737,1.948-5.544,1.348
				c-1.411-0.468-2.148-2.446-3.547-2.699c-0.46-0.083-0.87,0.272-0.755,0.754c0.602,2.511,2,4.465,4.7,4.747
				C250.909,353.291,253.595,352.549,255.175,350.261z"/>
			<path style="fill:#333333;" d="M233.174,323.551c-2.11,0.202-5.134,0.908-5.823,3.2c-0.135,0.449,0.314,0.893,0.761,0.761
				c1.691-0.5,3.038-1.486,4.87-1.704c2.154-0.256,4.186,0.103,5.59,1.865c0.917,1.15,2.55-0.482,1.623-1.622
				C238.463,323.922,235.823,323.298,233.174,323.551z"/>
			<path style="fill:#333333;" d="M259.319,328.889c1.691-0.5,3.038-1.486,4.87-1.704c2.154-0.256,4.186,0.103,5.59,1.865
				c0.917,1.15,2.55-0.482,1.623-1.622c-1.732-2.129-4.372-2.753-7.021-2.499c-2.11,0.202-5.134,0.908-5.823,3.2
				C258.423,328.577,258.872,329.021,259.319,328.889z"/>
		</g>
	</g>
	<g>
		<path style="fill:#C7B299;" d="M354.41,171.131c0.805-1.855,1.677-3.689,2.792-5.376c0.23-0.349,0.637-0.735,1.001-0.531
			c0.127,0.071,0.208,0.2,0.284,0.324c4.366,7.198,6.338,15.821,5.533,24.201c-0.226,2.355-0.664,4.686-0.913,7.04
			c-0.248,2.348-0.306,4.712-0.364,7.072c-0.178,7.227-0.356,14.454-0.534,21.68c-5.125,0.557-10.562,0.861-15.696,0.223
			c-4.475-0.555-2.369-6.609-2.063-9.921c0.904-9.809,2.219-19.615,4.684-29.165C350.502,181.374,352.227,176.158,354.41,171.131z"
			/>
		<path style="fill:#C7B299;" d="M440.917,174.02c-0.293,2.558-0.587,5.116-0.88,7.674c-0.448,3.905-0.896,7.811-1.344,11.716
			c-1.206,10.511-2.413,21.053-2.345,31.632c6.99,0.624,14.048,0.48,21.007-0.429c0.511-5.913-0.536-11.838-1.578-17.681
			c-1.775-9.949-3.554-19.915-6.231-29.66c-0.949-3.457-2.012-7.866-4.49-10.6c-1.533-1.692-2.234,0.02-2.967,1.798
			C441.367,170.221,441.131,172.153,440.917,174.02z"/>
		<g>
			<path style="fill:#333333;" d="M456.115,197.818c-1.53-7.73-3.49-15.43-6.1-22.86c-1.14-3.24-2.16-6.81-4.34-9.52
				c-1.79-2.23-4.3-3.7-6.9-4.79c-7.17-3.04-14.9-5.05-22.3-7.47c-1.64-0.54-4.82-0.93-5.97-2.21c-0.48-0.53-0.61-1.67-0.64-2.83
				c-0.03-0.84,0-1.69-0.01-2.34c3.97-2.2,7.69-4.92,11.1-7.92c1.49-1.32,3.07-2.69,4.16-4.39c1.15-1.79,1.48-3.87,1.71-5.95
				c0.02-0.26,0.05-0.52,0.08-0.78c6.82,0.16,13-6.13,11.24-13.17c-0.4-1.62-1.26-3.07-2.47-4.07c0.5-1.39,1-2.78,1.51-4.16
				c0.56-1.56,0.99-3.55,2.03-4.86c1.2-1.51,2.46-2.44,3.07-4.38c1-3.17,0.2-6.72-2.06-9.11c0.84-3.23,1.55-6.51,0.98-9.85
				c-0.56-3.23-2.13-6.19-4.18-8.71c-2.21-2.71-4.99-4.94-7.89-6.87c-2.53-1.68-5.21-2.89-8.21-2.54
				c-4.55-5.18-11.48-7.84-18.33-7.6c-6.76,0.24-14.64,3.19-19.38,8.32c-2.54-2.49-6.39-2.75-9.28-0.46
				c-0.65,0.53-1.23,1.14-1.69,1.84c-0.75,1.12-0.72,0.67-2.1,0.84c-2.01,0.24-3.79,1.28-5.34,2.54
				c-4.78,3.92-12.55,15.37-7.83,21.52c-2.64,1.68-3.92,5.25-3.7,8.33c0.31,4.33,4.32,5.92,8.08,6.25c0.05,1.52,0.34,2.99,0.63,4.49
				c0.26,1.31,0.44,2.62,1.05,3.77c-0.52,0.88-0.9,1.87-1.11,2.89c-1.5,6.95,4.27,14.18,11.33,14.31c0.07,3.31,0.36,6.63,2.33,9.41
				c2.42,3.41,6.19,6.15,9.69,8.37c1.97,1.25,4.14,2.49,6.39,3.48c0,0.26,0,0.53-0.02,0.8c-0.02,1.16-0.16,2.29-0.63,2.83
				c-1.15,1.28-4.33,1.67-5.97,2.21c-7.4,2.42-15.13,4.43-22.31,7.47c-2.59,1.09-5.1,2.56-6.89,4.79c-2.18,2.71-3.2,6.28-4.34,9.52
				c-2.61,7.43-4.57,15.13-6.1,22.86c-1.7,8.6-2.75,17.32-3.23,26.07c-0.12,2.2,3.3,2.19,3.42,0c0.85-15.81,3.79-31.33,8.49-46.44
				c1.1-3.52,1.93-7.92,4.46-10.73c0.02-0.02,0.04-0.04,0.06-0.07c1.22,4.19,2.38,8.28,2.94,12.66c0.64,4.92,0.71,9.91,0.6,14.87
				c-0.23,10.2-0.38,20.46-0.95,30.65c-0.09,1.61,2.42,1.6,2.51,0c0.31-5.35,0.29-10.71,0.44-16.06c0.15-5.31,0.46-10.61,0.51-15.92
				c0.09-8.95-0.22-19.39-4.66-27.47c2.15-1.65,4.85-2.6,7.37-3.46c4.95-1.67,9.91-3.31,14.86-4.95
				c-0.42,5.72,0.45,11.56,1.63,17.14c0.15,0.7,1.16,1.18,1.77,0.72c1.58-1.17,3.16-2.35,4.92-3.24c1.66-0.84,3.3-1.12,5.04-1.48
				c0.58,0.83,1.18,1.64,1.85,2.36c0.05,0.06,0.11,0.11,0.16,0.17c-0.65,3.05-0.26,6.65-0.3,9.66c-0.02,1.79-0.04,3.57-0.04,5.36
				c-0.01,1.69-0.28,3.63,0.15,5.28c0.1,0.38,0.43,0.72,0.82,0.82c1.58,0.38,3.45,0.1,5.07,0.07c1.58-0.03,1.58-2.52,0-2.46
				c-1.13,0.05-2.55,0.3-3.77,0.21c-0.18-1.51,0.16-3.39,0.21-4.82c0.06-1.78,0.1-3.57,0.14-5.35c0.06-2.65,0.46-5.75,0.05-8.49
				c0.93-0.65,1.66-1.97,2.31-2.78c0.07-0.09,0.14-0.19,0.22-0.28c3.97-0.06,7.49,0.22,10.57,3.35c0.52,0.52,1.67,0.35,1.79-0.47
				c0.81-5.49,1.57-10.98,2.34-16.47c5.67,1.88,11.34,3.73,17,5.65c2.8,0.95,5.81,2.02,8.04,4.03c-0.47,0.59-0.78,1.34-1.01,2.08
				c-0.77,2.52-1.1,5.23-1.53,7.83c-0.87,5.18-1.58,10.38-2.11,15.6c-1.11,10.89-1.84,22.07-1.53,33.03c0.04,1.57,2.35,1.56,2.43,0
				c0.53-10.15,0.45-20.27,1.38-30.4c0.47-5,1.06-9.99,1.81-14.96c0.37-2.47,0.79-4.93,1.21-7.39c0.24-1.36,0.61-2.65,0.96-3.95
				c1.9,2.78,2.66,6.56,3.63,9.66c4.7,15.11,7.64,30.63,8.49,46.44c0.11,2.19,3.54,2.2,3.42,0
				C458.865,215.138,457.815,206.418,456.115,197.818z M435.325,116.578c-0.48,4.27-4.05,6.99-8.11,7.1
				c0.37-3.75,0.69-7.52,0.99-11.28c1.31-1.54,3.93-1.98,5.57-0.63C435.145,112.898,435.515,114.908,435.325,116.578z
				 M364.975,114.628c-0.14-2.46,0.71-5.69,3.56-5.98c1.89-0.2,3.06,0.78,4.37,1.72c0.09,4.09,0.19,8.17,0.29,12.25
				C369.025,121.788,365.255,119.458,364.975,114.628z M368.605,98.638c-1.56,0.3-1.16,2.71,0.37,2.72c1.26,0,2.46-0.24,3.62-0.67
				c0.06,2.12,0.2,4.24,0.24,6.27v0.24c-1.12-0.83-2.52-1.39-3.5-1.56c-1.54-0.27-2.9,0.07-4.02,0.79c-0.14-0.58-0.3-1.16-0.44-1.76
				c-0.39-1.68-0.67-3.37-1.25-4.99c0.1-0.68-0.29-1.45-1.18-1.48c-2.95-0.08-6.71-0.85-6.69-4.53c0.02-2.45,1.21-5.39,3.79-5.98
				c1.16-0.26,1.13-1.73,0.3-2.33c-3.51-2.54-0.88-8.51,0.7-11.48c1.58-2.99,3.78-6.13,6.59-8.09c1.46-1.02,2.82-1.27,4.55-1.43
				c1.13-0.1,1.49-0.21,2.16-1.19c2.06-3.07,5.33-4.19,8.65-2.58c-0.1,0.13-0.21,0.25-0.31,0.38c-0.45,0.58,0.11,1.55,0.85,1.1
				c6.19-3.73,11.66-7.85,19.21-8.18c6.59-0.28,13.09,2.21,17.32,7.35c0.29,0.35,0.8,0.4,1.2,0.32c3.01-0.63,5.72,1.16,8.07,2.83
				c2.41,1.71,4.72,3.65,6.54,5.99c1.61,2.07,2.88,4.49,3.33,7.09c0.57,3.26-0.27,6.46-1.11,9.59c-0.11,0.42-0.01,0.93,0.32,1.23
				c2.78,2.48,3.03,6.77,0.49,9.52c-1.33,1.44-2.02,2.41-2.72,4.29c-0.76,2.07-1.51,4.16-2.26,6.24c-0.39-0.11-0.8-0.19-1.22-0.22
				c-1.12-0.08-2.5,0.13-3.71,0.63c0.3-4.06,0.59-8.12,0.86-12.18c0.3-0.07,0.6-0.14,0.91-0.23c1.64-0.47,0.94-3.02-0.71-2.56
				c-6.21,1.75-11.96-1.62-15.22-6.82c-0.64-1.01-2.44-0.67-2.37,0.64c0.18,3.35,0.97,8.4-4.06,7.88c-3.36-0.36-6.34-2.83-8.14-5.55
				c-0.77-1.17-2.86-0.47-2.37,1c0.7,2.08,1.74,5.43-1.15,6.37c-2.12,0.69-4.25-0.74-5.79-2.05c-2.89-2.47-5-5.66-6.8-8.97
				c0.38-1.62,0.56-3.2,0.5-4.65c-0.02-0.49-0.78-0.8-1.01-0.27C380.075,88.548,377.235,96.958,368.605,98.638z M388.625,142.078
				c-3.44-1.98-6.92-4.43-9.55-7.44c-3.08-3.51-2.52-8.3-2.63-12.67c-0.13-5.16-0.27-10.31-0.44-15.46
				c-0.08-2.47-0.03-5.06-0.13-7.63c3.02-2.27,5.4-5.83,6.82-9.52c2.08,4.54,5.96,9.25,10.62,10.45c2.26,0.58,4.91,0.07,6.38-1.87
				c0.7-0.93,0.99-1.98,1.05-3.06c2.36,2.03,5.31,3.4,8.43,3.18c1.89-0.14,3.7-1.03,4.68-2.7c0.69-1.17,0.89-2.45,0.9-3.76
				c3.05,3.19,7.04,5.26,11.4,5.31c-0.49,7.51-1,15.02-1.57,22.53c-0.16,2.13-0.32,4.26-0.5,6.39c-0.21,2.54-0.35,5.08-2.1,7.09
				c-2.67,3.06-6.35,5.55-9.76,7.71c-3.5,2.21-7.69,5.04-11.91,5.39C396.285,146.358,392.015,144.018,388.625,142.078z
				 M385.825,171.718c-0.99-5.14-1.17-10.27-1.32-15.5c0.39-0.13,0.79-0.27,1.18-0.4c2.08,3.77,4.97,7.22,7.48,10.71
				c0.39,0.54,0.77,1.11,1.15,1.69C391.345,168.098,388.295,169.958,385.825,171.718z M401.805,166.678
				c-0.47,0.61-1.96,2.91-2.85,3.84c-0.99-1.11-1.81-2.59-2.65-3.72c-1.08-1.48-2.17-2.96-3.26-4.43c-1.75-2.39-3.43-4.96-5.41-7.2
				c0.96-0.32,1.93-0.64,2.89-0.97c1.17-0.39,2.45-0.71,3.08-1.87c0.59-1.1,0.58-2.65,0.58-4.02c1.11,0.36,2.22,0.65,3.34,0.83
				c2.62,0.42,5.12-0.09,7.5-1c0.78-0.3,1.54-0.63,2.29-1c0.02,0.31,0.02,0.65,0.02,1c0,1.41-0.04,3.04,0.58,4.19
				c0.53,0.98,1.53,1.36,2.54,1.69c-1.88,2.91-3.73,5.83-5.71,8.65C403.785,164.018,402.815,165.358,401.805,166.678z
				 M412.995,170.408c-2.51-1.83-5.91-3.05-8.95-2.58c0.64-0.84,1.27-1.69,1.9-2.55c2.44-3.34,4.74-6.78,6.72-10.42
				c0.02-0.03,0.02-0.06,0.04-0.08c0.78,0.26,1.56,0.52,2.34,0.78C414.365,160.508,413.665,165.458,412.995,170.408z"/>
			<path style="fill:#333333;" d="M403.38,180.906c0.227-0.004,0.441-0.054,0.636-0.139c0.137-0.027,0.269-0.074,0.385-0.151
				c0.467-0.311,0.764-0.739,0.766-1.324c0.002-0.338-0.095-0.655-0.26-0.946c-0.101-0.179-0.237-0.329-0.393-0.451
				c-0.19-0.187-0.417-0.334-0.673-0.404c-0.315-0.087-0.626-0.041-0.903,0.09c-0.018,0.005-0.037,0.006-0.055,0.011
				c-0.856,0.246-1.363,1.176-1.142,2.03C401.935,180.367,402.595,180.921,403.38,180.906z"/>
			<path style="fill:#333333;" d="M404.378,185.028c-0.84-0.517-1.939-0.277-2.477,0.555c-0.285,0.441-0.335,0.991-0.182,1.475
				c0.197,0.742,0.823,1.258,1.635,1.317c0.666,0.048,1.353-0.324,1.682-0.905C405.513,186.628,405.194,185.531,404.378,185.028z"/>
			<path style="fill:#333333;" d="M406.868,127.084c0.978-0.948-0.444-2.257-1.458-1.458c-1.947,1.536-4.247,2.891-6.816,2.645
				c-2.469-0.236-3.357-2.12-5.251-3.287c-0.45-0.277-0.941,0.179-0.843,0.648c0.568,2.697,3.289,4.679,5.935,4.985
				C401.71,130.995,404.601,129.28,406.868,127.084z"/>
			<path style="fill:#333333;" d="M401.153,117.416c0.48-1.033,0.333-2.061,0.311-3.182c-0.022-1.13-0.084-2.259-0.259-3.376
				c-0.157-1.001-1.865-1.002-2.022,0c-0.175,1.117-0.237,2.247-0.259,3.376c-0.022,1.121-0.169,2.149,0.311,3.182
				C399.571,118.144,400.815,118.144,401.153,117.416z"/>
			<path style="fill:#333333;" d="M389.613,109.734c-3.046-0.971-7.963-1.118-10.019,1.845c-0.208,0.3,0.068,0.734,0.415,0.723
				c0.998-0.032,1.962-0.302,2.938-0.516c-0.027,0.078-0.052,0.155-0.073,0.232c-0.428,1.544-0.361,3.692,0.781,4.939
				c1.086,1.187,3.223,1.112,3.768-0.586c0.281-0.876,0.174-1.924,0.098-2.821c-0.056-0.655-0.132-1.323-0.367-1.932
				c0.612,0.088,1.221,0.221,1.831,0.398C390.453,112.442,391.058,110.195,389.613,109.734z"/>
			<path style="fill:#333333;" d="M411.675,112.303c0.998-0.032,1.962-0.302,2.938-0.516c-0.027,0.078-0.052,0.155-0.073,0.232
				c-0.428,1.544-0.361,3.692,0.781,4.939c1.086,1.187,3.223,1.112,3.768-0.586c0.281-0.876,0.174-1.924,0.098-2.821
				c-0.056-0.655-0.132-1.323-0.367-1.932c0.612,0.088,1.221,0.221,1.831,0.398c1.47,0.426,2.075-1.821,0.629-2.282
				c-3.046-0.971-7.963-1.118-10.019,1.845C411.052,111.879,411.328,112.314,411.675,112.303z"/>
			<path style="fill:#333333;" d="M381.256,107.267c1.111,0.196,2.193,0.043,3.314,0.034c1.157-0.009,2.302,0.118,3.456,0.133
				c2.098,0.028,2.62-3.251,0.503-3.719c-2.253-0.498-5.664-0.463-7.616,0.92C380.012,105.274,379.923,107.032,381.256,107.267z"/>
			<path style="fill:#333333;" d="M412.034,107.15c1.272,0.585,2.493,0.295,3.861,0.235c1.463-0.064,2.918,0.047,4.379,0.104
				c1.979,0.077,2.496-3.182,0.477-3.521c-1.619-0.272-3.219-0.315-4.856-0.179c-1.445,0.12-3.076,0.182-4.131,1.266
				C411.215,105.62,411.232,106.781,412.034,107.15z"/>
		</g>
		<path style="fill:#333333;" d="M438.405,97.808c-1.33,1.44-2.02,2.41-2.72,4.29c-0.76,2.07-1.51,4.16-2.26,6.24
			c-0.39-0.11-0.8-0.19-1.22-0.22c-1.12-0.08-2.5,0.13-3.71,0.63c0.3-4.06,0.59-8.12,0.86-12.18c0.3-0.07,0.6-0.14,0.91-0.23
			c1.64-0.47,0.94-3.02-0.71-2.56c-6.21,1.75-11.96-1.62-15.22-6.82c-0.64-1.01-2.44-0.67-2.37,0.64c0.18,3.35,0.97,8.4-4.06,7.88
			c-3.36-0.36-6.34-2.83-8.14-5.55c-0.77-1.17-2.86-0.47-2.37,1c0.7,2.08,1.74,5.43-1.15,6.37c-2.12,0.69-4.25-0.74-5.79-2.05
			c-2.89-2.47-5-5.66-6.8-8.97c0.38-1.62,0.56-3.2,0.5-4.65c-0.02-0.49-0.78-0.8-1.01-0.27c-3.07,7.19-5.91,15.6-14.54,17.28
			c-1.56,0.3-1.16,2.71,0.37,2.72c1.26,0,2.46-0.24,3.62-0.67c0.06,2.12,0.2,4.24,0.24,6.27v0.24c-1.12-0.83-2.52-1.39-3.5-1.56
			c-1.54-0.27-2.9,0.07-4.02,0.79c-0.14-0.58-0.3-1.16-0.44-1.76c-0.39-1.68-0.67-3.37-1.25-4.99c0.1-0.68-0.29-1.45-1.18-1.48
			c-2.95-0.08-6.71-0.85-6.69-4.53c0.02-2.45,1.21-5.39,3.79-5.98c1.16-0.26,1.13-1.73,0.3-2.33c-3.51-2.54-0.88-8.51,0.7-11.48
			c1.58-2.99,3.78-6.13,6.59-8.09c1.46-1.02,2.82-1.27,4.55-1.43c1.13-0.1,1.49-0.21,2.16-1.19c2.06-3.07,5.33-4.19,8.65-2.58
			c-0.1,0.13-0.21,0.25-0.31,0.38c-0.45,0.58,0.11,1.55,0.85,1.1c6.19-3.73,11.66-7.85,19.21-8.18c6.59-0.28,13.09,2.21,17.32,7.35
			c0.29,0.35,0.8,0.4,1.2,0.32c3.01-0.63,5.72,1.16,8.07,2.83c2.41,1.71,4.72,3.65,6.54,5.99c1.61,2.07,2.88,4.49,3.33,7.09
			c0.57,3.26-0.27,6.46-1.11,9.59c-0.11,0.42-0.01,0.93,0.32,1.23C440.695,90.768,440.945,95.058,438.405,97.808z"/>
	</g>
	<g>
		<path style="fill:#C7B299;" d="M252.209,186.575c2.831-2.31,5.662-4.619,8.493-6.929c1.907-1.556,3.825-3.122,5.429-4.989
			c1.594-1.856,2.848-3.974,4.251-5.977c2.51-3.582,5.498-6.799,8.476-10.003c6.086,0.951,11.925,3.44,16.825,7.173
			c-3.512,5.294-6.574,10.885-9.144,16.694c-0.681,1.539-1.332,3.109-1.627,4.766c-0.31,1.741-0.219,3.527-0.115,5.292
			c0.561,9.542,1.444,19.065,2.648,28.548c0.173,1.364,0.417,2.853,1.451,3.759c-22.399,1.691-44.954,2.408-67.297,0.096
			c1.088-10.149,1.831-20.335,2.228-30.535c0.119-3.053,0.202-6.156-0.568-9.112c-0.935-3.594-3.065-6.74-5.159-9.807
			c-2.327-3.409-4.654-6.818-6.98-10.227c6.026-4.069,12.943-6.811,20.12-7.976c5.339,7.888,10.408,16.358,15.838,24.184
			C248.382,183.406,250.104,185.688,252.209,186.575z"/>
		<path style="fill:#333333;" d="M299.065,90.208c-0.12,1.53-0.37,3.3-1.1,4.68c-1.28,2.45-3.78,1.65-5.89,0.89
			c-1.09-0.39-2.17,1.04-1.53,2c2.81,4.16,0.58,8.77-1.76,12.62c-1.02-1-2.34-1.67-3.9-1.78c-1.11-0.08-2.49,0.12-3.71,0.62
			c0.31-4.07,0.59-8.14,0.86-12.21c1.52-0.11,3.02-0.54,4.43-1.35c1.93-1.11,0.24-3.8-1.71-2.92c-2.79,1.25-5.74,1.04-8.41-0.45
			c-2.41-1.34-3.92-3.49-5.78-5.42c-0.35-0.71-1.21-1.2-1.94-0.64c-3.75,2.87-7.73,5.41-11.97,7.49c-2.14,1.05-4.35,2.02-6.61,2.78
			c-1.62,0.54-7.88,1.65-5.4-2.14c0.84-1.28-0.78-2.71-2.02-2.02c-2.99,1.67-5.92,3.45-9.22,4.44c-2.83,0.84-9.37,1.98-9.74-2.51
			c-0.1-1.13-1.7-1.45-2.05-0.27c-0.9,3.08,1.09,4.97,3.63,5.88c0.04,2.55,0.22,5.11,0.27,7.56v0.24c-0.91-0.68-2.01-1.18-2.92-1.43
			c-0.03-0.09-0.06-0.19-0.1-0.28c-1.43-2.98-2.82-5.99-3.06-9.33c-0.05-0.69-0.6-1.48-1.39-1.39c-1.14,0.11-2.56,0.38-3.66-0.08
			c-1.87-0.78-1.7-2.35-0.77-3.67c1.25-1.79,3.45-2.72,5.5-3.2c1.54-0.33,0.89-2.69-0.66-2.37c-0.22,0.05-0.44,0.1-0.66,0.16
			c-2.17,0.47-6,1.03-5.12-2.28c0.5-1.87,1.67-3.55,2.92-4.99c2.53-2.9,5.68-5.43,8.8-7.65c3.33-2.37,6.88-4.35,10.76-5.62
			c3.33-1.09,6.6-1.16,9.96-1.51c0.6,0.59,1.33,1.1,2.15,1.5c1.87,0.92,3.4-1.65,1.64-2.81c-0.68-0.44-1.61-0.82-2.1-1.5
			c-0.99-1.4-0.05-2.61,1.23-3.28c1.46-0.76,3.19-0.83,4.81-0.82c4.01,0.03,7.95,1.02,11.75,2.25c3.43,1.1,6.74,2.49,9.74,4.49
			c2.61,1.75,4.7,4.02,7.03,6.07c-0.28,0.32-0.22,0.9,0.27,1c6.35,1.38,12.26,3.34,15.49,9.54
			C298.665,83.468,299.325,86.878,299.065,90.208z"/>
		<path style="fill:#FFFFFF;" d="M284.348,197.497c-10.608,0.41-21.2,0.849-31.816,0.986c-5.306,0.069-10.612,0.061-15.918,0.013
			c-4.74-0.043-9.757-0.478-14.381,0.686c-1.714,0.432-1.553,2.808,0,3.315c4.531,1.481,9.649,1.301,14.381,1.4
			c5.305,0.112,10.613,0.136,15.918,0.108c10.601-0.056,21.242-0.357,31.816-1.133C287.759,202.621,287.836,197.362,284.348,197.497
			z"/>
		<path style="fill:#FFFFFF;" d="M284.348,212.497c-10.608,0.41-21.2,0.849-31.816,0.986c-5.306,0.069-10.612,0.061-15.918,0.013
			c-4.74-0.043-9.757-0.478-14.381,0.686c-1.714,0.432-1.553,2.808,0,3.315c4.531,1.481,9.649,1.301,14.381,1.4
			c5.305,0.112,10.613,0.136,15.918,0.108c10.601-0.056,21.242-0.357,31.816-1.133C287.759,217.621,287.836,212.362,284.348,212.497
			z"/>
		<g>
			<path style="fill:#333333;" d="M308.795,198.318c-1.52-7.73-3.49-15.43-6.1-22.87c-1.13-3.24-2.16-6.8-4.34-9.52
				c-1.79-2.22-4.3-3.69-6.89-4.79c-7.18-3.03-14.91-5.04-22.31-7.47c-1.64-0.54-4.82-0.92-5.97-2.21
				c-0.82-0.91-0.62-3.61-0.65-5.16c3.98-2.21,7.69-4.92,11.1-7.93c1.5-1.32,3.07-2.69,4.16-4.38c1.15-1.8,1.49-3.87,1.71-5.95
				c0.03-0.26,0.05-0.52,0.08-0.78c6.82,0.16,13-6.13,11.24-13.18c-0.11-0.44-0.26-0.87-0.43-1.28c2.56-4.07,5.14-9.02,3.76-13.71
				c2.92,0.36,5.43-0.65,6.67-4.05c1.49-4.07,1.31-8.9-0.08-12.96c-2.42-7.09-10.36-14.19-18.23-12.52
				c-4-8.48-15.33-12.72-23.82-14.47c-4.11-0.85-9.89-1.74-13.43,1.21c-2.37,1.98-2.45,4.43-1.22,6.43
				c-3.98-0.59-8.6,0.63-12.03,1.99c-5.04,2-9.49,5.08-13.61,8.57c-3.34,2.83-7.6,6.53-8.06,11.22c-0.22,2.32,0.94,3.45,2.58,3.94
				c-1.42,1.12-2.47,2.59-2.66,4.42c-0.42,4.03,3.26,5.24,6.52,5.24c0.4,2.87,1.41,5.52,2.58,8.18c-2.49,0.77-4.18,3.27-4.76,5.97
				c-1.5,6.95,4.27,14.18,11.33,14.31c0.07,3.31,0.36,6.64,2.33,9.42c2.43,3.41,6.19,6.15,9.69,8.37c1.97,1.25,4.14,2.49,6.39,3.47
				c0,1.41-0.06,2.98-0.65,3.63c-1.15,1.29-4.33,1.67-5.97,2.21c-7.4,2.43-15.13,4.44-22.301,7.471
				c-1.846,0.784-3.789,1.908-5.119,3.01c-0.64,0.53-1.24,1.12-1.77,1.78c-2.19,2.72-3.21,6.28-4.35,9.52
				c-2.61,7.44-4.57,15.14-6.1,22.87c-1.7,8.59-2.75,17.32-3.23,26.07c-0.12,2.2,3.31,2.19,3.42,0c0.85-15.82,3.79-31.33,8.49-46.44
				c1.1-3.53,1.93-7.92,4.46-10.74c0.11-0.11,0.22-0.22,0.33-0.33c2.11,3.82,4.66,7.45,6.75,11.28c1.16,2.13,2.49,4.3,3.08,6.68
				c0.61,2.43,0.5,4.97,0.31,7.45c-0.79,10.68-2.15,21.34-2.72,32.03c-0.11,2.05,2.89,1.94,3.12,0c0.69-5.65,1.06-11.34,1.56-17.01
				c0.49-5.66,1.21-11.34,1.43-17.01c0.19-5.06-1.34-9.05-3.81-13.38c-2.25-3.94-4.61-8.21-7.6-11.74c1.95-1.24,4.22-2.03,6.37-2.76
				c3.37-1.14,6.75-2.27,10.13-3.38c1.36,2.69,3.22,5.17,4.93,7.63c2.2,3.15,4.43,6.27,6.67,9.39c1.99,2.77,3.98,5.55,6.22,8.13
				c1.28,1.47,3.18,4.44,5.45,3.31c2.49-1.25,4.82-3.64,6.82-5.54c2.37-2.25,4.56-4.69,6.68-7.18c4.19-4.91,8.23-9.94,12.39-14.87
				c2.5,0.83,5,1.66,7.5,2.51c2.51,0.85,5.19,1.79,7.32,3.43c-2.73,3.39-4.95,7.37-7.06,11.07c-2.47,4.33-3.99,8.32-3.81,13.38
				c0.22,5.67,0.94,11.35,1.43,17.01c0.5,5.67,0.87,11.36,1.56,17.01c0.23,1.94,3.23,2.05,3.12,0c-0.57-10.69-1.93-21.35-2.72-32.03
				c-0.18-2.48-0.3-5.02,0.31-7.45c0.59-2.38,1.92-4.55,3.09-6.68c1.89-3.48,4.17-6.8,6.15-10.24c2.09,2.81,2.88,6.78,3.89,10.03
				c4.7,15.11,7.64,30.62,8.49,46.44c0.12,2.19,3.54,2.2,3.42,0C311.545,215.638,310.495,206.908,308.795,198.318z M288.005,117.068
				c-0.47,4.27-4.05,7-8.11,7.11c0.37-3.76,0.7-7.52,1-11.29c1.3-1.54,3.92-1.97,5.56-0.62
				C287.825,113.398,288.195,115.398,288.005,117.068z M217.655,115.118c-0.14-2.46,0.72-5.68,3.56-5.98
				c1.89-0.19,3.07,0.79,4.37,1.73c0.09,4.08,0.19,8.17,0.3,12.25C221.715,122.278,217.935,119.958,217.655,115.118z
				 M223.665,94.288c-0.1-1.13-1.7-1.45-2.05-0.27c-0.9,3.08,1.09,4.97,3.63,5.88c0.04,2.55,0.22,5.11,0.27,7.56v0.24
				c-0.91-0.68-2.01-1.18-2.92-1.43c-0.03-0.09-0.06-0.19-0.1-0.28c-1.43-2.98-2.82-5.99-3.06-9.33c-0.05-0.69-0.6-1.48-1.39-1.39
				c-1.14,0.11-2.56,0.38-3.66-0.08c-1.87-0.78-1.7-2.35-0.77-3.67c1.25-1.79,3.45-2.72,5.5-3.2c1.54-0.33,0.89-2.69-0.66-2.37
				c-0.22,0.05-0.44,0.1-0.66,0.16c-2.17,0.47-6,1.03-5.12-2.28c0.5-1.87,1.67-3.55,2.92-4.99c2.53-2.9,5.68-5.43,8.8-7.65
				c3.33-2.37,6.88-4.35,10.76-5.62c3.33-1.09,6.6-1.16,9.96-1.51c0.6,0.59,1.33,1.1,2.15,1.5c1.87,0.92,3.4-1.65,1.64-2.81
				c-0.68-0.44-1.61-0.82-2.1-1.5c-0.99-1.4-0.05-2.61,1.23-3.28c1.46-0.76,3.19-0.83,4.81-0.82c4.01,0.03,7.95,1.02,11.75,2.25
				c3.43,1.1,6.74,2.49,9.74,4.49c2.61,1.75,4.7,4.02,7.03,6.07c-0.28,0.32-0.22,0.9,0.27,1c6.35,1.38,12.26,3.34,15.49,9.54
				c1.54,2.97,2.2,6.38,1.94,9.71c-0.12,1.53-0.37,3.3-1.1,4.68c-1.28,2.45-3.78,1.65-5.89,0.89c-1.09-0.39-2.17,1.04-1.53,2
				c2.81,4.16,0.58,8.77-1.76,12.62c-1.02-1-2.34-1.67-3.9-1.78c-1.11-0.08-2.49,0.12-3.71,0.62c0.31-4.07,0.59-8.14,0.86-12.21
				c1.52-0.11,3.02-0.54,4.43-1.35c1.93-1.11,0.24-3.8-1.71-2.92c-2.79,1.25-5.74,1.04-8.41-0.45c-2.41-1.34-3.92-3.49-5.78-5.42
				c-0.35-0.71-1.21-1.2-1.94-0.64c-3.75,2.87-7.73,5.41-11.97,7.49c-2.14,1.05-4.35,2.02-6.61,2.78c-1.62,0.54-7.88,1.65-5.4-2.14
				c0.84-1.28-0.78-2.71-2.02-2.02c-2.99,1.67-5.92,3.45-9.22,4.44C230.575,97.638,224.035,98.778,223.665,94.288z M241.315,142.568
				c-3.45-1.98-6.93-4.42-9.56-7.43c-3.08-3.52-2.51-8.3-2.63-12.68c-0.13-5.15-0.27-10.3-0.44-15.46
				c-0.06-2.09-0.04-4.27-0.09-6.46c0.36,0.02,0.71,0.02,1.04,0c4.11-0.22,8-1.91,11.6-3.93c0.16,0.95,0.68,1.84,1.66,2.53
				c2.6,1.85,6.01,0.99,8.74-0.02c6.22-2.31,12.06-5.57,17.31-9.62c2.02,3.64,5.84,6.5,9.93,7.32c-0.5,7.71-1.02,15.42-1.6,23.12
				c-0.17,2.13-0.33,4.26-0.51,6.39c-0.21,2.54-0.34,5.07-2.1,7.08c-2.67,3.07-6.35,5.55-9.76,7.71c-3.49,2.22-7.68,5.05-11.91,5.4
				C248.965,146.858,244.695,144.518,241.315,142.568z M243.205,154.698c1.17-0.4,2.46-0.72,3.08-1.88c0.6-1.1,0.58-2.64,0.58-4.02
				c1.11,0.37,2.23,0.66,3.34,0.84c3.47,0.55,6.73-0.52,9.79-2c0.09,1.58-0.17,3.76,0.6,5.18c0.63,1.16,1.91,1.48,3.08,1.88
				c1.56,0.53,3.13,1.05,4.69,1.57c-3.67,4.04-8.77,6.65-14.31,6.75c-5.63,0.1-11.45-2.36-14.73-7.02
				C240.625,155.568,241.915,155.138,243.205,154.698z M254.555,183.438c-0.52,0.41-1.07,0.96-1.67,1.25
				c-0.93,0.46-0.59,0.31-1.37-0.58c-0.98-1.12-2-2.2-2.94-3.36c-2.13-2.64-4.08-5.43-6.07-8.18c-1.91-2.63-3.79-5.28-5.69-7.92
				c-1.5-2.09-2.95-4.32-4.67-6.27c1.73-0.57,3.45-1.14,5.17-1.71c1.63,6.4,10.09,9.33,16,9.47c7.04,0.16,13.51-3.33,17.51-9.05
				c2.05,0.68,4.09,1.35,6.14,2.03C269.115,166.878,263.335,176.548,254.555,183.438z"/>
			<path style="fill:#333333;" d="M244.151,109.837c-2.184-1.065-4.592-1.511-7.017-1.295c-1.775,0.158-4.437,0.588-5.236,2.386
				c-0.092,0.208-0.037,0.514,0.23,0.566c1.311,0.254,2.638-0.299,3.965-0.612c-0.158,0.351-0.274,0.729-0.344,1.122
				c-0.575,1.59-0.641,3.366-0.103,4.976c0.579,1.731,2.536,4.032,4.274,1.935c1.353-1.633,1.714-5.963,0.762-7.873
				c-0.002-0.015-0.006-0.029-0.008-0.044c0.884,0.211,1.753,0.508,2.62,0.87C244.45,112.351,245.278,110.386,244.151,109.837z"/>
			<path style="fill:#333333;" d="M263.079,111.868c0.867-0.362,1.736-0.659,2.62-0.87c-0.002,0.015-0.006,0.029-0.008,0.044
				c-0.952,1.91-0.591,6.24,0.762,7.873c1.738,2.097,3.695-0.204,4.274-1.935c0.539-1.61,0.472-3.386-0.103-4.976
				c-0.07-0.394-0.186-0.771-0.344-1.122c1.327,0.312,2.654,0.866,3.965,0.612c0.268-0.052,0.323-0.358,0.23-0.566
				c-0.799-1.798-3.46-2.228-5.236-2.386c-2.426-0.215-4.833,0.23-7.017,1.295C261.096,110.386,261.924,112.351,263.079,111.868z"/>
			<path style="fill:#333333;" d="M241.266,105.342c1.856,0.699,3.168-2.374,1.359-3.224c-1.774-0.834-3.553-0.7-5.471-0.578
				c-1.829,0.117-3.696,0.334-5.317,1.249c-1.232,0.696-0.666,2.61,0.711,2.624C235.311,105.442,238.601,104.338,241.266,105.342z"
				/>
			<path style="fill:#333333;" d="M264.588,105.342c2.665-1.004,5.955,0.1,8.718,0.072c1.377-0.014,1.943-1.929,0.711-2.624
				c-1.621-0.915-3.488-1.132-5.317-1.249c-1.918-0.123-3.697-0.256-5.471,0.578C261.42,102.968,262.732,106.041,264.588,105.342z"
				/>
			<path style="fill:#333333;" d="M254.533,122.192c0.331-1.731,0.175-3.554,0.084-5.308c-0.078-1.5,0.105-3.217-0.705-4.529
				c-0.239-0.388-0.758-0.361-1.003,0c-0.859,1.266-0.75,3.046-0.894,4.529c-0.17,1.758-0.391,3.555-0.137,5.308
				C252.072,123.534,254.287,123.477,254.533,122.192z"/>
			<path style="fill:#333333;" d="M251.675,126.932c0.466-0.32,0.91-0.793,1.378-1.182c2.264,2.297,6.08,5.875,9.107,4.569
				c1.138-0.491,1.859-1.626,1.626-2.881c-0.298-1.602-1.805-2.392-3.166-2.928c-2.017-0.795-4.399-1.368-6.568-0.915
				c-0.849,0.177-1.485,0.038-2.283-0.193c-0.934-0.271-2.013-0.252-2.969-0.141c-2.031,0.237-4.03,1.066-5.647,2.322
				c-1.805,1.401-2.77,4.745,0.499,4.681c1.781-0.035,3.532-0.9,5.083-1.686C249.728,128.073,250.755,127.564,251.675,126.932z"/>
			<path style="fill:#333333;" d="M257.379,131.771c0.675-0.761-0.418-1.877-1.126-1.126c-1.101,1.17-2.597,1.958-4.241,1.701
				c-1.515-0.236-2.249-1.212-3.324-2.147c-0.247-0.215-0.69-0.084-0.679,0.281c0.055,1.841,2.012,3.164,3.674,3.478
				C253.866,134.372,255.947,133.385,257.379,131.771z"/>
		</g>
	</g>
	<g>
		<path style="fill:#C7B299;" d="M97.291,162.583c-0.51,0.2-1.035,0.426-1.39,0.843c-0.604,0.711-0.544,1.788-0.201,2.656
			c0.343,0.868,0.921,1.625,1.296,2.479c0.804,1.829,0.613,3.922,0.405,5.91c-0.993,9.516-2.018,19.036-3.619,28.469
			c-0.632,3.725-1.355,7.448-1.556,11.221c-0.044,0.821-0.06,1.663,0.203,2.442c0.187,0.554,0.507,1.052,0.832,1.538
			c2.23,3.346,4.797,6.467,7.649,9.301c1.604-1.515,3.207-3.029,4.811-4.544c1.353-1.278,2.751-2.623,3.379-4.374
			c0.607-1.693,0.419-3.554,0.223-5.341c-1.138-10.367-2.277-20.735-3.415-31.102c-0.685-6.238-1.324-12.809,1.179-18.564
			c0.055-0.127-3.963-2.217-4.531-2.306C100.879,160.948,98.81,161.986,97.291,162.583z"/>
		<g>
			<path style="fill:#333333;" d="M83.806,107.829c0.952,0.127,1.736-0.845,2.542-1.368c-0.284,0.496-0.481,1.017-0.558,1.474
				c-0.03,0.178-0.049,0.381-0.061,0.593c-0.194,1.191-0.055,2.435,0.47,3.544c0.449,0.949,1.304,1.902,2.447,1.894
				c1.127-0.007,1.918-0.893,2.2-1.912c0.333-1.205,0.357-2.614,0.323-3.857c-0.018-0.639-0.026-1.368-0.209-2.014
				c0.611,0.257,1.155,0.643,1.558,1.167c0.769,1,2.426,0.142,1.749-1.022c-1.432-2.464-5.237-3.182-7.77-2.219
				c-1.094,0.416-2.701,1.436-2.982,2.689C83.451,107.084,83.343,107.767,83.806,107.829z"/>
			<path style="fill:#333333;" d="M123.557,104.11c-2.533-0.964-6.338-0.245-7.77,2.219c-0.677,1.164,0.98,2.022,1.749,1.022
				c0.404-0.525,0.947-0.91,1.559-1.167c-0.184,0.645-0.191,1.375-0.209,2.014c-0.034,1.243-0.01,2.652,0.323,3.857
				c0.282,1.019,1.073,1.904,2.2,1.912c1.143,0.008,1.998-0.945,2.447-1.894c0.525-1.11,0.664-2.354,0.47-3.544
				c-0.012-0.213-0.031-0.415-0.061-0.593c-0.076-0.457-0.274-0.978-0.558-1.474c0.806,0.524,1.59,1.496,2.542,1.368
				c0.464-0.062,0.355-0.745,0.291-1.03C126.257,105.546,124.65,104.526,123.557,104.11z"/>
			<path style="fill:#333333;" d="M108.429,125.351c-1.72,1.363-3.847,2.492-6.116,2.298c-2.116-0.181-3.199-1.62-4.917-2.582
				c-0.306-0.172-0.836,0.037-0.781,0.448c0.313,2.343,2.787,3.753,4.968,4.086c3.072,0.468,5.965-0.896,8.276-2.819
				C110.868,125.94,109.431,124.557,108.429,125.351z"/>
			<path style="fill:#333333;" d="M104.273,119.829c0.75-0.925,0.639-1.896,0.659-3.051c0.02-1.168,0.093-2.394-0.28-3.516
				c-0.311-0.934-1.504-0.871-1.839,0c-0.395,1.029-0.397,2.193-0.452,3.283c-0.053,1.053-0.315,2.165,0.31,3.077
				C103.006,120.11,103.829,120.376,104.273,119.829z"/>
			<path style="fill:#333333;" d="M83.734,96.874c2.974,0.083,5.927-0.132,8.904,0.032c2.215,0.123,2.779-3.57,0.532-3.932
				c-1.75-0.281-3.51-0.368-5.282-0.371c-1.521-0.003-3.234-0.106-4.67,0.46C81.259,93.836,81.419,96.809,83.734,96.874z"/>
			<path style="fill:#333333;" d="M115.906,97.333c2.974,0.083,5.927-0.132,8.904,0.032c2.215,0.122,2.779-3.57,0.532-3.932
				c-1.75-0.281-3.51-0.368-5.282-0.371c-1.52-0.003-3.234-0.106-4.67,0.46C113.431,94.295,113.591,97.268,115.906,97.333z"/>
			<path style="fill:#333333;" d="M157.805,194.708c-1.52-7.73-3.48-15.43-6.1-22.87c-1.13-3.23-2.16-6.8-4.34-9.51
				c-1.79-2.23-4.29-3.7-6.89-4.79c-7.18-3.04-14.9-5.05-22.31-7.48c-0.2-0.06-0.43-0.13-0.68-0.19c-0.24-0.17-0.54-0.24-0.84-0.21
				c-1.63-0.39-3.59-0.85-4.44-1.8c-0.91-1.02-0.58-4.22-0.67-5.62c-0.06-0.96-0.12-1.94-0.18-2.91c0.84-0.29,1.66-0.61,2.47-0.96
				c7.27-3.1,14-8.29,16.81-15.9c6.21-0.3,13.65-5.34,12.45-12.3c-0.52-2.99-2.59-5.4-5.52-6.22c-0.79-0.22-2.03-0.35-3.22-0.22
				c2.29-3.15,5.44-5.84,7.79-8.88c2.95-3.82,5.83-8.07,6.66-12.92c0.68-3.92,0.05-8.2-2.61-11.29c-2.14-2.48-6.15-4.43-9.37-3.08
				c-0.79-5.76-6.8-10.37-11.74-12.49c-6.61-2.84-14.72-3.56-21.81-2.65c-3.33,0.43-6.55,1.39-9.41,3.17
				c-2.92,1.83-5.8,4.94-9.43,5.21c-3.19,0.23-5.94-1.56-8.81,0.71c-1.31,1.04-2.19,2.6-2.39,4.23c-2.56-0.88-6.38,0.09-7.77,1.82
				c-2.17,2.7-0.27,5.55,2.28,7.35c-1.7,0.59-3.09,1.77-3.41,3.76c-0.61,3.81,3.27,5.94,6.25,7.08c1.93,0.73,3.91,1.21,5.93,1.48
				c-0.07,0.7-0.01,1.45-0.02,2.08c-0.06,2.73,0.07,5.46,0.14,8.18c0.04,1.52,0.07,3.04,0.11,4.57c-1.13-0.84-2.64-1.27-3.95-1.22
				c-3.18,0.11-5.69,2.72-6.63,5.62c-2.44,7.6,4.61,13.68,11.55,14.37c0.43,2.13,1.15,4.18,2.35,6.06c2.27,3.55,5.67,6.17,8.96,8.71
				c1.48,1.15,2.99,2.19,4.58,3.06c-0.08,1.2-0.15,2.39-0.22,3.58c-0.1,1.4,0.24,4.6-0.67,5.62c-1.15,1.28-4.33,1.67-5.97,2.2
				c-7.4,2.43-15.12,4.44-22.3,7.48c-2.6,1.09-5.1,2.56-6.89,4.79c-2.19,2.71-3.21,6.28-4.35,9.51c-2.61,7.44-4.57,15.14-6.1,22.87
				c-1.7,8.6-2.75,17.32-3.23,26.07c-0.11,2.2,3.31,2.19,3.43,0c0.84-15.81,3.78-31.33,8.48-46.44c0.94-3,1.68-6.63,3.45-9.38
				c1.24,1.98,1.55,4.39,1.48,6.72c-0.03,1.07,1.63,1.31,1.88,0.25c0.45-1.83,0.2-3.69-0.54-5.41c-0.4-0.93-1.01-2.09-1.85-2.85
				c0.01-0.02,0.03-0.04,0.05-0.06c2.27-2.53,5.68-3.73,8.81-4.8c6.51-2.21,13.04-4.34,19.56-6.51c-0.92,5.6-0.93,11.16-0.4,16.85
				c0.08,0.81,1.06,1.37,1.7,0.7c1.65-1.72,3.34-3.16,5.16-4.38c0.26,1.66,0.66,3.4,1.38,4.83c0.05,0.1,0.1,0.19,0.16,0.27
				c-0.9,10.66-2.51,21.21-3.97,31.8c-0.33,2.42-0.65,4.85-0.93,7.29c-0.25,2.18-0.85,4.73-0.53,6.92c0.3,2.08,2.02,3.77,3.3,5.34
				c1.7,2.1,3.5,4.11,5.37,6.07c0.31,0.33,0.99,0.47,1.39,0.18c3.29-2.5,6.68-5.61,8.73-9.26c0.99-1.79,0.38-3.82,0.17-5.75
				c-0.32-2.87-0.64-5.75-0.94-8.62c-1.14-11.13-2.13-22.27-2.98-33.42c0.5-0.67,0.56-1.72,0.73-2.47c0.23-1.06,0.47-2.12,0.69-3.19
				c0.08,0.07,0.16,0.13,0.23,0.2c1.84,1.6,3.49,3.42,5.12,5.22c0.59,0.65,1.72,0.3,1.94-0.51c1.55-5.76,2.56-11.61,2.9-17.55
				c6.01,1.99,12.02,3.96,18.01,5.99c2.5,0.85,5.16,1.78,7.29,3.4c-2.69,2.61-4.7,6.84-4.88,10.3c-0.05,1.01,1.33,1.27,1.82,0.49
				c1.15-1.8,1.55-4.06,2.53-5.97c0.62-1.19,1.37-2.26,2.14-3.33c2.47,2.82,3.3,7.15,4.38,10.64c4.7,15.11,7.64,30.63,8.49,46.44
				c0.12,2.19,3.54,2.2,3.42,0C160.555,212.028,159.505,203.308,157.805,194.708z M136.335,106.108c2.47,0.51,4.18,2.53,4.32,5.04
				c0.26,4.74-4.84,8.08-9.19,8.66c1.11-4.29,1.39-8.92,1.64-13.32C134.135,106.258,135.175,105.868,136.335,106.108z
				 M68.275,109.088c-0.03-2.3,1.1-4.67,3.24-5.66c2.13-0.98,3.81,0.06,5.28,1.44c0.07,3.09,0.14,6.18,0.24,9.27
				c0.04,1.3,0.11,2.6,0.25,3.9C72.755,117.268,68.355,114.098,68.275,109.088z M69.275,81.868c-1.37-0.79-3.07-2.38-1.72-4.03
				c0.71-0.87,1.91-1.18,3.04-1.43c0.23,0.08,0.45,0.14,0.67,0.2c1.78,0.45,2.53-2.26,0.76-2.76c-1.42-0.4-2.54-1.26-3.6-2.25
				c-0.38-0.35-1.1-0.94-1.21-1.47c-0.25-1.18,1.11-1.77,1.94-2.01c1.22-0.35,2.59-0.36,3.83-0.08c0.11,0.02,0.28,0.09,0.47,0.18
				c0.01,0.02,0.01,0.05,0.02,0.07c0.55,1.55,2.81,0.94,2.47-0.69c-0.29-1.4,0-2.85,1.12-3.85c1.41-1.26,3.16-0.8,4.86-0.52
				c2.48,0.4,4.69,0.04,6.92-1.11c2.37-1.23,4.35-3.07,6.62-4.46c2.82-1.72,6.04-2.54,9.31-2.83c6.11-0.54,12.85,0.02,18.63,2.15
				c3,1.1,5.75,2.77,8,5.05c2.09,2.12,3.23,4.65,4.61,7.22c0.17,0.32,0.57,0.29,0.77,0.06c0.1,0.05,0.2,0.08,0.31,0.09
				c1.98,0.17,3.69,0.16,5.44,1.27c1.64,1.04,2.82,2.64,3.46,4.48c1.34,3.85,0.36,8.05-1.44,11.57c-1.81,3.55-4.32,6.79-6.94,9.78
				c-1.38,1.57-2.9,3.02-4.25,4.61c0.18-4.85,0.18-9.7,0.18-14.56c-0.01-1.32-1.62-1.59-2.3-0.82c-5.64,1.58-11.38,2.59-17.26,2.47
				c-3-0.07-5.98-0.34-8.92-0.92c-2.73-0.54-6.59-0.98-6.55-4.48c0-0.67-0.45-1.07-0.98-1.15c-0.29-0.13-0.64-0.17-1.04-0.05
				c-5.85,1.75-11.93,3.06-18.07,2.6C75.445,83.978,71.905,83.368,69.275,81.868z M79.305,100.648c-0.07-2.57-0.15-5.14-0.22-7.7
				c-0.04-1.22-0.07-2.43-0.16-3.64c-0.01-0.11-0.05-1-0.2-1.87c5.71,0.35,11.58-0.79,17.03-2.33c0.37,1.54,1.6,2.95,2.97,3.7
				c3.02,1.66,7,2.04,10.35,2.42c7.29,0.83,14.96,0.1,21.88-2.44c-0.01,5.09-0.04,10.19-0.28,15.27c-0.16-0.92-0.45-1.8-0.96-2.55
				c-1.59-2.35-4.89-2.95-7.51-3.23c-1.57-0.17-3.15-0.18-4.73-0.07c-2.12-0.07-5.03-0.06-6.85,1.23c-1.1,0.79-1.5,2.19-1.64,3.48
				c-0.17,1.55-0.25,3.14-0.28,4.73c-2.39-0.79-6-0.98-8.18,0.19c0.09-2.16,0.06-4.59-1.11-6.33c-1.59-2.35-4.9-2.95-7.51-3.23
				c-1.57-0.17-3.16-0.18-4.74-0.07c-2.12-0.07-5.03-0.06-6.84,1.23C79.875,99.758,79.555,100.178,79.305,100.648z M129.285,110.778
				c-0.01,0.2-0.03,0.4-0.05,0.59c-0.13,1.62-0.22,3.72-1.26,5.07c-1.02,1.32-2.89,1.52-4.42,1.65c-2.08,0.18-4.15,0.1-6.23-0.06
				c-1.77-0.14-3.68-0.13-5.09-1.38c-0.83-0.74-1.32-1.79-1.55-2.87c-0.45-2.02-0.42-4.31-0.49-6.38c-0.11-2.67-0.53-6.4,2.87-7
				c3.94-0.69,8.82-1.25,12.66,0.16C129.955,102.108,129.605,106.988,129.285,110.778z M82.755,100.398
				c3.94-0.69,8.83-1.25,12.67,0.16c4.23,1.55,3.88,6.43,3.56,10.22c-0.02,0.2-0.04,0.4-0.05,0.59c-0.14,1.62-0.23,3.72-1.27,5.07
				c-1.01,1.32-2.88,1.52-4.42,1.65c-2.08,0.18-4.14,0.1-6.22-0.06c-1.78-0.14-3.68-0.13-5.1-1.38c-0.83-0.74-1.31-1.79-1.55-2.87
				c-0.44-2.02-0.41-4.31-0.49-6.38C79.785,104.728,79.365,100.998,82.755,100.398z M93.235,135.408c-3.23-2.12-6.51-4.68-9.11-7.56
				c-2.64-2.92-3.79-6.34-4.21-10.1c0.42,0.46,0.97,0.83,1.7,1.08c2.95,1.01,6.74,0.97,9.82,0.88c2.47-0.07,5.84-0.07,7.47-2.28
				c1.55-2.12,1.46-5.62,1.56-8.1c0-0.04,0-0.09,0.01-0.13c1.27-0.51,3.31-0.39,4.62-0.34c1.22,0.05,2.4,0.34,3.61,0.46
				c0.01,1.48,0.09,2.96,0.21,4.41c0.19,2.24,0.66,4.3,3,5.1c2.96,1.01,6.75,0.97,9.83,0.88c2.47-0.07,5.84-0.07,7.46-2.28
				c0.09-0.12,0.17-0.24,0.24-0.37c-0.55,3.25-1.45,6.36-3.41,9.14c-2.23,3.16-5.36,5.65-8.68,7.58
				C109.925,138.098,100.885,140.428,93.235,135.408z M109.295,148.378c-2.24,3.53-4.52,6.9-7.26,10.03
				c-1.27-1.9-2.54-3.81-3.82-5.71c-0.78-1.17-1.6-2.84-2.74-3.9c0.55-1.43,0.34-3.37,0.43-4.81c0.07-1.37,0.17-2.76,0.26-4.15
				c1.44,0.55,2.95,0.93,4.57,1.08c2.69,0.24,5.4-0.1,8.02-0.79c0.08,1.3,0.18,2.59,0.25,3.86
				C109.085,145.288,108.925,147.008,109.295,148.378z M89.905,166.658c-0.46-5.03-0.02-10.16,0.93-15.1
				c0.46-0.16,0.92-0.31,1.39-0.47c0.55-0.19,1.14-0.36,1.66-0.62c1.82,3.49,4.25,6.77,6.43,10.02
				C96.355,161.388,92.615,163.618,89.905,166.658z M96.605,164.508c1.79-1.05,3.71-1.91,5.83-2.65c1.08,0.7,2.18,1.37,3.24,2.1
				c-0.34,1.34-0.55,2.76-0.99,4.06c-0.41,1.22-0.38,1.28-1.63,1.44c-0.63,0.08-1.34-0.05-1.98-0.08c-1.82-0.09-2.61-0.18-3.33-2
				C97.365,166.418,97.005,165.458,96.605,164.508z M106.605,200.898c0.5,4.85,1.02,9.69,1.54,14.53c0.28,2.6-1.4,4.31-3.07,6.19
				c-1.31,1.46-2.75,2.79-4.29,4.02c-1.42-1.53-2.81-3.08-4.14-4.69c-0.82-1-1.68-1.99-2.41-3.06c-0.85-1.27-0.79-2.41-0.66-3.86
				c0.47-5.15,1.19-10.28,1.94-15.4c1.3-8.95,2.78-17.93,2.98-26.99c0.84,0.14,1.77,0.09,2.58,0.13c0.77,0.04,1.88,0.23,2.91,0.21
				C104.755,181.628,105.625,191.268,106.605,200.898z M113.245,167.678c-2.66-2.97-5.8-6.2-9.63-7.17
				c2.77-3.07,5.38-6.43,7.37-10.05c0.54,0.26,1.13,0.44,1.7,0.63c0.93,0.32,1.86,0.63,2.79,0.94
				C115.235,157.318,114.535,162.548,113.245,167.678z"/>
			<path style="fill:#333333;" d="M144.555,86.718c-1.81,3.55-4.32,6.79-6.94,9.78c-1.38,1.57-2.9,3.02-4.25,4.61
				c0.18-4.85,0.18-9.7,0.18-14.56c-0.01-1.32-1.62-1.59-2.3-0.82c-5.64,1.58-11.38,2.59-17.26,2.47c-3-0.07-5.98-0.34-8.92-0.92
				c-2.73-0.54-6.59-0.98-6.55-4.48c0-0.67-0.45-1.07-0.98-1.15c-0.29-0.13-0.64-0.17-1.04-0.05c-5.85,1.75-11.93,3.06-18.07,2.6
				c-2.98-0.22-6.52-0.83-9.15-2.33c-1.37-0.79-3.07-2.38-1.72-4.03c0.71-0.87,1.91-1.18,3.04-1.43c0.23,0.08,0.45,0.14,0.67,0.2
				c1.78,0.45,2.53-2.26,0.76-2.76c-1.42-0.4-2.54-1.26-3.6-2.25c-0.38-0.35-1.1-0.94-1.21-1.47c-0.25-1.18,1.11-1.77,1.94-2.01
				c1.22-0.35,2.59-0.36,3.83-0.08c0.11,0.02,0.28,0.09,0.47,0.18c0.01,0.02,0.01,0.05,0.02,0.07c0.55,1.55,2.81,0.94,2.47-0.69
				c-0.29-1.4,0-2.85,1.12-3.85c1.41-1.26,3.16-0.8,4.86-0.52c2.48,0.4,4.69,0.04,6.92-1.11c2.37-1.23,4.35-3.07,6.62-4.46
				c2.82-1.72,6.04-2.54,9.31-2.83c6.11-0.54,12.85,0.02,18.63,2.15c3,1.1,5.75,2.77,8,5.05c2.09,2.12,3.23,4.65,4.61,7.22
				c0.17,0.32,0.57,0.29,0.77,0.06c0.1,0.05,0.2,0.08,0.31,0.09c1.98,0.17,3.69,0.16,5.44,1.27c1.64,1.04,2.82,2.64,3.46,4.48
				C147.335,78.998,146.355,83.198,144.555,86.718z"/>
			<path style="fill:#333333;" d="M86.428,189.492c-3.636-0.398-7.28-0.65-10.927-0.698c-2.571-0.112-5.149-0.126-7.721-0.092
				c-0.497,0.007-0.813,0.39-0.858,0.858c-0.15,1.56-0.265,3.119-0.347,4.677c-0.023,0.048-0.028,0.102-0.008,0.148
				c-0.173,3.391-0.173,6.782,0.083,10.186c0.121,1.62,0.131,3.356,2.015,3.792c2.317,0.536,5.072,0.333,7.433,0.285
				c2.57-0.051,5.139-0.243,7.686-0.587c1.734-0.234,2.61-0.424,2.843-2.27c0.641-5.076,0.745-10.278,0.712-15.388
				C87.336,189.871,86.922,189.546,86.428,189.492z M85.519,191.223c0.007,1.034,0.002,2.067-0.012,3.101
				c-3.127-0.112-6.255-0.226-9.382-0.336c-1.623-0.057-3.246-0.1-4.868-0.147c-0.942-0.027-1.947-0.128-2.915-0.059
				c0.049-1.097,0.118-2.193,0.213-3.286C74.22,190.485,79.881,190.643,85.519,191.223z M84.976,204.769
				c-0.326,1.427-1.235,1.461-2.584,1.612c-1.974,0.222-3.958,0.359-5.944,0.409c-1.869,0.047-3.74,0.017-5.607-0.088
				c-0.928-0.052-1.279,0.089-1.843-0.772c-0.452-0.691-0.467-0.934-0.521-1.7c-0.064-0.909-0.114-1.818-0.149-2.729
				c-0.084-2.185-0.099-4.375-0.031-6.562c0.862,0.125,1.76,0.121,2.612,0.164c1.623,0.082,3.245,0.163,4.868,0.235
				c3.234,0.144,6.468,0.275,9.702,0.41c-0.048,2.098-0.137,4.195-0.284,6.289C85.134,202.918,85.173,203.91,84.976,204.769z"/>
			<path style="fill:#333333;" d="M60.805,174.702c-0.74,3.553-0.486,7.363-0.709,10.981c-0.249,4.045-0.554,8.086-0.87,12.126
				c-0.621,7.929-1.218,15.855-1.074,23.814c0.026,1.451,2.267,1.457,2.259,0c-0.043-7.953,0.517-15.887,1.11-23.814
				c0.291-3.889,0.6-7.78,0.782-11.677c0.174-3.723,0.675-7.762-0.115-11.43C62.041,174.021,60.948,174.015,60.805,174.702z"/>
			<path style="fill:#333333;" d="M138.179,175.496c-1.991,2.587-1.853,7.434-2.073,10.599c-0.274,3.936-0.353,7.882-0.425,11.825
				c-0.148,8.119-0.349,16.241-0.372,24.361c-0.005,1.548,2.364,1.545,2.402,0c0.198-7.972,0.222-15.949,0.309-23.923
				c0.041-3.797,0.08-7.596,0.286-11.389c0.11-2.036,0.275-4.071,0.454-6.101c0.155-1.755,0.612-3.57,0.091-5.284
				C138.751,175.255,138.366,175.254,138.179,175.496z"/>
		</g>
	</g>
	<g>
		<path style="fill:#C7B299;" d="M52.859,393.181c0.87-2.348,1.833-4.744,3.581-6.537c1.829-1.877,4.337-2.909,6.787-3.84
			c7.132-2.708,14.428-4.983,21.835-6.807c-2.101-1.428-4.282-2.943-5.479-5.184c-1.197-2.241-1.034-5.429,1.046-6.888
			c1.605-1.126,3.823-0.902,5.63-0.141c1.807,0.761,3.382,1.985,5.151,2.831c3.945,1.886,8.811,1.703,12.603-0.475
			c1.426-0.819,2.798-1.931,4.441-2.028c0.897-0.053,1.795,0.215,2.571,0.668c1.877,1.097,3.019,3.338,2.802,5.501
			c-0.217,2.163-1.78,4.133-3.837,4.836c4.892-0.634,9.313,2.646,13.95,4.331c3.365,1.223,6.973,1.618,10.405,2.64
			c3.432,1.022,6.866,2.854,8.567,6.004c0.772,1.43,1.139,3.046,1.858,4.503c0.792,1.606,1.989,2.975,2.909,4.511
			c1.627,2.714,2.346,5.861,3.004,8.956c2.771,13.038,4.861,26.221,6.258,39.477c0.091,0.864-45.462,2.278-49.22,2.308
			c-12.676,0.103-25.352-0.08-38.026-0.277c-5.913-0.092-11.843-0.282-17.73-0.46c-2.563-0.078-8.151,1.249-9.584-1.73
			c-1.23-2.552,0.322-8.068,0.623-10.745c0.502-4.458,1.175-8.896,2.016-13.303C46.847,411.753,49.469,402.325,52.859,393.181z"/>
		<g>
			<path style="fill:#333333;" d="M154.595,419.548c-1.53-7.73-3.49-15.43-6.1-22.87c-1.14-3.24-2.16-6.8-4.34-9.51
				c-1.79-2.23-4.3-3.7-6.9-4.8c-0.19-0.08-0.37-0.16-0.56-0.23c-7.01-2.9-14.53-4.87-21.74-7.24c-0.34-0.11-0.74-0.21-1.17-0.32
				c0.76-0.93,1.33-2.02,1.61-3.24c0.69-2.98-0.52-6.14-2.89-7.74c0.92-0.62,1.83-1.27,2.72-1.94c0.72,10.23,19.97,9.8,20.19,0.43
				c2.46,0.61,5.12,0.03,7.25-1.52c3.22-2.34,4.91-6.39,5.61-10.19c1.2-6.43-0.19-13.53-4.82-18.24c3.29-2.34,3.76-7.31,3.12-11.16
				c-0.88-5.31-3.65-10.06-7.63-13.59c1.45-1.15,2.39-2.84,2.67-4.77c0.48-3.3-1.12-6.39-3.1-8.91c-3.67-4.69-8.9-8-14.63-9.53
				c1.42-2.37,1.44-5.43,0.37-8.04c-1.68-4.14-5.97-6.27-10.17-6.99c-8.98-1.52-18.81,1.3-25.92,6.99
				c-5.08-3.21-11.56-3.34-16.86-0.38c-5,2.79-8.07,8.01-7.12,13.58c-4.19-0.03-8.18,1.84-10.84,5.18
				c-2.53,3.16-3.69,7.62-1.96,11.25c-4.43,2.1-7.77,7.14-9.17,11.61c-1.34,4.3,0.94,7.05,4.27,7.94c-3.1,3.28-5.31,7.97-4.76,12.2
				c0.43,3.25,3.15,5.76,6.09,5.86c-1.07,4.19-0.14,8.8,2.94,12.03c3.39,3.57,8.54,4.58,13.09,3.18c0.89,2.42,2.9,4.27,5.49,5.05
				c3.59,1.09,7.28-0.21,10.16-2.38c0.66,0.51,1.33,0.99,2,1.46c-2.42,1.08-3.76,4.29-3.24,7.29c0.44,2.48,1.8,4.23,3.61,5.42
				c-6.69,2.14-13.6,4.03-20.07,6.71c-0.19,0.07-0.38,0.15-0.57,0.23c-2.6,1.1-5.11,2.57-6.9,4.8c-2.18,2.71-3.2,6.27-4.34,9.51
				c-2.61,7.44-4.57,15.14-6.1,22.87c-1.7,8.59-2.75,17.32-3.23,26.07c-0.12,2.2,3.31,2.19,3.42,0c0.85-15.81,3.79-31.33,8.49-46.44
				c0.9-2.91,1.63-6.41,3.28-9.13c0.47,1.63,1.03,3.26,1.36,4.9c0.59,2.88,0.38,6.05,1.31,8.83c0.33,1,1.85,1.11,2.13,0
				c0.71-2.73-0.07-6-0.64-8.72c-0.5-2.35-1.04-5.14-2.2-7.39c2.24-2.01,5.24-3.07,8.04-4.02c1.49-0.51,2.98-1.01,4.48-1.51
				c5.1-1.71,10.22-3.38,15.33-5.09c1.82,0.48,3.77,0.66,5.56,0.63c2.22-0.04,2.22-3.37,0-3.44c-3.23-0.12-7.4-0.12-9.35-3.23
				c-0.87-1.38-1.12-3.5-0.26-4.96c0.63-1.06,1.65-1.33,2.73-1.48c3.52,2.19,7.59,4.27,11.67,4.92c4.36,0.69,8.38-1.16,12.11-3.21
				c0.54-0.3,1.09-0.61,1.62-0.93c1.57,1.36,2.75,3.18,2.18,5.35c-0.91,3.45-4.46,3.59-7.38,3.94c-1.66,0.19-2.36,2.72-0.43,3.17
				c2.47,0.57,5.16,0.07,7.32-1.23c5.57,1.87,11.14,3.7,16.71,5.56c1.5,0.5,3,1,4.5,1.51c2.65,0.9,5.48,1.9,7.67,3.71
				c-1.01,1.51-1.46,3.75-1.76,5.22c-0.66,3.19-1.28,6.75-1.37,9.99c-0.04,1.6,2.05,1.62,2.58,0.35c1.13-2.74,0.93-6.09,1.33-8.99
				c0.2-1.52,0.54-3,1.01-4.46c0.02-0.05,0.04-0.1,0.05-0.15c2,2.8,2.78,6.68,3.77,9.86c4.7,15.11,7.64,30.63,8.49,46.44
				c0.12,2.19,3.54,2.2,3.42,0C157.345,436.868,156.295,428.138,154.595,419.548z M71.435,360.728c-2.33-0.21-4.58-1.93-4.74-4.37
				c-0.08-1.32-1.33-2-2.5-1.44c-3.61,1.74-8.28,1.06-11.1-1.85c-2.87-2.95-3.32-7.67-1.41-11.23c0.67-1.24-0.79-3.12-2.11-2.12
				c-1.24,0.95-2.82,0.6-3.83-0.55c-1.26-1.44-1.06-3.54-0.58-5.25c0.98-3.45,3.13-6.76,6.21-8.63c1.59-0.96,0.5-3.17-1.21-2.87
				c-1.58,0.28-4.02,0.35-4.93-1.3c-1-1.82,0.55-4.29,1.41-5.83c1.75-3.1,3.9-6.28,7.54-7.2c1.21-0.31,1.44-1.77,0.69-2.63
				c-2.62-2.97-0.8-7.54,1.61-10.02c2.45-2.51,5.83-3.72,9.3-3.51c1.04,0.06,1.4-1.08,1.07-1.87c-2.29-5.41,2.05-10.79,6.79-12.91
				c4.28-1.91,9.29-1.88,13.68-0.32c-0.44,0.38-0.87,0.77-1.29,1.18c-0.74,0.71,0.26,2.1,1.12,1.45c6.58-4.91,14.45-8.13,22.75-8.02
				c3.64,0.05,7.91,0.77,10.43,3.69c2.19,2.56,2.44,6.73-0.37,8.9c-0.88,0.68-0.38,2.36,0.67,2.54c4.77,0.84,9.23,2.89,12.82,6.17
				c1.77,1.62,3.5,3.53,4.49,5.74c1.14,2.53,0.98,6.23-2.15,7.17c-1.34,0.4-1.42,2.05-0.37,2.8c3.83,2.74,6.65,6.69,7.91,11.24
				c0.91,3.27,1.51,9.5-2.79,10.7c-0.94,0.26-1.51,1.7-0.63,2.39c4.48,3.52,6.27,9.07,5.91,14.64c-0.19,2.9-0.97,5.96-2.55,8.42
				c-1.9,2.96-5.66,5-8.91,2.78c-1.07-0.74-2.3,0.47-2.06,1.58c1.84,8.31-15.01,8.34-14.19-0.11c0.03-0.26-0.01-0.47-0.09-0.65
				c0.48-0.4,0.94-0.8,1.41-1.21c1.49-1.32,3.07-2.69,4.16-4.39c1.15-1.79,1.49-3.86,1.71-5.95c0.02-0.26,0.05-0.52,0.08-0.78
				c6.82,0.16,13-6.13,11.24-13.17c-0.72-2.88-2.88-5.25-5.94-5.47c-1.11-0.08-2.5,0.13-3.71,0.63c0.31-4.15,0.6-8.31,0.88-12.46
				c1.13-0.32,2.23-0.74,3.27-1.26c2.07-1.03,0.25-4.12-1.81-3.1c-3.19,1.58-7.2,2.08-10.42,0.26c-2.67-1.53-4.5-4.59-4-7.7
				c0.23-1.4-1.58-3.01-2.72-1.59c-1.89,2.35-4.3,4.62-7.56,4.23c-3.06-0.37-4.67-2.7-5.4-5.42c0.02-0.15,0.05-0.29,0.06-0.43
				c0.19-1.64-2.66-2.05-2.9-0.4c-0.53,3.52-2.29,6.59-5.09,8.8c-2.04,1.61-7.43,4.56-9.64,1.87c-0.74-0.89-2.35-0.39-2.6,0.69
				c-1.19,5.31-6.67,6.62-11.07,4.15c-0.89-0.5-1.77,0.66-1.08,1.4c1.23,1.31,2.67,2.1,4.16,2.43c0.06,2.28,0.22,4.56,0.26,6.74
				v0.24c-1.11-0.82-2.52-1.39-3.5-1.56c-3.94-0.68-6.65,2.56-7.41,6.13c-1.5,6.95,4.27,14.18,11.33,14.31
				c0.07,3.31,0.36,6.63,2.33,9.41c0.88,1.24,1.94,2.39,3.1,3.46C75.375,360.178,73.425,360.908,71.435,360.728z M118.535,329.248
				c-2.31-3.09-6.74-4.38-10.48-2.81c-2.93,1.23-4.75,3.91-5.44,6.91c-2.03-1.51-5.32-1.59-7.22-0.02c-0.4-1.49-1.11-2.89-2.15-4.08
				c-2.31-3.09-6.74-4.38-10.48-2.81c-2.15,0.9-3.7,2.58-4.65,4.6c-0.57-0.32-1.25-0.49-1.86-0.69c-0.51-0.16-1.1-0.34-1.68-0.42
				c-0.03-1.02-0.06-2.05-0.09-3.07c-0.06-2.03-0.04-4.14-0.08-6.25c2.73-0.52,5.27-2.32,6.71-4.89c3.13,1.7,8.11-0.17,10.78-1.93
				c2.76-1.82,4.84-4.38,6.1-7.32c1.18,1.9,3.14,3.36,5.34,3.93c3.21,0.82,6.11-0.3,8.5-2.21c0.59,2.81,2.25,5.35,4.74,7.05
				c2.43,1.66,5.25,2.21,8.06,1.99c-0.29,4.49-0.59,8.98-0.91,13.47c-0.58,0.11-1.16,0.28-1.72,0.42c-0.64,0.18-1.28,0.36-1.89,0.6
				C119.715,330.838,119.195,329.998,118.535,329.248z M111.795,344.348c-6.53,0.06-8.89-8.57-5.89-13.4
				c0.67-1.08,1.68-1.97,2.84-2.56c2.71-1,5.88-0.46,8.16,2.1C120.955,335.048,118.565,344.288,111.795,344.348z M86.505,344.348
				c-6.53,0.06-8.89-8.57-5.89-13.4c0.67-1.08,1.68-1.97,2.84-2.56c2.71-1,5.88-0.46,8.16,2.1
				C95.665,335.048,93.275,344.288,86.505,344.348z M125.695,344.028c0.37-3.75,0.69-7.52,1-11.28c1.3-1.54,3.92-1.98,5.56-0.63
				c1.37,1.13,1.74,3.14,1.55,4.81C133.325,341.198,129.755,343.918,125.695,344.028z M71.685,342.968
				c-4.18-0.83-7.95-3.16-8.23-7.99c-0.14-2.46,0.72-5.69,3.56-5.98c1.89-0.2,3.06,0.79,4.37,1.72
				C71.475,334.808,71.575,338.888,71.685,342.968z M110.705,360.978c-3.5,2.21-7.69,5.04-11.91,5.4c-4.03,0.33-8.3-2.01-11.69-3.95
				c-3.44-1.98-6.92-4.43-9.55-7.44c-3.08-3.51-2.52-8.3-2.63-12.67c-0.08-3.33-0.18-6.66-0.27-9.98c0.22,0.08,0.44,0.15,0.65,0.24
				c0.61,0.24,1.31,0.68,2,0.84c-0.63,2.8-0.29,5.86,1.04,8.31c2.95,5.4,10.54,6.71,14.71,1.94c2.02-2.29,2.92-5.34,2.69-8.28
				c0.79-0.62,1.6-1.13,2.71-1.21c1.56-0.13,2.67,0.68,3.81,1.62c0.01,0.01,0.02,0.01,0.03,0.02c-0.06,2.07,0.38,4.15,1.34,5.91
				c2.95,5.4,10.54,6.71,14.71,1.94c2.35-2.67,3.19-6.38,2.48-9.73c0.61-0.15,1.21-0.34,1.82-0.49c0.29-0.07,0.59-0.13,0.89-0.18
				c-0.15,2.17-0.3,4.35-0.47,6.52c-0.16,2.13-0.32,4.26-0.5,6.4c-0.21,2.53-0.35,5.07-2.1,7.08
				C117.795,356.328,114.115,358.818,110.705,360.978z"/>
			<path style="fill:#333333;" d="M145.825,347.418c-0.19,2.9-0.97,5.96-2.55,8.42c-1.9,2.96-5.66,5-8.91,2.78
				c-1.07-0.74-2.3,0.47-2.06,1.58c1.84,8.31-15.01,8.34-14.19-0.11c0.03-0.26-0.01-0.47-0.09-0.65c0.48-0.4,0.94-0.8,1.41-1.21
				c1.49-1.32,3.07-2.69,4.16-4.39c1.15-1.79,1.49-3.86,1.71-5.95c0.02-0.26,0.05-0.52,0.08-0.78c6.82,0.16,13-6.13,11.24-13.17
				c-0.72-2.88-2.88-5.25-5.94-5.47c-1.11-0.08-2.5,0.13-3.71,0.63c0.31-4.15,0.6-8.31,0.88-12.46c1.13-0.32,2.23-0.74,3.27-1.26
				c2.07-1.03,0.25-4.12-1.81-3.1c-3.19,1.58-7.2,2.08-10.42,0.26c-2.67-1.53-4.5-4.59-4-7.7c0.23-1.4-1.58-3.01-2.72-1.59
				c-1.89,2.35-4.3,4.62-7.56,4.23c-3.06-0.37-4.67-2.7-5.4-5.42c0.02-0.15,0.05-0.29,0.06-0.43c0.19-1.64-2.66-2.05-2.9-0.4
				c-0.53,3.52-2.29,6.59-5.09,8.8c-2.04,1.61-7.43,4.56-9.64,1.87c-0.74-0.89-2.35-0.39-2.6,0.69c-1.19,5.31-6.67,6.62-11.07,4.15
				c-0.89-0.5-1.77,0.66-1.08,1.4c1.23,1.31,2.67,2.1,4.16,2.43c0.06,2.28,0.22,4.56,0.26,6.74v0.24c-1.11-0.82-2.52-1.39-3.5-1.56
				c-3.94-0.68-6.65,2.56-7.41,6.13c-1.5,6.95,4.27,14.18,11.33,14.31c0.07,3.31,0.36,6.63,2.33,9.41c0.88,1.24,1.94,2.39,3.1,3.46
				c-1.79,0.88-3.74,1.61-5.73,1.43c-2.33-0.21-4.58-1.93-4.74-4.37c-0.08-1.32-1.33-2-2.5-1.44c-3.61,1.74-8.28,1.06-11.1-1.85
				c-2.87-2.95-3.32-7.67-1.41-11.23c0.67-1.24-0.79-3.12-2.11-2.12c-1.24,0.95-2.82,0.6-3.83-0.55c-1.26-1.44-1.06-3.54-0.58-5.25
				c0.98-3.45,3.13-6.76,6.21-8.63c1.59-0.96,0.5-3.17-1.21-2.87c-1.58,0.28-4.02,0.35-4.93-1.3c-1-1.82,0.55-4.29,1.41-5.83
				c1.75-3.1,3.9-6.28,7.54-7.2c1.21-0.31,1.44-1.77,0.69-2.63c-2.62-2.97-0.8-7.54,1.61-10.02c2.45-2.51,5.83-3.72,9.3-3.51
				c1.04,0.06,1.4-1.08,1.07-1.87c-2.29-5.41,2.05-10.79,6.79-12.91c4.28-1.91,9.29-1.88,13.68-0.32c-0.44,0.38-0.87,0.77-1.29,1.18
				c-0.74,0.71,0.26,2.1,1.12,1.45c6.58-4.91,14.45-8.13,22.75-8.02c3.64,0.05,7.91,0.77,10.43,3.69c2.19,2.56,2.44,6.73-0.37,8.9
				c-0.88,0.68-0.38,2.36,0.67,2.54c4.77,0.84,9.23,2.89,12.82,6.17c1.77,1.62,3.5,3.53,4.49,5.74c1.14,2.53,0.98,6.23-2.15,7.17
				c-1.34,0.4-1.42,2.05-0.37,2.8c3.83,2.74,6.65,6.69,7.91,11.24c0.91,3.27,1.51,9.5-2.79,10.7c-0.94,0.26-1.51,1.7-0.63,2.39
				C144.395,336.298,146.185,341.848,145.825,347.418z"/>
			<path style="fill:#333333;" d="M60.861,426.277c-0.011-3.287-0.007-6.575-0.034-9.862c-0.026-3.13,0.386-6.685-0.616-9.685
				c-0.322-0.966-1.651-0.974-1.971,0c-0.943,2.868-0.556,6.249-0.572,9.237c-0.018,3.437,0.005,6.874,0.01,10.31
				c0.004,3.287,0.008,6.575,0.012,9.862c0.004,3.23-0.175,6.577,0.316,9.774c0.198,1.291,2.421,1.297,2.614,0
				c0.455-3.054,0.276-6.242,0.275-9.326C60.893,433.151,60.872,429.714,60.861,426.277z"/>
			<path style="fill:#333333;" d="M138.142,407.807c-0.054-0.031-0.111-0.049-0.171-0.056c-0.052,0.004-0.104,0.008-0.156,0.012
				c-0.528,0.04-1.053,0.352-1.184,0.902c-2.869,12.003-1.74,24.985-1.038,37.181c0.114,1.978,3.182,2.002,3.098,0
				c-0.26-6.155-0.548-12.318-0.54-18.48c0.008-6.152,0.492-12.243,0.893-18.375C139.081,408.427,138.631,407.98,138.142,407.807z"
				/>
			<path style="fill:#333333;" d="M102.909,398.687c-1.602,1.272-2.666,3.095-3.402,5.065c-0.9-2.486-2.296-4.718-4.778-5.995
				c-3.651-1.877-8.048-0.608-9.337,3.487c-1.312,4.169-0.026,8.503,2.561,11.894c3.78,4.954,8.128,8.426,14.404,5.225
				c6.191-3.159,15.783-12.714,8.636-19.517C108.682,396.647,105.359,396.742,102.909,398.687z"/>
			<path style="fill:#333333;" d="M90.289,332.885c-2.211-0.511-5.523-0.563-7.634,0.351c-0.279,0.121-0.191,0.576,0.084,0.639
				c0.64,0.149,1.316,0.173,1.991,0.172c-0.184,0.266-0.333,0.557-0.443,0.851c-0.354,0.951-0.3,2.035,0.1,2.961
				c0.425,0.984,1.39,2.04,2.57,1.827c0.211-0.038,0.397-0.107,0.565-0.195c0.382-0.109,0.734-0.337,1.009-0.713
				c0.721-0.987,0.671-2.478,0.409-3.613c-0.078-0.337-0.203-0.684-0.376-1.002c0.52,0.023,1.039,0.032,1.552,0.002
				C90.818,334.125,91.041,333.059,90.289,332.885z"/>
			<path style="fill:#333333;" d="M115.536,332.923c-2.185-0.505-5.458-0.557-7.545,0.347c-0.276,0.12-0.189,0.569,0.083,0.632
				c0.632,0.147,1.3,0.171,1.968,0.17c-0.181,0.263-0.329,0.55-0.438,0.841c-0.35,0.94-0.296,2.011,0.099,2.926
				c0.421,0.973,1.374,2.016,2.54,1.806c0.208-0.038,0.392-0.105,0.558-0.193c0.377-0.108,0.726-0.334,0.997-0.705
				c0.712-0.975,0.664-2.449,0.404-3.571c-0.077-0.334-0.201-0.676-0.372-0.99c0.514,0.022,1.027,0.031,1.534,0.002
				C116.058,334.149,116.279,333.095,115.536,332.923z"/>
			<path style="fill:#333333;" d="M83.976,320.141c-1.13,0.19-5.105,1.3-3.435,3.208c1.114,1.273,3.344,0.409,4.806,0.29
				c1.716-0.139,3.882,0.521,5.18-0.834c0.418-0.436,0.591-1.222,0.226-1.753C89.35,319.006,86.097,319.784,83.976,320.141z"/>
			<path style="fill:#333333;" d="M112.522,319.415c-1.743-0.022-3.548,0.195-5.12,0.969c-1.633,0.805-0.718,3.139,0.872,3.22
				c1.506,0.076,3.019-0.187,4.534-0.156c1.373,0.028,2.727,0.276,3.775-0.792c0.437-0.446,0.472-1.069,0.207-1.607
				C116.022,319.485,114.059,319.434,112.522,319.415z"/>
			<path style="fill:#333333;" d="M99.898,342.527c0.037-1.74,0.149-3.855-0.328-5.433c-0.275-0.909-1.029-0.852-1.312,0
				c-0.508,1.531-0.432,3.707-0.435,5.433C97.821,344.918,99.848,344.904,99.898,342.527z"/>
			<path style="fill:#333333;" d="M103.138,347.308c-1.228,1.471-3.533,4.415-5.654,3.474c-1.705-0.756-2.665-2.614-4.154-3.655
				c-0.43-0.301-1.195,0.093-1.121,0.643c0.334,2.502,3.006,5.377,5.488,5.953c2.931,0.68,5.661-2.537,7.312-4.544
				C106.08,347.876,104.233,345.996,103.138,347.308z"/>
		</g>
	</g>
	<g>
		<path style="fill:#333333;" d="M414.295,276.548c-1.88,0.22-3.72,0.65-5.47,1.32c-7.78-7.48-19.84-5.79-28.28,0.35
			c-4.26-3.46-3.9-8.67-0.53-12.94c3.89-4.94,9.03-7.01,15.24-6.77c5.1,0.19,10.58,1.46,14.53,4.88
			C413.535,266.628,415.455,271.698,414.295,276.548z"/>
		<path style="fill:#333333;" d="M455.655,419.618c-1.53-7.73-3.49-15.42-6.1-22.86c-1.14-3.24-2.16-6.81-4.34-9.52
			c-1.79-2.22-4.3-3.69-6.9-4.79c-7.01-2.96-14.55-4.96-21.8-7.31c-0.17-0.05-0.33-0.11-0.5-0.16c-1.64-0.54-4.82-0.93-5.97-2.21
			c-0.82-0.92-0.62-3.61-0.65-5.16c3.98-2.21,7.69-4.92,11.1-7.93c1.49-1.32,3.07-2.69,4.16-4.38c1.15-1.8,1.49-3.87,1.71-5.95
			c0.02-0.26,0.05-0.53,0.08-0.79c0.91,0.02,1.81-0.07,2.68-0.27c-0.35,3.19-0.22,6.5-0.27,9.7c-2.36,0.88-2.44,4.23,0.04,5.13
			c0.47,0.17,0.98,0.21,1.49,0.14c0.42-0.03,0.83-0.15,1.21-0.38c1.22-0.61,2.07-1.85,1.51-3.28c-0.12-0.29-0.28-0.55-0.49-0.76
			c-0.17-0.33-0.42-0.62-0.74-0.83c0.02-3.42,0.1-7.08-0.58-10.44c4.55-2.02,7.71-6.89,6.39-12.18c-0.35-1.4-1.05-2.69-2.02-3.66
			c7.34-12.36,14.45-28.17,6.3-41.94c-4.89-8.24-15.22-13.56-25.05-13.42c1.46-5.4-1.03-11.28-5.23-14.88
			c-5.2-4.46-12.61-5.96-19.31-5.57c-6.84,0.41-13.17,4.52-16.21,10.74c-1.89,3.87-1.84,10.89,2.59,12.97
			c-2.44,2.1-4.48,4.6-5.88,7.36c-3.31-0.11-7.33,2.48-9.4,4.17c-3.84,3.12-6.67,7.46-8.07,12.2c-2.69,9.08,0.64,20.08,8.38,25.74
			c-1.16,1.16-1.96,2.78-2.32,4.47c-1.04,4.82,1.42,9.78,5.38,12.41c-0.21,3.39,0.03,6.86,0.05,10.25c-1.25,0.41-2.12,1.6-1.79,3.22
			c0.47,2.3,3.33,3.68,5.16,1.87c0.17-0.17,0.31-0.36,0.42-0.55c0.36-0.45,0.63-0.98,0.76-1.55c0.3-1.33-0.42-2.78-1.51-3.32
			c0.03-2.81,0.07-5.72-0.23-8.54c0.99,0.32,2.02,0.5,3.09,0.52c0.07,3.31,0.36,6.64,2.33,9.41c2.42,3.42,6.19,6.16,9.69,8.37
			c1.97,1.25,4.14,2.49,6.39,3.48c0,1.41-0.07,2.97-0.65,3.63c-1.15,1.28-4.33,1.67-5.97,2.21c-0.17,0.05-0.33,0.11-0.5,0.16
			c-7.25,2.35-14.79,4.35-21.8,7.31c-2.6,1.1-5.11,2.57-6.9,4.79c-2.18,2.71-3.2,6.28-4.34,9.52c-2.61,7.44-4.57,15.13-6.1,22.86
			c-1.7,8.6-2.75,17.32-3.23,26.07c-0.12,2.2,3.31,2.2,3.42,0c0.85-15.81,3.79-31.33,8.49-46.44c0.38-1.22,0.73-2.54,1.13-3.87
			c7.59,2.46,15.61,3.9,23.47,5.1c7.95,1.2,15.98,1.93,24.03,1.84c14.41-0.15,29.84-2.78,42.54-9.97c0.93,2.25,1.51,4.74,2.18,6.9
			c4.7,15.11,7.64,30.63,8.49,46.44c0.12,2.2,3.54,2.2,3.42,0C458.405,436.938,457.355,428.218,455.655,419.618z M434.865,338.378
			c-0.48,4.27-4.05,7-8.11,7.11c0.37-3.76,0.69-7.52,1-11.29c1.3-1.54,3.92-1.98,5.56-0.62
			C434.685,334.708,435.055,336.708,434.865,338.378z M380.015,265.278c3.89-4.94,9.03-7.01,15.24-6.77
			c5.1,0.19,10.58,1.46,14.53,4.88c3.75,3.24,5.67,8.31,4.51,13.16c-1.88,0.22-3.72,0.65-5.47,1.32
			c-7.78-7.48-19.84-5.79-28.28,0.35C376.285,274.758,376.645,269.548,380.015,265.278z M368.775,343.028
			c-0.11-0.12-0.26-0.2-0.41-0.24c-2.14-1.31-3.67-3.35-3.85-6.36c-0.14-2.46,0.72-5.69,3.56-5.98c1.89-0.2,3.06,0.79,4.37,1.72
			c0.09,4.09,0.19,8.17,0.3,12.26C371.335,344.138,369.975,343.688,368.775,343.028z M373.225,318.168
			c-1.61,1.12-3.37,1.55-5.15,2.27c-1.27,0.51-1.06,2.19,0.31,2.34c1.27,0.15,2.53-0.09,3.74-0.56c0.06,2.21,0.21,4.42,0.25,6.55
			v0.23c-1.11-0.82-2.52-1.39-3.5-1.56c-0.89-0.15-1.72-0.1-2.48,0.11c-0.01-0.01-0.02-0.02-0.03-0.03
			c-6.56-5.62-10.52-13.63-8.45-22.4c0.95-4.02,3.04-7.73,5.96-10.64c1.58-1.57,3.39-2.89,5.39-3.87c1.01-0.5,2.08-0.91,3.17-1.2
			c1.14-0.3,2.31-0.25,3.42-0.61c0.23-0.07,0.32-0.36,0.14-0.54c-0.42-0.41-0.88-0.71-1.38-0.92c2.98-5.06,8.57-8.43,13.93-10.44
			c6.91-2.58,13.82-2.03,18.82,3.83c0.32,0.37,1.03,0.58,1.49,0.39c10.78-4.45,25.33,0.93,30.73,11.21
			c6.54,12.42-0.2,26.68-6.37,37.89c-0.46-0.16-0.95-0.26-1.47-0.3c-1.11-0.08-2.5,0.13-3.71,0.63c0.29-3.85,0.56-7.7,0.82-11.55
			c0.58-0.23,1.17-0.51,1.76-0.87c1.78-1.1,0.16-3.92-1.65-2.83c-5.42,3.27-10.19-2.05-12.23-6.62c-0.71-1.6-2.76-0.54-2.92,0.79
			c-0.41,3.41-2.38,6.97-6.13,4.24c-2.48-1.8-4.24-4.69-5.49-7.42c-0.77-1.68-3.17-0.43-2.84,1.2c0.41,2.01,1.15,5.7-1.62,6.42
			c-1.98,0.52-4.51-1.16-6.01-2.26c-3.26-2.41-5.54-5.9-6.77-9.73c-0.35-1.1-1.55-1.04-2.06-0.33c-0.19,0.09-0.38,0.23-0.53,0.44
			c-1.15,1.56-1.42,3.78-2.06,5.61c-0.77,2.15-1.69,4.24-2.94,6.16C376.265,315.478,374.885,317.018,373.225,318.168z
			 M388.165,363.878c-3.44-1.98-6.92-4.42-9.55-7.43c-3.08-3.52-2.52-8.31-2.63-12.68c-0.13-5.15-0.27-10.31-0.44-15.46
			c-0.08-2.59-0.01-5.32-0.14-8.01c1.45-1.12,2.71-2.46,3.67-3.71c1.46-1.91,2.52-4.05,3.41-6.27c0.43-1.07,0.97-2.29,1.4-3.55
			c1.84,4.32,5.37,7.93,9.76,9.69c2.52,1.01,5.53,1.22,7.55-0.91c0.71-0.74,1.15-1.58,1.41-2.48c1.84,2.4,4.18,4.4,7,4.76
			c3.29,0.42,5.24-1.65,6.32-4.26c2.37,3.34,5.87,5.97,9.71,6.01c-0.47,7.22-0.96,14.45-1.51,21.67c-0.16,2.13-0.32,4.26-0.5,6.39
			c-0.21,2.54-0.35,5.07-2.1,7.08c-2.67,3.06-6.35,5.55-9.76,7.71c-3.5,2.22-7.69,5.05-11.91,5.4
			C395.825,368.158,391.555,365.818,388.165,363.878z M401.445,399.278c-8.1,0.04-16.18-0.72-24.16-2.01
			c-7.3-1.18-14.46-3.02-21.72-4.33c0.62-1.64,1.41-3.18,2.52-4.42c2.28-2.53,5.68-3.73,8.82-4.79c5.3-1.8,10.62-3.55,15.94-5.31
			c-0.01,0.03-0.02,0.05-0.02,0.08c0,0.01,0,0.02-0.01,0.02c-0.33,0.61-0.42,1.29-0.02,1.95c0.42,0.68,1.18,1.05,1.98,1.06
			c0.75,0.01,1.43-0.34,1.88-0.89c0.31-0.26,0.56-0.6,0.68-1c0.27-0.9-0.05-1.86-0.86-2.38c-0.02-0.01-0.04-0.02-0.06-0.03
			c1.22-0.41,2.44-0.81,3.65-1.22c0.72-0.25,1.49-0.46,2.12-0.87c0.39-0.25,0.72-0.57,0.96-1.01c0.6-1.1,0.58-2.64,0.58-4.02
			c1.11,0.37,2.22,0.66,3.34,0.83c3.47,0.55,6.73-0.51,9.79-2c0.08,1.58-0.17,3.76,0.6,5.19c0.24,0.44,0.57,0.76,0.96,1.01
			c0.63,0.41,1.4,0.62,2.12,0.87c1.44,0.48,2.88,0.96,4.33,1.45c-0.17,0.19-0.3,0.41-0.37,0.67c-0.25,0.81,0.06,1.68,0.73,2.2
			c0.77,0.6,1.88,0.52,2.58-0.16c0.42-0.4,0.64-0.97,0.62-1.53c5.09,1.69,10.19,3.36,15.27,5.09c3.14,1.06,6.54,2.26,8.82,4.79
			c0.38,0.43,0.73,0.9,1.04,1.39C430.195,396.118,416.235,399.208,401.445,399.278z"/>
		<path style="fill:#333333;" d="M433.215,330.218c-0.46-0.16-0.95-0.26-1.47-0.3c-1.11-0.08-2.5,0.13-3.71,0.63
			c0.29-3.85,0.56-7.7,0.82-11.55c0.58-0.23,1.17-0.51,1.76-0.87c1.78-1.1,0.16-3.92-1.65-2.83c-5.42,3.27-10.19-2.05-12.23-6.62
			c-0.71-1.6-2.76-0.54-2.92,0.79c-0.41,3.41-2.38,6.97-6.13,4.24c-2.48-1.8-4.24-4.69-5.49-7.42c-0.77-1.68-3.17-0.43-2.84,1.2
			c0.41,2.01,1.15,5.7-1.62,6.42c-1.98,0.52-4.51-1.16-6.01-2.26c-3.26-2.41-5.54-5.9-6.77-9.73c-0.35-1.1-1.55-1.04-2.06-0.33
			c-0.19,0.09-0.38,0.23-0.53,0.44c-1.15,1.56-1.42,3.78-2.06,5.61c-0.77,2.15-1.69,4.24-2.94,6.16c-1.1,1.68-2.48,3.22-4.14,4.37
			c-1.61,1.12-3.37,1.55-5.15,2.27c-1.27,0.51-1.06,2.19,0.31,2.34c1.27,0.15,2.53-0.09,3.74-0.56c0.06,2.21,0.21,4.42,0.25,6.55
			v0.23c-1.11-0.82-2.52-1.39-3.5-1.56c-0.89-0.15-1.72-0.1-2.48,0.11c-0.01-0.01-0.02-0.02-0.03-0.03
			c-6.56-5.62-10.52-13.63-8.45-22.4c0.95-4.02,3.04-7.73,5.96-10.64c1.58-1.57,3.39-2.89,5.39-3.87c1.01-0.5,2.08-0.91,3.17-1.2
			c1.14-0.3,2.31-0.25,3.42-0.61c0.23-0.07,0.32-0.36,0.14-0.54c-0.42-0.41-0.88-0.71-1.38-0.92c2.98-5.06,8.57-8.43,13.93-10.44
			c6.91-2.58,13.82-2.03,18.82,3.83c0.32,0.37,1.03,0.58,1.49,0.39c10.78-4.45,25.33,0.93,30.73,11.21
			C446.125,304.748,439.385,319.008,433.215,330.218z"/>
		<path style="fill:#333333;" d="M387.994,335.636c-0.095-0.946-0.303-1.902-0.884-2.565c-0.611-0.697-1.659-0.988-2.531-0.671
			c-0.182,0.066-0.341,0.155-0.487,0.257c-0.038-0.051-0.072-0.106-0.102-0.169c-0.235-0.495-0.117-1.091-0.301-1.612
			c-0.241-0.686-1.234-0.575-1.271,0.172c-0.045,0.903-0.338,1.616,0.131,2.481c0.124,0.228,0.301,0.468,0.51,0.682
			c-0.008,0.024-0.017,0.047-0.024,0.072c-0.143,0.206-0.266,0.425-0.379,0.651c-0.316-0.204-0.601-0.458-0.841-0.787
			c-0.552-0.758-0.623-1.506-0.794-2.386c-0.047-0.24-0.367-0.43-0.598-0.34c-0.177,0.069-0.273,0.105-0.35,0.283
			c-0.034,0.079-0.045,0.169-0.018,0.249c-0.045,0.533-0.159,1.02-0.077,1.581c0.085,0.584,0.296,1.13,0.615,1.629
			c0.382,0.598,0.896,1.131,1.496,1.519c-0.149,0.832-0.167,1.703-0.078,2.536c0.122,1.141,0.221,2.593,0.879,3.575
			c0.748,1.115,2.301,1.565,3.437,0.779c1.98-1.371,2.081-5.098,1.78-7.22C388.077,336.117,388.039,335.876,387.994,335.636z"/>
		<path style="fill:#333333;" d="M419.779,332.163c-0.076-0.178-0.173-0.214-0.35-0.283c-0.232-0.09-0.552,0.1-0.598,0.34
			c-0.171,0.879-0.242,1.628-0.794,2.386c-0.24,0.329-0.525,0.584-0.84,0.788c-0.113-0.226-0.235-0.446-0.379-0.651
			c-0.007-0.024-0.017-0.048-0.024-0.071c0.209-0.214,0.386-0.453,0.51-0.682c0.469-0.865,0.176-1.577,0.131-2.481
			c-0.038-0.747-1.03-0.858-1.271-0.172c-0.184,0.521-0.066,1.117-0.301,1.612c-0.03,0.062-0.064,0.118-0.102,0.169
			c-0.146-0.102-0.305-0.191-0.487-0.257c-0.871-0.317-1.919-0.026-2.531,0.671c-0.581,0.663-0.789,1.618-0.884,2.564
			c-0.045,0.241-0.082,0.481-0.115,0.715c-0.3,2.122-0.2,5.85,1.78,7.22c1.135,0.786,2.689,0.336,3.437-0.779
			c0.658-0.982,0.758-2.434,0.88-3.575c0.089-0.834,0.071-1.705-0.078-2.536c0.6-0.388,1.114-0.922,1.496-1.519
			c0.318-0.498,0.53-1.045,0.615-1.628c0.082-0.561-0.032-1.048-0.077-1.581C419.824,332.332,419.813,332.242,419.779,332.163z"/>
		<path style="fill:#333333;" d="M401.444,343.757c0.759-1.445,0.49-3.039,0.445-4.637c-0.047-1.675-0.105-3.399-0.474-5.037
			c-0.084-0.374-0.416-0.675-0.776-0.776c-0.129-0.036-0.27-0.092-0.406-0.053c-0.061,0.018-0.123,0.035-0.184,0.053
			c-0.358,0.103-0.694,0.4-0.776,0.776c-0.357,1.641-0.405,3.362-0.44,5.037c-0.033,1.595-0.294,3.199,0.474,4.637
			C399.736,344.558,401.019,344.568,401.444,343.757z"/>
		<path style="fill:#333333;" d="M400.641,354.646c1.337-0.134,2.81-1.749,3.805-2.569c1.403-1.157,2.972-2.258,3.619-3.994
			c0.248-0.666-0.513-1.386-1.164-1.164c-2.512,0.855-4.113,3.447-6.412,4.798c-2.226-1.367-3.951-3.586-6.204-4.921
			c-0.675-0.401-1.512,0.406-1.089,1.089c1.057,1.707,2.552,3.078,3.991,4.461C398.06,353.185,399.254,354.784,400.641,354.646z"/>
		<path style="fill:#333333;" d="M383.49,322.321c-2.798,0.264-5.301,2.387-5.522,5.242c-0.053,0.68,0.925,0.88,1.243,0.337
			c1.019-1.747,2.411-3.329,4.572-3.499c2.484-0.195,3.396,1.699,4.527,3.456c0.55,0.854,2.127,0.323,1.73-0.729
			C388.962,324.274,386.748,322.014,383.49,322.321z"/>
		<path style="fill:#333333;" d="M410.877,328.358c1.019-1.747,2.411-3.329,4.572-3.499c2.484-0.195,3.396,1.699,4.527,3.456
			c0.55,0.854,2.128,0.323,1.73-0.729c-1.078-2.853-3.291-5.114-6.55-4.807c-2.798,0.264-5.301,2.387-5.522,5.242
			C409.582,328.701,410.56,328.902,410.877,328.358z"/>
		<path style="fill:#333333;" d="M389.407,381.496c-0.019-0.006-0.038-0.015-0.057-0.02c-0.014-0.004-0.028-0.004-0.042-0.007
			c-0.056-0.012-0.111-0.022-0.168-0.029c-1.011-0.168-2.013,0.479-2.284,1.483c-0.261,0.968,0.087,2.112,0.98,2.637
			c0.959,0.564,2.188,0.167,2.732-0.776c0.512-0.888,0.426-2.065-0.316-2.806C390.009,381.733,389.715,381.58,389.407,381.496z"/>
		<path style="fill:#333333;" d="M393.805,384.938c-0.176,0.024-0.339,0.075-0.495,0.138c-0.004,0.001-0.008,0.001-0.012,0.002
			c-0.298,0.088-0.594,0.27-0.811,0.491c-0.388,0.397-0.553,0.926-0.593,1.467c-0.061,0.811,0.414,1.69,1.155,2.042
			c0.881,0.418,1.956,0.296,2.664-0.409c0.695-0.692,0.869-1.764,0.37-2.623C395.619,385.25,394.707,384.816,393.805,384.938z"/>
		<path style="fill:#333333;" d="M402.136,385.803c-0.007-0.004-0.014-0.006-0.021-0.01c-0.411-0.34-0.946-0.478-1.472-0.408
			c-1.067,0.143-1.794,1.07-1.804,2.135c-0.01,0.982,0.671,1.905,1.637,2.129c1.091,0.253,2.201-0.313,2.568-1.383
			C403.35,387.373,402.951,386.283,402.136,385.803z"/>
		<path style="fill:#333333;" d="M408.367,384.213c-0.119-0.136-0.254-0.256-0.403-0.345c-0.454-0.27-0.997-0.288-1.501-0.187
			c-0.765,0.153-1.376,0.737-1.627,1.463c-0.312,0.903,0.147,1.849,0.896,2.364c0.65,0.447,1.564,0.495,2.256,0.117
			c0.843-0.461,1.236-1.473,1.01-2.394C408.898,384.827,408.668,384.479,408.367,384.213z"/>
		<path style="fill:#333333;" d="M413.297,381.022c-0.147-0.071-0.299-0.118-0.452-0.153c-0.041-0.01-0.083-0.016-0.126-0.023
			c-0.088-0.015-0.175-0.024-0.263-0.027c-0.032-0.001-0.062-0.01-0.095-0.01c-0.026,0-0.049,0.008-0.074,0.009
			c-0.078,0.004-0.155,0.015-0.231,0.028c-0.029,0.006-0.059,0.009-0.088,0.016c-0.32,0.069-0.617,0.22-0.867,0.446
			c-0.024,0.019-0.05,0.035-0.074,0.054c-0.671,0.555-0.862,1.634-0.411,2.382c0.386,0.642,1.071,1.008,1.817,1.008
			c0.862-0.001,1.655-0.577,1.891-1.409C414.574,382.462,414.124,381.424,413.297,381.022z"/>
		<g>
			<path style="fill:#333333;" d="M373.125,432.968c0.28-2.68-3.55-2.53-5.15-1.84c-1.19,0.51-2.1,1.32-2.79,2.3
				c-0.24-1.55-0.93-2.87-2.25-3.68c-1.76-1.08-4.24-0.84-5.43,0.95c-1.31,1.97-0.62,4.64,1.01,6.19c0.79,0.75,1.68,1.25,2.62,1.62
				c-0.14,0.05-0.29,0.1-0.43,0.15c-1.98,0.74-5.21,2.17-4.54,4.89c0.57,2.33,3.45,2.26,4.98,1c0.77-0.65,1.54-1.66,2.2-2.85
				c0.52,1.41,1.29,2.7,2.61,3.57c1.79,1.19,4.22,1.13,5.62-0.65c1.45-1.84,0.52-4.05-1.33-5.18c-1.06-0.65-2.24-0.99-3.45-1.24
				c0.24-0.09,0.49-0.18,0.72-0.28C369.425,437.108,372.875,435.358,373.125,432.968z M361.695,441.338
				c-0.19,0.36-0.41,0.76-0.65,1.1c-0.22,0.27-0.45,0.54-0.67,0.81c-0.87,0.97-2.63,0.79-2.96-0.17c-0.11-0.31-0.07-0.69,0.19-1.13
				c0.39-0.7,1.87-1.14,2.6-1.47c0.75-0.33,1.52-0.6,2.29-0.86C362.265,440.208,362.005,440.778,361.695,441.338z M363.205,437.478
				c-0.67-0.17-1.32-0.39-1.95-0.69c-1.75-0.85-3.69-2.94-2.52-5.04c1.42-2.58,4.45-0.25,4.81,1.73
				C363.775,434.768,363.565,436.168,363.205,437.478z M368.235,440.298c1.35,0.5,3.39,1.9,1.94,3.49
				c-0.95,1.04-2.48,0.75-3.49,0.01c-1.39-1-1.96-2.65-2.34-4.29c0.02-0.05,0.04-0.09,0.05-0.14
				C365.695,439.618,367.005,439.858,368.235,440.298z M364.995,437.288c0.08-0.37,0.15-0.75,0.19-1.12c0.44-0.98,1-1.89,1.81-2.63
				c0.7-0.64,1.59-1.11,2.53-1.28c0.7-0.12,0.9-0.1,1.42,0.45c0.72,0.76,0.32,0.96-0.42,1.66
				C368.975,435.848,367.015,436.638,364.995,437.288z"/>
			<path style="fill:#C7B299;" d="M362.495,439.618c-0.23,0.59-0.49,1.16-0.8,1.72c-0.19,0.36-0.41,0.76-0.65,1.1
				c-0.22,0.27-0.45,0.54-0.67,0.81c-0.87,0.97-2.63,0.79-2.96-0.17c-0.11-0.31-0.07-0.69,0.19-1.13c0.39-0.7,1.87-1.14,2.6-1.47
				C360.955,440.148,361.725,439.878,362.495,439.618z"/>
			<path style="fill:#C7B299;" d="M370.175,443.788c-0.95,1.04-2.48,0.75-3.49,0.01c-1.39-1-1.96-2.65-2.34-4.29
				c0.02-0.05,0.04-0.09,0.05-0.14c1.3,0.25,2.61,0.49,3.84,0.93C369.585,440.798,371.625,442.198,370.175,443.788z"/>
			<path style="fill:#C7B299;" d="M370.525,434.368c-1.55,1.48-3.51,2.27-5.53,2.92c0.08-0.37,0.15-0.75,0.19-1.12
				c0.44-0.98,1-1.89,1.81-2.63c0.7-0.64,1.59-1.11,2.53-1.28c0.7-0.12,0.9-0.1,1.42,0.45
				C371.665,433.468,371.265,433.668,370.525,434.368z"/>
			<path style="fill:#C7B299;" d="M363.205,437.478c-0.67-0.17-1.32-0.39-1.95-0.69c-1.75-0.85-3.69-2.94-2.52-5.04
				c1.42-2.58,4.45-0.25,4.81,1.73C363.775,434.768,363.565,436.168,363.205,437.478z"/>
		</g>
		<g>
			<path style="fill:#333333;" d="M408.455,410.938c0.28-2.68-3.54-2.53-5.14-1.84c-1.19,0.51-2.1,1.32-2.79,2.3
				c-0.24-1.55-0.93-2.87-2.25-3.68c-1.76-1.08-4.24-0.84-5.43,0.95c-1.31,1.97-0.62,4.64,1.01,6.19c0.79,0.76,1.68,1.25,2.62,1.62
				c-0.14,0.05-0.29,0.1-0.43,0.15c-1.98,0.74-5.21,2.17-4.54,4.89c0.57,2.33,3.45,2.26,4.97,1c0.78-0.65,1.55-1.65,2.21-2.85
				c0.52,1.42,1.29,2.7,2.61,3.57c1.79,1.2,4.22,1.14,5.62-0.65c1.45-1.84,0.52-4.05-1.33-5.18c-1.06-0.65-2.24-0.99-3.45-1.24
				c0.24-0.09,0.48-0.18,0.72-0.28C404.765,415.078,408.205,413.328,408.455,410.938z M397.035,419.308
				c-0.2,0.36-0.41,0.76-0.65,1.1c-0.23,0.27-0.45,0.54-0.67,0.82c-0.87,0.96-2.63,0.78-2.96-0.18c-0.11-0.31-0.07-0.69,0.18-1.13
				c0.4-0.69,1.88-1.14,2.61-1.47c0.74-0.33,1.52-0.6,2.29-0.86C397.605,418.178,397.345,418.748,397.035,419.308z M398.545,415.448
				c-0.67-0.17-1.33-0.39-1.95-0.69c-1.75-0.84-3.69-2.94-2.53-5.04c1.43-2.58,4.46-0.25,4.81,1.73
				C399.115,412.738,398.905,414.138,398.545,415.448z M403.565,418.268c1.36,0.5,3.39,1.9,1.95,3.49
				c-0.95,1.04-2.48,0.75-3.49,0.01c-1.4-1-1.96-2.65-2.34-4.29c0.02-0.05,0.03-0.09,0.05-0.14
				C401.035,417.588,402.335,417.828,403.565,418.268z M400.335,415.258c0.08-0.37,0.14-0.75,0.19-1.12c0.44-0.98,1-1.89,1.81-2.62
				c0.7-0.65,1.59-1.12,2.53-1.29c0.7-0.12,0.9-0.1,1.41,0.45c0.72,0.76,0.32,0.96-0.42,1.66
				C404.315,413.818,402.355,414.608,400.335,415.258z"/>
			<path style="fill:#C7B299;" d="M397.835,417.588c-0.23,0.59-0.49,1.16-0.8,1.72c-0.2,0.36-0.41,0.76-0.65,1.1
				c-0.23,0.27-0.45,0.54-0.67,0.82c-0.87,0.96-2.63,0.78-2.96-0.18c-0.11-0.31-0.07-0.69,0.18-1.13c0.4-0.69,1.88-1.14,2.61-1.47
				C396.285,418.118,397.065,417.848,397.835,417.588z"/>
			<path style="fill:#C7B299;" d="M405.515,421.758c-0.95,1.04-2.48,0.75-3.49,0.01c-1.4-1-1.96-2.65-2.34-4.29
				c0.02-0.05,0.03-0.09,0.05-0.14c1.3,0.25,2.6,0.49,3.83,0.93C404.925,418.768,406.955,420.168,405.515,421.758z"/>
			<path style="fill:#C7B299;" d="M405.855,412.338c-1.54,1.48-3.5,2.27-5.52,2.92c0.08-0.37,0.14-0.75,0.19-1.12
				c0.44-0.98,1-1.89,1.81-2.62c0.7-0.65,1.59-1.12,2.53-1.29c0.7-0.12,0.9-0.1,1.41,0.45
				C406.995,411.438,406.595,411.638,405.855,412.338z"/>
			<path style="fill:#C7B299;" d="M398.545,415.448c-0.67-0.17-1.33-0.39-1.95-0.69c-1.75-0.84-3.69-2.94-2.53-5.04
				c1.43-2.58,4.46-0.25,4.81,1.73C399.115,412.738,398.905,414.138,398.545,415.448z"/>
		</g>
		<g>
			<path style="fill:#333333;" d="M444.715,432.048c0.28-2.67-3.54-2.53-5.15-1.84c-1.18,0.52-2.1,1.32-2.79,2.3
				c-0.23-1.55-0.92-2.87-2.24-3.68c-1.76-1.08-4.24-0.84-5.44,0.95c-1.31,1.97-0.62,4.64,1.01,6.19c0.79,0.76,1.68,1.25,2.62,1.62
				c-0.14,0.05-0.28,0.1-0.42,0.15c-1.99,0.74-5.22,2.17-4.55,4.89c0.58,2.33,3.46,2.26,4.98,1c0.78-0.65,1.54-1.65,2.2-2.85
				c0.52,1.42,1.3,2.7,2.61,3.57c1.8,1.2,4.22,1.14,5.63-0.65c1.45-1.84,0.51-4.05-1.34-5.18c-1.06-0.65-2.24-0.99-3.44-1.24
				c0.24-0.09,0.48-0.18,0.72-0.28C441.015,436.188,444.465,434.438,444.715,432.048z M433.295,440.418
				c-0.2,0.37-0.41,0.76-0.66,1.1c-0.22,0.27-0.45,0.54-0.67,0.82c-0.87,0.96-2.63,0.78-2.96-0.18c-0.1-0.3-0.06-0.68,0.19-1.13
				c0.4-0.69,1.88-1.14,2.6-1.47c0.75-0.33,1.52-0.6,2.3-0.86C433.855,439.288,433.595,439.868,433.295,440.418z M434.805,436.558
				c-0.67-0.17-1.33-0.39-1.96-0.69c-1.75-0.84-3.68-2.94-2.52-5.03c1.43-2.58,4.45-0.26,4.81,1.72
				C435.365,433.848,435.155,435.248,434.805,436.558z M439.825,439.388c1.35,0.49,3.39,1.89,1.94,3.48
				c-0.95,1.04-2.47,0.75-3.49,0.02c-1.39-1.01-1.96-2.66-2.34-4.3c0.02-0.05,0.04-0.09,0.06-0.14
				C437.285,438.698,438.595,438.938,439.825,439.388z M436.585,436.368c0.08-0.37,0.15-0.75,0.2-1.12c0.44-0.97,1-1.88,1.8-2.62
				c0.7-0.64,1.6-1.12,2.54-1.29c0.7-0.12,0.89-0.09,1.41,0.45c0.72,0.76,0.32,0.96-0.42,1.66
				C440.565,434.928,438.605,435.718,436.585,436.368z"/>
			<path style="fill:#C7B299;" d="M434.095,438.698c-0.24,0.59-0.5,1.17-0.8,1.72c-0.2,0.37-0.41,0.76-0.66,1.1
				c-0.22,0.27-0.45,0.54-0.67,0.82c-0.87,0.96-2.63,0.78-2.96-0.18c-0.1-0.3-0.06-0.68,0.19-1.13c0.4-0.69,1.88-1.14,2.6-1.47
				C432.545,439.228,433.315,438.958,434.095,438.698z"/>
			<path style="fill:#C7B299;" d="M441.765,442.868c-0.95,1.04-2.47,0.75-3.49,0.02c-1.39-1.01-1.96-2.66-2.34-4.3
				c0.02-0.05,0.04-0.09,0.06-0.14c1.29,0.25,2.6,0.49,3.83,0.94C441.175,439.878,443.215,441.278,441.765,442.868z"/>
			<path style="fill:#C7B299;" d="M442.115,433.448c-1.55,1.48-3.51,2.27-5.53,2.92c0.08-0.37,0.15-0.75,0.2-1.12
				c0.44-0.97,1-1.88,1.8-2.62c0.7-0.64,1.6-1.12,2.54-1.29c0.7-0.12,0.89-0.09,1.41,0.45
				C443.255,432.548,442.855,432.748,442.115,433.448z"/>
			<path style="fill:#C7B299;" d="M434.805,436.558c-0.67-0.17-1.33-0.39-1.96-0.69c-1.75-0.84-3.68-2.94-2.52-5.03
				c1.43-2.58,4.45-0.26,4.81,1.72C435.365,433.848,435.155,435.248,434.805,436.558z"/>
		</g>
	</g>
</g>
</svg>
