<svg width="234" height="337" viewBox="0 0 234 337" fill="none" xmlns="http://www.w3.org/2000/svg">
<path d="M80.6963 215.165C80.6963 215.165 85.2922 133.821 151.174 133.821C217.061 133.821 239.826 232.043 231.367 336.766H209.253C209.253 336.766 203.397 325.059 215.107 325.059C215.107 325.059 213.987 290.577 201.628 274.714C201.628 274.714 199.71 318.461 190.392 336.766H170.879C170.879 336.766 163.772 324.408 178.594 324.408C178.594 324.408 192.547 237.058 130.003 256.014L80.6963 215.165Z" fill="#211E23"/>
<path d="M60.4933 270.692C70.7129 291.738 65.5062 324.358 65.5062 324.358C50.6839 324.358 57.793 336.717 57.793 336.717H77.3081C86.6262 318.41 88.542 274.662 88.542 274.662C100.901 290.528 102.023 325.007 102.023 325.007C90.3159 325.007 96.1696 336.714 96.1696 336.714H118.286C120.193 313.095 120.506 290.904 119.1 270.69L60.4933 270.692Z" fill="#211E23"/>
<path d="M124.747 238.316L129.291 207.605L96.874 218.499L124.747 238.316Z" fill="#211E23"/>
<path d="M120.471 233.61L123.419 213.711L105.385 221.213L120.471 233.61Z" fill="#4D4A4F"/>
<path d="M26.4347 238.316L21.8906 207.605L54.3054 218.499L26.4347 238.316Z" fill="#211E23"/>
<path d="M30.7064 233.61L27.7627 213.711L45.7947 221.213L30.7064 233.61Z" fill="#4D4A4F"/>
<path d="M134.273 256.353C134.273 281.611 107.996 302.095 75.5903 302.095C43.1733 302.095 16.8984 281.611 16.8984 256.353C16.8984 231.09 43.1733 210.61 75.5903 210.61C107.998 210.61 134.273 231.09 134.273 256.353Z" fill="#211E23"/>
<path d="M75.6855 269.272C75.6855 269.272 75.6043 269.272 75.5908 269.272C75.557 269.272 75.5029 269.272 75.5029 269.272C74.5539 269.281 69.7259 269.469 70.5892 271.454C71.493 273.566 73.3841 275.647 75.5029 275.778C75.5029 275.778 75.5547 275.798 75.5908 275.798C75.6133 275.798 75.6855 275.778 75.6855 275.778C77.7952 275.647 79.6841 273.566 80.5947 271.454C81.4467 269.469 76.6186 269.281 75.6855 269.272Z" fill="#4D4A4F"/>
<path d="M95.0928 259.499C95.0928 259.499 100.538 242.319 119.573 251.775C119.573 251.775 114.527 270.823 95.0928 259.499Z" fill="#ECC049"/>
<path d="M105.319 249.354C105.319 249.354 106.394 249.963 107.341 251.069C108.359 252.151 109.227 253.729 109.701 255.415C110.163 257.105 110.233 258.906 109.91 260.358C109.662 261.792 109.047 262.869 109.047 262.869C109.047 262.869 107.967 262.26 107.018 261.156C105.997 260.072 105.136 258.492 104.665 256.806C104.21 255.113 104.142 253.314 104.46 251.863C104.71 250.427 105.319 249.354 105.319 249.354Z" fill="#211E23"/>
<path d="M56.0891 259.499C56.0891 259.499 50.6457 242.319 31.6084 251.775C31.6084 251.775 36.6551 270.823 56.0891 259.499Z" fill="#ECC049"/>
<path d="M45.8624 249.354C45.8624 249.354 44.7872 249.963 43.8406 251.069C42.8218 252.151 41.954 253.729 41.4829 255.415C41.0163 257.105 40.951 258.906 41.2733 260.358C41.5212 261.792 42.1343 262.869 42.1343 262.869C42.1343 262.869 43.2162 262.26 44.1629 261.156C45.1817 260.072 46.045 258.492 46.5138 256.806C46.9736 255.113 47.0367 253.314 46.7212 251.863C46.471 250.427 45.8624 249.354 45.8624 249.354Z" fill="#211E23"/>
<path d="M110.5 270.638C123.258 267.237 136.015 263.833 148.775 260.432C150.54 259.963 149.787 257.229 148.02 257.703C135.265 261.104 122.507 264.507 109.747 267.906C107.982 268.375 108.731 271.112 110.5 270.638Z" fill="#211E23"/>
<path d="M110.191 271.718C123.393 271.695 136.599 271.673 149.803 271.652C151.633 271.646 151.633 268.812 149.803 268.817C136.601 268.839 123.395 268.862 110.191 268.885C108.361 268.887 108.361 271.72 110.191 271.718Z" fill="#211E23"/>
<path d="M106.556 273.902C119.406 276.931 132.258 279.959 145.108 282.986C146.889 283.405 147.644 280.673 145.863 280.256C133.011 277.227 120.159 274.2 107.309 271.17C105.533 270.749 104.777 273.485 106.556 273.902Z" fill="#211E23"/>
<path d="M40.6741 270.638C27.9165 267.237 15.1566 263.833 2.39668 260.432C0.631801 259.963 1.38013 257.229 3.14952 257.703C15.9094 261.104 28.667 264.507 41.4269 267.906C43.1941 268.375 42.4435 271.112 40.6741 270.638Z" fill="#211E23"/>
<path d="M40.985 271.718C27.7789 271.695 14.5772 271.673 1.371 271.652C-0.456998 271.646 -0.456998 268.812 1.371 268.817C14.5772 268.839 27.7789 268.862 40.985 268.885C42.8108 268.887 42.8108 271.72 40.985 271.718Z" fill="#211E23"/>
<path d="M44.6183 273.902C31.766 276.931 18.916 279.959 6.05917 282.986C4.28302 283.405 3.52791 280.673 5.30857 280.256C18.1586 277.227 31.0132 274.2 43.8632 271.17C45.6394 270.749 46.3967 273.485 44.6183 273.902Z" fill="#211E23"/>
<path d="M190.439 160.918C216.439 141.637 232.386 109.254 233.609 77.2565C234.912 43.2053 216.646 -0.407355 176.836 0.00287248C144.042 0.343226 129.071 45.6283 152.826 66.6379C163.413 76.001 179.811 74.2812 189.413 64.5957C199.437 54.4843 195.222 38.3389 183.271 32.1877C174.487 27.6685 166.086 32.2486 162.64 40.7372C161.457 43.6538 166.177 44.9093 167.344 42.0355C171.084 32.8234 180.318 34.5094 186.26 40.3269C192.817 46.7463 190.479 56.5941 184.711 62.4094C171.559 75.6764 152.118 64.2261 147.029 49.4782C142.764 37.1218 147.872 22.9666 156.547 13.8988C168.615 1.28089 186.999 3.62506 200.742 11.8589C227.068 27.6302 231.854 65.3959 227.136 92.8767C222.993 116.981 207.774 142.027 187.977 156.703C185.48 158.556 187.907 162.794 190.439 160.918Z" fill="#211E23"/>
</svg>
