<svg width="235" height="335" viewBox="0 0 235 335" fill="none" xmlns="http://www.w3.org/2000/svg">
<path d="M135.743 33.4155L140.69 0L105.413 11.8515L135.743 33.4155Z" fill="#211E23"/>
<path d="M131.095 28.2967L134.3 6.64258L114.677 14.8066L131.095 28.2967Z" fill="#4D4A4F"/>
<path d="M28.7662 33.4155L23.8232 0L59.0938 11.8515L28.7662 33.4155Z" fill="#211E23"/>
<path d="M33.4158 28.2967L30.2129 6.64258L49.8339 14.8066L33.4158 28.2967Z" fill="#4D4A4F"/>
<path d="M146.111 53.0434C146.111 80.5264 117.519 102.818 82.2577 102.818C46.9848 102.818 18.3906 80.5264 18.3906 53.0434C18.3906 25.5514 46.9826 3.26831 82.2577 3.26831C117.519 3.26831 146.111 25.5514 146.111 53.0434Z" fill="#211E23"/>
<path d="M82.3588 67.1016C82.3588 67.1016 82.2708 67.1016 82.2573 67.1016C82.219 67.1016 82.1627 67.1016 82.1627 67.1016C81.1281 67.1128 75.8762 67.3157 76.8162 69.475C77.8034 71.7741 79.8591 74.0371 82.1627 74.1791C82.1627 74.1791 82.219 74.2016 82.2573 74.2016C82.2821 74.2016 82.3588 74.1791 82.3588 74.1791C84.6534 74.0371 86.709 71.7718 87.6985 69.475C88.6271 67.3157 83.3731 67.1128 82.3588 67.1016Z" fill="#4D4A4F"/>
<path d="M103.477 56.465C103.477 56.465 109.402 37.7726 130.114 48.0598C130.114 48.0598 124.624 68.7876 103.477 56.465Z" fill="#ECC049"/>
<path d="M114.604 45.4271C114.604 45.4271 115.774 46.0898 116.804 47.2934C117.911 48.4678 118.858 50.1876 119.374 52.0223C119.876 53.8616 119.953 55.8226 119.601 57.4004C119.333 58.9601 118.664 60.1345 118.664 60.1345C118.664 60.1345 117.487 59.4718 116.455 58.2704C115.344 57.0916 114.408 55.3718 113.894 53.5348C113.396 51.6932 113.324 49.7368 113.671 48.1544C113.939 46.5969 114.604 45.4271 114.604 45.4271Z" fill="#211E23"/>
<path d="M61.0362 56.465C61.0362 56.465 55.1104 37.7726 34.3984 48.0598C34.3984 48.0598 39.8892 68.7876 61.0362 56.465Z" fill="#ECC049"/>
<path d="M49.906 45.4271C49.906 45.4271 48.7339 46.0898 47.7061 47.2934C46.5949 48.4678 45.6527 50.1876 45.1366 52.0223C44.6294 53.8616 44.5573 55.8226 44.9067 57.4004C45.1772 58.9601 45.8443 60.1345 45.8443 60.1345C45.8443 60.1345 47.0209 59.4718 48.0532 58.2704C49.1622 57.0916 50.1021 55.3718 50.6138 53.5348C51.1142 51.6932 51.1841 49.7368 50.8414 48.1544C50.5687 46.5969 49.906 45.4271 49.906 45.4271Z" fill="#211E23"/>
<path d="M120.242 68.587C134.125 64.886 148.007 61.1826 161.892 57.4816C163.812 56.9677 162.992 53.9946 161.071 54.5085C147.191 58.2119 133.306 61.9129 119.422 65.614C117.501 66.1279 118.319 69.1032 120.242 68.587Z" fill="#211E23"/>
<path d="M119.907 69.7658C134.274 69.741 148.643 69.714 163.01 69.6914C165 69.6847 165 66.6035 163.01 66.6057C148.643 66.6305 134.274 66.6531 119.907 66.6801C117.914 66.6846 117.914 69.7681 119.907 69.7658Z" fill="#211E23"/>
<path d="M115.95 72.1416C129.934 75.4369 143.918 78.7301 157.904 82.0254C159.838 82.4807 160.659 79.5077 158.722 79.0524C144.739 75.7593 130.752 72.4617 116.769 69.1663C114.837 68.7088 114.014 71.684 115.95 72.1416Z" fill="#211E23"/>
<path d="M44.2594 68.587C30.377 64.886 16.4946 61.1826 2.61 57.4816C0.689594 56.9677 1.50556 53.9946 3.42822 54.5085C17.3129 58.2119 31.1952 61.9129 45.0776 65.614C47.0003 66.1279 46.1843 69.1032 44.2594 68.587Z" fill="#211E23"/>
<path d="M44.5999 69.7658C30.2284 69.741 15.8614 69.714 1.4944 69.6914C-0.498134 69.6847 -0.498134 66.6035 1.4944 66.6057C15.8614 66.6305 30.2284 66.6531 44.5999 66.6801C46.5834 66.6846 46.5834 69.7681 44.5999 69.7658Z" fill="#211E23"/>
<path d="M48.5512 72.1416C34.5674 75.4369 20.5836 78.7301 6.59533 82.0254C4.66365 82.4807 3.83869 79.5077 5.77938 79.0524C19.7609 75.7593 33.747 72.4617 47.7331 69.1663C49.667 68.7088 50.4874 71.684 48.5512 72.1416Z" fill="#211E23"/>
<path d="M106.961 121.693C89.1368 111.284 96.273 95.671 96.273 95.671L79.0637 85.2981C79.0637 85.2981 59.8416 99.5389 49.6287 126.023C39.4181 152.512 53.0571 186.742 56.6274 198.886C58.9626 206.843 57.7522 230.009 45.5422 236.176H31.9123C28.1391 236.176 25.085 238.464 25.085 241.277C25.085 244.088 28.1391 246.371 31.9123 246.371H44.7083H126.371H194.478C199.123 159.421 124.779 132.098 106.961 121.693Z" fill="#211E23"/>
<path d="M165.755 199.184C177.446 194.024 191.478 192.185 203.92 195.052C222.689 199.38 233.177 218.854 228.93 236.913C224.855 254.251 208.727 265.332 192.632 270.207C166.749 278.049 140.641 268.882 115.092 264.471C89.7004 260.089 44.4513 253.16 30.7538 282.834C16.3395 314.059 50.4695 338.075 78.9623 334.676C93.6269 332.929 105.625 321.826 105.58 306.621C105.53 290.613 90.1332 282.257 76.0479 286.84C73.0163 287.827 74.3123 292.621 77.3665 291.632C89.182 287.786 99.4738 294.019 100.612 306.621C101.719 318.837 90.8905 327.101 80.1998 329.478C61.8162 333.567 38.183 322.768 33.0934 303.963C28.8424 288.26 39.8419 274.071 53.9632 269.182C73.5505 262.399 97.1567 266.394 116.936 269.808C140.679 273.906 162.836 280.857 187.125 276.615C202.049 274.01 217.29 266.202 226.264 253.692C243.998 228.966 231.957 194.98 201.098 189.413C188.716 187.179 174.692 189.845 163.253 194.894C160.32 196.186 162.849 200.464 165.755 199.184Z" fill="#211E23"/>
</svg>
