<svg width="278" height="418" viewBox="0 0 278 418" fill="none" xmlns="http://www.w3.org/2000/svg">
<path d="M126.412 261.528C125.205 262.001 123.963 262.536 123.123 263.523C121.694 265.205 121.836 267.753 122.648 269.807C123.459 271.86 124.827 273.652 125.714 275.672C127.616 279.999 127.164 284.952 126.672 289.655C124.323 312.17 121.898 334.694 118.11 357.013C116.614 365.826 114.904 374.635 114.428 383.562C114.324 385.504 114.286 387.496 114.909 389.339C115.351 390.65 116.108 391.828 116.877 392.978C122.153 400.895 128.227 408.279 134.975 414.985C138.77 411.4 142.562 407.818 146.357 404.233C149.559 401.21 152.866 398.027 154.352 393.885C155.788 389.879 155.344 385.476 154.88 381.248C152.187 356.719 149.492 332.189 146.8 307.66C145.179 292.901 143.667 277.354 149.589 263.738C149.72 263.437 140.213 258.493 138.869 258.282C134.901 257.66 130.006 260.116 126.412 261.528Z" fill="#C7B299"/>
<path d="M94.5068 131.98C96.7592 132.281 98.6141 129.981 100.521 128.744C99.8492 129.917 99.3831 131.15 99.2009 132.231C99.1299 132.652 99.085 133.132 99.0566 133.634C98.5976 136.452 98.9264 139.395 100.169 142.019C101.231 144.265 103.254 146.519 105.958 146.5C108.625 146.484 110.496 144.388 111.163 141.977C111.951 139.126 112.008 135.792 111.928 132.851C111.885 131.339 111.866 129.614 111.433 128.086C112.879 128.694 114.166 129.607 115.119 130.847C116.939 133.213 120.859 131.183 119.257 128.429C115.869 122.599 106.867 120.9 100.874 123.179C98.2853 124.163 94.4831 126.576 93.8182 129.541C93.6668 130.218 93.4113 131.834 94.5068 131.98Z" fill="#333333"/>
<path d="M188.558 123.181C182.565 120.9 173.562 122.601 170.174 128.431C168.572 131.185 172.493 133.215 174.312 130.849C175.268 129.607 176.553 128.696 178.001 128.088C177.565 129.614 177.549 131.341 177.506 132.853C177.426 135.794 177.483 139.128 178.27 141.979C178.938 144.39 180.809 146.484 183.476 146.503C186.18 146.522 188.203 144.267 189.265 142.021C190.507 139.395 190.836 136.452 190.377 133.636C190.349 133.132 190.304 132.654 190.233 132.233C190.053 131.152 189.585 129.919 188.913 128.746C190.82 129.986 192.675 132.285 194.927 131.983C196.025 131.836 195.767 130.22 195.616 129.546C194.946 126.579 191.144 124.165 188.558 123.181Z" fill="#333333"/>
<path d="M152.765 173.437C148.696 176.662 143.663 179.333 138.295 178.874C133.288 178.446 130.726 175.041 126.661 172.765C125.937 172.358 124.683 172.853 124.813 173.825C125.554 179.369 131.407 182.705 136.567 183.493C143.836 184.6 150.681 181.373 156.148 176.823C158.536 174.831 155.136 171.559 152.765 173.437Z" fill="#333333"/>
<path d="M142.931 160.372C144.706 158.184 144.443 155.886 144.49 153.153C144.538 150.39 144.71 147.489 143.828 144.835C143.092 142.625 140.27 142.774 139.477 144.835C138.542 147.269 138.538 150.023 138.407 152.602C138.282 155.094 137.662 157.725 139.141 159.882C139.934 161.037 141.881 161.666 142.931 160.372Z" fill="#333333"/>
<path d="M94.3364 106.061C101.373 106.257 108.36 105.748 115.403 106.136C120.644 106.427 121.978 97.6898 116.662 96.8333C112.521 96.1685 108.357 95.9626 104.165 95.9555C100.566 95.9484 96.5131 95.7048 93.1156 97.0439C88.4806 98.8728 88.8591 105.907 94.3364 106.061Z" fill="#333333"/>
<path d="M170.456 107.147C177.492 107.343 184.479 106.834 191.522 107.222C196.763 107.511 198.098 98.7758 192.781 97.9193C188.641 97.2544 184.476 97.0486 180.284 97.0415C176.688 97.0344 172.632 96.7907 169.235 98.1298C164.6 99.9588 164.978 106.993 170.456 107.147Z" fill="#333333"/>
<path d="M269.588 337.536C265.992 319.247 261.355 301.029 255.156 283.425C252.482 275.783 250.045 267.337 244.887 260.925C240.652 255.649 234.737 252.171 228.585 249.592C211.598 242.399 193.332 237.643 175.8 231.894C175.327 231.752 174.783 231.586 174.191 231.444C173.623 231.042 172.913 230.877 172.204 230.948C168.347 230.025 163.71 228.936 161.699 226.689C159.546 224.275 160.326 216.704 160.113 213.392C159.971 211.121 159.829 208.802 159.688 206.507C161.675 205.821 163.615 205.064 165.532 204.235C182.732 196.901 198.656 184.621 205.304 166.616C219.997 165.906 237.6 153.982 234.761 137.514C233.53 130.44 228.633 124.738 221.7 122.798C219.831 122.277 216.897 121.97 214.082 122.277C219.5 114.824 226.953 108.46 232.513 101.267C239.493 92.229 246.307 82.1735 248.271 70.6984C249.879 61.4237 248.389 51.2972 242.095 43.9863C237.032 38.1186 227.544 33.5049 219.926 36.699C218.057 23.0708 203.837 12.1636 192.149 7.14766C176.51 0.428224 157.321 -1.2753 140.547 0.87776C132.668 1.89514 125.049 4.1665 118.282 8.37798C111.374 12.7078 104.56 20.066 95.9711 20.7048C88.4236 21.249 81.9171 17.0139 75.1266 22.3847C72.0272 24.8453 69.9451 28.5363 69.4719 32.3929C63.4149 30.3108 54.3768 32.6058 51.0881 36.699C45.9539 43.0872 50.4493 49.8303 56.4826 54.0891C52.4604 55.485 49.1716 58.2769 48.4145 62.9853C46.9712 71.9997 56.1513 77.0393 63.202 79.7365C67.7684 81.4637 72.4531 82.5994 77.2324 83.2382C77.0668 84.8944 77.2087 86.6689 77.1851 88.1595C77.0431 94.6187 77.3507 101.078 77.5163 107.513C77.6109 111.11 77.6819 114.706 77.7766 118.326C75.103 116.339 71.5303 115.321 68.4309 115.439C60.907 115.7 54.9683 121.875 52.7443 128.736C46.9712 146.718 63.6516 161.103 80.0716 162.736C81.089 167.775 82.7925 172.626 85.6317 177.074C91.0025 185.473 99.0469 191.672 106.831 197.682C110.333 200.403 113.905 202.863 117.667 204.922C117.478 207.761 117.312 210.576 117.147 213.392C116.91 216.704 117.715 224.275 115.562 226.689C112.841 229.717 105.317 230.64 101.437 231.894C83.9282 237.643 65.6626 242.399 48.6748 249.592C42.5232 252.171 36.6082 255.649 32.373 260.925C27.1915 267.337 24.7782 275.783 22.0809 283.425C15.9057 301.029 11.2683 319.247 7.64832 337.536C3.62612 357.883 1.14183 378.515 0.00614512 399.218C-0.254115 404.423 7.8376 404.399 8.12152 399.218C10.109 361.811 17.065 325.091 28.1852 289.34C30.4092 282.242 32.1601 273.654 36.3479 267.147C39.2817 271.832 40.0152 277.534 39.8496 283.047C39.7786 285.579 43.7062 286.146 44.2977 283.638C45.3624 279.309 44.7709 274.908 43.02 270.838C42.0736 268.638 40.6304 265.893 38.6429 264.095C38.6666 264.048 38.7139 264.001 38.7612 263.953C44.132 257.967 52.2001 255.128 59.6057 252.596C75.0083 247.368 90.4583 242.328 105.885 237.194C103.708 250.443 103.684 263.598 104.938 277.061C105.128 278.977 107.446 280.302 108.96 278.717C112.864 274.648 116.863 271.241 121.169 268.354C121.784 272.282 122.731 276.398 124.434 279.782C124.552 280.018 124.671 280.231 124.813 280.421C122.683 305.642 118.874 330.603 115.42 355.659C114.639 361.385 113.882 367.135 113.219 372.908C112.628 378.065 111.208 384.099 111.965 389.28C112.675 394.202 116.745 398.2 119.773 401.915C123.795 406.883 128.054 411.639 132.479 416.276C133.212 417.057 134.821 417.388 135.767 416.702C143.551 410.787 151.572 403.429 156.422 394.793C158.765 390.558 157.321 385.755 156.825 381.189C156.068 374.398 155.31 367.584 154.601 360.794C151.903 334.46 149.561 308.103 147.55 281.722C148.733 280.137 148.875 277.652 149.277 275.878C149.821 273.37 150.389 270.862 150.91 268.33C151.099 268.496 151.288 268.638 151.454 268.804C155.807 272.589 159.711 276.895 163.568 281.154C164.964 282.692 167.637 281.864 168.158 279.947C171.825 266.319 174.215 252.478 175.019 238.424C189.239 243.132 203.459 247.794 217.631 252.596C223.546 254.608 229.839 256.808 234.879 260.641C228.514 266.816 223.759 276.824 223.333 285.011C223.215 287.4 226.48 288.016 227.639 286.17C230.36 281.911 231.306 276.564 233.625 272.045C235.092 269.229 236.866 266.698 238.688 264.166C244.532 270.838 246.496 281.083 249.051 289.34C260.172 325.091 267.128 361.811 269.139 399.218C269.423 404.399 277.514 404.423 277.23 399.218C276.095 378.515 273.61 357.883 269.588 337.536ZM218.79 127.908C224.634 129.115 228.68 133.894 229.011 139.833C229.626 151.048 217.56 158.95 207.268 160.322C209.894 150.172 210.556 139.218 211.148 128.807C213.585 128.263 216.046 127.34 218.79 127.908ZM57.7602 134.959C57.6892 129.517 60.3628 123.91 65.426 121.567C70.4656 119.249 74.4405 121.709 77.9185 124.974C78.0841 132.285 78.2498 139.596 78.4864 146.907C78.581 149.983 78.7466 153.059 79.0779 156.135C68.3599 154.313 57.9495 146.813 57.7602 134.959ZM60.1262 70.5565C56.8848 68.6873 52.8626 64.9254 56.0567 61.0215C57.7365 58.9631 60.5757 58.2296 63.2493 57.6381C63.7935 57.8274 64.314 57.9693 64.8345 58.1113C69.046 59.176 70.8205 52.7641 66.6327 51.5811C63.273 50.6347 60.6231 48.6 58.1151 46.2576C57.216 45.4295 55.5125 44.0336 55.2522 42.7796C54.6607 39.9877 57.8785 38.5918 59.8423 38.024C62.7288 37.1959 65.9702 37.1722 68.9041 37.8347C69.1643 37.882 69.5666 38.0476 70.0161 38.2606C70.0398 38.3079 70.0397 38.3789 70.0634 38.4262C71.3647 42.0935 76.7119 40.6502 75.9074 36.7936C75.2213 33.4812 75.9074 30.0505 78.5574 27.6845C81.8934 24.7034 86.0339 25.7917 90.0561 26.4542C95.9238 27.4006 101.153 26.5489 106.429 23.828C112.036 20.9178 116.721 16.5643 122.092 13.2756C128.764 9.20608 136.382 7.26596 144.119 6.57982C158.575 5.30218 174.522 6.62714 188.198 11.6667C195.296 14.2693 201.802 18.2205 207.126 23.615C212.071 28.6309 214.768 34.6169 218.033 40.6975C218.435 41.4547 219.382 41.3837 219.855 40.8395C220.091 40.9578 220.328 41.0288 220.588 41.0524C225.273 41.4547 229.319 41.431 233.459 44.0573C237.34 46.5179 240.131 50.3035 241.646 54.6569C244.816 63.766 242.497 73.7032 238.239 82.0316C233.956 90.4309 228.018 98.0967 221.819 105.171C218.554 108.886 214.957 112.316 211.763 116.078C212.189 104.603 212.189 93.1281 212.189 81.6293C212.165 78.5062 208.356 77.8674 206.747 79.6892C193.403 83.4275 179.822 85.8172 165.91 85.5332C158.812 85.3676 151.761 84.7288 144.805 83.3565C138.346 82.0789 129.213 81.0378 129.308 72.7568C129.308 71.1716 128.243 70.2252 126.989 70.0359C126.303 69.7284 125.475 69.6337 124.529 69.9176C110.688 74.0581 96.3024 77.1576 81.7751 76.0692C74.7244 75.5487 66.3488 74.1055 60.1262 70.5565ZM83.8572 114.99C83.6916 108.909 83.5023 102.829 83.3367 96.7717C83.242 93.8852 83.1711 91.0224 82.9581 88.1595C82.9345 87.8992 82.8398 85.7935 82.4849 83.7351C95.9948 84.5632 109.883 81.8659 122.778 78.2223C123.653 81.8659 126.563 85.202 129.805 86.9765C136.95 90.9041 146.367 91.8031 154.293 92.7022C171.541 94.666 189.688 92.9388 206.061 86.9292C206.037 98.9721 205.966 111.039 205.399 123.058C205.02 120.881 204.334 118.799 203.127 117.025C199.365 111.465 191.558 110.045 185.359 109.383C181.644 108.98 177.906 108.957 174.167 109.217C169.151 109.051 162.266 109.075 157.96 112.127C155.358 113.996 154.411 117.309 154.08 120.361C153.678 124.028 153.489 127.79 153.418 131.552C147.763 129.683 139.222 129.233 134.064 132.001C134.277 126.891 134.206 121.142 131.437 117.025C127.676 111.465 119.844 110.045 113.669 109.383C109.954 108.98 106.192 108.957 102.454 109.217C97.438 109.051 90.553 109.075 86.2705 112.127C85.2058 112.884 84.4487 113.878 83.8572 114.99ZM202.11 138.958C202.086 139.431 202.039 139.904 201.992 140.353C201.684 144.186 201.471 149.155 199.01 152.349C196.597 155.472 192.173 155.945 188.553 156.253C183.631 156.679 178.734 156.49 173.813 156.111C169.625 155.78 165.106 155.803 161.77 152.846C159.806 151.095 158.646 148.611 158.102 146.056C157.038 141.276 157.109 135.858 156.943 130.96C156.683 124.643 155.689 115.818 163.733 114.398C173.055 112.766 184.601 111.441 193.687 114.777C203.695 118.444 202.867 129.99 202.11 138.958ZM92.0199 114.398C101.342 112.766 112.912 111.441 121.997 114.777C132.005 118.444 131.177 129.99 130.42 138.958C130.373 139.431 130.325 139.904 130.302 140.353C129.971 144.186 129.758 149.155 127.297 152.349C124.907 155.472 120.483 155.945 116.839 156.253C111.918 156.679 107.044 156.49 102.123 156.111C97.9112 155.78 93.4158 155.803 90.0561 152.846C88.0923 151.095 86.9566 148.611 86.3888 146.056C85.3478 141.276 85.4188 135.858 85.2295 130.96C84.9929 124.643 83.9991 115.818 92.0199 114.398ZM116.816 197.232C109.173 192.216 101.413 186.159 95.2613 179.345C89.0151 172.436 86.2942 164.345 85.3005 155.449C86.2942 156.537 87.5955 157.412 89.3226 158.004C96.3023 160.393 105.269 160.299 112.557 160.086C118.401 159.92 126.374 159.92 130.231 154.691C133.898 149.675 133.685 141.395 133.922 135.527C133.922 135.432 133.922 135.314 133.945 135.219C136.95 134.013 141.777 134.297 144.876 134.415C147.763 134.533 150.555 135.219 153.418 135.503C153.441 139.005 153.631 142.507 153.914 145.937C154.364 151.237 155.476 156.111 161.012 158.004C168.016 160.393 176.983 160.299 184.27 160.086C190.114 159.92 198.088 159.92 201.921 154.691C202.134 154.407 202.323 154.124 202.488 153.816C201.187 161.505 199.058 168.864 194.42 175.441C189.144 182.918 181.739 188.809 173.884 193.376C156.304 203.597 134.915 209.109 116.816 197.232ZM154.814 227.919C149.514 236.271 144.119 244.245 137.636 251.65C134.632 247.155 131.627 242.636 128.598 238.14C126.753 235.372 124.813 231.421 122.115 228.913C123.417 225.529 122.92 220.939 123.133 217.532C123.298 214.291 123.535 211.002 123.748 207.713C127.155 209.015 130.728 209.914 134.561 210.269C140.925 210.837 147.337 210.032 153.536 208.4C153.725 211.475 153.962 214.528 154.127 217.532C154.317 220.608 153.938 224.678 154.814 227.919ZM108.937 271.17C107.848 259.269 108.889 247.131 111.137 235.443C112.226 235.064 113.314 234.71 114.426 234.331C115.727 233.881 117.123 233.479 118.353 232.864C122.66 241.121 128.409 248.882 133.567 256.571C124.197 258.701 115.349 263.977 108.937 271.17ZM124.789 266.083C129.024 263.598 133.567 261.564 138.583 259.813C141.138 261.469 143.741 263.054 146.249 264.781C145.444 267.952 144.947 271.312 143.906 274.387C142.936 277.274 143.007 277.416 140.05 277.794C138.559 277.984 136.879 277.676 135.365 277.605C131.059 277.392 129.19 277.179 127.486 272.873C126.587 270.602 125.735 268.33 124.789 266.083ZM148.449 352.181C149.632 363.657 150.862 375.108 152.093 386.559C152.755 392.711 148.78 396.757 144.829 401.205C141.73 404.659 138.323 407.806 134.679 410.716C131.319 407.096 128.03 403.429 124.884 399.62C122.944 397.254 120.909 394.911 119.182 392.38C117.17 389.375 117.312 386.678 117.62 383.247C118.732 371.062 120.436 358.925 122.21 346.811C125.286 325.635 128.788 304.388 129.261 282.952C131.248 283.284 133.449 283.165 135.365 283.26C137.187 283.355 139.813 283.804 142.25 283.757C144.072 306.589 146.13 329.397 148.449 352.181ZM164.159 273.583C157.866 266.556 150.436 258.914 141.375 256.619C147.928 249.355 154.104 241.405 158.812 232.84C160.09 233.456 161.486 233.881 162.834 234.331C165.035 235.088 167.235 235.822 169.435 236.555C168.868 249.071 167.211 261.445 164.159 273.583Z" fill="#333333"/>
<path d="M238.238 82.0315C233.956 90.4308 228.017 98.0966 221.818 105.171C218.553 108.886 214.957 112.316 211.763 116.078C212.189 104.603 212.189 93.128 212.189 81.6293C212.165 78.5062 208.356 77.8673 206.747 79.6892C193.403 83.4274 179.822 85.8171 165.91 85.5332C158.812 85.3676 151.761 84.7287 144.805 83.3565C138.346 82.0788 129.213 81.0378 129.308 72.7568C129.308 71.1716 128.243 70.2252 126.989 70.0359C126.303 69.7283 125.475 69.6337 124.528 69.9176C110.687 74.0581 96.3019 77.1575 81.7747 76.0692C74.724 75.5487 66.3483 74.1054 60.1258 70.5564C56.8843 68.6873 52.8621 64.9253 56.0562 61.0214C57.7361 58.963 60.5753 58.2295 63.2489 57.638C63.7931 57.8273 64.3136 57.9693 64.8341 58.1113C69.0456 59.176 70.8201 52.7641 66.6323 51.5811C63.2725 50.6347 60.6226 48.5999 58.1147 46.2576C57.2156 45.4295 55.512 44.0335 55.2518 42.7796C54.6603 39.9877 57.878 38.5917 59.8418 38.0239C62.7283 37.1958 65.9698 37.1722 68.9036 37.8346C69.1639 37.882 69.5661 38.0476 70.0156 38.2605C70.0393 38.3078 70.0393 38.3788 70.0629 38.4261C71.3642 42.0934 76.7114 40.6502 75.907 36.7936C75.2208 33.4812 75.907 30.0505 78.5569 27.6845C81.893 24.7033 86.0335 25.7917 90.0557 26.4542C95.9233 27.4006 101.152 26.5488 106.428 23.8279C112.036 20.9177 116.72 16.5643 122.091 13.2755C128.763 9.20603 136.382 7.2659 144.119 6.57976C158.575 5.30212 174.522 6.62709 188.197 11.6667C195.295 14.2693 201.802 18.2205 207.125 23.615C212.07 28.6309 214.768 34.6169 218.033 40.6975C218.435 41.4546 219.381 41.3836 219.854 40.8394C220.091 40.9577 220.328 41.0287 220.588 41.0524C225.273 41.4546 229.318 41.4309 233.459 44.0572C237.339 46.5178 240.131 50.3035 241.645 54.6569C244.816 63.766 242.497 73.7032 238.238 82.0315Z" fill="#333333"/>
<path d="M100.71 325.195C92.107 324.253 83.4853 323.657 74.8565 323.543C68.7735 323.278 62.6739 323.245 56.5886 323.326C55.4127 323.342 54.665 324.248 54.5586 325.356C54.2037 329.047 53.9316 332.735 53.7376 336.421C53.6831 336.535 53.6713 336.663 53.7186 336.772C53.3093 344.795 53.3093 352.818 53.915 360.872C54.2013 364.705 54.225 368.812 58.6825 369.844C64.1645 371.112 70.6829 370.631 76.269 370.518C82.3496 370.397 88.4279 369.943 94.4541 369.129C98.5567 368.575 100.629 368.126 101.181 363.758C102.697 351.748 102.943 339.44 102.865 327.35C102.858 326.092 101.879 325.323 100.71 325.195ZM98.5591 329.29C98.5756 331.737 98.5638 334.181 98.5307 336.627C91.1322 336.362 83.7313 336.093 76.3329 335.832C72.4928 335.697 68.6528 335.596 64.8152 335.485C62.5864 335.421 60.2086 335.182 57.9183 335.345C58.0342 332.749 58.1975 330.156 58.4222 327.57C71.8256 327.544 85.2196 327.918 98.5591 329.29ZM97.2743 361.34C96.503 364.716 94.3523 364.797 91.1606 365.154C86.4901 365.679 81.796 366.004 77.0971 366.122C72.675 366.233 68.2483 366.162 63.8309 365.914C61.6353 365.791 60.8048 366.124 59.4704 364.087C58.401 362.452 58.3655 361.877 58.2377 360.065C58.0863 357.914 57.968 355.764 57.8852 353.608C57.6864 348.438 57.6509 343.257 57.8118 338.082C59.8513 338.378 61.976 338.369 63.9918 338.47C67.8318 338.664 71.6695 338.856 75.5095 339.026C83.1611 339.367 90.8128 339.677 98.4644 339.997C98.3509 344.96 98.1403 349.922 97.7925 354.876C97.6482 356.961 97.7404 359.308 97.2743 361.34Z" fill="#333333"/>
<path d="M40.0861 290.202C38.3353 298.608 38.9363 307.623 38.4087 316.183C37.8195 325.753 37.0979 335.314 36.3502 344.873C34.8809 363.633 33.4684 382.386 33.8091 401.217C33.8707 404.65 39.1729 404.664 39.1539 401.217C39.0522 382.4 40.3772 363.628 41.7802 344.873C42.4687 335.672 43.1998 326.466 43.6304 317.245C44.0421 308.437 45.2275 298.88 43.3583 290.202C43.0105 288.591 40.4245 288.576 40.0861 290.202Z" fill="#333333"/>
<path d="M223.153 292.08C218.442 298.201 218.769 309.669 218.248 317.158C217.6 326.47 217.413 335.806 217.242 345.136C216.892 364.345 216.417 383.562 216.362 402.774C216.35 406.436 221.956 406.429 222.045 402.774C222.514 383.912 222.571 365.038 222.777 346.172C222.874 337.188 222.966 328.2 223.453 319.226C223.713 314.408 224.104 309.594 224.527 304.791C224.894 300.638 225.975 296.344 224.743 292.289C224.506 291.51 223.595 291.508 223.153 292.08Z" fill="#333333"/>
</svg>
