<svg width="229" height="284" viewBox="0 0 229 284" fill="none" xmlns="http://www.w3.org/2000/svg">
<path d="M202.724 244.201C183.748 223.309 165.158 211.721 147.37 209.612C168.79 197.511 174.936 174.752 177.424 165.529C177.793 164.157 178.115 162.974 178.343 162.36C178.402 162.199 178.457 162.077 178.501 161.991C178.981 162.058 179.848 162.33 180.457 162.521C183.951 163.608 189.804 165.44 195.853 159.002C201.761 152.716 205.586 139.996 204.95 128.76C204.529 121.315 202.209 115.6 198.24 112.233C195.482 109.893 192.859 109.108 190.698 108.987C190.77 108.774 190.834 108.591 190.906 108.373C194.511 97.4636 198.742 81.9985 199.81 71.3097C200.547 63.951 200.837 55.4063 197.403 47.8124C194.412 41.1965 187.595 35.0907 179.665 34.7837C176.966 19.9302 169.672 11.1033 155.036 4.71022C145.04 0.34503 129.915 -3.52497 101.431 5.38615C83.71 10.9299 66.1477 11.8584 53.2502 7.92158C52.2672 7.62694 51.1951 7.82997 50.3954 8.48115C49.5956 9.13234 49.1722 10.1351 49.2639 11.1626C49.5288 14.0992 50.6553 16.9218 52.4034 19.2864C50.3681 20.0243 48.0754 21.1013 45.5276 22.5127C40.7068 25.1867 37.2602 28.8735 34.2494 32.4612C28.0817 39.8174 28.1906 50.9594 28.2748 59.9101L28.2896 61.579C28.3912 76.7494 31.8501 94.0195 37.4632 109.024C35.423 109.254 33.0213 110.109 30.5131 112.235C26.5441 115.603 24.2241 121.317 23.8031 128.763C23.1693 139.999 26.9947 152.718 32.8999 159.005C38.9463 165.44 44.7996 163.612 48.2957 162.523C48.9048 162.332 49.769 162.06 50.2518 161.993C50.2963 162.08 50.3508 162.201 50.4102 162.362C50.638 162.976 50.9599 164.162 51.3288 165.531C53.8172 174.757 59.9627 197.516 81.3825 209.614C63.5925 211.724 45.0051 223.311 26.0291 244.204C10.5615 261.234 0.823379 277.989 0.414838 278.697C-0.439382 280.178 0.0682003 282.069 1.54637 282.926C2.03414 283.206 2.56647 283.339 3.09138 283.339C4.16101 283.339 5.20095 282.785 5.77291 281.792C5.98089 281.43 17.4943 261.771 34.8213 243.941C43.4205 251.733 49.3877 262.625 51.2125 274.077C51.4551 275.599 52.7699 276.686 54.2654 276.686C54.4288 276.686 54.5897 276.674 54.7556 276.647C56.4443 276.379 57.5931 274.792 57.3257 273.104C55.3003 260.387 48.7117 248.292 39.2113 239.584C49.1599 230.108 60.7079 221.724 72.9691 217.8C74.7171 239.128 92.6038 255.96 114.375 255.96C136.147 255.96 154.031 239.13 155.781 217.802C168.035 221.729 179.581 230.115 189.532 239.591C180.039 248.299 173.453 260.389 171.427 273.104C171.157 274.792 172.309 276.377 173.997 276.647C174.163 276.674 174.327 276.686 174.488 276.686C175.983 276.686 177.298 275.599 177.54 274.077C179.363 262.63 185.327 251.741 193.922 243.949C211.249 261.776 222.767 281.43 222.978 281.792C223.832 283.275 225.728 283.783 227.207 282.923C228.687 282.069 229.195 280.178 228.338 278.697C227.93 277.989 218.191 261.231 202.724 244.201ZM57.3059 163.915C56.88 162.332 56.5408 161.084 56.214 160.201C54.924 156.732 52.6535 155.825 50.4969 155.825C48.9568 155.825 47.4737 156.286 46.4536 156.605C43.2967 157.588 40.8009 158.371 37.4137 154.758C32.7168 149.759 29.4534 138.491 29.9832 129.104C30.3002 123.476 31.912 119.158 34.5168 116.947C36.245 115.484 37.8594 114.912 39.4886 115.212C39.6793 115.246 39.865 115.33 40.0531 115.387C42.0215 119.904 44.1782 124.148 46.5056 127.943C49.6031 132.984 53.0793 132.464 54.4312 132.004C60.3216 129.998 61.0917 101.121 61.0843 100.836C61.0397 99.0433 61.8147 97.3374 63.2062 96.1563C68.438 91.7218 71.6048 85.3857 73.6896 78.9729C78.6886 83.4297 87.424 83.9843 96.2336 83.9174C106.105 83.8184 123.544 80.3025 141.44 70.8516C143.807 75.6427 147.43 77.4724 149.626 78.1632C151.156 78.6461 152.766 78.8218 154.291 78.7253C154.046 87.114 157.302 95.4853 163.318 101.44C164.111 102.225 164.965 102.988 165.822 103.755C168.387 106.048 170.811 108.214 171.234 110.839C171.308 111.307 171.395 112.939 171.482 114.516C172.096 126.066 172.668 132.606 177.278 132.697C177.367 132.7 177.456 132.702 177.548 132.702C179.415 132.702 182.393 131.939 188.43 115.474C188.705 115.378 188.975 115.269 189.254 115.217C190.876 114.917 192.5 115.489 194.226 116.952C196.831 119.163 198.443 123.481 198.762 129.109C199.292 138.496 196.029 149.764 191.334 154.763C187.942 158.373 185.454 157.593 182.294 156.61C179.843 155.845 174.745 154.256 172.534 160.203C172.207 161.087 171.868 162.335 171.442 163.917C167.946 176.871 158.658 211.283 114.37 211.283C70.0821 211.283 60.802 176.869 57.3059 163.915ZM138.321 213.697C137.603 226.297 127.154 236.338 114.375 236.338C101.597 236.338 91.1479 226.297 90.4298 213.697C97.172 216.062 105.08 217.473 114.375 217.473C123.673 217.47 131.578 216.062 138.321 213.697ZM114.378 249.765C95.4834 249.765 80.0455 234.869 79.0798 216.21C80.8254 215.881 82.5858 215.678 84.3512 215.556C85.9705 230.695 98.8136 242.525 114.375 242.525C129.937 242.525 142.78 230.695 144.399 215.556C146.165 215.678 147.925 215.883 149.671 216.213C148.707 234.869 133.27 249.765 114.378 249.765ZM93.3689 98.4887C93.0891 99.848 89.692 100.281 85.7279 100.467C81.7638 100.613 78.342 100.465 77.9508 99.135C77.5521 97.8474 80.8774 95.7057 85.5224 95.52C90.1674 95.317 93.661 97.174 93.3689 98.4887ZM135.384 98.4887C135.094 97.174 138.588 95.317 143.231 95.52C147.876 95.7057 151.201 97.8499 150.802 99.135C150.411 100.465 146.987 100.613 143.023 100.467C139.061 100.281 135.661 99.848 135.384 98.4887ZM93.3689 122.32C93.3689 125.901 90.4645 128.805 86.8842 128.805C83.3039 128.805 80.3996 125.901 80.3996 122.32C80.3996 118.74 83.3039 115.836 86.8842 115.836C90.4645 115.836 93.3689 118.74 93.3689 122.32ZM135.384 122.32C135.384 118.74 138.288 115.836 141.869 115.836C145.449 115.836 148.353 118.74 148.353 122.32C148.353 125.901 145.449 128.805 141.869 128.805C138.286 128.805 135.384 125.903 135.384 122.32ZM109.619 155.055C108.799 154.095 108.732 153.161 109.171 152.656C110.136 151.681 112.177 152.012 114.068 151.99C115.957 152.097 118.01 151.854 118.931 152.872C119.347 153.396 119.238 154.325 118.379 155.251C117.545 156.165 115.905 156.987 113.959 156.942C112.011 156.898 110.411 156.004 109.619 155.055ZM122.704 174.418C120.937 175.874 117.698 177.268 114.021 177.094C110.349 176.966 107.405 175.51 105.61 174.222C103.805 172.88 103.038 171.645 103.377 171.075C104.112 169.798 108.874 171.905 114.207 172.145C119.496 172.474 123.809 169.926 124.727 171.075C125.126 171.588 124.517 172.949 122.704 174.418Z" fill="black"/>
</svg>
