<svg width="393" height="374" viewBox="0 0 393 374" fill="none" xmlns="http://www.w3.org/2000/svg">
<path d="M102.726 265.059L94.6386 236.212L70.3652 258.576L102.726 265.059Z" fill="#211E23"/>
<path d="M97.1137 262.6L91.8687 243.901L78.9375 257.614L97.1137 262.6Z" fill="#4D4A4F"/>
<path d="M16.0981 303.769L0 278.504L32.8521 275.337L16.0981 303.769Z" fill="#211E23"/>
<path d="M18.0113 297.945L7.58203 281.565L26.4188 281.08L18.0113 297.945Z" fill="#4D4A4F"/>
<path d="M118.227 277.199C128.167 299.455 113.083 327.857 84.5272 340.617C55.9667 353.382 24.7466 345.678 14.7974 323.419C4.85053 301.159 19.9433 272.765 48.5015 260.003C77.0597 247.243 108.278 254.943 118.227 277.199Z" fill="#211E23"/>
<path d="M71.6861 311.651C71.6861 311.651 71.6163 311.69 71.6005 311.694C71.5689 311.712 71.5239 311.728 71.5239 311.728C70.6921 312.111 66.511 314.176 68.055 315.587C69.6891 317.088 72.1685 318.181 74.0866 317.46C74.0866 317.46 74.143 317.457 74.1678 317.444C74.1904 317.437 74.2467 317.392 74.2467 317.392C76.0522 316.448 76.9019 313.867 76.8681 311.649C76.8411 309.557 72.5088 311.297 71.6861 311.651Z" fill="#4D4A4F"/>
<path d="M84.9368 295.4C84.9368 295.4 82.9691 278.119 103.471 278.957C103.471 278.957 106.521 297.724 84.9368 295.4Z" fill="#ECC049"/>
<path d="M89.9519 282.437C89.9519 282.437 91.1397 282.548 92.4087 283.147C93.7409 283.7 95.1181 284.75 96.2 286.048C97.2774 287.358 98.0482 288.915 98.3345 290.322C98.6816 291.681 98.5599 292.876 98.5599 292.876C98.5599 292.876 97.3721 292.765 96.1008 292.166C94.7709 291.613 93.3915 290.558 92.3164 289.258C91.2435 287.944 90.4748 286.391 90.1886 284.984C89.8392 283.623 89.9519 282.437 89.9519 282.437Z" fill="#211E23"/>
<path d="M50.5658 310.761C50.5658 310.761 39.0051 297.767 25.9521 313.594C25.9521 313.594 37.9051 328.387 50.5658 310.761Z" fill="#ECC049"/>
<path d="M37.5645 305.85C37.5645 305.85 36.8545 306.81 36.4578 308.153C35.9867 309.508 35.8402 311.239 36.0904 312.914C36.3429 314.586 36.9943 316.202 37.8486 317.352C38.6329 318.515 39.6022 319.223 39.5977 319.227C39.5977 319.227 40.3077 318.262 40.7112 316.917C41.1823 315.56 41.322 313.829 41.0718 312.159C40.8103 310.488 40.1567 308.877 39.3069 307.727C38.527 306.555 37.5645 305.85 37.5645 305.85Z" fill="#211E23"/>
<path d="M102.896 299.148C112.803 291.126 122.705 283.104 132.613 275.085C133.977 273.98 132.239 271.866 130.871 272.977C120.969 280.999 111.067 289.019 101.161 297.039C99.7927 298.145 101.528 300.262 102.896 299.148Z" fill="#211E23"/>
<path d="M103.055 300.228C114.679 295.01 126.303 289.785 137.929 284.57C139.54 283.842 138.427 281.349 136.815 282.074C125.189 287.29 113.561 292.51 101.939 297.733C100.327 298.452 101.443 300.947 103.055 300.228Z" fill="#211E23"/>
<path d="M100.713 303.58C113.225 301.188 125.741 298.797 138.255 296.403C139.993 296.069 139.58 293.367 137.847 293.703C125.331 296.096 112.812 298.486 100.296 300.879C98.569 301.206 98.977 303.911 100.713 303.58Z" fill="#211E23"/>
<path d="M41.3674 326.647C28.7923 328.671 16.2038 330.695 3.62644 332.724C1.88635 333.006 1.46706 330.303 3.21165 330.021C15.7935 327.993 28.3798 325.971 40.9571 323.945C42.6995 323.663 43.121 326.365 41.3674 326.647Z" fill="#211E23"/>
<path d="M42.0731 327.479C30.429 332.659 18.7871 337.836 7.14295 343.02C5.52908 343.733 4.41335 341.24 6.02496 340.525C17.6714 335.339 29.3088 330.161 40.9529 324.984C42.5646 324.267 43.6802 326.76 42.0731 327.479Z" fill="#211E23"/>
<path d="M46.1346 327.97C36.0006 335.697 25.8689 343.428 15.7327 351.155C14.3352 352.221 12.5883 350.114 13.997 349.043C24.1243 341.316 34.2605 333.585 44.3923 325.858C45.7942 324.79 47.5388 326.904 46.1346 327.97Z" fill="#211E23"/>
<path d="M288.233 373.627H318.869C318.869 373.627 349.506 242.726 323.743 188.416C297.979 134.106 206.764 125.748 169.168 196.073C131.569 266.398 116.888 319.403 64.0298 342.294C34.7143 354.989 13.1977 359.003 13.8964 373.625H34.7842C34.7842 373.625 45.6012 367.415 56.3685 363.879C72.0135 358.737 130.566 339.188 155.754 312.569C182.045 284.777 220.692 237.152 263.863 255.953C307.031 274.751 306.337 335.33 305.638 360.394C305.638 360.394 288.93 354.827 288.233 373.627Z" fill="#211E23"/>
<path d="M279.04 208.47C256.854 175.674 243.689 133.243 250.169 93.8067C257.693 48.0302 295.806 -6.48732 347.758 0.630808C390.456 6.48219 411.528 65.2259 368.213 87.3129C353.461 94.8322 336.912 92.1432 327.091 78.2992C318.323 65.936 322.421 50.4983 334.509 42.4132C338.203 39.9429 342.455 45.402 338.742 47.8859C325.712 56.5954 327.292 71.9767 339.209 80.9115C355.23 92.9344 375.593 76.7596 382.591 62.2732C390.911 45.0368 381.798 25.9973 367.523 15.5433C349.129 2.07562 324.303 5.24474 305.967 16.4854C269.362 38.924 251.738 87.7366 256.081 128.847C258.851 154.978 269.761 182.434 284.513 204.237C286.997 207.913 281.54 212.164 279.04 208.47Z" fill="#211E23"/>
</svg>
