<svg width="278" height="414" viewBox="0 0 278 414" fill="none" xmlns="http://www.w3.org/2000/svg">
<path d="M28.9557 283.229C30.8603 278.84 32.9235 274.501 35.5616 270.509C36.1058 269.684 37.0687 268.77 37.93 269.253C38.2304 269.421 38.4221 269.726 38.6019 270.02C48.9318 287.05 53.5976 307.452 51.6929 327.279C51.1582 332.851 50.1219 338.366 49.5328 343.936C48.946 349.491 48.8088 355.084 48.6716 360.668C48.2505 377.767 47.8293 394.866 47.4082 411.963C35.2824 413.281 22.4185 414 10.2714 412.491C-0.31644 411.178 4.66638 396.854 5.39038 389.018C7.52924 365.809 10.6405 342.608 16.4727 320.013C19.7094 307.464 23.7907 295.123 28.9557 283.229Z" fill="#C7B299"/>
<path d="M233.631 290.064C232.938 296.116 232.242 302.169 231.549 308.221C230.489 317.46 229.429 326.702 228.369 335.941C225.516 360.81 222.66 385.752 222.821 410.782C239.359 412.259 256.059 411.918 272.524 409.767C273.733 395.777 271.255 381.759 268.79 367.934C264.59 344.395 260.381 320.815 254.047 297.758C251.802 289.579 249.287 279.148 243.424 272.679C239.797 268.676 238.138 272.726 236.404 276.933C234.696 281.076 234.138 285.647 233.631 290.064Z" fill="#C7B299"/>
<path d="M269.589 346.37C265.969 328.081 261.332 309.863 255.157 292.284C252.46 284.618 250.046 276.171 244.888 269.759C240.653 264.483 234.715 261.005 228.563 258.426C211.599 251.234 193.31 246.478 175.801 240.752C171.921 239.474 164.397 238.552 161.676 235.523C160.54 234.269 160.233 231.572 160.162 228.828C160.091 226.84 160.162 224.829 160.138 223.291C169.531 218.086 178.333 211.65 186.401 204.552C189.926 201.429 193.664 198.188 196.243 194.166C198.964 189.93 199.745 185.009 200.289 180.088C200.337 179.473 200.408 178.858 200.478 178.242C216.615 178.621 231.236 163.739 227.072 147.082C226.126 143.249 224.091 139.819 221.228 137.453C222.411 134.164 223.594 130.875 224.801 127.61C226.126 123.919 227.143 119.211 229.604 116.111C232.443 112.539 235.424 110.338 236.868 105.748C239.234 98.248 237.341 89.8487 231.994 84.1939C233.981 76.5518 235.661 68.7913 234.312 60.8888C232.987 53.2466 229.273 46.2433 224.422 40.281C219.194 33.8691 212.616 28.5929 205.755 24.0265C199.769 20.0517 193.428 17.1888 186.33 18.0169C175.564 5.76103 159.168 -0.532531 142.961 0.0353092C126.967 0.603149 108.323 7.58285 97.108 19.7204C91.0983 13.8291 81.9892 13.2139 75.1515 18.6321C73.6136 19.8861 72.2413 21.3293 71.1529 22.9855C69.3784 25.6354 69.4494 24.5707 66.1843 24.973C61.4287 25.5408 57.2172 28.0014 53.5499 30.9826C42.2404 40.2573 23.8566 67.348 35.0241 81.8989C28.7779 85.8738 25.7494 94.3204 26.2699 101.608C27.0034 111.852 36.4911 115.614 45.3872 116.395C45.5055 119.991 46.1916 123.47 46.8778 127.019C47.4929 130.118 47.9188 133.217 49.3621 135.938C48.1318 138.02 47.2327 140.363 46.7358 142.776C43.1868 159.22 56.8387 176.326 73.5426 176.634C73.7082 184.465 74.3943 192.32 79.0554 198.898C84.7811 206.966 93.7009 213.449 101.982 218.701C106.643 221.659 111.777 224.592 117.101 226.935C117.101 227.55 117.101 228.189 117.053 228.828C117.006 231.572 116.675 234.246 115.563 235.523C112.842 238.552 105.318 239.474 101.438 240.752C83.9294 246.478 65.6401 251.234 48.6523 258.426C42.5243 261.005 36.5857 264.483 32.3506 269.759C27.1927 276.171 24.7794 284.618 22.0821 292.284C15.9069 309.863 11.2695 328.081 7.6495 346.37C3.6273 366.718 1.14298 387.349 0.00729908 408.052C-0.276621 413.257 7.81513 413.234 8.09905 408.052C10.1102 370.646 17.0662 333.925 28.1864 298.175C30.789 289.847 32.7528 279.436 38.7388 272.788C38.7861 272.74 38.8334 272.693 38.8807 272.622C41.7673 282.536 44.5118 292.213 45.8368 302.576C47.351 314.216 47.5166 326.023 47.2563 337.758C46.7121 361.891 46.3573 386.166 45.0087 410.276C44.7957 414.085 50.7343 414.062 50.9473 410.276C51.6807 397.618 51.6334 384.936 51.9883 372.278C52.3432 359.715 53.0767 347.175 53.195 334.611C53.4079 313.436 52.6745 288.735 42.1694 269.617C47.2563 265.713 53.6445 263.466 59.6068 261.431C71.3185 257.48 83.0539 253.6 94.7656 249.719C93.7719 263.253 95.8304 277.07 98.6222 290.273C98.9771 291.929 101.367 293.064 102.81 291.976C106.548 289.208 110.287 286.416 114.451 284.31C118.378 282.323 122.259 281.66 126.375 280.809C127.748 282.772 129.167 284.689 130.752 286.392C130.871 286.534 131.013 286.653 131.131 286.795C129.593 294.011 130.516 302.528 130.421 309.65C130.374 313.885 130.327 318.097 130.327 322.332C130.303 326.33 129.664 330.92 130.682 334.824C130.918 335.723 131.699 336.528 132.622 336.764C136.36 337.663 140.784 337.001 144.617 336.93C148.356 336.859 148.356 330.968 144.617 331.11C141.944 331.228 138.584 331.819 135.697 331.607C135.272 328.034 136.076 323.586 136.194 320.202C136.336 315.991 136.431 311.756 136.526 307.544C136.667 301.274 137.614 293.94 136.644 287.457C138.844 285.919 140.571 282.796 142.109 280.88C142.275 280.667 142.44 280.43 142.63 280.217C152.023 280.075 160.351 280.738 167.638 288.143C168.869 289.373 171.59 288.971 171.874 287.031C173.79 274.042 175.588 261.052 177.41 248.063C190.825 252.511 204.24 256.888 217.632 261.431C224.257 263.679 231.378 266.21 236.655 270.966C235.543 272.362 234.809 274.136 234.265 275.887C232.443 281.85 231.662 288.261 230.645 294.413C228.587 306.669 226.907 318.972 225.653 331.323C223.027 357.088 221.299 383.54 222.033 409.472C222.127 413.186 227.593 413.163 227.782 409.472C229.036 385.457 228.847 361.513 231.047 337.545C232.159 325.715 233.555 313.909 235.33 302.15C236.205 296.306 237.199 290.485 238.193 284.665C238.76 281.447 239.636 278.395 240.464 275.319C244.959 281.897 246.757 290.84 249.052 298.175C260.173 333.925 267.129 370.646 269.14 408.052C269.4 413.234 277.515 413.257 277.232 408.052C276.096 387.349 273.612 366.718 269.589 346.37ZM220.4 154.157C219.265 164.259 210.818 170.695 201.212 170.955C202.087 162.083 202.844 153.163 203.554 144.267C206.654 140.623 212.853 139.582 216.733 142.776C219.974 145.45 220.85 150.205 220.4 154.157ZM53.9521 149.543C53.6209 143.722 55.632 136.08 62.3751 135.394C66.8468 134.921 69.615 137.24 72.7145 139.464C72.9274 149.141 73.1641 158.794 73.4007 168.447C63.5344 166.483 54.6146 160.971 53.9521 149.543ZM62.5407 111.711C58.8498 112.42 59.7962 118.122 63.4161 118.146C66.3973 118.146 69.2365 117.578 71.981 116.561C72.123 121.577 72.4542 126.593 72.5489 131.396V131.963C69.8989 130 66.5865 128.675 64.2679 128.273C60.6242 127.634 57.4065 128.438 54.7566 130.142C54.4253 128.769 54.0468 127.397 53.7155 125.977C52.7928 122.003 52.1303 118.004 50.758 114.171C50.9946 112.562 50.0719 110.74 47.9662 110.669C40.9865 110.48 32.0903 108.658 32.1376 99.9515C32.1849 94.1548 35.0005 87.1988 41.1048 85.8028C43.8493 85.1877 43.7783 81.7096 41.8145 80.29C33.5099 74.2804 39.7325 60.1554 43.4708 53.1283C47.2091 46.054 52.4142 38.6248 59.0627 33.9874C62.5171 31.5741 65.7348 30.9826 69.828 30.604C72.5016 30.3674 73.3533 30.1072 74.9385 27.7885C79.8125 20.5249 87.5493 17.875 95.4044 21.6842C95.1678 21.9918 94.9076 22.2757 94.671 22.5833C93.6063 23.9556 94.9313 26.2506 96.6821 25.1859C111.328 16.3607 124.27 6.61279 142.133 5.83201C157.725 5.16953 173.104 11.0609 183.112 23.2221C183.798 24.0502 185.005 24.1685 185.951 23.9792C193.073 22.4886 199.485 26.7238 205.045 30.675C210.747 34.7209 216.212 39.3109 220.519 44.8473C224.328 49.745 227.333 55.4707 228.397 61.6223C229.746 69.3355 227.758 76.9066 225.771 84.3122C225.511 85.3059 225.747 86.5126 226.528 87.2224C233.106 93.0901 233.697 103.24 227.687 109.747C224.541 113.154 222.908 115.449 221.252 119.897C219.454 124.794 217.679 129.739 215.905 134.661C214.982 134.4 214.012 134.211 213.018 134.14C210.368 133.951 207.103 134.448 204.24 135.631C204.95 126.025 205.636 116.419 206.275 106.813C206.985 106.647 207.695 106.482 208.428 106.269C212.309 105.157 210.652 99.1234 206.748 100.212C192.056 104.352 178.451 96.3788 170.738 84.0756C169.224 81.686 164.965 82.4904 165.13 85.5899C165.556 93.516 167.425 105.464 155.524 104.234C147.575 103.382 140.524 97.5382 136.265 91.1026C134.443 88.3344 129.498 89.9906 130.658 93.4686C132.314 98.3899 134.775 106.316 127.937 108.54C122.921 110.173 117.881 106.789 114.238 103.69C107.4 97.8457 102.408 90.2982 98.149 82.4667C99.0481 78.6338 99.474 74.8955 99.332 71.4648C99.2847 70.3055 97.4865 69.5721 96.9423 70.826C89.6787 87.8376 82.9593 107.736 62.5407 111.711ZM109.908 214.49C101.769 209.805 93.5353 204.008 87.3128 196.887C80.0255 188.582 81.3504 177.249 81.0902 166.909C80.7826 154.701 80.4513 142.516 80.0491 130.331C79.8598 124.487 79.9781 118.359 79.7415 112.278C86.8868 106.908 92.5179 98.4846 95.8777 89.754C100.799 100.496 109.979 111.64 121.005 114.479C126.352 115.851 132.622 114.644 136.1 110.054C137.756 107.854 138.442 105.37 138.584 102.814C144.168 107.617 151.147 110.859 158.529 110.338C163.001 110.007 167.284 107.901 169.602 103.95C171.235 101.182 171.708 98.1533 171.732 95.0539C178.948 102.601 188.388 107.499 198.704 107.617C197.545 125.386 196.338 143.155 194.989 160.923C194.611 165.963 194.232 171.002 193.806 176.042C193.309 182.052 192.978 188.061 188.838 192.817C182.521 200.057 173.814 205.948 165.746 211.059C157.465 216.288 147.551 222.984 137.567 223.812C128.032 224.616 117.929 219.08 109.908 214.49ZM103.283 284.618C100.941 272.457 100.515 260.319 100.16 247.945C101.083 247.637 102.029 247.306 102.952 246.998C107.873 255.918 114.711 264.081 120.65 272.338C121.572 273.616 122.471 274.965 123.371 276.337C116.344 276.053 109.127 280.454 103.283 284.618ZM141.092 272.693C139.98 274.136 136.455 279.578 134.349 281.779C132.006 279.152 130.066 275.651 128.079 272.977C125.524 269.475 122.945 265.974 120.366 262.496C116.225 256.841 112.25 250.76 107.566 245.46C109.837 244.703 112.132 243.946 114.403 243.165C117.172 242.243 120.2 241.486 121.691 238.741C123.087 236.138 123.063 232.471 123.063 229.23C125.689 230.081 128.315 230.768 130.965 231.194C137.164 232.187 143.079 230.981 148.71 228.828C150.556 228.118 152.354 227.337 154.129 226.462C154.176 227.195 154.176 227.999 154.176 228.828C154.176 232.164 154.081 236.02 155.548 238.741C156.802 241.06 159.168 241.959 161.558 242.74C157.11 249.625 152.733 256.533 148.048 263.205C145.777 266.4 143.482 269.57 141.092 272.693ZM167.567 281.518C161.629 277.189 153.584 274.302 146.392 275.414C147.906 273.427 149.397 271.416 150.887 269.381C156.66 261.478 162.102 253.339 166.787 244.727C166.834 244.656 166.834 244.585 166.881 244.538C168.727 245.153 170.572 245.768 172.418 246.383C170.809 258.095 169.153 269.807 167.567 281.518Z" fill="#333333"/>
<path d="M144.819 306.357C145.356 306.347 145.862 306.229 146.323 306.028C146.648 305.964 146.96 305.853 147.234 305.67C148.339 304.935 149.042 303.922 149.047 302.538C149.051 301.738 148.822 300.988 148.432 300.3C148.193 299.876 147.871 299.521 147.502 299.233C147.052 298.79 146.515 298.442 145.909 298.277C145.164 298.071 144.428 298.18 143.773 298.49C143.73 298.502 143.685 298.504 143.643 298.516C141.617 299.098 140.418 301.298 140.941 303.319C141.4 305.081 142.961 306.392 144.819 306.357Z" fill="#333333"/>
<path d="M147.179 316.109C145.192 314.886 142.592 315.454 141.319 317.422C140.645 318.466 140.526 319.767 140.888 320.912C141.354 322.668 142.835 323.889 144.757 324.028C146.332 324.142 147.958 323.262 148.736 321.887C149.865 319.895 149.11 317.299 147.179 316.109Z" fill="#333333"/>
<path d="M153.071 179.014C155.385 176.771 152.021 173.674 149.622 175.564C145.015 179.198 139.573 182.404 133.495 181.822C127.653 181.264 125.552 176.806 121.071 174.045C120.007 173.39 118.845 174.469 119.077 175.578C120.421 181.959 126.858 186.649 133.119 187.373C140.868 188.267 147.708 184.21 153.071 179.014Z" fill="#333333"/>
<path d="M139.549 156.139C140.685 153.695 140.337 151.263 140.285 148.611C140.233 145.937 140.086 143.266 139.672 140.623C139.3 138.255 135.259 138.252 134.888 140.623C134.474 143.266 134.327 145.94 134.275 148.611C134.223 151.263 133.875 153.695 135.011 156.139C135.806 157.862 138.749 157.862 139.549 156.139Z" fill="#333333"/>
<path d="M112.246 137.964C105.039 135.666 93.4055 135.319 88.5411 142.329C88.0489 143.039 88.702 144.066 89.523 144.04C91.8842 143.964 94.165 143.325 96.4742 142.819C96.4104 143.003 96.3512 143.185 96.3015 143.368C95.2889 147.021 95.4474 152.103 98.1494 155.053C100.719 157.862 105.775 157.684 107.064 153.667C107.729 151.594 107.476 149.115 107.296 146.992C107.164 145.443 106.984 143.862 106.428 142.421C107.876 142.629 109.317 142.944 110.76 143.363C114.233 144.371 115.665 139.054 112.246 137.964Z" fill="#333333"/>
<path d="M164.445 144.042C166.806 143.966 169.087 143.327 171.396 142.821C171.332 143.006 171.273 143.188 171.223 143.37C170.211 147.023 170.369 152.105 173.071 155.056C175.641 157.864 180.697 157.687 181.986 153.669C182.651 151.596 182.398 149.117 182.218 146.995C182.086 145.445 181.906 143.864 181.35 142.423C182.798 142.632 184.239 142.946 185.682 143.365C189.16 144.373 190.591 139.057 187.17 137.966C179.963 135.669 168.33 135.321 163.465 142.331C162.971 143.039 163.624 144.068 164.445 144.042Z" fill="#333333"/>
<path d="M92.4725 132.127C95.1011 132.59 97.6611 132.228 100.313 132.207C103.051 132.186 105.76 132.486 108.49 132.522C113.454 132.588 114.689 124.83 109.68 123.723C104.35 122.544 96.2793 122.627 91.6609 125.899C89.5291 127.411 89.3186 131.571 92.4725 132.127Z" fill="#333333"/>
<path d="M165.293 131.85C168.303 133.234 171.192 132.548 174.428 132.406C177.89 132.255 181.332 132.517 184.789 132.652C189.472 132.834 190.695 125.123 185.918 124.321C182.087 123.678 178.302 123.576 174.428 123.898C171.01 124.182 167.151 124.328 164.655 126.893C163.356 128.23 163.396 130.977 165.293 131.85Z" fill="#333333"/>
<path d="M227.688 109.747C224.541 113.154 222.908 115.449 221.252 119.897C219.454 124.794 217.68 129.739 215.905 134.661C214.982 134.4 214.012 134.211 213.019 134.14C210.369 133.951 207.104 134.448 204.241 135.631C204.95 126.025 205.637 116.419 206.275 106.813C206.985 106.647 207.695 106.482 208.429 106.269C212.309 105.157 210.653 99.1234 206.749 100.212C192.056 104.352 178.451 96.3788 170.738 84.0756C169.224 81.686 164.965 82.4904 165.131 85.5899C165.557 93.516 167.426 105.464 155.525 104.234C147.575 103.382 140.524 97.5382 136.266 91.1027C134.444 88.3344 129.499 89.9906 130.658 93.4687C132.314 98.3899 134.775 106.316 127.937 108.54C122.921 110.173 117.882 106.789 114.238 103.69C107.4 97.8458 102.408 90.2982 98.1493 82.4667C99.0483 78.6338 99.4742 74.8955 99.3323 71.4648C99.2849 70.3055 97.4868 69.572 96.9426 70.826C89.679 87.8376 82.9596 107.736 62.541 111.711C58.85 112.42 59.7964 118.122 63.4164 118.146C66.3976 118.146 69.2368 117.578 71.9813 116.561C72.1233 121.577 72.4545 126.593 72.5491 131.396V131.963C69.8992 130 66.5868 128.675 64.2681 128.273C60.6245 127.634 57.4068 128.438 54.7568 130.142C54.4256 128.769 54.047 127.397 53.7158 125.977C52.793 122.003 52.1306 118.004 50.7583 114.171C50.9949 112.562 50.0722 110.74 47.9664 110.669C40.9867 110.48 32.0906 108.658 32.1379 99.9515C32.1852 94.1548 35.0008 87.1988 41.105 85.8028C43.8496 85.1877 43.7786 81.7096 41.8148 80.29C33.5102 74.2804 39.7328 60.1554 43.471 53.1283C47.2093 46.054 52.4145 38.6248 59.063 33.9874C62.5173 31.5741 65.7351 30.9826 69.8282 30.604C72.5018 30.3674 73.3536 30.1072 74.9388 27.7885C79.8128 20.5249 87.5496 17.8749 95.4047 21.6842C95.1681 21.9918 94.9078 22.2757 94.6712 22.5833C93.6065 23.9556 94.9315 26.2506 96.6824 25.1859C111.328 16.3607 124.27 6.61278 142.133 5.832C157.725 5.16952 173.104 11.0609 183.112 23.2221C183.798 24.0502 185.005 24.1685 185.952 23.9792C193.073 22.4886 199.485 26.7238 205.045 30.675C210.747 34.7209 216.213 39.3109 220.519 44.8473C224.328 49.745 227.333 55.4707 228.398 61.6223C229.746 69.3354 227.759 76.9066 225.771 84.3122C225.511 85.3059 225.748 86.5126 226.528 87.2224C233.106 93.0901 233.697 103.24 227.688 109.747Z" fill="#333333"/>
</svg>
