<svg width="275" height="304" viewBox="0 0 275 304" fill="none" xmlns="http://www.w3.org/2000/svg">
<path d="M121.948 132.958L126.395 102.937L94.7012 113.583L121.948 132.958Z" fill="#211E23"/>
<path d="M117.773 128.36L120.652 108.906L103.025 116.238L117.773 128.36Z" fill="#4D4A4F"/>
<path d="M25.8433 132.958L21.3984 102.937L53.0897 113.583L25.8433 132.958Z" fill="#211E23"/>
<path d="M30.0225 128.36L27.1396 108.906L44.7682 116.238L30.0225 128.36Z" fill="#4D4A4F"/>
<path d="M131.263 150.589C131.263 175.279 105.576 195.308 73.8942 195.308C42.2075 195.308 16.5254 175.279 16.5254 150.589C16.5254 125.892 42.2097 105.876 73.8942 105.876C105.576 105.878 131.263 125.892 131.263 150.589Z" fill="#211E23"/>
<path d="M73.9907 163.22C73.9907 163.22 73.9096 163.22 73.8938 163.22C73.86 163.22 73.8082 163.22 73.8082 163.22C72.8818 163.229 68.1664 163.41 69.0071 165.355C69.8975 167.415 71.7435 169.452 73.8082 169.579C73.8082 169.579 73.86 169.601 73.8938 169.601C73.9186 169.601 73.9907 169.579 73.9907 169.579C76.0486 169.452 77.8969 167.415 78.785 165.355C79.6212 163.41 74.8968 163.229 73.9907 163.22Z" fill="#4D4A4F"/>
<path d="M92.959 153.666C92.959 153.666 98.2807 136.875 116.892 146.115C116.892 146.115 111.958 164.737 92.959 153.666Z" fill="#ECC049"/>
<path d="M102.957 143.748C102.953 143.748 104.008 144.343 104.932 145.423C105.928 146.48 106.773 148.024 107.242 149.676C107.693 151.326 107.758 153.089 107.445 154.506C107.204 155.908 106.602 156.963 106.602 156.963C106.602 156.963 105.545 156.366 104.619 155.291C103.62 154.225 102.775 152.683 102.32 151.038C101.871 149.381 101.806 147.623 102.119 146.203C102.36 144.801 102.957 143.748 102.957 143.748Z" fill="#211E23"/>
<path d="M54.8343 153.666C54.8343 153.666 49.5126 136.875 30.9014 146.115C30.9014 146.115 35.8331 164.737 54.8343 153.666Z" fill="#ECC049"/>
<path d="M44.8354 143.748C44.8354 143.748 43.7805 144.343 42.8542 145.423C41.8601 146.48 41.0104 148.024 40.5483 149.676C40.0953 151.326 40.0299 153.089 40.3432 154.506C40.5844 155.908 41.1907 156.963 41.1862 156.963C41.1862 156.963 42.2433 156.366 43.172 155.291C44.1637 154.225 45.0135 152.683 45.4688 151.038C45.9128 149.381 45.9782 147.623 45.6694 146.203C45.4305 144.801 44.8354 143.748 44.8354 143.748Z" fill="#211E23"/>
<path d="M108.02 164.555C120.496 161.232 132.963 157.905 145.436 154.578C147.163 154.119 146.428 151.448 144.701 151.907C132.228 155.234 119.761 158.557 107.285 161.884C105.558 162.343 106.291 165.017 108.02 164.555Z" fill="#211E23"/>
<path d="M107.72 165.612C120.627 165.592 133.535 165.567 146.439 165.549C148.231 165.544 148.231 162.774 146.439 162.779C133.535 162.801 120.627 162.821 107.72 162.842C105.931 162.844 105.931 165.614 107.72 165.612Z" fill="#211E23"/>
<path d="M104.168 167.746C116.727 170.71 129.289 173.668 141.855 176.627C143.595 177.037 144.332 174.366 142.592 173.959C130.026 170.999 117.469 168.037 104.9 165.078C103.167 164.665 102.428 167.341 104.168 167.746Z" fill="#211E23"/>
<path d="M39.7612 164.555C27.2876 161.232 14.8162 157.905 2.34257 154.578C0.618257 154.119 1.34855 151.448 3.07737 151.907C15.5487 155.234 28.0246 158.557 40.4983 161.884C42.2226 162.343 41.4923 165.017 39.7612 164.555Z" fill="#211E23"/>
<path d="M40.066 165.612C27.1551 165.592 14.2487 165.567 1.34226 165.549C-0.447419 165.544 -0.447419 162.774 1.34226 162.779C14.2487 162.801 27.1573 162.821 40.066 162.842C41.8489 162.844 41.8489 165.614 40.066 165.612Z" fill="#211E23"/>
<path d="M43.6161 167.746C31.0545 170.71 18.4952 173.668 5.92694 176.627C4.19136 177.037 3.4498 174.366 5.19665 173.959C17.7537 170.999 30.3197 168.037 42.8835 165.078C44.6169 164.665 45.3562 167.341 43.6161 167.746Z" fill="#211E23"/>
<path d="M238.725 112.251C204.417 89.6992 176.221 111.687 163.84 132.96C152.784 151.952 137.939 189.389 120.651 195.31C103.368 201.232 94.701 186.576 94.701 186.576L68.9062 187.694C92.979 231.64 90.6686 290.129 90.6686 290.129C73.8989 290.129 78.1747 303.124 78.1747 303.124H106.379C111.982 173.061 212.824 198.957 229.718 227.11C246.609 255.262 244.358 291.865 244.358 291.865C227.547 288.743 230.845 303.124 230.845 303.124H258.434C278.7 249.068 286.018 143.34 238.725 112.251Z" fill="#211E23"/>
<path d="M230.696 298.681C231.223 294.752 233.898 289.922 244.355 291.865C244.355 291.865 245.371 275.208 240.857 255.731C240.733 271.394 233.657 284.54 233.657 284.54C219.018 284.54 222.394 298.681 222.394 298.681H230.696Z" fill="#211E23"/>
<path d="M225.784 144.197C240.343 120.588 248.313 90.5086 242.617 63.0932C236.004 31.2802 207.725 -5.7598 171.573 0.752007C141.859 6.10075 128.84 47.8358 159.807 62.0225C170.349 66.8506 181.856 64.4816 188.323 54.5032C194.095 45.5931 190.771 34.9092 182.07 29.6055C179.415 27.9871 176.6 31.9294 179.268 33.559C188.645 39.2729 187.994 50.0808 179.915 56.694C169.058 65.5748 154.33 54.8525 149.006 44.9191C142.672 33.1059 148.49 19.5053 158.178 11.7696C170.656 1.80463 188.124 3.29004 201.288 10.6178C227.565 25.2463 241.335 58.894 239.504 87.7903C238.341 106.163 231.507 125.698 221.826 141.395C220.199 144.039 224.141 146.856 225.784 144.197Z" fill="#211E23"/>
</svg>
