<svg width="198" height="169" viewBox="0 0 198 169" fill="none" xmlns="http://www.w3.org/2000/svg">
<path d="M136.698 3.85869C142.205 3.65834 147.788 4.05904 153.345 4.62838C158.487 5.15333 163.571 6.12967 168.64 7.17831C171.641 7.79963 174.663 8.35756 177.45 9.63063C184.624 12.9084 190.045 17.8232 192.344 25.7063C193.887 31.0002 194.733 36.3892 195.245 41.8556C195.577 45.4034 196.067 48.9386 196.307 52.4928C196.506 55.4384 196.393 58.4043 196.509 61.3574C196.643 64.7417 197.056 68.1235 197.024 71.504C196.979 76.4022 197.892 81.279 197.23 86.1912C196.946 88.3011 197.099 90.4517 196.896 92.5832C196.356 98.2474 195.712 103.891 193.285 109.12C191.245 113.515 188.212 117.161 184.384 120.132C181.509 122.363 178.494 124.381 175.066 125.669C171.62 126.964 168.075 127.943 164.453 128.615C159.915 129.457 155.384 130.368 150.82 131.039C148.541 131.374 146.234 131.603 143.937 131.849C139.215 132.357 134.493 132.862 129.768 133.348C128.831 133.444 127.884 133.432 126.944 133.502C123.262 133.775 119.575 133.963 115.912 134.469C114.858 134.615 113.779 134.584 112.712 134.64C107.775 134.901 102.833 135.301 97.9377 135.878C92.1366 136.562 86.3253 136.85 80.5128 137.143C77.9552 137.273 75.3761 137.257 72.8097 137.266C67.7402 137.284 63.6725 139.157 60.7535 143.341C58.2949 146.865 55.9149 150.445 53.4346 153.954C51.8509 156.196 50.1036 158.323 48.511 160.558C47.1695 162.44 45.9192 164.387 44.6855 166.343C44.4103 166.779 44.1263 167.175 43.7332 167.481C42.1723 168.697 40.5277 168.301 39.7669 166.478C39.2825 165.318 39.124 164.057 39.0466 162.818C38.7918 158.758 37.9904 154.794 36.9912 150.871C36.7909 150.082 36.6641 149.279 36.5132 148.492C36.148 146.58 35.1526 144.905 34.6556 143.031C34.1674 141.189 32.5152 139.998 31.1293 138.723C28.488 136.296 25.3459 134.56 22.4498 132.49C18.4379 129.62 15.472 125.913 13.0501 121.707C10.1464 116.668 8.75413 111.121 7.55207 105.49C6.66574 101.343 6.3107 97.1175 5.47636 92.9674C5.34195 92.2979 5.40661 91.5878 5.38252 90.8967C5.2329 86.7605 4.88039 82.6332 4.59509 78.5084C4.34656 74.9326 4.52154 71.329 4.09676 67.7951C3.46022 62.4885 4.01561 57.2237 4.38967 51.9894C4.85503 45.4643 6.03809 39.0013 9.50733 33.2129C11.3713 30.1025 13.8857 27.5614 16.565 25.2296C21.8057 20.6673 27.731 17.212 34.4109 15.1528C37.4528 14.2144 40.5594 13.564 43.6825 12.9325C47.721 12.1172 51.7951 11.5314 55.8565 10.8986C58.3165 10.5157 60.8296 10.3255 63.32 10.0541C66.5508 9.70163 69.7817 9.33392 73.0189 9.04989C75.4484 8.83687 77.8677 8.54141 80.2985 8.32966C84.1456 7.99491 87.9674 7.36852 91.8043 6.9095C94.0385 6.64196 96.2842 6.47966 98.5196 6.22986C101.686 5.87736 104.853 5.49821 108.021 5.2053C111.077 4.9238 114.133 4.43436 117.197 4.42168C123.67 4.39378 130.122 3.63552 136.698 3.85869ZM43.1639 161.03C44.6702 158.943 45.8609 156.98 47.3406 155.198C48.6949 153.569 49.9134 151.815 51.1484 150.083C53.3636 146.977 55.1401 143.569 57.5721 140.624C60.2831 137.341 63.4366 134.628 67.7669 133.716C69.7855 133.291 71.8435 132.982 73.8976 133.002C80.2465 133.065 86.5789 132.845 92.8999 132.259C93.5237 132.201 94.1767 132.291 94.774 132.142C97.0957 131.567 99.4884 131.489 101.837 131.317C104.647 131.111 107.46 130.884 110.269 130.654C111.397 130.561 112.54 130.628 113.648 130.441C116.869 129.893 120.15 130.075 123.375 129.583C126.29 129.138 129.246 129.264 132.183 128.923C136.215 128.456 140.275 128.177 144.312 127.692C146.606 127.415 148.926 127.298 151.199 126.899C156.164 126.025 161.113 125.05 166.055 124.051C168.312 123.595 170.501 122.866 172.681 122.124C177.536 120.469 181.487 117.474 185.077 113.901C188.098 110.894 189.874 107.193 191.041 103.2C192.572 97.9557 192.903 92.5008 193.284 87.094C193.697 81.1991 193.126 75.2902 192.916 69.3902C192.766 65.188 192.311 61.0011 192.319 56.7901C192.321 54.9667 192.444 53.1053 192.127 51.3314C191.673 48.7979 191.488 46.2353 191.269 43.698C190.881 39.2093 190.284 34.7738 189.325 30.3776C188.819 28.0572 188.245 25.7279 187.221 23.6091C185.011 19.0354 181.21 15.9681 176.769 13.763C173.462 12.121 169.793 11.4578 166.175 10.8352C163.408 10.3597 160.631 9.89564 157.871 9.39858C153.982 8.69738 150.066 8.29415 146.147 8.05577C140.625 7.72101 135.089 7.74258 129.55 7.95053C126.725 8.05704 123.91 8.34994 121.086 8.3753C117.821 8.40446 114.58 8.72528 111.338 9.04101C108.227 9.34406 105.125 9.71559 102.017 10.044C98.0391 10.4637 94.0487 10.7845 90.0849 11.3082C85.5594 11.9054 81.0174 12.3759 76.4818 12.8475C72.0666 13.3053 67.6375 13.6515 63.2236 14.1739C60.0638 14.5479 56.8976 14.8497 53.7466 15.3164C48.7519 16.0543 43.8017 16.9597 38.8945 18.1757C32.6889 19.7138 26.9829 22.2384 21.9046 26.1286C18.2083 28.96 14.7645 32.0425 12.4909 36.2079C10.9288 39.0711 9.95112 42.1079 9.40968 45.3426C8.6007 50.1686 8.1138 55.0111 8.08083 59.8967C8.04406 65.4226 8.21015 70.9346 8.62225 76.4568C8.99631 81.4514 8.96969 86.4816 9.45914 91.4775C9.92703 96.2553 10.6828 100.986 11.6984 105.683C12.9309 111.376 14.6541 116.836 17.8444 121.8C19.8073 124.855 22.1658 127.421 25.1316 129.495C28.507 131.854 32.1399 133.878 35.0144 136.906C35.3492 137.259 35.7308 137.29 36.2 137.294C37.9308 137.308 38.9706 138.187 39.0048 139.825C39.0606 142.474 40.0065 144.929 40.4884 147.483C41.0996 150.724 42.2166 153.857 42.4538 157.18C42.5489 158.41 42.8988 159.625 43.1639 161.03Z" fill="black"/>
<path d="M75.3573 127.093C73.9727 127.093 72.588 127.116 71.2047 127.085C70.1763 127.063 69.6945 126.339 69.3141 125.497C68.9755 124.747 69.29 124.148 69.7109 123.578C70.1268 123.016 70.7317 122.901 71.3948 122.943C75.7973 123.223 80.1758 122.665 84.5402 122.324C89.6388 121.926 94.7235 121.225 99.8057 120.603C102.55 120.269 105.319 120.33 108.032 119.883C110.817 119.424 113.653 119.678 116.422 119.073C117.517 118.833 118.672 118.944 119.802 118.856C123.302 118.586 126.823 118.554 130.314 118.211C132.98 117.948 135.655 117.739 138.317 117.389C140.544 117.096 142.781 116.835 145.006 116.513C148.331 116.031 151.661 115.559 154.986 115.109C157.588 114.757 160.162 114.303 162.737 113.823C170.211 112.43 176.479 109.041 180.901 102.678C182.563 100.285 183.631 97.5969 184.221 94.7693C185.013 90.9868 185.611 87.1651 186.311 83.3623C186.423 82.7537 186.475 82.1286 186.848 81.5795C187.329 80.8656 187.976 80.5486 188.785 80.768C189.57 80.981 190.01 81.5022 190.081 82.3948C190.257 84.6227 189.708 86.7606 189.288 88.8997C188.798 91.4002 188.42 93.9184 187.853 96.4113C186.718 101.414 184.235 105.538 180.643 109.129C175.967 113.803 170.275 116.395 163.898 117.728C159.981 118.546 156.044 119.172 152.064 119.604C147.85 120.062 143.672 120.852 139.459 121.319C133.922 121.931 128.383 122.476 122.8 122.618C118.991 122.716 115.193 123.27 111.39 123.614C106.842 124.026 102.268 124.259 97.7502 124.892C93.9817 125.421 90.2005 125.873 86.4244 126.26C82.7523 126.637 79.0675 127.106 75.3573 127.093Z" fill="black"/>
<path d="M147.057 11.9904C151.202 11.8433 155.337 11.9131 159.461 12.4887C165.121 13.2787 170.382 15.0679 175.194 18.1694C179.399 20.8791 182.65 24.3978 184.661 29.0273C186.365 32.9492 187.357 37.0246 187.86 41.2749C188.107 43.3633 188.179 45.4986 188.765 47.5477C188.832 47.7835 188.816 48.0485 188.807 48.2983C188.768 49.4205 187.884 50.4793 186.924 50.5693C185.964 50.6593 184.913 49.773 184.75 48.6166C184.471 46.6398 184.294 44.649 184.014 42.6735C183.409 38.413 182.567 34.2375 180.745 30.2686C178.81 26.0525 175.803 22.9624 171.826 20.7219C166.735 17.8524 161.279 16.3802 155.437 15.8591C150.093 15.3823 144.769 15.5434 139.434 15.5167C138.62 15.5129 137.799 15.4584 136.994 15.3456C136.203 15.2352 135.764 14.6621 135.734 13.9089C135.706 13.2369 136.129 12.6967 136.739 12.438C137.433 12.1439 138.185 11.998 138.946 11.9955C141.65 11.9854 144.354 11.9904 147.057 11.9904Z" fill="black"/>
<path d="M14.7711 46.8565C15.163 46.0045 15.2378 44.9343 15.6866 43.9452C17.6292 39.6556 20.3732 35.9416 24.0605 33.0658C29.5509 28.785 35.4801 25.1915 42.1029 22.8837C44.7619 21.9581 47.5388 21.4725 50.303 21.0325C54.9845 20.2869 59.6926 19.7315 64.4121 19.2459C66.4434 19.0366 68.5179 18.9846 70.5289 18.4812C71.6536 18.1997 72.8658 19.0252 73.1105 20.1068C73.3718 21.2569 72.6338 22.2612 71.2618 22.4425C69.2216 22.7126 67.1662 22.8787 65.1209 23.1158C58.6744 23.8626 52.2 24.47 45.8701 25.9485C42.1498 26.8171 38.7554 28.5758 35.4066 30.3966C30.5894 33.0151 26.088 36.0367 22.5567 40.3086C20.7891 42.4464 19.4082 44.8113 18.6652 47.507C18.4762 48.1943 18.2518 48.7877 17.4986 49.0553C16.048 49.5713 14.6672 48.543 14.7711 46.8565Z" fill="black"/>
<path d="M40.1307 131.663C40.1092 133.214 38.3543 134.274 37.1953 133.239C34.9712 131.253 32.1246 130.269 29.8891 128.339C24.2909 123.507 20.0165 117.818 18.0143 110.57C17.1039 107.273 16.059 104.014 15.4669 100.639C15.1549 98.8636 14.8988 97.0782 14.6249 95.298C14.2369 92.7785 13.8311 90.2615 13.4774 87.7369C13.2758 86.3002 14.015 85.2491 15.198 85.0614C16.1529 84.9092 17.3904 85.9427 17.5489 87.236C18.1525 92.1736 18.7079 97.1328 19.825 101.982C20.9687 106.946 22.2431 111.891 24.878 116.356C27.5243 120.839 31.01 124.481 35.4214 127.243C36.5322 127.939 37.6556 128.618 38.7296 129.37C39.5069 129.916 40.1662 130.593 40.1307 131.663Z" fill="black"/>
<path d="M60.3888 127.584C60.4129 128.119 60.0781 128.587 59.7903 129.069C57.6182 132.701 55.4487 136.334 53.2677 139.961C52.7009 140.903 51.5712 141.468 50.7875 141.254C49.3902 140.871 48.8145 139.398 49.7085 138.121C52.1088 134.695 53.9157 130.908 56.2628 127.453C56.6825 126.836 57.0312 126.166 57.778 125.84C59.0803 125.271 60.4167 126.117 60.3888 127.584Z" fill="black"/>
<path d="M185.78 59.6761C185.78 59.2704 185.766 59.018 185.782 58.7682C185.853 57.7107 186.389 57.0501 187.279 56.9043C188.142 56.7635 188.996 57.239 189.372 58.152C189.536 58.5463 189.547 59.0015 189.647 59.4238C190.252 61.9737 190.671 64.5579 191.043 67.1497C191.114 67.643 191.113 68.1565 191.067 68.6536C190.967 69.7212 190.278 70.4224 189.301 70.5188C188.197 70.6291 187.375 70.0547 187.085 68.9528C187.038 68.774 187.048 68.5787 187.044 68.3911C186.996 66.0706 186.622 63.8073 185.97 61.5768C185.779 60.9276 185.827 60.2099 185.78 59.6761Z" fill="black"/>
<path d="M110.97 17.5899C109.594 17.5899 108.216 17.6406 106.844 17.5734C105.85 17.524 105.137 16.8621 104.978 16.0265C104.818 15.1896 105.201 14.586 105.836 14.089C106.213 13.7948 106.655 13.7859 107.085 13.7783C109.649 13.7288 112.213 13.668 114.777 13.6781C116.09 13.6832 116.865 14.4351 116.897 15.5484C116.93 16.7061 116.059 17.5531 114.723 17.5912C113.473 17.6267 112.222 17.5988 110.97 17.5988C110.97 17.595 110.97 17.5924 110.97 17.5899Z" fill="black"/>
<path d="M89.3189 19.4094C88.0547 19.4919 87.1785 19.5857 86.3023 19.5984C84.9633 19.6187 84.1163 18.9403 84.0554 17.8676C83.9945 16.7796 84.5296 16.2432 85.8876 15.9224C88.2271 15.3696 90.6198 15.3747 92.9961 15.2339C94.2121 15.1616 94.983 15.8552 95.1073 16.9051C95.2265 17.9043 94.7281 18.5421 93.6009 18.9669C92.0818 19.54 90.4766 19.1926 89.3189 19.4094Z" fill="black"/>
<path d="M16.2459 76.7167C16.2776 77.8998 15.4534 78.9408 14.4415 79.0499C13.507 79.1501 12.4609 78.4235 12.2923 77.333C12.1503 76.4112 11.8193 75.5375 11.7889 74.5776C11.761 73.7243 11.7344 72.8531 11.4858 71.9833C11.165 70.8599 12.2276 69.5006 13.3232 69.3497C14.2957 69.2165 15.4559 70.0864 15.5574 71.1984C15.7273 73.0649 15.8566 74.9327 16.2459 76.7167Z" fill="black"/>
<path d="M47.5651 145.721C47.3115 146.584 46.8905 147.469 46.0841 148.133C45.5439 148.578 44.9213 148.677 44.3279 148.396C43.6736 148.084 43.2323 147.48 43.3046 146.738C43.3896 145.879 43.5734 145.029 44.0857 144.267C44.6107 143.486 45.2624 143.161 46.1551 143.42C47.0262 143.673 47.6767 144.712 47.5651 145.721Z" fill="black"/>
<path d="M132.891 0.0521929C138.398 -0.148151 143.981 0.253817 149.539 0.821881C154.681 1.34683 159.764 2.32318 164.833 3.37181C167.835 3.99313 170.856 4.55106 173.643 5.82413C180.818 9.10191 186.239 14.0167 188.537 21.8998C190.081 27.1937 190.926 32.5827 191.439 38.0491C191.771 41.597 192.26 45.1321 192.5 48.6863C192.699 51.6319 192.586 54.5978 192.703 57.5509C192.836 60.9352 193.249 64.317 193.218 67.6975C193.172 72.5957 194.085 77.4725 193.423 82.3847C193.139 84.4947 193.292 86.6452 193.09 88.7767C192.549 94.4408 191.905 100.085 189.478 105.314C187.438 109.709 184.405 113.354 180.577 116.325C177.702 118.557 174.687 120.574 171.26 121.863C167.813 123.157 164.268 124.136 160.646 124.808C156.108 125.65 151.578 126.562 147.013 127.233C144.734 127.567 142.428 127.797 140.13 128.043C135.408 128.55 130.686 129.056 125.962 129.542C125.025 129.638 124.077 129.625 123.138 129.695C119.456 129.969 115.768 130.157 112.105 130.663C111.051 130.808 109.972 130.778 108.906 130.834C103.968 131.095 99.0267 131.494 94.131 132.071C88.3299 132.756 82.5187 133.044 76.7061 133.337C74.1486 133.466 71.5695 133.451 69.0031 133.46C63.9336 133.478 59.8658 135.35 56.9469 139.535C54.4882 143.058 52.1082 146.638 49.628 150.148C48.0443 152.39 46.297 154.516 44.7043 156.752C43.3628 158.633 42.1126 160.581 40.8788 162.536C40.6037 162.972 40.3196 163.368 39.9265 163.675C38.3644 164.891 36.721 164.494 35.9602 162.672C35.4759 161.512 35.3174 160.25 35.24 159.011C34.9851 154.951 34.1838 150.987 33.1846 147.064C32.9842 146.275 32.8574 145.473 32.7065 144.685C32.3414 142.773 31.346 141.098 30.8489 139.224C30.3607 137.383 28.7085 136.191 27.3226 134.917C24.6814 132.49 21.5393 130.754 18.6432 128.683C14.6312 125.814 11.6654 122.106 9.24347 117.9C6.33975 112.861 4.94749 107.315 3.74543 101.684C2.8591 97.5361 2.50406 93.3111 1.66972 89.1609C1.53531 88.4914 1.59997 87.7813 1.57588 87.0903C1.42626 82.954 1.07375 78.8267 0.788451 74.7019C0.539923 71.1261 0.7149 67.5225 0.29012 63.9886C-0.346416 58.682 0.208972 53.4172 0.583032 48.1829C1.04839 41.6591 2.23145 35.1948 5.70069 29.4064C7.56465 26.296 10.0791 23.7549 12.7584 21.4231C17.999 16.8608 23.9244 13.4055 30.6042 11.3463C33.6461 10.4079 36.7527 9.75747 39.8758 9.12601C43.9144 8.31068 47.9885 7.72486 52.0499 7.09213C54.5098 6.7092 57.023 6.51899 59.5133 6.24764C62.7442 5.89514 65.9751 5.52743 69.2123 5.2434C71.6417 5.03037 74.0611 4.73492 76.4918 4.52316C80.339 4.18841 84.1607 3.56202 87.9977 3.10301C90.2319 2.83546 92.4775 2.67314 94.713 2.42335C97.8792 2.07084 101.047 1.69171 104.214 1.3988C107.27 1.11731 110.326 0.627865 113.391 0.615185C119.864 0.588557 126.315 -0.170975 132.891 0.0521929ZM39.3572 157.223C40.8636 155.136 42.0542 153.173 43.534 151.392C44.8882 149.762 46.1068 148.009 47.3418 146.277C49.557 143.17 51.3335 139.763 53.7655 136.817C56.4765 133.535 59.63 130.821 63.9602 129.909C65.9789 129.485 68.0368 129.175 70.091 129.195C76.4399 129.259 82.7723 129.038 89.0932 128.452C89.7171 128.394 90.3701 128.484 90.9673 128.336C93.2891 127.76 95.6818 127.683 98.0301 127.51C100.84 127.305 103.654 127.078 106.462 126.847C107.591 126.755 108.733 126.822 109.842 126.634C113.062 126.086 116.344 126.269 119.568 125.777C122.483 125.332 125.439 125.457 128.376 125.116C132.408 124.65 136.468 124.371 140.506 123.885C142.799 123.609 145.12 123.492 147.392 123.093C152.358 122.219 157.307 121.244 162.248 120.245C164.504 119.788 166.695 119.059 168.875 118.317C173.73 116.663 177.681 113.668 181.271 110.094C184.291 107.088 186.067 103.387 187.234 99.3937C188.766 94.1492 189.097 88.6943 189.477 83.2875C189.89 77.3926 189.32 71.4837 189.109 65.5837C188.96 61.3815 188.504 57.1946 188.512 52.9836C188.515 51.1602 188.638 49.2988 188.321 47.5248C187.867 44.9914 187.682 42.4288 187.462 39.8915C187.074 35.4028 186.477 30.9673 185.518 26.5711C185.012 24.2507 184.438 21.9214 183.415 19.8026C181.205 15.2289 177.403 12.1616 172.963 9.95655C169.656 8.31449 165.986 7.65132 162.368 7.02873C159.602 6.55323 156.825 6.08915 154.064 5.59209C150.175 4.89089 146.26 4.48765 142.34 4.24927C136.818 3.91452 131.282 3.93608 125.744 4.14404C122.918 4.25055 120.103 4.54344 117.28 4.5688C114.015 4.59797 110.773 4.91878 107.531 5.23452C104.421 5.53757 101.318 5.90909 98.2102 6.2375C94.2325 6.65721 90.242 6.97801 86.2783 7.50169C81.7528 8.09892 77.2108 8.56935 72.6752 9.04105C68.26 9.4988 63.8309 9.84497 59.417 10.3674C56.2571 10.7414 53.0909 11.0432 49.94 11.5098C44.9453 12.2478 39.995 13.1532 35.0879 14.3692C28.8823 15.9073 23.1763 18.4319 18.0979 22.3221C14.4017 25.1535 10.9578 28.236 8.68555 32.4014C7.12337 35.2646 6.14576 38.3014 5.60432 41.5361C4.79534 46.3621 4.30842 51.2046 4.27545 56.0902C4.23868 61.6161 4.40479 67.1281 4.81689 72.6503C5.19095 77.6449 5.16433 82.6751 5.65377 87.671C6.12167 92.4488 6.87738 97.1797 7.89305 101.876C9.12555 107.57 10.8488 113.03 14.039 117.994C16.0019 121.049 18.3604 123.615 21.3263 125.688C24.7017 128.048 28.3345 130.072 31.209 133.1C31.5438 133.452 31.9255 133.484 32.3946 133.488C34.1254 133.502 35.1652 134.38 35.1994 136.019C35.2552 138.667 36.2012 141.122 36.683 143.676C37.2942 146.917 38.4113 150.05 38.6484 153.374C38.7435 154.604 39.0922 155.818 39.3572 157.223Z" fill="#C7B299"/>
<path d="M71.5507 123.288C70.1661 123.288 68.7814 123.311 67.398 123.28C66.3697 123.257 65.8878 122.533 65.5074 121.691C65.1689 120.942 65.4834 120.342 65.9043 119.773C66.3202 119.211 66.9251 119.096 67.5882 119.138C71.9907 119.418 76.3691 118.86 80.7336 118.519C85.8322 118.121 90.9169 117.42 95.999 116.798C98.743 116.463 101.512 116.524 104.226 116.078C107.01 115.619 109.847 115.873 112.615 115.268C113.71 115.028 114.866 115.138 115.995 115.051C119.495 114.781 123.016 114.749 126.507 114.405C129.174 114.143 131.848 113.934 134.511 113.584C136.737 113.291 138.974 113.03 141.199 112.708C144.524 112.226 147.854 111.754 151.18 111.304C153.782 110.951 156.356 110.498 158.93 110.018C166.405 108.625 172.672 105.235 177.094 98.8725C178.756 96.4798 179.824 93.7916 180.415 90.964C181.206 87.1815 181.805 83.3598 182.505 79.557C182.616 78.9484 182.668 78.3233 183.041 77.7742C183.523 77.0603 184.169 76.7433 184.978 76.9627C185.763 77.1757 186.203 77.6969 186.274 78.5895C186.451 80.8174 185.901 82.9553 185.482 85.0944C184.991 87.5949 184.613 90.1131 184.046 92.606C182.912 97.6083 180.429 101.733 176.837 105.324C172.16 109.998 166.468 112.59 160.091 113.922C156.175 114.74 152.237 115.367 148.257 115.799C144.044 116.257 139.865 117.047 135.652 117.513C130.116 118.126 124.576 118.671 118.993 118.813C115.184 118.911 111.386 119.465 107.583 119.808C103.035 120.221 98.4615 120.454 93.9436 121.087C90.1751 121.615 86.3939 122.068 82.6178 122.455C78.947 122.831 75.2609 123.299 71.5507 123.288Z" fill="#C7B299"/>
<path d="M143.25 8.18391C147.395 8.03682 151.53 8.10655 155.654 8.68222C161.314 9.47219 166.575 11.2613 171.387 14.3629C175.592 17.0726 178.843 20.5913 180.854 25.2207C182.558 29.1427 183.55 33.218 184.053 37.4684C184.301 39.5567 184.373 41.6921 184.959 43.7412C185.026 43.977 185.009 44.242 185 44.4918C184.961 45.614 184.077 46.6728 183.118 46.7628C182.158 46.8528 181.106 45.9665 180.943 44.8101C180.664 42.8333 180.488 40.8425 180.207 38.867C179.603 34.6078 178.761 30.431 176.939 26.4621C175.004 22.246 171.996 19.1559 168.019 16.9153C162.928 14.0459 157.472 12.5737 151.631 12.0526C146.286 11.5758 140.963 11.7368 135.627 11.7102C134.813 11.7064 133.993 11.6519 133.187 11.539C132.396 11.4287 131.958 10.8556 131.927 10.1024C131.899 9.43036 132.323 8.89018 132.933 8.63151C133.626 8.33733 134.378 8.19152 135.139 8.18898C137.844 8.1801 140.547 8.18391 143.25 8.18391Z" fill="#C7B299"/>
<path d="M10.9645 43.05C11.3563 42.1979 11.4311 41.1277 11.88 40.1387C13.8226 35.8491 16.5665 32.1351 20.2539 29.2593C25.7443 24.9785 31.6735 21.385 38.2963 19.0772C40.9553 18.1516 43.7322 17.6659 46.4964 17.2259C51.1779 16.4804 55.8859 15.925 60.6054 15.4393C62.6368 15.2301 64.7112 15.1781 66.7223 14.6747C67.847 14.3932 69.0592 15.2187 69.3039 16.3003C69.5652 17.4504 68.8272 18.4546 67.4552 18.636C65.415 18.906 63.3595 19.0721 61.3142 19.3093C54.8677 20.0561 48.3933 20.6635 42.0635 22.142C38.3432 23.0106 34.9487 24.7693 31.5999 26.5901C26.7828 29.2085 22.2814 32.2302 18.75 36.5021C16.9825 38.6399 15.6016 41.0047 14.8586 43.7005C14.6696 44.3878 14.4452 44.9812 13.692 45.2487C12.2414 45.7648 10.8605 44.7365 10.9645 43.05Z" fill="#C7B299"/>
<path d="M36.3241 127.856C36.3025 129.407 34.5476 130.467 33.3887 129.433C31.1646 127.447 28.3179 126.463 26.0825 124.533C20.4842 119.701 16.2098 114.011 14.2076 106.763C13.2972 103.466 12.2524 100.208 11.6602 96.8323C11.3483 95.0571 11.0922 93.2717 10.8183 91.4914C10.4303 88.9719 10.0245 86.455 9.67074 83.9304C9.46912 82.4937 10.2084 81.4426 11.3914 81.2549C12.3462 81.1027 13.5838 82.1361 13.7423 83.4295C14.3459 88.3671 14.9012 93.3262 16.0183 98.1751C17.1621 103.139 18.4364 108.085 21.0713 112.549C23.7176 117.033 27.2034 120.674 31.6147 123.436C32.7255 124.132 33.849 124.812 34.9229 125.564C35.7002 126.109 36.3596 126.786 36.3241 127.856Z" fill="#C7B299"/>
<path d="M56.5832 123.779C56.6072 124.314 56.2725 124.782 55.9847 125.263C53.8126 128.896 51.643 132.529 49.4621 136.156C48.8953 137.098 47.7655 137.663 46.9819 137.449C45.5845 137.066 45.0088 135.593 45.9028 134.316C48.3031 130.89 50.11 127.103 52.4571 123.648C52.8768 123.03 53.2255 122.361 53.9724 122.035C55.2746 121.466 56.6098 122.31 56.5832 123.779Z" fill="#C7B299"/>
<path d="M181.973 55.8696C181.973 55.4638 181.959 55.2115 181.976 54.9617C182.047 53.9042 182.582 53.2436 183.472 53.0977C184.336 52.957 185.189 53.4325 185.566 54.3455C185.728 54.7398 185.74 55.195 185.841 55.6173C186.445 58.1672 186.864 60.7514 187.237 63.3432C187.308 63.8364 187.306 64.35 187.261 64.847C187.161 65.9147 186.471 66.6159 185.495 66.7123C184.391 66.8226 183.568 66.2482 183.278 65.1463C183.231 64.9675 183.241 64.7722 183.237 64.5846C183.189 62.2641 182.815 60.0007 182.163 57.7703C181.972 57.1224 182.021 56.4034 181.973 55.8696Z" fill="#C7B299"/>
<path d="M107.164 13.7833C105.788 13.7833 104.41 13.834 103.037 13.7656C102.042 13.7161 101.33 13.0542 101.17 12.2186C101.01 11.3817 101.393 10.7782 102.028 10.2811C102.405 9.98692 102.848 9.97805 103.277 9.97044C105.841 9.92099 108.405 9.86012 110.969 9.87026C112.283 9.87533 113.058 10.6273 113.089 11.7406C113.122 12.8983 112.251 13.7453 110.916 13.7833C109.666 13.8188 108.414 13.7909 107.163 13.7909C107.163 13.7909 107.164 13.7859 107.164 13.7833Z" fill="#C7B299"/>
<path d="M85.5122 15.6029C84.248 15.6853 83.3719 15.7792 82.4957 15.7919C81.1567 15.8121 80.3096 15.1338 80.2488 14.061C80.1879 12.9731 80.723 12.4367 82.081 12.1159C84.4205 11.5631 86.8132 11.5681 89.1894 11.4274C90.4054 11.3551 91.1764 12.0487 91.3007 13.0986C91.4199 14.0978 90.9215 14.7356 89.7943 15.1604C88.2752 15.7335 86.6699 15.3861 85.5122 15.6029Z" fill="#C7B299"/>
<path d="M12.4393 72.9114C12.471 74.0945 11.6468 75.1355 10.6349 75.2446C9.70038 75.3447 8.65429 74.6182 8.48565 73.5277C8.34363 72.6058 8.01268 71.7322 7.98225 70.7723C7.95435 69.919 7.92772 69.0478 7.6792 68.178C7.35839 67.0546 8.42096 65.6953 9.51652 65.5444C10.4891 65.4112 11.6493 66.2811 11.7507 67.3931C11.9207 69.2583 12.05 71.1261 12.4393 72.9114Z" fill="#C7B299"/>
<path d="M43.7582 141.915C43.5046 142.777 43.0836 143.662 42.2771 144.326C41.7382 144.772 41.1144 144.87 40.5222 144.589C39.8679 144.277 39.4267 143.673 39.4989 142.932C39.5826 142.072 39.7678 141.222 40.28 140.46C40.805 139.679 41.4567 139.355 42.3494 139.613C43.2205 139.867 43.8697 140.907 43.7582 141.915Z" fill="#C7B299"/>
</svg>
